<?xml version="1.0" encoding="utf-8"?>
<!-- Generator: Adobe Illustrator 15.1.0, SVG Export Plug-In  -->
<!DOCTYPE svg PUBLIC "-//W3C//DTD SVG 1.1//EN" "http://www.w3.org/Graphics/SVG/1.1/DTD/svg11.dtd" [
	<!ENTITY ns_flows "http://ns.adobe.com/Flows/1.0/">
]>
<svg version="1.1"
	 xmlns="http://www.w3.org/2000/svg" xmlns:xlink="http://www.w3.org/1999/xlink" xmlns:a="http://ns.adobe.com/AdobeSVGViewerExtensions/3.0/"
	 x="0px" y="0px" width="17em" height="22.7em" viewBox="-4.269 -4.269 170 227"
	 overflow="visible" enable-background="new -4.269 -4.269 170 227" xml:space="preserve">
<defs>
</defs>
<circle fill="#41A648" cx="24.078" cy="80.771" r="24.078"/>
<path fill="#FFFFFF" d="M34.851,71.688c0-0.039-0.004-0.076-0.006-0.114c0.008-0.148,0.005-0.298-0.015-0.45
	c-0.175-1.378-1.434-2.354-2.812-2.18l-14.093,1.784c-1.24,0.157-2.151,1.193-2.195,2.403c-0.001,0.031-0.005,0.062-0.005,0.093
	v8.097c-0.294-0.058-0.598-0.089-0.909-0.089c-2.586,0-4.683,2.097-4.683,4.683s2.097,4.683,4.683,4.683s4.683-2.097,4.683-4.683
	V75.601l11.578-1.466v10.588c-0.295-0.059-0.599-0.089-0.909-0.089c-2.586,0-4.683,2.096-4.683,4.682
	c0,2.587,2.097,4.683,4.683,4.683s4.683-2.096,4.683-4.683c0-0.039-0.003-0.078-0.004-0.118c0.001-0.02,0.004-0.039,0.004-0.06
	V71.688z"/>
<circle fill="#41A648" cx="24.08" cy="137.464" r="24.078"/>
<path fill="#FFFFFF" d="M36.621,128.134h-6.447v-0.326c0-1.268-1.027-2.295-2.295-2.295H20.81c-1.266,0-2.293,1.027-2.293,2.295
	v0.326h-6.449c-1.266,0-2.293,1.027-2.293,2.295v15.302c0,1.268,1.027,2.295,2.293,2.295h24.553c1.268,0,2.295-1.027,2.295-2.295
	v-15.302C38.916,129.161,37.888,128.134,36.621,128.134z M24.345,143.908c-3.219,0-5.828-2.61-5.828-5.829s2.609-5.828,5.828-5.828
	s5.828,2.609,5.828,5.828S27.564,143.908,24.345,143.908z"/>
<circle fill="#41A648" cx="24.08" cy="194.158" r="24.079"/>
<path fill="#FFFFFF" d="M31.807,184.604H16.353c-1.523,0-2.759,1.235-2.759,2.759s1.235,2.759,2.759,2.759h4.969v12.695
	c0,1.523,1.234,2.759,2.758,2.759s2.759-1.235,2.759-2.759v-12.695h4.969c1.523,0,2.759-1.235,2.759-2.759
	S33.33,184.604,31.807,184.604z"/>
<circle fill="#41A648" cx="24.078" cy="24.078" r="24.078"/>
<path fill="#FFFFFF" d="M40.146,16.016c-0.079-0.033-0.162-0.049-0.245-0.049c-0.167,0-0.331,0.065-0.454,0.188l-6.221,6.221v-3.528
	v-2.432c0-1.068-0.866-1.933-1.934-1.933h-1.136H10.605c-1.067,0-1.934,0.865-1.934,1.933v2.432v10.46v2.432
	c0,1.068,0.866,1.934,1.934,1.934h19.551h1.136c1.067,0,1.934-0.865,1.934-1.934v-2.432V25.78l6.221,6.221
	c0.123,0.123,0.287,0.188,0.454,0.188c0.083,0,0.166-0.017,0.245-0.049c0.239-0.1,0.396-0.334,0.396-0.593V16.609
	C40.541,16.349,40.385,16.116,40.146,16.016z"/>
<path fill="#FFFFFF" d="M80.772,170.08c-13.299,0-24.078,10.78-24.078,24.079c0,13.297,10.779,24.078,24.078,24.078
	c13.299,0,24.079-10.781,24.079-24.078C104.851,180.86,94.071,170.08,80.772,170.08z M88.499,190.122H83.53v12.695
	c0,1.523-1.234,2.759-2.758,2.759c-1.523,0-2.758-1.235-2.758-2.759v-12.695h-4.969c-1.523,0-2.76-1.235-2.76-2.759
	s1.236-2.759,2.76-2.759h15.454c1.523,0,2.76,1.235,2.76,2.759S90.022,190.122,88.499,190.122z"/>
<circle fill="#FFFFFF" cx="81.037" cy="138.08" r="5.829"/>
<path fill="#FFFFFF" d="M80.771,113.386c-13.297,0-24.077,10.78-24.077,24.078s10.78,24.079,24.077,24.079
	c13.298,0,24.078-10.781,24.078-24.079S94.069,113.386,80.771,113.386z M95.608,145.73c0,1.268-1.027,2.295-2.295,2.295H68.761
	c-1.268,0-2.295-1.027-2.295-2.295v-15.302c0-1.268,1.027-2.295,2.295-2.295h6.447v-0.326c0-1.268,1.027-2.295,2.295-2.295h7.068
	c1.268,0,2.295,1.027,2.295,2.295v0.326h6.447c1.268,0,2.295,1.027,2.295,2.295V145.73z"/>
<path fill="#FFFFFF" d="M80.771,56.692c-13.298,0-24.078,10.78-24.078,24.079c0,13.297,10.78,24.079,24.078,24.079
	c13.298,0,24.078-10.781,24.078-24.079C104.849,67.473,94.069,56.692,80.771,56.692z M91.544,89.139c0,0.021-0.004,0.04-0.004,0.06
	c0,0.04,0.004,0.079,0.004,0.118c0,2.587-2.098,4.683-4.684,4.683s-4.682-2.096-4.682-4.683c0-2.586,2.096-4.682,4.682-4.682
	c0.311,0,0.615,0.03,0.91,0.089V74.135l-11.579,1.466v10.314c0,2.586-2.097,4.683-4.683,4.683s-4.683-2.097-4.683-4.683
	s2.097-4.683,4.683-4.683c0.312,0,0.615,0.031,0.909,0.089v-8.097c0-0.031,0.004-0.062,0.005-0.093
	c0.044-1.21,0.955-2.246,2.195-2.403l14.093-1.784c1.377-0.175,2.637,0.801,2.811,2.18c0.02,0.152,0.023,0.302,0.016,0.45
	c0.002,0.038,0.006,0.075,0.006,0.114V89.139z"/>
<path fill="#FFFFFF" d="M80.771,0C67.474,0,56.693,10.78,56.693,24.078s10.781,24.078,24.078,24.078
	c13.298,0,24.078-10.78,24.078-24.078S94.069,0,80.771,0z M97.233,31.548c0,0.259-0.156,0.493-0.395,0.593
	c-0.08,0.032-0.162,0.049-0.246,0.049c-0.166,0-0.33-0.065-0.453-0.188l-6.221-6.221v3.528v2.432c0,1.068-0.867,1.934-1.934,1.934
	h-1.137h-19.55c-1.066,0-1.934-0.865-1.934-1.934v-2.432v-10.46v-2.432c0-1.068,0.867-1.933,1.934-1.933h19.55h1.137
	c1.066,0,1.934,0.865,1.934,1.933v2.432v3.528l6.221-6.221c0.123-0.123,0.287-0.188,0.453-0.188c0.084,0,0.166,0.016,0.246,0.049
	c0.238,0.1,0.395,0.333,0.395,0.593V31.548z"/>
<path d="M137.433,170.08c-13.299,0-24.078,10.78-24.078,24.079c0,13.297,10.779,24.078,24.078,24.078s24.078-10.781,24.078-24.078
	C161.511,180.86,150.731,170.08,137.433,170.08z M145.159,190.122h-4.969v12.695c0,1.523-1.234,2.759-2.758,2.759
	s-2.758-1.235-2.758-2.759v-12.695h-4.969c-1.523,0-2.76-1.235-2.76-2.759s1.236-2.759,2.76-2.759h15.453
	c1.523,0,2.76,1.235,2.76,2.759S146.683,190.122,145.159,190.122z"/>
<circle cx="137.698" cy="138.08" r="5.829"/>
<path d="M137.433,113.386c-13.297,0-24.078,10.78-24.078,24.078s10.781,24.079,24.078,24.079c13.299,0,24.078-10.781,24.078-24.079
	S150.731,113.386,137.433,113.386z M152.271,145.73c0,1.268-1.027,2.295-2.295,2.295h-24.553c-1.268,0-2.295-1.027-2.295-2.295
	v-15.302c0-1.268,1.027-2.295,2.295-2.295h6.447v-0.326c0-1.268,1.027-2.295,2.295-2.295h7.068c1.268,0,2.295,1.027,2.295,2.295
	v0.326h6.447c1.268,0,2.295,1.027,2.295,2.295V145.73z"/>
<path d="M137.433,56.692c-13.299,0-24.078,10.78-24.078,24.079c0,13.297,10.779,24.079,24.078,24.079
	c13.297,0,24.078-10.781,24.078-24.079C161.511,67.473,150.729,56.692,137.433,56.692z M148.204,89.139
	c0,0.021-0.002,0.04-0.004,0.06c0.002,0.04,0.004,0.079,0.004,0.118c0,2.587-2.096,4.683-4.682,4.683s-4.684-2.096-4.684-4.683
	c0-2.586,2.098-4.682,4.684-4.682c0.311,0,0.613,0.03,0.908,0.089V74.135l-11.578,1.466v10.314c0,2.586-2.096,4.683-4.682,4.683
	s-4.684-2.097-4.684-4.683s2.098-4.683,4.684-4.683c0.311,0,0.615,0.031,0.908,0.089v-8.097c0-0.031,0.004-0.062,0.006-0.093
	c0.043-1.21,0.955-2.246,2.195-2.403l14.092-1.784c1.379-0.175,2.637,0.801,2.812,2.18c0.02,0.152,0.021,0.302,0.014,0.45
	c0.002,0.038,0.006,0.075,0.006,0.114V89.139z"/>
<path d="M137.433,0c-13.297,0-24.078,10.78-24.078,24.078s10.781,24.078,24.078,24.078c13.299,0,24.078-10.78,24.078-24.078
	S150.731,0,137.433,0z M153.896,31.548c0,0.259-0.156,0.493-0.395,0.593c-0.08,0.032-0.162,0.049-0.246,0.049
	c-0.166,0-0.33-0.065-0.453-0.188l-6.221-6.221v3.528v2.432c0,1.068-0.867,1.934-1.934,1.934h-1.137H123.96
	c-1.066,0-1.934-0.865-1.934-1.934v-2.432v-10.46v-2.432c0-1.068,0.867-1.933,1.934-1.933h19.551h1.137
	c1.066,0,1.934,0.865,1.934,1.933v2.432v3.528l6.221-6.221c0.123-0.123,0.287-0.188,0.453-0.188c0.084,0,0.166,0.016,0.246,0.049
	c0.238,0.1,0.395,0.333,0.395,0.593V31.548z"/>
</svg>
