<?xml version="1.0" encoding="utf-8"?>
<!-- Generator: Adobe Illustrator 15.1.0, SVG Export Plug-In . SVG Version: 6.00 Build 0)  -->
<!DOCTYPE svg PUBLIC "-//W3C//DTD SVG 1.1//EN" "http://www.w3.org/Graphics/SVG/1.1/DTD/svg11.dtd">
<svg version="1.1" id="Layer_1" xmlns="http://www.w3.org/2000/svg" xmlns:xlink="http://www.w3.org/1999/xlink" x="0px" y="0px"
	 width="8.5em" height="42.5em" viewBox="0 0 85 425" enable-background="new 0 0 85 425" xml:space="preserve">
<linearGradient id="SVGID_1_" gradientUnits="userSpaceOnUse" x1="89.999" y1="477.3057" x2="89.999" y2="500.4639" gradientTransform="matrix(1.2353 0 0 1.2353 -89.9145 -582.6577)">
	<stop  offset="0" style="stop-color:#F3F3F3"/>
	<stop  offset="1" style="stop-color:#BDBDBD"/>
</linearGradient>
<path fill="url(#SVGID_1_)" d="M21.261,6.957c-7.901,0-14.305,6.404-14.305,14.305c0,7.899,6.404,14.302,14.305,14.302
	c7.9,0,14.302-6.404,14.302-14.302S29.161,6.957,21.261,6.957z M21.261,11.391c1.759,0,3.41,0.466,4.84,1.273L12.665,26.101
	c-0.808-1.431-1.273-3.078-1.273-4.84C11.391,15.809,15.809,11.391,21.261,11.391z M21.261,31.129c-1.633,0-3.169-0.403-4.526-1.106
	l13.289-13.288c0.702,1.356,1.106,2.894,1.106,4.526C31.13,26.711,26.712,31.129,21.261,31.129z"/>
<linearGradient id="SVGID_2_" gradientUnits="userSpaceOnUse" x1="124.4199" y1="477.3057" x2="124.4199" y2="500.4619" gradientTransform="matrix(1.2353 0 0 1.2353 -89.9145 -582.6577)">
	<stop  offset="0" style="stop-color:#A4DEF9"/>
	<stop  offset="0.2126" style="stop-color:#98CEEB"/>
	<stop  offset="0.5574" style="stop-color:#7BB3D9"/>
	<stop  offset="0.9894" style="stop-color:#528EBB"/>
	<stop  offset="1" style="stop-color:#508DBB"/>
</linearGradient>
<path fill="url(#SVGID_2_)" d="M63.779,6.958c-7.898,0-14.303,6.404-14.303,14.302c0,7.898,6.403,14.302,14.303,14.302
	c7.898,0,14.303-6.404,14.303-14.302C78.082,13.362,71.68,6.958,63.779,6.958z M63.779,11.392c1.762,0,3.41,0.466,4.842,1.273
	L55.186,26.1c-0.809-1.431-1.272-3.079-1.272-4.84C53.912,15.807,58.329,11.392,63.779,11.392z M63.779,31.127
	c-1.633,0-3.168-0.402-4.523-1.105l13.289-13.289c0.701,1.356,1.105,2.893,1.105,4.526C73.648,26.71,69.229,31.127,63.779,31.127z"
	/>
<linearGradient id="SVGID_3_" gradientUnits="userSpaceOnUse" x1="89.999" y1="511.6611" x2="89.999" y2="534.9482" gradientTransform="matrix(1.2353 0 0 1.2353 -89.9145 -582.6577)">
	<stop  offset="0" style="stop-color:#F3F3F3"/>
	<stop  offset="1" style="stop-color:#BDBDBD"/>
</linearGradient>
<path fill="url(#SVGID_3_)" d="M21.26,49.396c-7.943,0-14.383,6.439-14.383,14.385c0,7.943,6.439,14.383,14.383,14.383
	c7.942,0,14.382-6.439,14.382-14.383C35.642,55.835,29.202,49.396,21.26,49.396z M28.84,67.131c1.168,1.165,1.168,3.06,0,4.227
	s-3.062,1.167-4.229,0l-3.352-3.352l-3.352,3.352c-1.168,1.167-3.061,1.167-4.228,0s-1.167-3.062,0-4.227l3.349-3.352l-3.349-3.352
	c-1.167-1.167-1.167-3.062,0-4.229s3.062-1.167,4.229,0l3.351,3.352l3.352-3.352c1.166-1.167,3.061-1.167,4.229,0
	s1.168,3.062,0,4.229l-3.352,3.352L28.84,67.131z"/>
<linearGradient id="SVGID_4_" gradientUnits="userSpaceOnUse" x1="89.999" y1="547.9316" x2="89.999" y2="567.5156" gradientTransform="matrix(1.2353 0 0 1.2353 -89.9145 -582.6577)">
	<stop  offset="0" style="stop-color:#F3F3F3"/>
	<stop  offset="1" style="stop-color:#BDBDBD"/>
</linearGradient>
<path fill="url(#SVGID_4_)" d="M28.932,94.203c-2.912,0-5.584,1.03-7.674,2.746c-2.086-1.716-4.758-2.746-7.67-2.746
	c-6.68,0-12.097,5.417-12.097,12.097c0,6.681,5.417,12.095,12.097,12.095c2.912,0,5.584-1.03,7.67-2.743
	c2.09,1.713,4.762,2.743,7.674,2.743c6.68,0,12.097-5.414,12.097-12.095C41.028,99.62,35.611,94.203,28.932,94.203z M28.932,115.193
	c-2.074,0-3.973-0.714-5.484-1.898c-2.072-1.628-3.412-4.154-3.412-6.995c0-2.842,1.337-5.366,3.412-6.994
	c1.514-1.187,3.412-1.901,5.484-1.901c4.912,0,8.895,3.984,8.895,8.895C37.826,111.212,33.842,115.193,28.932,115.193z"/>
<linearGradient id="SVGID_5_" gradientUnits="userSpaceOnUse" x1="124.4199" y1="547.9316" x2="124.4199" y2="567.5156" gradientTransform="matrix(1.2353 0 0 1.2353 -89.9145 -582.6577)">
	<stop  offset="0" style="stop-color:#A4DEF9"/>
	<stop  offset="0.2126" style="stop-color:#98CEEB"/>
	<stop  offset="0.5574" style="stop-color:#7BB3D9"/>
	<stop  offset="0.9894" style="stop-color:#528EBB"/>
	<stop  offset="1" style="stop-color:#508DBB"/>
</linearGradient>
<path fill="url(#SVGID_5_)" d="M71.449,94.203c-2.909,0-5.581,1.03-7.67,2.746c-2.086-1.716-4.758-2.746-7.67-2.746
	c-6.682,0-12.098,5.417-12.098,12.097c0,6.681,5.416,12.095,12.098,12.095c2.912,0,5.584-1.03,7.67-2.743
	c2.089,1.713,4.761,2.743,7.67,2.743c6.681,0,12.098-5.414,12.098-12.095C83.546,99.62,78.129,94.203,71.449,94.203z
	 M71.449,115.193c-2.07,0-3.969-0.714-5.482-1.898c-2.072-1.628-3.412-4.154-3.412-6.995c0-2.842,1.338-5.366,3.412-6.994
	c1.514-1.187,3.412-1.901,5.482-1.901c4.912,0,8.896,3.984,8.896,8.895C80.344,111.212,76.361,115.193,71.449,115.193z"/>
<linearGradient id="SVGID_6_" gradientUnits="userSpaceOnUse" x1="89.999" y1="580.8643" x2="89.999" y2="603.4268" gradientTransform="matrix(1.2353 0 0 1.2353 -89.9145 -582.6577)">
	<stop  offset="0" style="stop-color:#F3F3F3"/>
	<stop  offset="1" style="stop-color:#BDBDBD"/>
</linearGradient>
<polygon fill="url(#SVGID_6_)" points="21.26,134.883 26.139,143.572 35.912,145.529 29.154,152.855 30.314,162.755 21.26,158.594 
	12.203,162.755 13.362,152.855 6.607,145.529 16.379,143.572 "/>
<linearGradient id="SVGID_7_" gradientUnits="userSpaceOnUse" x1="124.4199" y1="580.8623" x2="124.4199" y2="603.4268" gradientTransform="matrix(1.2353 0 0 1.2353 -89.9145 -582.6577)">
	<stop  offset="0" style="stop-color:#A4DEF9"/>
	<stop  offset="0.2126" style="stop-color:#98CEEB"/>
	<stop  offset="0.5574" style="stop-color:#7BB3D9"/>
	<stop  offset="0.9894" style="stop-color:#528EBB"/>
	<stop  offset="1" style="stop-color:#508DBB"/>
</linearGradient>
<polygon fill="url(#SVGID_7_)" points="63.779,134.882 68.66,143.572 78.432,145.529 71.676,152.855 72.836,162.755 63.779,158.593 
	54.725,162.755 55.885,152.855 49.127,145.529 58.9,143.572 "/>
<linearGradient id="SVGID_8_" gradientUnits="userSpaceOnUse" x1="89.999" y1="613.4424" x2="89.999" y2="639.6885" gradientTransform="matrix(1.2353 0 0 1.2353 -89.9145 -582.6577)">
	<stop  offset="0" style="stop-color:#F3F3F3"/>
	<stop  offset="1" style="stop-color:#BDBDBD"/>
</linearGradient>
<path fill="url(#SVGID_8_)" d="M31.726,196.379c-1.664,0-3.153,0.732-4.176,1.887l-11.195-4.869
	c0.018-0.178,0.025-0.359,0.025-0.541c0-0.338-0.035-0.666-0.092-0.988l11.845-6.883c0.972,0.816,2.225,1.311,3.593,1.311
	c3.082,0,5.584-2.498,5.584-5.584c0-3.084-2.502-5.584-5.584-5.584c-3.086,0-5.586,2.5-5.586,5.584c0,0.453,0.061,0.891,0.162,1.312
	l-11.671,6.781c-1.002-0.949-2.347-1.535-3.835-1.535c-3.086,0-5.586,2.502-5.586,5.586c0,3.086,2.5,5.584,5.586,5.584
	c1.65,0,3.129-0.719,4.151-1.857l11.218,4.879c-0.016,0.166-0.025,0.332-0.025,0.504c0,3.082,2.5,5.584,5.586,5.584
	c3.082,0,5.584-2.502,5.584-5.584C37.312,198.879,34.81,196.379,31.726,196.379z"/>
<linearGradient id="SVGID_9_" gradientUnits="userSpaceOnUse" x1="90" y1="647.7373" x2="90" y2="674.2354" gradientTransform="matrix(1.2353 0 0 1.2353 -89.9145 -582.6577)">
	<stop  offset="0" style="stop-color:#F3F3F3"/>
	<stop  offset="1" style="stop-color:#BDBDBD"/>
</linearGradient>
<path fill="url(#SVGID_9_)" d="M30.808,217.491H11.712c-3.767,0-6.818,3.053-6.818,6.817v3.933v11.237v3.929
	c0,3.766,3.052,6.817,6.818,6.817h19.096c3.768,0,6.819-3.053,6.819-6.817v-3.929v-11.237v-3.933
	C37.626,220.543,34.575,217.491,30.808,217.491z M21.261,243.084c-5.096,0-9.227-4.131-9.227-9.227c0-5.097,4.131-9.228,9.227-9.228
	c5.096,0,9.227,4.131,9.227,9.228C30.488,238.953,26.356,243.084,21.261,243.084z"/>
<linearGradient id="SVGID_10_" gradientUnits="userSpaceOnUse" x1="89.999" y1="656.4062" x2="89.999" y2="665.5674" gradientTransform="matrix(1.2353 0 0 1.2353 -89.9145 -582.6577)">
	<stop  offset="0" style="stop-color:#F3F3F3"/>
	<stop  offset="1" style="stop-color:#BDBDBD"/>
</linearGradient>
<path fill="url(#SVGID_10_)" d="M21.624,228.2c0.118,0.381,0.183,0.784,0.183,1.205c0,2.243-1.816,4.061-4.061,4.061
	c-0.757,0-1.462-0.211-2.07-0.571c-0.051,0.311-0.084,0.631-0.084,0.955c0,3.129,2.537,5.668,5.668,5.668
	c3.129,0,5.668-2.539,5.668-5.668C26.928,230.842,24.585,228.387,21.624,228.2z"/>
<linearGradient id="SVGID_11_" gradientUnits="userSpaceOnUse" x1="90" y1="718.1826" x2="90" y2="741.4717" gradientTransform="matrix(1.2353 0 0 1.2353 -89.9145 -582.6577)">
	<stop  offset="0" style="stop-color:#F3F3F3"/>
	<stop  offset="1" style="stop-color:#BDBDBD"/>
</linearGradient>
<path fill="url(#SVGID_11_)" d="M21.262,304.514c-7.945,0-18.091,6.439-18.091,14.383c0,7.944,10.146,14.385,18.091,14.385
	c7.943,0,18.088-6.439,18.088-14.385C39.35,310.954,29.205,304.514,21.262,304.514z M21.262,328.123
	c-5.096,0-9.227-4.131-9.227-9.227c0-5.097,4.131-9.228,9.227-9.228c5.096,0,9.227,4.131,9.227,9.228
	C30.489,323.992,26.357,328.123,21.262,328.123z"/>
<linearGradient id="SVGID_12_" gradientUnits="userSpaceOnUse" x1="89.999" y1="725.2471" x2="89.999" y2="734.4092" gradientTransform="matrix(1.2353 0 0 1.2353 -89.9145 -582.6577)">
	<stop  offset="0" style="stop-color:#F3F3F3"/>
	<stop  offset="1" style="stop-color:#BDBDBD"/>
</linearGradient>
<path fill="url(#SVGID_12_)" d="M21.627,313.24c0.118,0.382,0.18,0.787,0.18,1.207c0,2.24-1.816,4.059-4.061,4.059
	c-0.754,0-1.462-0.211-2.067-0.57c-0.054,0.31-0.087,0.629-0.087,0.953c0,3.129,2.537,5.668,5.668,5.668
	c3.129,0,5.668-2.539,5.668-5.668C26.928,315.882,24.585,313.427,21.627,313.24z"/>
<linearGradient id="SVGID_13_" gradientUnits="userSpaceOnUse" x1="89.999" y1="752.6035" x2="89.999" y2="775.8916" gradientTransform="matrix(1.2353 0 0 1.2353 -89.9145 -582.6577)">
	<stop  offset="0" style="stop-color:#F3F3F3"/>
	<stop  offset="1" style="stop-color:#BDBDBD"/>
</linearGradient>
<path fill="url(#SVGID_13_)" d="M21.258,347.033c-7.942,0-14.382,6.439-14.382,14.385c0,7.943,6.439,14.383,14.382,14.383
	c7.946,0,14.386-6.439,14.386-14.383C35.643,353.473,29.205,347.033,21.258,347.033z M28.985,364.404l-15.457,0.004
	c-1.652,0-2.991-1.34-2.991-2.99c0-1.652,1.339-2.992,2.991-2.992h15.459c1.65,0,2.99,1.34,2.99,2.99
	C31.977,363.068,30.637,364.404,28.985,364.404z"/>
<linearGradient id="SVGID_14_" gradientUnits="userSpaceOnUse" x1="89.999" y1="787.0234" x2="89.999" y2="810.3115" gradientTransform="matrix(1.2353 0 0 1.2353 -89.9145 -582.6577)">
	<stop  offset="0" style="stop-color:#F3F3F3"/>
	<stop  offset="1" style="stop-color:#BDBDBD"/>
</linearGradient>
<path fill="url(#SVGID_14_)" d="M21.258,389.552c-7.942,0-14.382,6.439-14.382,14.386c0,7.942,6.439,14.383,14.382,14.383
	c7.946,0,14.386-6.439,14.386-14.383C35.643,395.992,29.205,389.552,21.258,389.552z M28.987,406.925h-4.738v4.739
	c0,1.652-1.34,2.988-2.99,2.988c-1.652,0-2.991-1.336-2.991-2.988v-4.739h-4.739c-1.652,0-2.988-1.336-2.988-2.987
	c-0.003-1.653,1.336-2.992,2.988-2.99h4.739v-4.738c0-1.652,1.339-2.992,2.989-2.992c1.652,0,2.992,1.34,2.992,2.992v4.738h4.738
	c1.65-0.002,2.99,1.337,2.99,2.99C31.977,405.589,30.637,406.925,28.987,406.925z"/>
<linearGradient id="SVGID_15_" gradientUnits="userSpaceOnUse" x1="124.4189" y1="787.0215" x2="124.4189" y2="810.3096" gradientTransform="matrix(1.2353 0 0 1.2353 -89.9145 -582.6577)">
	<stop  offset="0" style="stop-color:#A4DEF9"/>
	<stop  offset="0.2126" style="stop-color:#98CEEB"/>
	<stop  offset="0.5574" style="stop-color:#7BB3D9"/>
	<stop  offset="0.9894" style="stop-color:#528EBB"/>
	<stop  offset="1" style="stop-color:#508DBB"/>
</linearGradient>
<path fill="url(#SVGID_15_)" d="M63.777,389.551c-7.942,0-14.383,6.441-14.383,14.387c0,7.941,6.439,14.381,14.383,14.381
	c7.945,0,14.386-6.438,14.386-14.381C78.163,395.993,71.725,389.551,63.777,389.551z M71.507,406.924h-4.739v4.74
	c0.004,1.652-1.336,2.99-2.988,2.99s-2.989-1.338-2.989-2.99l-0.003-4.74l-4.738,0.002c-1.65,0-2.988-1.338-2.988-2.988
	c0-1.653,1.338-2.992,2.99-2.992h4.736v-4.737c0-1.649,1.34-2.992,2.992-2.992s2.992,1.343,2.988,2.992v4.737h4.741
	c1.65,0,2.989,1.339,2.989,2.99C74.498,405.588,73.159,406.924,71.507,406.924z"/>
<linearGradient id="SVGID_16_" gradientUnits="userSpaceOnUse" x1="124.4189" y1="752.6025" x2="124.4189" y2="775.8916" gradientTransform="matrix(1.2353 0 0 1.2353 -89.9145 -582.6577)">
	<stop  offset="0" style="stop-color:#A4DEF9"/>
	<stop  offset="0.2126" style="stop-color:#98CEEB"/>
	<stop  offset="0.5574" style="stop-color:#7BB3D9"/>
	<stop  offset="0.9894" style="stop-color:#528EBB"/>
	<stop  offset="1" style="stop-color:#508DBB"/>
</linearGradient>
<path fill="url(#SVGID_16_)" d="M63.777,347.032c-7.942,0-14.383,6.438-14.383,14.385c0,7.942,6.439,14.383,14.383,14.383
	c7.945,0,14.386-6.438,14.386-14.383C78.163,353.471,71.725,347.032,63.777,347.032z M71.504,364.404l-15.458,0.003
	c-1.649,0-2.989-1.341-2.989-2.99c0-1.651,1.34-2.992,2.991-2.992h15.459c1.65,0,2.988,1.341,2.988,2.99
	C74.495,363.066,73.157,364.404,71.504,364.404z"/>
<linearGradient id="SVGID_17_" gradientUnits="userSpaceOnUse" x1="124.4189" y1="718.1826" x2="124.4189" y2="741.4697" gradientTransform="matrix(1.2353 0 0 1.2353 -89.9145 -582.6577)">
	<stop  offset="0" style="stop-color:#A4DEF9"/>
	<stop  offset="0.2126" style="stop-color:#98CEEB"/>
	<stop  offset="0.5574" style="stop-color:#7BB3D9"/>
	<stop  offset="0.9894" style="stop-color:#528EBB"/>
	<stop  offset="1" style="stop-color:#508DBB"/>
</linearGradient>
<path fill="url(#SVGID_17_)" d="M63.779,304.514c-7.945,0-18.09,6.439-18.09,14.383c0,7.944,10.145,14.383,18.09,14.383
	s18.09-6.438,18.09-14.383C81.869,310.953,71.725,304.514,63.779,304.514z M63.779,328.122c-5.096,0-9.228-4.131-9.228-9.228
	c0-5.096,4.132-9.227,9.228-9.227c5.095,0,9.226,4.131,9.226,9.227C73.005,323.991,68.874,328.122,63.779,328.122z"/>
<linearGradient id="SVGID_18_" gradientUnits="userSpaceOnUse" x1="124.4189" y1="725.2471" x2="124.4189" y2="734.4092" gradientTransform="matrix(1.2353 0 0 1.2353 -89.9145 -582.6577)">
	<stop  offset="0" style="stop-color:#A4DEF9"/>
	<stop  offset="0.2126" style="stop-color:#98CEEB"/>
	<stop  offset="0.5574" style="stop-color:#7BB3D9"/>
	<stop  offset="0.9894" style="stop-color:#528EBB"/>
	<stop  offset="1" style="stop-color:#508DBB"/>
</linearGradient>
<path fill="url(#SVGID_18_)" d="M64.146,313.239c0.119,0.383,0.181,0.786,0.181,1.207c0,2.241-1.817,4.059-4.062,4.059
	c-0.754,0-1.461-0.211-2.066-0.569c-0.055,0.309-0.088,0.629-0.088,0.953c0,3.129,2.537,5.668,5.668,5.668
	c3.129,0,5.666-2.539,5.666-5.668C69.445,315.881,67.104,313.426,64.146,313.239z"/>
<linearGradient id="SVGID_19_" gradientUnits="userSpaceOnUse" x1="131.7041" y1="684.2432" x2="131.7041" y2="691.9785" gradientTransform="matrix(1.2353 0 0 1.2353 -89.9145 -582.6577)">
	<stop  offset="0" style="stop-color:#A4DEF9"/>
	<stop  offset="0.2126" style="stop-color:#98CEEB"/>
	<stop  offset="0.5574" style="stop-color:#7BB3D9"/>
	<stop  offset="0.9894" style="stop-color:#528EBB"/>
	<stop  offset="1" style="stop-color:#508DBB"/>
</linearGradient>
<path fill="url(#SVGID_19_)" d="M76.941,267.734l-4.53-4.531c-0.823-0.819-2.152-0.819-2.974,0L68,264.639l7.503,7.504l1.438-1.437
	C77.762,269.885,77.762,268.554,76.941,267.734z"/>
<linearGradient id="SVGID_20_" gradientUnits="userSpaceOnUse" x1="123.0322" y1="687.0186" x2="123.0322" y2="706.5693" gradientTransform="matrix(1.2353 0 0 1.2353 -89.9145 -582.6577)">
	<stop  offset="0" style="stop-color:#A4DEF9"/>
	<stop  offset="0.2126" style="stop-color:#98CEEB"/>
	<stop  offset="0.5574" style="stop-color:#7BB3D9"/>
	<stop  offset="0.9894" style="stop-color:#528EBB"/>
	<stop  offset="1" style="stop-color:#508DBB"/>
</linearGradient>
<path fill="url(#SVGID_20_)" d="M66.623,266.016l-16.062,16.06c-0.041,0.043-0.063,0.086-0.102,0.129
	c-0.279,0.248-0.457,0.604-0.457,1.005v5.612c0,0.743,0.602,1.344,1.344,1.346l5.611-0.002c0.463,0,0.869-0.231,1.111-0.587
	l16.06-16.059L66.623,266.016z M56.086,288.878h-3.877c-0.512,0-0.927-0.415-0.93-0.929v-3.878c0-0.036,0.018-0.067,0.022-0.102
	l4.886,4.888C56.154,288.861,56.123,288.878,56.086,288.878z"/>
<linearGradient id="SVGID_21_" gradientUnits="userSpaceOnUse" x1="97.2842" y1="684.2432" x2="97.2842" y2="691.9785" gradientTransform="matrix(1.2353 0 0 1.2353 -89.9145 -582.6577)">
	<stop  offset="0" style="stop-color:#F3F3F3"/>
	<stop  offset="1" style="stop-color:#BDBDBD"/>
</linearGradient>
<path fill="url(#SVGID_21_)" d="M34.422,267.734l-4.53-4.531c-0.823-0.819-2.152-0.819-2.973,0l-1.438,1.436l7.503,7.504
	l1.438-1.437C35.242,269.885,35.242,268.554,34.422,267.734z"/>
<linearGradient id="SVGID_22_" gradientUnits="userSpaceOnUse" x1="88.6113" y1="687.0186" x2="88.6113" y2="706.5693" gradientTransform="matrix(1.2353 0 0 1.2353 -89.9145 -582.6577)">
	<stop  offset="0" style="stop-color:#F3F3F3"/>
	<stop  offset="1" style="stop-color:#BDBDBD"/>
</linearGradient>
<path fill="url(#SVGID_22_)" d="M24.104,266.016l-16.062,16.06c-0.041,0.043-0.064,0.086-0.102,0.129
	c-0.279,0.248-0.457,0.604-0.457,1.005v5.612c0,0.743,0.602,1.344,1.344,1.346l5.611-0.002c0.463,0,0.869-0.231,1.111-0.587
	l16.06-16.059L24.104,266.016z M13.567,288.878H9.69c-0.512,0-0.927-0.415-0.93-0.929v-3.878c0-0.036,0.018-0.067,0.023-0.102
	l4.885,4.888C13.635,288.861,13.604,288.878,13.567,288.878z"/>
<linearGradient id="SVGID_23_" gradientUnits="userSpaceOnUse" x1="124.4199" y1="647.7363" x2="124.4199" y2="674.2373" gradientTransform="matrix(1.2353 0 0 1.2353 -89.9145 -582.6577)">
	<stop  offset="0" style="stop-color:#A4DEF9"/>
	<stop  offset="0.2126" style="stop-color:#98CEEB"/>
	<stop  offset="0.5574" style="stop-color:#7BB3D9"/>
	<stop  offset="0.9894" style="stop-color:#528EBB"/>
	<stop  offset="1" style="stop-color:#508DBB"/>
</linearGradient>
<path fill="url(#SVGID_23_)" d="M73.327,217.49H54.23c-3.767,0-6.817,3.053-6.817,6.818v3.932v11.236v3.931
	c0,3.767,3.052,6.819,6.817,6.819h19.097c3.769,0,6.819-3.054,6.819-6.819v-3.931V228.24v-3.932
	C80.145,220.542,77.092,217.49,73.327,217.49z M63.777,243.082c-5.096,0-9.227-4.131-9.227-9.225c0-5.096,4.131-9.227,9.227-9.227
	s9.227,4.131,9.227,9.227C73.003,238.951,68.873,243.082,63.777,243.082z"/>
<linearGradient id="SVGID_24_" gradientUnits="userSpaceOnUse" x1="124.4189" y1="656.4072" x2="124.4189" y2="665.5654" gradientTransform="matrix(1.2353 0 0 1.2353 -89.9145 -582.6577)">
	<stop  offset="0" style="stop-color:#A4DEF9"/>
	<stop  offset="0.2126" style="stop-color:#98CEEB"/>
	<stop  offset="0.5574" style="stop-color:#7BB3D9"/>
	<stop  offset="0.9894" style="stop-color:#528EBB"/>
	<stop  offset="1" style="stop-color:#508DBB"/>
</linearGradient>
<path fill="url(#SVGID_24_)" d="M64.146,228.202c0.117,0.379,0.183,0.784,0.183,1.204c0,2.242-1.819,4.06-4.062,4.06
	c-0.756,0-1.463-0.209-2.069-0.571c-0.054,0.312-0.087,0.631-0.087,0.955c0,3.129,2.539,5.666,5.668,5.666
	c3.132,0,5.668-2.537,5.668-5.666C69.447,230.843,67.104,228.389,64.146,228.202z"/>
<linearGradient id="SVGID_25_" gradientUnits="userSpaceOnUse" x1="124.4199" y1="613.4424" x2="124.4199" y2="639.6904" gradientTransform="matrix(1.2353 0 0 1.2353 -89.9145 -582.6577)">
	<stop  offset="0" style="stop-color:#A4DEF9"/>
	<stop  offset="0.2126" style="stop-color:#98CEEB"/>
	<stop  offset="0.5574" style="stop-color:#7BB3D9"/>
	<stop  offset="0.9894" style="stop-color:#528EBB"/>
	<stop  offset="1" style="stop-color:#508DBB"/>
</linearGradient>
<path fill="url(#SVGID_25_)" d="M74.243,196.381c-1.662,0-3.153,0.73-4.177,1.886l-11.193-4.868c0.018-0.18,0.025-0.359,0.025-0.542
	c0-0.337-0.032-0.666-0.092-0.987l11.844-6.883c0.974,0.814,2.226,1.311,3.593,1.311c3.086,0,5.586-2.499,5.586-5.585
	c0-3.083-2.5-5.585-5.586-5.585c-3.082,0-5.584,2.502-5.584,5.585c0,0.454,0.062,0.891,0.161,1.312l-11.668,6.782
	c-1.002-0.948-2.35-1.534-3.838-1.534c-3.084,0-5.584,2.502-5.584,5.585c0,3.085,2.5,5.585,5.584,5.585
	c1.65,0,3.129-0.719,4.152-1.858l11.219,4.878c-0.016,0.167-0.025,0.334-0.025,0.504c0,3.084,2.501,5.585,5.585,5.585
	c3.086,0,5.584-2.501,5.584-5.585S77.329,196.381,74.243,196.381z"/>
<linearGradient id="SVGID_26_" gradientUnits="userSpaceOnUse" x1="124.4189" y1="511.6611" x2="124.4189" y2="534.9482" gradientTransform="matrix(1.2353 0 0 1.2353 -89.9145 -582.6577)">
	<stop  offset="0" style="stop-color:#A4DEF9"/>
	<stop  offset="0.2126" style="stop-color:#98CEEB"/>
	<stop  offset="0.5574" style="stop-color:#7BB3D9"/>
	<stop  offset="0.9894" style="stop-color:#528EBB"/>
	<stop  offset="1" style="stop-color:#508DBB"/>
</linearGradient>
<path fill="url(#SVGID_26_)" d="M63.779,49.396c-7.944,0-14.385,6.44-14.385,14.385c0,7.943,6.439,14.382,14.385,14.382
	c7.943,0,14.384-6.439,14.384-14.382C78.163,55.835,71.725,49.396,63.779,49.396z M71.359,67.131c1.166,1.165,1.166,3.06,0,4.227
	c-1.168,1.167-3.062,1.167-4.229,0l-3.352-3.351l-3.352,3.351c-1.168,1.167-3.062,1.167-4.229,0c-1.167-1.167-1.167-3.062,0-4.227
	l3.352-3.352l-3.352-3.351c-1.167-1.167-1.167-3.062,0-4.229c1.169-1.167,3.062-1.167,4.229,0l3.352,3.352l3.351-3.352
	c1.167-1.167,3.062-1.167,4.229,0c1.166,1.167,1.166,3.062,0,4.229l-3.351,3.351L71.359,67.131z"/>
</svg>
