<?xml version="1.0" encoding="utf-8"?>
<!-- Generator: Adobe Illustrator 15.1.0, SVG Export Plug-In . SVG Version: 6.00 Build 0)  -->
<!DOCTYPE svg PUBLIC "-//W3C//DTD SVG 1.1//EN" "http://www.w3.org/Graphics/SVG/1.1/DTD/svg11.dtd">
<svg version="1.1" id="Layer_1" xmlns="http://www.w3.org/2000/svg" xmlns:xlink="http://www.w3.org/1999/xlink" x="0px" y="0px"
	 width="8.5em" height="42.5em" viewBox="0 0 85 425" enable-background="new 0 0 85 425" xml:space="preserve">
<linearGradient id="SVGID_1_" gradientUnits="userSpaceOnUse" x1="90.1377" y1="477.3682" x2="90.1377" y2="500.5264" gradientTransform="matrix(1.2353 0 0 1.2353 -89.9614 -582.6118)">
	<stop  offset="0" style="stop-color:#F3F3F3"/>
	<stop  offset="1" style="stop-color:#BDBDBD"/>
</linearGradient>
<path fill="url(#SVGID_1_)" d="M21.386,7.082c-7.901,0-14.305,6.404-14.305,14.305c0,7.899,6.404,14.302,14.305,14.302
	c7.9,0,14.302-6.404,14.302-14.302S29.286,7.082,21.386,7.082z M21.386,11.516c1.759,0,3.41,0.466,4.84,1.273L12.79,26.226
	c-0.808-1.431-1.273-3.078-1.273-4.84C11.516,15.934,15.934,11.516,21.386,11.516z M21.386,31.254c-1.633,0-3.169-0.403-4.526-1.106
	L30.149,16.86c0.702,1.356,1.106,2.894,1.106,4.526C31.255,26.836,26.837,31.254,21.386,31.254z"/>
<linearGradient id="SVGID_2_" gradientUnits="userSpaceOnUse" x1="124.5586" y1="477.3691" x2="124.5586" y2="500.5244" gradientTransform="matrix(1.2353 0 0 1.2353 -89.9614 -582.6118)">
	<stop  offset="0" style="stop-color:#A4DEF9"/>
	<stop  offset="0.2126" style="stop-color:#98CEEB"/>
	<stop  offset="0.5574" style="stop-color:#7BB3D9"/>
	<stop  offset="0.9894" style="stop-color:#528EBB"/>
	<stop  offset="1" style="stop-color:#508DBB"/>
</linearGradient>
<path fill="url(#SVGID_2_)" d="M63.904,7.083c-7.898,0-14.303,6.404-14.303,14.302c0,7.898,6.403,14.302,14.303,14.302
	c7.898,0,14.303-6.404,14.303-14.302C78.207,13.487,71.805,7.083,63.904,7.083z M63.904,11.517c1.762,0,3.41,0.466,4.842,1.273
	L55.311,26.225c-0.809-1.431-1.272-3.079-1.272-4.84C54.037,15.932,58.454,11.517,63.904,11.517z M63.904,31.252
	c-1.633,0-3.168-0.402-4.523-1.105L72.67,16.858c0.701,1.356,1.105,2.893,1.105,4.526C73.773,26.835,69.354,31.252,63.904,31.252z"
	/>
<linearGradient id="SVGID_3_" gradientUnits="userSpaceOnUse" x1="90.1387" y1="511.7236" x2="90.1387" y2="535.0117" gradientTransform="matrix(1.2353 0 0 1.2353 -89.9614 -582.6118)">
	<stop  offset="0" style="stop-color:#F3F3F3"/>
	<stop  offset="1" style="stop-color:#BDBDBD"/>
</linearGradient>
<path fill="url(#SVGID_3_)" d="M21.385,49.521c-7.943,0-14.383,6.439-14.383,14.385c0,7.943,6.439,14.383,14.383,14.383
	c7.942,0,14.382-6.439,14.382-14.383C35.767,55.96,29.327,49.521,21.385,49.521z M28.965,67.256c1.168,1.165,1.168,3.06,0,4.227
	s-3.062,1.167-4.229,0l-3.352-3.352l-3.352,3.352c-1.168,1.167-3.061,1.167-4.228,0s-1.167-3.062,0-4.227l3.349-3.352l-3.349-3.352
	c-1.167-1.167-1.167-3.062,0-4.229s3.062-1.167,4.229,0l3.351,3.352l3.352-3.352c1.166-1.167,3.061-1.167,4.229,0
	s1.168,3.062,0,4.229l-3.352,3.352L28.965,67.256z"/>
<linearGradient id="SVGID_4_" gradientUnits="userSpaceOnUse" x1="90.1387" y1="547.9961" x2="90.1387" y2="567.5801" gradientTransform="matrix(1.2353 0 0 1.2353 -89.9614 -582.6118)">
	<stop  offset="0" style="stop-color:#F3F3F3"/>
	<stop  offset="1" style="stop-color:#BDBDBD"/>
</linearGradient>
<path fill="url(#SVGID_4_)" d="M29.057,94.328c-2.912,0-5.584,1.03-7.674,2.746c-2.086-1.716-4.758-2.746-7.67-2.746
	c-6.68,0-12.097,5.417-12.097,12.097c0,6.681,5.417,12.095,12.097,12.095c2.912,0,5.584-1.03,7.67-2.743
	c2.09,1.713,4.762,2.743,7.674,2.743c6.68,0,12.097-5.414,12.097-12.095C41.153,99.745,35.736,94.328,29.057,94.328z
	 M29.057,115.318c-2.074,0-3.973-0.714-5.484-1.898c-2.072-1.628-3.412-4.154-3.412-6.995c0-2.842,1.337-5.366,3.412-6.994
	c1.514-1.187,3.412-1.901,5.484-1.901c4.912,0,8.895,3.984,8.895,8.895C37.951,111.337,33.967,115.318,29.057,115.318z"/>
<linearGradient id="SVGID_5_" gradientUnits="userSpaceOnUse" x1="124.5586" y1="547.9961" x2="124.5586" y2="567.5801" gradientTransform="matrix(1.2353 0 0 1.2353 -89.9614 -582.6118)">
	<stop  offset="0" style="stop-color:#A4DEF9"/>
	<stop  offset="0.2126" style="stop-color:#98CEEB"/>
	<stop  offset="0.5574" style="stop-color:#7BB3D9"/>
	<stop  offset="0.9894" style="stop-color:#528EBB"/>
	<stop  offset="1" style="stop-color:#508DBB"/>
</linearGradient>
<path fill="url(#SVGID_5_)" d="M71.574,94.328c-2.909,0-5.581,1.03-7.67,2.746c-2.086-1.716-4.758-2.746-7.67-2.746
	c-6.682,0-12.098,5.417-12.098,12.097c0,6.681,5.416,12.095,12.098,12.095c2.912,0,5.584-1.03,7.67-2.743
	c2.089,1.713,4.761,2.743,7.67,2.743c6.681,0,12.098-5.414,12.098-12.095C83.671,99.745,78.254,94.328,71.574,94.328z
	 M71.574,115.318c-2.07,0-3.969-0.714-5.482-1.898c-2.072-1.628-3.412-4.154-3.412-6.995c0-2.842,1.338-5.366,3.412-6.994
	c1.514-1.187,3.412-1.901,5.482-1.901c4.912,0,8.896,3.984,8.896,8.895C80.469,111.337,76.486,115.318,71.574,115.318z"/>
<linearGradient id="SVGID_6_" gradientUnits="userSpaceOnUse" x1="90.1377" y1="580.9268" x2="90.1377" y2="603.4902" gradientTransform="matrix(1.2353 0 0 1.2353 -89.9614 -582.6118)">
	<stop  offset="0" style="stop-color:#F3F3F3"/>
	<stop  offset="1" style="stop-color:#BDBDBD"/>
</linearGradient>
<polygon fill="url(#SVGID_6_)" points="21.385,135.008 26.264,143.697 36.037,145.654 29.279,152.98 30.439,162.88 21.385,158.719 
	12.328,162.88 13.487,152.98 6.732,145.654 16.504,143.697 "/>
<linearGradient id="SVGID_7_" gradientUnits="userSpaceOnUse" x1="124.5586" y1="580.9258" x2="124.5586" y2="603.4902" gradientTransform="matrix(1.2353 0 0 1.2353 -89.9614 -582.6118)">
	<stop  offset="0" style="stop-color:#A4DEF9"/>
	<stop  offset="0.2126" style="stop-color:#98CEEB"/>
	<stop  offset="0.5574" style="stop-color:#7BB3D9"/>
	<stop  offset="0.9894" style="stop-color:#528EBB"/>
	<stop  offset="1" style="stop-color:#508DBB"/>
</linearGradient>
<polygon fill="url(#SVGID_7_)" points="63.904,135.007 68.785,143.697 78.557,145.654 71.801,152.98 72.961,162.88 63.904,158.718 
	54.85,162.88 56.01,152.98 49.252,145.654 59.025,143.697 "/>
<linearGradient id="SVGID_8_" gradientUnits="userSpaceOnUse" x1="90.1387" y1="613.5059" x2="90.1387" y2="639.752" gradientTransform="matrix(1.2353 0 0 1.2353 -89.9614 -582.6118)">
	<stop  offset="0" style="stop-color:#F3F3F3"/>
	<stop  offset="1" style="stop-color:#BDBDBD"/>
</linearGradient>
<path fill="url(#SVGID_8_)" d="M31.851,196.504c-1.664,0-3.153,0.732-4.176,1.887l-11.195-4.869
	c0.018-0.178,0.025-0.359,0.025-0.541c0-0.338-0.035-0.666-0.092-0.988l11.845-6.883c0.972,0.816,2.225,1.311,3.593,1.311
	c3.082,0,5.584-2.498,5.584-5.584c0-3.084-2.502-5.584-5.584-5.584c-3.086,0-5.586,2.5-5.586,5.584c0,0.453,0.061,0.891,0.162,1.312
	l-11.671,6.781c-1.002-0.949-2.347-1.535-3.835-1.535c-3.086,0-5.586,2.502-5.586,5.586c0,3.086,2.5,5.584,5.586,5.584
	c1.65,0,3.129-0.719,4.151-1.857l11.218,4.879c-0.016,0.166-0.025,0.332-0.025,0.504c0,3.082,2.5,5.584,5.586,5.584
	c3.082,0,5.584-2.502,5.584-5.584C37.437,199.004,34.935,196.504,31.851,196.504z"/>
<linearGradient id="SVGID_9_" gradientUnits="userSpaceOnUse" x1="90.1387" y1="647.7998" x2="90.1387" y2="674.2988" gradientTransform="matrix(1.2353 0 0 1.2353 -89.9614 -582.6118)">
	<stop  offset="0" style="stop-color:#F3F3F3"/>
	<stop  offset="1" style="stop-color:#BDBDBD"/>
</linearGradient>
<path fill="url(#SVGID_9_)" d="M30.933,217.616H11.837c-3.767,0-6.818,3.053-6.818,6.817v3.933v11.237v3.929
	c0,3.766,3.052,6.817,6.818,6.817h19.096c3.768,0,6.819-3.053,6.819-6.817v-3.929v-11.237v-3.933
	C37.751,220.668,34.7,217.616,30.933,217.616z M21.386,243.209c-5.096,0-9.227-4.131-9.227-9.227c0-5.097,4.131-9.228,9.227-9.228
	c5.096,0,9.227,4.131,9.227,9.228C30.613,239.078,26.481,243.209,21.386,243.209z"/>
<linearGradient id="SVGID_10_" gradientUnits="userSpaceOnUse" x1="90.1387" y1="656.4688" x2="90.1387" y2="665.6309" gradientTransform="matrix(1.2353 0 0 1.2353 -89.9614 -582.6118)">
	<stop  offset="0" style="stop-color:#F3F3F3"/>
	<stop  offset="1" style="stop-color:#BDBDBD"/>
</linearGradient>
<path fill="url(#SVGID_10_)" d="M21.749,228.325c0.118,0.381,0.183,0.784,0.183,1.205c0,2.243-1.816,4.061-4.061,4.061
	c-0.757,0-1.462-0.211-2.07-0.571c-0.051,0.311-0.084,0.631-0.084,0.955c0,3.129,2.537,5.668,5.668,5.668
	c3.129,0,5.668-2.539,5.668-5.668C27.053,230.967,24.71,228.512,21.749,228.325z"/>
<linearGradient id="SVGID_11_" gradientUnits="userSpaceOnUse" x1="90.1387" y1="718.2461" x2="90.1387" y2="741.5342" gradientTransform="matrix(1.2353 0 0 1.2353 -89.9614 -582.6118)">
	<stop  offset="0" style="stop-color:#F3F3F3"/>
	<stop  offset="1" style="stop-color:#BDBDBD"/>
</linearGradient>
<path fill="url(#SVGID_11_)" d="M21.387,304.639c-7.945,0-18.091,6.439-18.091,14.383c0,7.944,10.146,14.385,18.091,14.385
	c7.943,0,18.088-6.439,18.088-14.385C39.475,311.079,29.33,304.639,21.387,304.639z M21.387,328.248
	c-5.096,0-9.227-4.131-9.227-9.227c0-5.097,4.131-9.228,9.227-9.228c5.096,0,9.227,4.131,9.227,9.228
	C30.614,324.117,26.482,328.248,21.387,328.248z"/>
<linearGradient id="SVGID_12_" gradientUnits="userSpaceOnUse" x1="90.1387" y1="725.3105" x2="90.1387" y2="734.4717" gradientTransform="matrix(1.2353 0 0 1.2353 -89.9614 -582.6118)">
	<stop  offset="0" style="stop-color:#F3F3F3"/>
	<stop  offset="1" style="stop-color:#BDBDBD"/>
</linearGradient>
<path fill="url(#SVGID_12_)" d="M21.752,313.365c0.118,0.382,0.18,0.787,0.18,1.207c0,2.24-1.816,4.059-4.061,4.059
	c-0.754,0-1.462-0.211-2.067-0.57c-0.054,0.31-0.087,0.629-0.087,0.953c0,3.129,2.537,5.668,5.668,5.668
	c3.129,0,5.668-2.539,5.668-5.668C27.053,316.007,24.71,313.552,21.752,313.365z"/>
<linearGradient id="SVGID_13_" gradientUnits="userSpaceOnUse" x1="90.1387" y1="752.666" x2="90.1387" y2="775.9551" gradientTransform="matrix(1.2353 0 0 1.2353 -89.9614 -582.6118)">
	<stop  offset="0" style="stop-color:#F3F3F3"/>
	<stop  offset="1" style="stop-color:#BDBDBD"/>
</linearGradient>
<path fill="url(#SVGID_13_)" d="M21.383,347.158c-7.942,0-14.382,6.439-14.382,14.385c0,7.943,6.439,14.383,14.382,14.383
	c7.946,0,14.386-6.439,14.386-14.383C35.768,353.598,29.33,347.158,21.383,347.158z M29.11,364.529l-15.457,0.004
	c-1.652,0-2.991-1.34-2.991-2.99c0-1.652,1.339-2.992,2.991-2.992h15.459c1.65,0,2.99,1.34,2.99,2.99
	C32.102,363.193,30.762,364.529,29.11,364.529z"/>
<linearGradient id="SVGID_14_" gradientUnits="userSpaceOnUse" x1="90.1387" y1="787.0859" x2="90.1387" y2="810.375" gradientTransform="matrix(1.2353 0 0 1.2353 -89.9614 -582.6118)">
	<stop  offset="0" style="stop-color:#F3F3F3"/>
	<stop  offset="1" style="stop-color:#BDBDBD"/>
</linearGradient>
<path fill="url(#SVGID_14_)" d="M21.383,389.677c-7.942,0-14.382,6.439-14.382,14.386c0,7.942,6.439,14.383,14.382,14.383
	c7.946,0,14.386-6.439,14.386-14.383C35.768,396.117,29.33,389.677,21.383,389.677z M29.112,407.05h-4.738v4.739
	c0,1.652-1.34,2.988-2.99,2.988c-1.652,0-2.991-1.336-2.991-2.988v-4.739h-4.739c-1.652,0-2.988-1.336-2.988-2.987
	c-0.003-1.653,1.336-2.992,2.988-2.99h4.739v-4.738c0-1.652,1.339-2.992,2.989-2.992c1.652,0,2.992,1.34,2.992,2.992v4.738h4.738
	c1.65-0.002,2.99,1.337,2.99,2.99C32.102,405.714,30.762,407.05,29.112,407.05z"/>
<linearGradient id="SVGID_15_" gradientUnits="userSpaceOnUse" x1="124.5586" y1="787.0859" x2="124.5586" y2="810.373" gradientTransform="matrix(1.2353 0 0 1.2353 -89.9614 -582.6118)">
	<stop  offset="0" style="stop-color:#A4DEF9"/>
	<stop  offset="0.2126" style="stop-color:#98CEEB"/>
	<stop  offset="0.5574" style="stop-color:#7BB3D9"/>
	<stop  offset="0.9894" style="stop-color:#528EBB"/>
	<stop  offset="1" style="stop-color:#508DBB"/>
</linearGradient>
<path fill="url(#SVGID_15_)" d="M63.902,389.676c-7.942,0-14.383,6.441-14.383,14.387c0,7.941,6.439,14.381,14.383,14.381
	c7.945,0,14.386-6.438,14.386-14.381C78.288,396.118,71.85,389.676,63.902,389.676z M71.632,407.049h-4.739v4.74
	c0.004,1.652-1.336,2.99-2.988,2.99s-2.989-1.338-2.989-2.99l-0.003-4.74l-4.738,0.002c-1.65,0-2.988-1.338-2.988-2.988
	c0-1.653,1.338-2.992,2.99-2.992h4.736v-4.737c0-1.649,1.34-2.992,2.992-2.992s2.992,1.343,2.988,2.992v4.737h4.741
	c1.65,0,2.989,1.339,2.989,2.99C74.623,405.713,73.284,407.049,71.632,407.049z"/>
<linearGradient id="SVGID_16_" gradientUnits="userSpaceOnUse" x1="124.5586" y1="752.666" x2="124.5586" y2="775.9541" gradientTransform="matrix(1.2353 0 0 1.2353 -89.9614 -582.6118)">
	<stop  offset="0" style="stop-color:#A4DEF9"/>
	<stop  offset="0.2126" style="stop-color:#98CEEB"/>
	<stop  offset="0.5574" style="stop-color:#7BB3D9"/>
	<stop  offset="0.9894" style="stop-color:#528EBB"/>
	<stop  offset="1" style="stop-color:#508DBB"/>
</linearGradient>
<path fill="url(#SVGID_16_)" d="M63.902,347.157c-7.942,0-14.383,6.438-14.383,14.385c0,7.942,6.439,14.383,14.383,14.383
	c7.945,0,14.386-6.438,14.386-14.383C78.288,353.596,71.85,347.157,63.902,347.157z M71.629,364.529l-15.458,0.003
	c-1.649,0-2.989-1.341-2.989-2.99c0-1.651,1.34-2.992,2.991-2.992h15.459c1.65,0,2.988,1.341,2.988,2.99
	C74.62,363.191,73.282,364.529,71.629,364.529z"/>
<linearGradient id="SVGID_17_" gradientUnits="userSpaceOnUse" x1="124.5586" y1="718.2461" x2="124.5586" y2="741.5332" gradientTransform="matrix(1.2353 0 0 1.2353 -89.9614 -582.6118)">
	<stop  offset="0" style="stop-color:#A4DEF9"/>
	<stop  offset="0.2126" style="stop-color:#98CEEB"/>
	<stop  offset="0.5574" style="stop-color:#7BB3D9"/>
	<stop  offset="0.9894" style="stop-color:#528EBB"/>
	<stop  offset="1" style="stop-color:#508DBB"/>
</linearGradient>
<path fill="url(#SVGID_17_)" d="M63.904,304.639c-7.945,0-18.09,6.439-18.09,14.383c0,7.944,10.145,14.383,18.09,14.383
	s18.09-6.438,18.09-14.383C81.994,311.078,71.85,304.639,63.904,304.639z M63.904,328.247c-5.096,0-9.228-4.131-9.228-9.228
	c0-5.096,4.132-9.227,9.228-9.227c5.095,0,9.226,4.131,9.226,9.227C73.13,324.116,68.999,328.247,63.904,328.247z"/>
<linearGradient id="SVGID_18_" gradientUnits="userSpaceOnUse" x1="124.5576" y1="725.3105" x2="124.5576" y2="734.4717" gradientTransform="matrix(1.2353 0 0 1.2353 -89.9614 -582.6118)">
	<stop  offset="0" style="stop-color:#A4DEF9"/>
	<stop  offset="0.2126" style="stop-color:#98CEEB"/>
	<stop  offset="0.5574" style="stop-color:#7BB3D9"/>
	<stop  offset="0.9894" style="stop-color:#528EBB"/>
	<stop  offset="1" style="stop-color:#508DBB"/>
</linearGradient>
<path fill="url(#SVGID_18_)" d="M64.271,313.364c0.119,0.383,0.181,0.786,0.181,1.207c0,2.241-1.817,4.059-4.062,4.059
	c-0.754,0-1.461-0.211-2.066-0.569c-0.055,0.309-0.088,0.629-0.088,0.953c0,3.129,2.537,5.668,5.668,5.668
	c3.129,0,5.666-2.539,5.666-5.668C69.57,316.006,67.229,313.551,64.271,313.364z"/>
<linearGradient id="SVGID_19_" gradientUnits="userSpaceOnUse" x1="131.8438" y1="684.3066" x2="131.8438" y2="692.041" gradientTransform="matrix(1.2353 0 0 1.2353 -89.9614 -582.6118)">
	<stop  offset="0" style="stop-color:#A4DEF9"/>
	<stop  offset="0.2126" style="stop-color:#98CEEB"/>
	<stop  offset="0.5574" style="stop-color:#7BB3D9"/>
	<stop  offset="0.9894" style="stop-color:#528EBB"/>
	<stop  offset="1" style="stop-color:#508DBB"/>
</linearGradient>
<path fill="url(#SVGID_19_)" d="M77.066,267.859l-4.53-4.531c-0.823-0.819-2.152-0.819-2.974,0l-1.438,1.436l7.503,7.504
	l1.438-1.437C77.887,270.01,77.887,268.679,77.066,267.859z"/>
<linearGradient id="SVGID_20_" gradientUnits="userSpaceOnUse" x1="123.1699" y1="687.082" x2="123.1699" y2="706.6328" gradientTransform="matrix(1.2353 0 0 1.2353 -89.9614 -582.6118)">
	<stop  offset="0" style="stop-color:#A4DEF9"/>
	<stop  offset="0.2126" style="stop-color:#98CEEB"/>
	<stop  offset="0.5574" style="stop-color:#7BB3D9"/>
	<stop  offset="0.9894" style="stop-color:#528EBB"/>
	<stop  offset="1" style="stop-color:#508DBB"/>
</linearGradient>
<path fill="url(#SVGID_20_)" d="M66.748,266.141L50.686,282.2c-0.041,0.043-0.063,0.086-0.102,0.129
	c-0.279,0.248-0.457,0.604-0.457,1.005v5.612c0,0.743,0.602,1.344,1.344,1.346l5.611-0.002c0.463,0,0.869-0.231,1.111-0.587
	l16.06-16.059L66.748,266.141z M56.211,289.003h-3.877c-0.512,0-0.927-0.415-0.93-0.929v-3.878c0-0.036,0.018-0.067,0.022-0.102
	l4.886,4.888C56.279,288.986,56.248,289.003,56.211,289.003z"/>
<linearGradient id="SVGID_21_" gradientUnits="userSpaceOnUse" x1="97.4229" y1="684.3066" x2="97.4229" y2="692.041" gradientTransform="matrix(1.2353 0 0 1.2353 -89.9614 -582.6118)">
	<stop  offset="0" style="stop-color:#F3F3F3"/>
	<stop  offset="1" style="stop-color:#BDBDBD"/>
</linearGradient>
<path fill="url(#SVGID_21_)" d="M34.547,267.859l-4.53-4.531c-0.823-0.819-2.152-0.819-2.973,0l-1.438,1.436l7.503,7.504
	l1.438-1.437C35.367,270.01,35.367,268.679,34.547,267.859z"/>
<linearGradient id="SVGID_22_" gradientUnits="userSpaceOnUse" x1="88.75" y1="687.082" x2="88.75" y2="706.6328" gradientTransform="matrix(1.2353 0 0 1.2353 -89.9614 -582.6118)">
	<stop  offset="0" style="stop-color:#F3F3F3"/>
	<stop  offset="1" style="stop-color:#BDBDBD"/>
</linearGradient>
<path fill="url(#SVGID_22_)" d="M24.229,266.141L8.167,282.2c-0.041,0.043-0.064,0.086-0.102,0.129
	c-0.279,0.248-0.457,0.604-0.457,1.005v5.612c0,0.743,0.602,1.344,1.344,1.346l5.611-0.002c0.463,0,0.869-0.231,1.111-0.587
	l16.06-16.059L24.229,266.141z M13.692,289.003H9.815c-0.512,0-0.927-0.415-0.93-0.929v-3.878c0-0.036,0.018-0.067,0.023-0.102
	l4.885,4.888C13.76,288.986,13.729,289.003,13.692,289.003z"/>
<linearGradient id="SVGID_23_" gradientUnits="userSpaceOnUse" x1="124.5586" y1="647.7988" x2="124.5586" y2="674.2998" gradientTransform="matrix(1.2353 0 0 1.2353 -89.9614 -582.6118)">
	<stop  offset="0" style="stop-color:#A4DEF9"/>
	<stop  offset="0.2126" style="stop-color:#98CEEB"/>
	<stop  offset="0.5574" style="stop-color:#7BB3D9"/>
	<stop  offset="0.9894" style="stop-color:#528EBB"/>
	<stop  offset="1" style="stop-color:#508DBB"/>
</linearGradient>
<path fill="url(#SVGID_23_)" d="M73.452,217.615H54.355c-3.767,0-6.817,3.053-6.817,6.818v3.932v11.236v3.931
	c0,3.767,3.052,6.819,6.817,6.819h19.097c3.769,0,6.819-3.054,6.819-6.819v-3.931v-11.236v-3.932
	C80.27,220.667,77.217,217.615,73.452,217.615z M63.902,243.207c-5.096,0-9.227-4.131-9.227-9.225c0-5.096,4.131-9.227,9.227-9.227
	s9.227,4.131,9.227,9.227C73.128,239.076,68.998,243.207,63.902,243.207z"/>
<linearGradient id="SVGID_24_" gradientUnits="userSpaceOnUse" x1="124.5586" y1="656.4707" x2="124.5586" y2="665.6289" gradientTransform="matrix(1.2353 0 0 1.2353 -89.9614 -582.6118)">
	<stop  offset="0" style="stop-color:#A4DEF9"/>
	<stop  offset="0.2126" style="stop-color:#98CEEB"/>
	<stop  offset="0.5574" style="stop-color:#7BB3D9"/>
	<stop  offset="0.9894" style="stop-color:#528EBB"/>
	<stop  offset="1" style="stop-color:#508DBB"/>
</linearGradient>
<path fill="url(#SVGID_24_)" d="M64.271,228.327c0.117,0.379,0.183,0.784,0.183,1.204c0,2.242-1.819,4.06-4.062,4.06
	c-0.756,0-1.463-0.209-2.069-0.571c-0.054,0.312-0.087,0.631-0.087,0.955c0,3.129,2.539,5.666,5.668,5.666
	c3.132,0,5.668-2.537,5.668-5.666C69.572,230.968,67.229,228.514,64.271,228.327z"/>
<linearGradient id="SVGID_25_" gradientUnits="userSpaceOnUse" x1="124.5586" y1="613.5059" x2="124.5586" y2="639.7539" gradientTransform="matrix(1.2353 0 0 1.2353 -89.9614 -582.6118)">
	<stop  offset="0" style="stop-color:#A4DEF9"/>
	<stop  offset="0.2126" style="stop-color:#98CEEB"/>
	<stop  offset="0.5574" style="stop-color:#7BB3D9"/>
	<stop  offset="0.9894" style="stop-color:#528EBB"/>
	<stop  offset="1" style="stop-color:#508DBB"/>
</linearGradient>
<path fill="url(#SVGID_25_)" d="M74.368,196.506c-1.662,0-3.153,0.73-4.177,1.886l-11.193-4.868c0.018-0.18,0.025-0.359,0.025-0.542
	c0-0.337-0.032-0.666-0.092-0.987l11.844-6.883c0.974,0.814,2.226,1.311,3.593,1.311c3.086,0,5.586-2.499,5.586-5.585
	c0-3.083-2.5-5.585-5.586-5.585c-3.082,0-5.584,2.502-5.584,5.585c0,0.454,0.062,0.891,0.161,1.312l-11.668,6.782
	c-1.002-0.948-2.35-1.534-3.838-1.534c-3.084,0-5.584,2.502-5.584,5.585c0,3.085,2.5,5.585,5.584,5.585
	c1.65,0,3.129-0.719,4.152-1.858l11.219,4.878c-0.016,0.167-0.025,0.334-0.025,0.504c0,3.084,2.501,5.585,5.585,5.585
	c3.086,0,5.584-2.501,5.584-5.585S77.454,196.506,74.368,196.506z"/>
<linearGradient id="SVGID_26_" gradientUnits="userSpaceOnUse" x1="124.5586" y1="511.7236" x2="124.5586" y2="535.0117" gradientTransform="matrix(1.2353 0 0 1.2353 -89.9614 -582.6118)">
	<stop  offset="0" style="stop-color:#A4DEF9"/>
	<stop  offset="0.2126" style="stop-color:#98CEEB"/>
	<stop  offset="0.5574" style="stop-color:#7BB3D9"/>
	<stop  offset="0.9894" style="stop-color:#528EBB"/>
	<stop  offset="1" style="stop-color:#508DBB"/>
</linearGradient>
<path fill="url(#SVGID_26_)" d="M63.904,49.521c-7.944,0-14.385,6.44-14.385,14.385c0,7.943,6.439,14.382,14.385,14.382
	c7.943,0,14.384-6.439,14.384-14.382C78.288,55.96,71.85,49.521,63.904,49.521z M71.484,67.256c1.166,1.165,1.166,3.06,0,4.227
	c-1.168,1.167-3.062,1.167-4.229,0l-3.352-3.351l-3.352,3.351c-1.168,1.167-3.062,1.167-4.229,0c-1.167-1.167-1.167-3.062,0-4.227
	l3.352-3.352l-3.352-3.351c-1.167-1.167-1.167-3.062,0-4.229c1.169-1.167,3.062-1.167,4.229,0l3.352,3.352l3.351-3.352
	c1.167-1.167,3.062-1.167,4.229,0c1.166,1.167,1.166,3.062,0,4.229l-3.351,3.351L71.484,67.256z"/>
</svg>
