<?xml version="1.0" encoding="utf-8"?>
<!-- Generator: Adobe Illustrator 15.1.0, SVG Export Plug-In  -->
<!DOCTYPE svg PUBLIC "-//W3C//DTD SVG 1.1//EN" "http://www.w3.org/Graphics/SVG/1.1/DTD/svg11.dtd" [
	<!ENTITY ns_flows "http://ns.adobe.com/Flows/1.0/">
]>
<svg version="1.1"
	 xmlns="http://www.w3.org/2000/svg" xmlns:xlink="http://www.w3.org/1999/xlink" xmlns:a="http://ns.adobe.com/AdobeSVGViewerExtensions/3.0/"
	 x="0px" y="0px" width="142em" height="142em" viewBox="0.831 0.831 142 142"
	 overflow="visible" enable-background="new 0.831 0.831 142 142" xml:space="preserve">
<defs>
</defs>
<radialGradient id="SVGID_1_" cx="71.6958" cy="71.6963" r="71.6963" gradientUnits="userSpaceOnUse">
	<stop  offset="0" style="stop-color:#FFFFFF"/>
	<stop  offset="0.8369" style="stop-color:#E0E1E2"/>
	<stop  offset="1" style="stop-color:#DADBDC"/>
</radialGradient>
<rect fill="url(#SVGID_1_)" width="143.392" height="143.393"/>
<line fill="none" stroke="#BCBEC0" stroke-width="18.3902" stroke-linecap="round" stroke-miterlimit="10" x1="72.181" y1="26.19" x2="72.181" y2="97.547"/>
<line fill="none" stroke="#BCBEC0" stroke-width="18.3902" stroke-linecap="round" stroke-miterlimit="10" x1="107.859" y1="61.869" x2="36.502" y2="61.869"/>
<line fill="none" stroke="#F1F2F2" stroke-width="18.3902" stroke-linecap="round" stroke-miterlimit="10" x1="71.212" y1="25.222" x2="71.212" y2="96.578"/>
<line fill="none" stroke="#F1F2F2" stroke-width="18.3902" stroke-linecap="round" stroke-miterlimit="10" x1="106.89" y1="60.9" x2="35.533" y2="60.9"/>
<path fill="#A7A9AC" d="M38.564,115.318c0-0.238-0.063-0.406-0.189-0.507c-0.127-0.099-0.296-0.148-0.509-0.148
	c-0.128,0-0.247,0.007-0.358,0.021c-0.11,0.014-0.214,0.031-0.313,0.053c-0.097,0.021-0.19,0.044-0.278,0.066
	s-0.172,0.044-0.251,0.063c-0.065,0.018-0.123,0.025-0.174,0.025c-0.094,0-0.178-0.03-0.253-0.092
	c-0.076-0.061-0.113-0.145-0.113-0.252c0-0.106,0.027-0.198,0.081-0.277c0.054-0.08,0.126-0.148,0.219-0.206
	c0.092-0.058,0.199-0.107,0.321-0.146s0.25-0.068,0.385-0.091c0.135-0.023,0.273-0.039,0.415-0.05
	c0.142-0.01,0.278-0.014,0.409-0.014c0.272,0,0.522,0.03,0.749,0.091c0.227,0.062,0.422,0.162,0.585,0.305
	c0.164,0.142,0.291,0.327,0.383,0.558c0.092,0.229,0.139,0.512,0.139,0.847v1.703c0,0.11-0.007,0.216-0.021,0.318
	s-0.042,0.193-0.085,0.272s-0.104,0.143-0.183,0.19c-0.08,0.046-0.185,0.069-0.315,0.069c-0.205,0-0.355-0.066-0.454-0.202
	c-0.098-0.134-0.146-0.326-0.146-0.576c-0.074,0.144-0.164,0.269-0.271,0.375c-0.106,0.104-0.224,0.19-0.351,0.257
	c-0.128,0.066-0.264,0.116-0.407,0.148c-0.144,0.033-0.289,0.05-0.436,0.05c-0.199,0-0.383-0.029-0.554-0.087
	c-0.17-0.059-0.317-0.142-0.44-0.247c-0.123-0.107-0.22-0.234-0.29-0.384c-0.07-0.149-0.104-0.315-0.104-0.5
	c0-0.258,0.054-0.479,0.162-0.664s0.264-0.335,0.47-0.451c0.206-0.116,0.457-0.201,0.754-0.256c0.296-0.054,0.635-0.08,1.015-0.08
	h0.409V115.318z M38.56,116.136c-0.193-0.006-0.385-0.003-0.575,0.009c-0.19,0.011-0.36,0.042-0.511,0.092
	c-0.15,0.049-0.272,0.123-0.364,0.219c-0.092,0.097-0.138,0.228-0.138,0.393c0,0.091,0.017,0.172,0.051,0.245
	c0.034,0.074,0.081,0.139,0.143,0.192c0.061,0.054,0.133,0.096,0.217,0.124c0.083,0.028,0.177,0.042,0.279,0.042
	c0.131,0,0.25-0.023,0.359-0.07c0.109-0.047,0.204-0.114,0.284-0.204c0.079-0.089,0.142-0.199,0.187-0.328
	c0.045-0.128,0.068-0.277,0.068-0.444V116.136z"/>
<path fill="#A7A9AC" d="M43.633,112.777c0-0.271,0.048-0.477,0.147-0.622c0.097-0.144,0.266-0.217,0.504-0.217
	c0.253,0,0.434,0.073,0.543,0.217c0.109,0.146,0.164,0.352,0.164,0.622v4.503c0,0.271-0.055,0.477-0.164,0.623
	c-0.109,0.144-0.29,0.216-0.543,0.216c-0.238,0-0.407-0.072-0.504-0.216c-0.099-0.146-0.147-0.353-0.147-0.623
	c-0.176,0.316-0.39,0.543-0.641,0.682c-0.25,0.14-0.544,0.209-0.879,0.209c-0.258,0-0.491-0.059-0.698-0.177
	c-0.208-0.118-0.384-0.278-0.53-0.481c-0.147-0.202-0.259-0.439-0.337-0.711c-0.078-0.271-0.117-0.558-0.117-0.861
	c0-0.324,0.041-0.619,0.124-0.886c0.082-0.267,0.197-0.496,0.347-0.688c0.148-0.191,0.329-0.34,0.54-0.445
	c0.211-0.104,0.445-0.156,0.7-0.156c0.315,0,0.601,0.069,0.858,0.212c0.257,0.142,0.468,0.345,0.632,0.608V112.777z M42.705,114.59
	c-0.17,0-0.312,0.036-0.428,0.107c-0.114,0.07-0.206,0.168-0.274,0.291c-0.068,0.124-0.118,0.268-0.147,0.433
	c-0.03,0.164-0.045,0.339-0.045,0.523c0,0.161,0.012,0.326,0.034,0.494c0.023,0.167,0.065,0.319,0.128,0.455
	s0.149,0.249,0.261,0.336c0.112,0.089,0.258,0.132,0.437,0.132c0.176,0,0.324-0.028,0.445-0.085c0.12-0.057,0.218-0.144,0.293-0.262
	c0.075-0.117,0.129-0.266,0.162-0.446s0.049-0.393,0.049-0.637c0-0.201-0.015-0.384-0.046-0.549s-0.083-0.307-0.153-0.424
	c-0.071-0.117-0.165-0.209-0.281-0.272C43.023,114.622,42.878,114.59,42.705,114.59z"/>
<path fill="#A7A9AC" d="M48.77,112.777c0-0.271,0.049-0.477,0.147-0.622c0.098-0.144,0.266-0.217,0.504-0.217
	c0.252,0,0.433,0.073,0.543,0.217c0.109,0.146,0.164,0.352,0.164,0.622v4.503c0,0.271-0.055,0.477-0.164,0.623
	c-0.11,0.144-0.291,0.216-0.543,0.216c-0.238,0-0.407-0.072-0.504-0.216c-0.098-0.146-0.147-0.353-0.147-0.623
	c-0.176,0.316-0.389,0.543-0.641,0.682c-0.251,0.14-0.544,0.209-0.879,0.209c-0.258,0-0.491-0.059-0.698-0.177
	s-0.384-0.278-0.53-0.481c-0.146-0.202-0.259-0.439-0.336-0.711c-0.078-0.271-0.117-0.558-0.117-0.861
	c0-0.324,0.042-0.619,0.124-0.886c0.083-0.267,0.198-0.496,0.347-0.688c0.148-0.191,0.329-0.34,0.54-0.445
	c0.211-0.104,0.445-0.156,0.701-0.156c0.315,0,0.601,0.069,0.857,0.212c0.257,0.142,0.468,0.345,0.632,0.608V112.777z
	 M47.842,114.59c-0.17,0-0.313,0.036-0.428,0.107c-0.114,0.07-0.206,0.168-0.274,0.291c-0.068,0.124-0.117,0.268-0.146,0.433
	c-0.03,0.164-0.045,0.339-0.045,0.523c0,0.161,0.011,0.326,0.034,0.494c0.022,0.167,0.065,0.319,0.127,0.455
	s0.149,0.249,0.262,0.336c0.112,0.089,0.258,0.132,0.437,0.132c0.176,0,0.324-0.028,0.445-0.085s0.218-0.144,0.293-0.262
	c0.075-0.117,0.129-0.266,0.162-0.446s0.049-0.393,0.049-0.637c0-0.201-0.016-0.384-0.047-0.549s-0.082-0.307-0.153-0.424
	c-0.071-0.117-0.165-0.209-0.281-0.272C48.16,114.622,48.015,114.59,47.842,114.59z"/>
<path fill="#A7A9AC" d="M53.409,114.675c0-0.269,0.049-0.477,0.146-0.62c0.099-0.146,0.266-0.218,0.505-0.218
	c0.252,0,0.433,0.072,0.542,0.218c0.109,0.144,0.164,0.352,0.164,0.62c0.051-0.136,0.125-0.259,0.221-0.371
	c0.097-0.112,0.21-0.208,0.343-0.288c0.132-0.079,0.277-0.141,0.437-0.186c0.159-0.043,0.326-0.064,0.502-0.064
	c0.182,0,0.358,0.032,0.53,0.097c0.172,0.065,0.323,0.164,0.454,0.297c0.13,0.131,0.236,0.298,0.315,0.497
	c0.08,0.2,0.119,0.434,0.119,0.7v1.924c0,0.271-0.055,0.477-0.164,0.623c-0.109,0.144-0.29,0.216-0.542,0.216
	c-0.238,0-0.406-0.072-0.504-0.216c-0.098-0.146-0.147-0.353-0.147-0.623v-1.863c0-0.137-0.018-0.256-0.053-0.355
	c-0.036-0.101-0.085-0.185-0.147-0.252c-0.062-0.066-0.136-0.117-0.219-0.151c-0.084-0.034-0.174-0.051-0.271-0.051
	c-0.119,0-0.232,0.02-0.339,0.058c-0.105,0.039-0.198,0.096-0.276,0.173c-0.079,0.076-0.14,0.171-0.186,0.285
	c-0.045,0.113-0.068,0.245-0.068,0.396v1.761c0,0.271-0.055,0.477-0.164,0.623c-0.109,0.144-0.29,0.216-0.543,0.216
	c-0.238,0-0.407-0.072-0.504-0.216c-0.099-0.146-0.147-0.353-0.147-0.623L53.409,114.675z"/>
<path fill="#A7A9AC" d="M62.692,115.838c0,0.116-0.039,0.203-0.115,0.26s-0.183,0.086-0.319,0.086h-2.635
	c0.014,0.342,0.113,0.608,0.295,0.797c0.184,0.189,0.462,0.283,0.837,0.283c0.122,0,0.236-0.008,0.343-0.023
	c0.106-0.015,0.21-0.036,0.313-0.063c0.102-0.027,0.204-0.058,0.306-0.091c0.103-0.034,0.208-0.07,0.319-0.107
	c0.037-0.014,0.07-0.021,0.098-0.021c0.093,0,0.168,0.037,0.226,0.108c0.057,0.073,0.085,0.157,0.085,0.254
	c0,0.057-0.01,0.11-0.03,0.162c-0.057,0.136-0.15,0.248-0.281,0.338c-0.131,0.089-0.281,0.161-0.451,0.213
	c-0.17,0.053-0.351,0.088-0.541,0.109c-0.19,0.019-0.372,0.029-0.545,0.029c-0.326,0-0.631-0.047-0.913-0.142
	c-0.283-0.093-0.527-0.232-0.734-0.416c-0.208-0.186-0.37-0.416-0.488-0.694s-0.176-0.6-0.176-0.967c0-0.307,0.057-0.592,0.17-0.858
	c0.114-0.268,0.271-0.499,0.475-0.694c0.203-0.196,0.444-0.351,0.724-0.464c0.279-0.113,0.587-0.17,0.922-0.17
	c0.363,0,0.677,0.056,0.941,0.167c0.264,0.112,0.482,0.263,0.655,0.451c0.173,0.189,0.302,0.409,0.387,0.66
	C62.645,115.295,62.689,115.56,62.692,115.838z M61.555,115.578c-0.008-0.149-0.035-0.29-0.079-0.417
	c-0.044-0.128-0.106-0.238-0.187-0.333c-0.081-0.093-0.18-0.166-0.298-0.218c-0.118-0.053-0.254-0.079-0.41-0.079
	c-0.142,0-0.271,0.027-0.385,0.083c-0.115,0.056-0.215,0.131-0.298,0.226c-0.084,0.095-0.149,0.206-0.196,0.332
	c-0.047,0.126-0.075,0.262-0.083,0.406H61.555z"/>
<path fill="#A7A9AC" d="M66.471,114.855l-0.617,1.936c-0.068,0.219-0.139,0.411-0.213,0.577s-0.155,0.304-0.245,0.415
	c-0.089,0.11-0.191,0.194-0.304,0.251c-0.114,0.057-0.244,0.085-0.392,0.085c-0.12,0-0.227-0.02-0.321-0.062
	c-0.096-0.041-0.182-0.105-0.26-0.193s-0.148-0.201-0.213-0.341c-0.063-0.139-0.124-0.307-0.181-0.502l-0.587-1.967
	c-0.031-0.097-0.066-0.198-0.104-0.305c-0.039-0.105-0.058-0.206-0.058-0.3s0.013-0.178,0.041-0.254
	c0.026-0.074,0.063-0.138,0.111-0.19c0.046-0.054,0.103-0.094,0.168-0.124c0.065-0.029,0.136-0.045,0.213-0.045
	c0.091,0,0.173,0.019,0.249,0.054c0.075,0.035,0.142,0.084,0.2,0.145c0.058,0.062,0.108,0.134,0.149,0.219
	c0.041,0.086,0.073,0.178,0.096,0.277l0.634,2.438l0.694-2.119c0.042-0.14,0.087-0.271,0.134-0.396
	c0.046-0.125,0.105-0.233,0.176-0.327s0.157-0.169,0.258-0.224c0.1-0.056,0.226-0.083,0.376-0.083c0.139,0,0.257,0.019,0.354,0.058
	c0.096,0.038,0.179,0.096,0.249,0.172c0.069,0.077,0.129,0.173,0.179,0.29c0.049,0.116,0.096,0.25,0.138,0.403l0.66,2.193
	c0.1-0.369,0.199-0.736,0.3-1.101c0.101-0.364,0.201-0.731,0.3-1.101c0.028-0.113,0.062-0.225,0.102-0.334
	c0.04-0.109,0.088-0.207,0.145-0.294s0.124-0.156,0.2-0.209c0.077-0.052,0.167-0.078,0.272-0.078c0.17,0,0.302,0.053,0.396,0.16
	c0.093,0.105,0.14,0.244,0.14,0.415c0,0.081-0.014,0.172-0.042,0.272c-0.028,0.098-0.058,0.193-0.089,0.284l-0.634,1.958
	c-0.051,0.162-0.106,0.316-0.166,0.462c-0.06,0.146-0.128,0.275-0.206,0.385c-0.079,0.112-0.169,0.199-0.272,0.266
	c-0.104,0.063-0.228,0.097-0.373,0.097c-0.128,0-0.242-0.021-0.343-0.063c-0.101-0.043-0.192-0.115-0.275-0.217
	c-0.082-0.103-0.16-0.238-0.234-0.409c-0.074-0.17-0.147-0.384-0.221-0.643L66.471,114.855z"/>
<path fill="#A7A9AC" d="M77.26,115.838c0,0.116-0.038,0.203-0.115,0.26c-0.076,0.057-0.183,0.086-0.318,0.086h-2.635
	c0.013,0.342,0.112,0.608,0.295,0.797c0.184,0.189,0.462,0.283,0.836,0.283c0.123,0,0.236-0.008,0.344-0.023
	c0.105-0.015,0.211-0.036,0.313-0.063c0.102-0.027,0.204-0.058,0.306-0.091c0.103-0.034,0.209-0.07,0.319-0.107
	c0.037-0.014,0.069-0.021,0.098-0.021c0.095,0,0.169,0.037,0.226,0.108c0.057,0.073,0.085,0.157,0.085,0.254
	c0,0.057-0.01,0.11-0.029,0.162c-0.057,0.136-0.151,0.248-0.281,0.338c-0.131,0.089-0.28,0.161-0.45,0.213
	c-0.171,0.053-0.352,0.088-0.542,0.109c-0.189,0.019-0.371,0.029-0.544,0.029c-0.327,0-0.632-0.047-0.913-0.142
	c-0.283-0.093-0.527-0.232-0.735-0.416c-0.206-0.186-0.369-0.416-0.487-0.694s-0.177-0.6-0.177-0.967
	c0-0.307,0.057-0.592,0.17-0.858c0.114-0.268,0.272-0.499,0.476-0.694c0.202-0.196,0.444-0.351,0.724-0.464s0.587-0.17,0.922-0.17
	c0.363,0,0.677,0.056,0.94,0.167c0.264,0.112,0.482,0.263,0.655,0.451c0.174,0.189,0.302,0.409,0.388,0.66
	C77.213,115.295,77.257,115.56,77.26,115.838z M76.124,115.578c-0.008-0.149-0.034-0.29-0.079-0.417
	c-0.044-0.128-0.105-0.238-0.187-0.333c-0.081-0.093-0.181-0.166-0.299-0.218c-0.117-0.053-0.254-0.079-0.41-0.079
	c-0.142,0-0.271,0.027-0.385,0.083c-0.115,0.056-0.215,0.131-0.298,0.226c-0.084,0.095-0.149,0.206-0.196,0.332
	s-0.074,0.262-0.083,0.406H76.124z"/>
<path fill="#A7A9AC" d="M79.226,117.28c0,0.271-0.055,0.477-0.164,0.623c-0.109,0.144-0.29,0.216-0.543,0.216
	c-0.238,0-0.406-0.072-0.504-0.216c-0.099-0.146-0.147-0.353-0.147-0.623v-4.499c0-0.27,0.049-0.477,0.147-0.621
	c0.098-0.145,0.266-0.217,0.504-0.217c0.253,0,0.434,0.072,0.543,0.217s0.164,0.352,0.164,0.621V117.28z"/>
<path fill="#A7A9AC" d="M84.235,115.838c0,0.116-0.038,0.203-0.114,0.26c-0.077,0.057-0.183,0.086-0.319,0.086h-2.635
	c0.014,0.342,0.113,0.608,0.295,0.797c0.184,0.189,0.463,0.283,0.837,0.283c0.122,0,0.235-0.008,0.344-0.023
	c0.105-0.015,0.21-0.036,0.312-0.063c0.103-0.027,0.205-0.058,0.307-0.091c0.103-0.034,0.208-0.07,0.32-0.107
	c0.036-0.014,0.068-0.021,0.098-0.021c0.093,0,0.169,0.037,0.226,0.108c0.057,0.073,0.085,0.157,0.085,0.254
	c0,0.057-0.01,0.11-0.03,0.162c-0.057,0.136-0.15,0.248-0.28,0.338c-0.131,0.089-0.281,0.161-0.452,0.213
	c-0.17,0.053-0.35,0.088-0.541,0.109c-0.188,0.019-0.37,0.029-0.545,0.029c-0.325,0-0.63-0.047-0.911-0.142
	c-0.284-0.093-0.528-0.232-0.735-0.416c-0.207-0.186-0.37-0.416-0.488-0.694c-0.117-0.278-0.176-0.6-0.176-0.967
	c0-0.307,0.057-0.592,0.17-0.858c0.114-0.268,0.271-0.499,0.475-0.694c0.203-0.196,0.444-0.351,0.725-0.464
	c0.278-0.113,0.586-0.17,0.921-0.17c0.363,0,0.678,0.056,0.94,0.167c0.265,0.112,0.482,0.263,0.656,0.451
	c0.173,0.189,0.302,0.409,0.387,0.66C84.189,115.295,84.233,115.56,84.235,115.838z M83.099,115.578
	c-0.009-0.149-0.035-0.29-0.079-0.417c-0.044-0.128-0.105-0.238-0.187-0.333c-0.082-0.093-0.182-0.166-0.3-0.218
	c-0.117-0.053-0.253-0.079-0.41-0.079c-0.142,0-0.271,0.027-0.384,0.083c-0.115,0.056-0.216,0.131-0.299,0.226
	c-0.084,0.095-0.149,0.206-0.195,0.332c-0.047,0.126-0.075,0.262-0.083,0.406H83.099z"/>
<path fill="#A7A9AC" d="M84.86,114.675c0-0.269,0.049-0.477,0.146-0.62c0.099-0.146,0.268-0.218,0.506-0.218
	c0.251,0,0.433,0.072,0.543,0.218c0.107,0.144,0.162,0.352,0.162,0.62c0.057-0.136,0.135-0.259,0.233-0.371
	c0.098-0.112,0.21-0.208,0.336-0.288c0.125-0.079,0.264-0.141,0.411-0.186c0.147-0.043,0.301-0.064,0.46-0.064
	c0.147,0,0.292,0.019,0.435,0.057c0.144,0.038,0.278,0.1,0.401,0.184c0.123,0.083,0.231,0.188,0.325,0.316s0.167,0.281,0.218,0.46
	c0.087-0.19,0.191-0.351,0.311-0.481s0.247-0.234,0.388-0.314c0.138-0.079,0.283-0.136,0.435-0.17
	c0.152-0.034,0.305-0.051,0.458-0.051c0.182,0,0.355,0.032,0.522,0.097c0.166,0.065,0.312,0.164,0.438,0.297
	c0.125,0.131,0.227,0.298,0.301,0.497c0.076,0.2,0.114,0.434,0.114,0.7v1.924c0,0.271-0.056,0.477-0.165,0.623
	c-0.108,0.144-0.289,0.216-0.542,0.216c-0.238,0-0.405-0.072-0.504-0.216c-0.099-0.146-0.147-0.353-0.147-0.623v-1.863
	c0-0.129-0.018-0.242-0.052-0.344c-0.034-0.1-0.081-0.186-0.142-0.255c-0.062-0.069-0.133-0.122-0.216-0.157
	c-0.081-0.035-0.17-0.054-0.263-0.054c-0.117,0-0.228,0.019-0.333,0.056c-0.104,0.037-0.197,0.094-0.274,0.17
	c-0.077,0.077-0.14,0.175-0.188,0.294c-0.047,0.12-0.069,0.263-0.069,0.43v1.724c0,0.271-0.056,0.477-0.165,0.623
	c-0.108,0.144-0.289,0.216-0.542,0.216c-0.238,0-0.406-0.072-0.504-0.216c-0.099-0.146-0.147-0.353-0.147-0.623v-1.783
	c0-0.292-0.061-0.514-0.18-0.664c-0.121-0.15-0.286-0.226-0.492-0.226c-0.123,0-0.236,0.021-0.341,0.061
	c-0.105,0.039-0.196,0.098-0.272,0.174c-0.077,0.076-0.138,0.172-0.182,0.285c-0.043,0.114-0.066,0.244-0.066,0.393v1.761
	c0,0.271-0.055,0.477-0.162,0.623c-0.11,0.144-0.292,0.216-0.543,0.216c-0.238,0-0.407-0.072-0.506-0.216
	c-0.098-0.146-0.146-0.353-0.146-0.623V114.675z"/>
<path fill="#A7A9AC" d="M97.02,115.838c0,0.116-0.037,0.203-0.114,0.26c-0.076,0.057-0.183,0.086-0.318,0.086h-2.636
	c0.015,0.342,0.113,0.608,0.295,0.797c0.184,0.189,0.463,0.283,0.838,0.283c0.122,0,0.235-0.008,0.343-0.023
	c0.106-0.015,0.21-0.036,0.312-0.063c0.102-0.027,0.204-0.058,0.307-0.091c0.102-0.034,0.208-0.07,0.319-0.107
	c0.036-0.014,0.069-0.021,0.098-0.021c0.094,0,0.169,0.037,0.226,0.108c0.058,0.073,0.086,0.157,0.086,0.254
	c0,0.057-0.011,0.11-0.03,0.162c-0.058,0.136-0.15,0.248-0.281,0.338c-0.131,0.089-0.281,0.161-0.451,0.213
	c-0.171,0.053-0.351,0.088-0.541,0.109c-0.189,0.019-0.371,0.029-0.545,0.029c-0.325,0-0.63-0.047-0.912-0.142
	c-0.284-0.093-0.527-0.232-0.735-0.416c-0.207-0.186-0.369-0.416-0.486-0.694c-0.119-0.278-0.178-0.6-0.178-0.967
	c0-0.307,0.058-0.592,0.171-0.858c0.113-0.268,0.271-0.499,0.474-0.694c0.203-0.196,0.444-0.351,0.725-0.464
	c0.279-0.113,0.587-0.17,0.922-0.17c0.362,0,0.677,0.056,0.939,0.167c0.266,0.112,0.482,0.263,0.657,0.451
	c0.172,0.189,0.302,0.409,0.387,0.66S97.018,115.56,97.02,115.838z M95.884,115.578c-0.009-0.149-0.035-0.29-0.078-0.417
	c-0.045-0.128-0.106-0.238-0.188-0.333c-0.081-0.093-0.181-0.166-0.299-0.218c-0.117-0.053-0.254-0.079-0.411-0.079
	c-0.142,0-0.271,0.027-0.384,0.083c-0.115,0.056-0.216,0.131-0.299,0.226s-0.149,0.206-0.195,0.332
	c-0.047,0.126-0.075,0.262-0.083,0.406H95.884z"/>
<path fill="#A7A9AC" d="M97.625,114.675c0-0.269,0.05-0.477,0.147-0.62c0.098-0.146,0.267-0.218,0.505-0.218
	c0.251,0,0.433,0.072,0.542,0.218c0.108,0.144,0.163,0.352,0.163,0.62c0.052-0.136,0.125-0.259,0.222-0.371s0.211-0.208,0.344-0.288
	c0.131-0.079,0.277-0.141,0.436-0.186c0.159-0.043,0.326-0.064,0.503-0.064c0.182,0,0.358,0.032,0.529,0.097
	c0.171,0.065,0.322,0.164,0.453,0.297c0.131,0.131,0.236,0.298,0.316,0.497c0.079,0.2,0.119,0.434,0.119,0.7v1.924
	c0,0.271-0.056,0.477-0.165,0.623c-0.109,0.144-0.289,0.216-0.543,0.216c-0.238,0-0.405-0.072-0.504-0.216
	c-0.098-0.146-0.146-0.353-0.146-0.623v-1.863c0-0.137-0.019-0.256-0.054-0.355c-0.035-0.101-0.085-0.185-0.147-0.252
	c-0.062-0.066-0.135-0.117-0.218-0.151c-0.085-0.034-0.175-0.051-0.271-0.051c-0.12,0-0.232,0.02-0.339,0.058
	c-0.106,0.039-0.199,0.096-0.276,0.173c-0.079,0.076-0.14,0.171-0.186,0.285c-0.045,0.113-0.068,0.245-0.068,0.396v1.761
	c0,0.271-0.055,0.477-0.163,0.623c-0.11,0.144-0.291,0.216-0.543,0.216c-0.238,0-0.407-0.072-0.505-0.216
	c-0.098-0.146-0.146-0.353-0.146-0.623L97.625,114.675z"/>
<path fill="#A7A9AC" d="M103.085,113.82l0.093-0.882c0.01-0.085,0.025-0.17,0.046-0.256c0.021-0.085,0.055-0.162,0.103-0.233
	c0.047-0.07,0.109-0.128,0.188-0.172c0.08-0.045,0.184-0.066,0.311-0.066c0.188,0,0.323,0.065,0.406,0.196
	c0.084,0.13,0.126,0.325,0.126,0.582v0.831h0.478c0.145,0,0.262,0.036,0.353,0.108s0.136,0.187,0.136,0.343
	c0,0.145-0.047,0.253-0.144,0.325c-0.097,0.073-0.227,0.108-0.392,0.108h-0.431v1.609c0,0.171,0.003,0.315,0.009,0.435
	s0.024,0.217,0.055,0.291c0.032,0.076,0.079,0.13,0.142,0.162c0.062,0.033,0.152,0.049,0.268,0.049c0.083,0,0.162,0.004,0.24,0.011
	c0.078,0.008,0.147,0.024,0.207,0.053s0.106,0.071,0.143,0.126c0.035,0.056,0.053,0.132,0.053,0.228c0,0.108-0.026,0.195-0.081,0.26
	c-0.053,0.066-0.131,0.116-0.23,0.151c-0.103,0.036-0.222,0.06-0.363,0.072c-0.141,0.013-0.297,0.02-0.47,0.02
	c-0.198-0.003-0.38-0.033-0.543-0.09s-0.305-0.146-0.422-0.27c-0.117-0.124-0.208-0.284-0.272-0.481s-0.096-0.439-0.096-0.726
	v-1.899H102.8c-0.153,0-0.281-0.035-0.383-0.108c-0.103-0.072-0.153-0.189-0.153-0.351c0-0.128,0.04-0.231,0.122-0.309
	c0.079-0.078,0.202-0.117,0.366-0.117H103.085z"/>
</svg>
