<?xml version="1.0" encoding="utf-8"?>
<!-- Generator: Adobe Illustrator 15.1.0, SVG Export Plug-In  -->
<!DOCTYPE svg PUBLIC "-//W3C//DTD SVG 1.1//EN" "http://www.w3.org/Graphics/SVG/1.1/DTD/svg11.dtd" [
	<!ENTITY ns_flows "http://ns.adobe.com/Flows/1.0/">
]>
<svg version="1.1"
	 xmlns="http://www.w3.org/2000/svg" xmlns:xlink="http://www.w3.org/1999/xlink" xmlns:a="http://ns.adobe.com/AdobeSVGViewerExtensions/3.0/"
	 x="0px" y="0px" width="13.8em" height="6.84em" viewBox="-5.438 -5.438 68 34"
	 overflow="visible" enable-background="new -5.438 -5.438 68 34" xml:space="preserve">
<defs>
</defs>
<path fill="#41A648" d="M11.57,0C5.18,0,0,5.18,0,11.57c0,6.39,5.18,11.57,11.57,11.57c6.389,0,11.57-5.181,11.57-11.57
	C23.14,5.18,17.959,0,11.57,0z M16.799,13.437h-3.363v3.361c0,1.031-0.836,1.868-1.867,1.868c-1.031,0-1.867-0.837-1.867-1.868
	v-3.361H6.34c-1.031,0-1.866-0.837-1.866-1.867c0-1.031,0.835-1.868,1.866-1.868h3.363V6.341c0-1.032,0.835-1.868,1.867-1.868
	c1.031,0,1.867,0.836,1.867,1.868v3.361h3.363c1.031,0,1.867,0.836,1.867,1.868C18.666,12.6,17.83,13.437,16.799,13.437z"/>
<path fill="#67B753" d="M45.586,0c-6.39,0-11.569,5.18-11.569,11.57c0,6.39,5.18,11.57,11.569,11.57s11.57-5.181,11.57-11.57
	C57.156,5.18,51.976,0,45.586,0z M50.816,13.437h-3.363v3.361c0,1.031-0.836,1.868-1.867,1.868s-1.866-0.837-1.866-1.868v-3.361
	h-3.362c-1.031,0-1.867-0.837-1.867-1.867c0-1.031,0.836-1.868,1.867-1.868h3.362V6.341c0-1.032,0.835-1.868,1.866-1.868
	s1.867,0.836,1.867,1.868v3.361h3.363c1.03,0,1.866,0.836,1.866,1.868C52.683,12.6,51.847,13.437,50.816,13.437z"/>
</svg>
