<?xml version="1.0" encoding="utf-8"?>
<!-- Generator: Adobe Illustrator 15.1.0, SVG Export Plug-In  -->
<!DOCTYPE svg PUBLIC "-//W3C//DTD SVG 1.1//EN" "http://www.w3.org/Graphics/SVG/1.1/DTD/svg11.dtd" [
	<!ENTITY ns_flows "http://ns.adobe.com/Flows/1.0/">
]>
<svg version="1.1"
	 xmlns="http://www.w3.org/2000/svg" xmlns:xlink="http://www.w3.org/1999/xlink" xmlns:a="http://ns.adobe.com/AdobeSVGViewerExtensions/3.0/"
	 x="0px" y="0px" width="14em" height="7em" viewBox="0 0 140 70" overflow="visible" enable-background="new 0 0 140 70"
	 xml:space="preserve">
<defs>
</defs>
<rect fill="none" width="70" height="70"/>
<rect x="70" fill="none" width="70" height="70"/>
<path fill="#FFFFFF" d="M22.123,23.646c0,0-2.471,6.79-2.471,7.372c0,0.581-1.744,5.814-1.744,6.396c0,0.583,1.744,7.79,2.108,8.037
	c0.363,0.249,2.544,2.397,3.125,2.995c0.582,0.598,3.489,2.052,5.524,2.052c2.035,0,8.431,0,8.431,0h5.524l5.089-4.064l3.343-5.82
	c0,0,0.144-4.712,0-5.627c-0.146-0.915-1.165-6.584-1.454-7.165c-0.29-0.581-3.052-6.25-3.052-6.25l-5.234-2.036L22.123,23.646z"/>
<circle fill="#41A648" cx="35" cy="35" r="25"/>
<path fill="#FFFFFF" d="M46.186,25.569c0-0.04-0.005-0.078-0.006-0.118c0.008-0.153,0.005-0.31-0.016-0.467
	c-0.181-1.431-1.489-2.444-2.919-2.264l-14.632,1.854c-1.288,0.163-2.234,1.237-2.279,2.494c-0.001,0.032-0.005,0.064-0.005,0.097
	v8.406c-0.306-0.06-0.622-0.092-0.944-0.092c-2.686,0-4.862,2.177-4.862,4.861s2.176,4.862,4.862,4.862
	c2.684,0,4.862-2.178,4.862-4.862V29.632l12.022-1.521v10.994c-0.307-0.062-0.623-0.093-0.944-0.093
	c-2.687,0-4.862,2.176-4.862,4.86c0,2.686,2.176,4.862,4.862,4.862c2.686,0,4.861-2.177,4.861-4.862c0-0.04-0.003-0.08-0.005-0.122
	c0.002-0.021,0.005-0.042,0.005-0.062V25.569z"/>
<polygon fill="#FFFFFF" points="99.924,18.592 85.457,34.282 104.057,54.609 121.771,42.652 123.248,31.729 110.994,15.935 "/>
<path fill="#41A648" d="M105,10c-13.807,0-25,11.192-25,25c0,13.805,11.193,25,25,25c13.805,0,25-11.195,25-25
	C130,21.192,118.805,10,105,10z M116.301,39.033h-7.266v7.264c0,2.229-1.807,4.035-4.035,4.035s-4.033-1.807-4.033-4.035v-7.264
	h-7.264c-2.229,0-4.035-1.807-4.035-4.033c0-2.229,1.807-4.036,4.035-4.036h7.264V23.7c0-2.228,1.805-4.034,4.033-4.034
	s4.035,1.807,4.035,4.034v7.264h7.266c2.227,0,4.033,1.808,4.033,4.036C120.334,37.227,118.527,39.033,116.301,39.033z"/>
</svg>
