<?xml version="1.0" encoding="utf-8"?>
<!-- Generator: Adobe Illustrator 15.1.0, SVG Export Plug-In  -->
<!DOCTYPE svg PUBLIC "-//W3C//DTD SVG 1.1//EN" "http://www.w3.org/Graphics/SVG/1.1/DTD/svg11.dtd" [
	<!ENTITY ns_flows "http://ns.adobe.com/Flows/1.0/">
]>
<svg version="1.1"
	 xmlns="http://www.w3.org/2000/svg" xmlns:xlink="http://www.w3.org/1999/xlink" xmlns:a="http://ns.adobe.com/AdobeSVGViewerExtensions/3.0/"
	 x="0px" y="0px" width="340px" height="71px" viewBox="-7.644 -4.566 340 71"
	 overflow="visible" enable-background="new -7.644 -4.566 340 71" xml:space="preserve">
<defs>
</defs>
<linearGradient id="SVGID_1_" gradientUnits="userSpaceOnUse" x1="79.7041" y1="1.4678" x2="79.7041" y2="24.5493">
	<stop  offset="0" style="stop-color:#F2F2F2"/>
	<stop  offset="1" style="stop-color:#BDBDBD"/>
</linearGradient>
<path fill="url(#SVGID_1_)" d="M79.703,1.468c-6.373,0-11.54,5.166-11.54,11.541c0,6.374,5.167,11.541,11.54,11.541
	c6.374,0,11.541-5.167,11.541-11.541C91.244,6.634,86.077,1.468,79.703,1.468z M85.786,15.697c0.937,0.936,0.937,2.455,0,3.393
	c-0.938,0.938-2.457,0.938-3.394,0l-2.688-2.689l-2.688,2.689c-0.937,0.938-2.455,0.938-3.392,0c-0.938-0.938-0.938-2.457,0-3.393
	l2.687-2.689l-2.687-2.688c-0.938-0.938-0.938-2.457,0-3.394c0.937-0.938,2.456-0.938,3.393,0l2.688,2.688l2.688-2.688
	c0.937-0.938,2.456-0.938,3.394,0c0.937,0.937,0.937,2.457,0,3.394l-2.689,2.688L85.786,15.697z"/>
<linearGradient id="SVGID_2_" gradientUnits="userSpaceOnUse" x1="212.8462" y1="35.6533" x2="212.8462" y2="58.7354">
	<stop  offset="0" style="stop-color:#F2F2F2"/>
	<stop  offset="1" style="stop-color:#BDBDBD"/>
</linearGradient>
<path fill="url(#SVGID_2_)" d="M212.845,35.653c-6.374,0-11.54,5.167-11.54,11.541c0,6.375,5.166,11.541,11.54,11.541
	c6.376,0,11.543-5.166,11.543-11.541C224.388,40.82,219.221,35.653,212.845,35.653z M219.043,49.593l-12.401,0.001
	c-1.325,0-2.398-1.074-2.398-2.399c0-1.326,1.073-2.4,2.398-2.399h12.403c1.325-0.001,2.399,1.073,2.399,2.398
	C221.445,48.52,220.371,49.593,219.043,49.593z"/>
<linearGradient id="SVGID_3_" gradientUnits="userSpaceOnUse" x1="279.4175" y1="35.6533" x2="279.4175" y2="58.7354">
	<stop  offset="0" style="stop-color:#F2F2F2"/>
	<stop  offset="1" style="stop-color:#BDBDBD"/>
</linearGradient>
<path fill="url(#SVGID_3_)" d="M279.417,35.653c-6.373,0-11.541,5.167-11.541,11.541c0,6.375,5.168,11.541,11.541,11.541
	c6.374,0,11.541-5.166,11.541-11.541C290.958,40.82,285.792,35.653,279.417,35.653z M285.618,49.594h-3.802v3.804
	c0.001,1.325-1.073,2.396-2.399,2.396s-2.399-1.071-2.399-2.397v-3.803l-3.804,0.002c-1.324,0-2.398-1.075-2.398-2.4
	c-0.001-1.326,1.074-2.4,2.399-2.399h3.803l-0.001-3.802c0-1.325,1.074-2.4,2.399-2.4c1.327,0,2.401,1.075,2.4,2.4v3.802h3.803
	c1.325-0.001,2.398,1.073,2.398,2.398C288.017,48.521,286.944,49.594,285.618,49.594z"/>
<linearGradient id="SVGID_4_" gradientUnits="userSpaceOnUse" x1="146.2744" y1="36.0391" x2="146.2744" y2="59.1191">
	<stop  offset="0" style="stop-color:#F2F2F2"/>
	<stop  offset="1" style="stop-color:#BDBDBD"/>
</linearGradient>
<path fill="url(#SVGID_4_)" d="M146.275,36.039c-6.374,0-14.515,5.165-14.515,11.539c0,6.375,8.141,11.541,14.515,11.541
	c6.375,0,14.514-5.166,14.514-11.541C160.789,41.204,152.649,36.039,146.275,36.039z M146.275,54.981
	c-4.088,0-7.403-3.314-7.403-7.403c0-4.088,3.314-7.402,7.403-7.402c4.089,0,7.403,3.314,7.403,7.402
	C153.678,51.667,150.364,54.981,146.275,54.981z"/>
<linearGradient id="SVGID_5_" gradientUnits="userSpaceOnUse" x1="146.2754" y1="43.0459" x2="146.2754" y2="52.127">
	<stop  offset="0" style="stop-color:#F2F2F2"/>
	<stop  offset="1" style="stop-color:#BDBDBD"/>
</linearGradient>
<path fill="url(#SVGID_5_)" d="M146.569,43.046c0.095,0.306,0.146,0.631,0.146,0.968c0,1.799-1.459,3.257-3.258,3.257
	c-0.607,0-1.173-0.169-1.661-0.457c-0.042,0.249-0.069,0.504-0.069,0.765c0,2.511,2.036,4.549,4.547,4.549
	c2.512,0,4.548-2.038,4.548-4.549C150.823,45.166,148.943,43.197,146.569,43.046z"/>
<linearGradient id="SVGID_6_" gradientUnits="userSpaceOnUse" x1="13.1328" y1="34.0615" x2="13.1328" y2="60.3271">
	<stop  offset="0" style="stop-color:#F2F2F2"/>
	<stop  offset="1" style="stop-color:#BDBDBD"/>
</linearGradient>
<path fill="url(#SVGID_6_)" d="M20.795,34.062H5.471C2.449,34.062,0,36.511,0,39.534v3.153v9.016v3.152
	c0,3.021,2.449,5.472,5.471,5.472h15.324c3.022,0,5.47-2.45,5.47-5.472v-3.152v-9.016v-3.153
	C26.265,36.511,23.817,34.062,20.795,34.062z M13.133,54.597c-4.088,0-7.403-3.313-7.403-7.402s3.314-7.401,7.403-7.401
	s7.403,3.312,7.403,7.401S17.222,54.597,13.133,54.597z"/>
<linearGradient id="SVGID_7_" gradientUnits="userSpaceOnUse" x1="13.1338" y1="42.6543" x2="13.1338" y2="51.7344">
	<stop  offset="0" style="stop-color:#F2F2F2"/>
	<stop  offset="1" style="stop-color:#BDBDBD"/>
</linearGradient>
<path fill="url(#SVGID_7_)" d="M13.426,42.654c0.095,0.305,0.146,0.631,0.146,0.967c0,1.8-1.458,3.259-3.257,3.259
	c-0.608,0-1.175-0.17-1.662-0.458c-0.042,0.25-0.068,0.504-0.068,0.765c0,2.513,2.035,4.548,4.547,4.548
	c2.511,0,4.548-2.035,4.548-4.548C17.681,44.773,15.801,42.809,13.426,42.654z"/>
<linearGradient id="SVGID_8_" gradientUnits="userSpaceOnUse" x1="88.3008" y1="36.1279" x2="88.3008" y2="43.7949">
	<stop  offset="0" style="stop-color:#F2F2F2"/>
	<stop  offset="1" style="stop-color:#BDBDBD"/>
</linearGradient>
<path fill="url(#SVGID_8_)" d="M91.641,40.258l-3.636-3.636c-0.659-0.658-1.727-0.658-2.385,0l-1.152,1.153l6.02,6.02l1.153-1.15
	C92.298,41.985,92.298,40.917,91.641,40.258z"/>
<linearGradient id="SVGID_9_" gradientUnits="userSpaceOnUse" x1="79.7031" y1="38.8799" x2="79.7031" y2="58.2598">
	<stop  offset="0" style="stop-color:#F2F2F2"/>
	<stop  offset="1" style="stop-color:#BDBDBD"/>
</linearGradient>
<path fill="url(#SVGID_9_)" d="M83.362,38.88L70.474,51.767c-0.033,0.034-0.053,0.07-0.082,0.104
	c-0.224,0.198-0.369,0.484-0.369,0.806v4.504c0,0.596,0.484,1.079,1.08,1.08l4.503-0.001c0.37,0,0.695-0.187,0.891-0.472
	l12.885-12.886L83.362,38.88z M74.908,57.227h-3.111c-0.412,0-0.745-0.334-0.746-0.745v-3.112c0-0.028,0.013-0.053,0.016-0.082
	l3.922,3.923C74.96,57.213,74.937,57.227,74.908,57.227z"/>
<linearGradient id="SVGID_10_" gradientUnits="userSpaceOnUse" x1="212.7896" y1="1.8281" x2="212.7896" y2="24.1904">
	<stop  offset="0" style="stop-color:#F2F2F2"/>
	<stop  offset="1" style="stop-color:#BDBDBD"/>
</linearGradient>
<polygon fill="url(#SVGID_10_)" points="212.789,1.828 216.705,8.799 224.546,10.369 219.125,16.248 220.053,24.19 212.789,20.85 
	205.523,24.19 206.452,16.248 201.033,10.369 208.873,8.799 "/>
<linearGradient id="SVGID_11_" gradientUnits="userSpaceOnUse" x1="146.2754" y1="3.3027" x2="146.2754" y2="22.7144">
	<stop  offset="0" style="stop-color:#F2F2F2"/>
	<stop  offset="1" style="stop-color:#BDBDBD"/>
</linearGradient>
<path fill="url(#SVGID_11_)" d="M152.429,3.303c-2.337,0-4.48,0.827-6.155,2.202c-1.674-1.375-3.817-2.202-6.154-2.202
	c-5.36,0-9.707,4.345-9.707,9.706c0,5.361,4.347,9.706,9.707,9.706c2.336,0,4.48-0.827,6.154-2.203
	c1.675,1.376,3.818,2.203,6.155,2.203c5.36,0,9.708-4.345,9.708-9.706C162.137,7.648,157.79,3.303,152.429,3.303z M152.429,20.145
	c-1.662,0-3.187-0.573-4.399-1.524c-1.664-1.308-2.738-3.333-2.738-5.613c0-2.279,1.073-4.306,2.737-5.611
	c1.214-0.952,2.738-1.525,4.4-1.525c3.941,0,7.138,3.195,7.138,7.137S156.371,20.145,152.429,20.145z"/>
<linearGradient id="SVGID_12_" gradientUnits="userSpaceOnUse" x1="279.2778" y1="0" x2="279.2778" y2="26.0176">
	<stop  offset="0" style="stop-color:#F2F2F2"/>
	<stop  offset="1" style="stop-color:#BDBDBD"/>
</linearGradient>
<path fill="url(#SVGID_12_)" d="M287.676,17.055c-1.336,0-2.532,0.587-3.353,1.513l-8.981-3.906
	c0.014-0.144,0.021-0.289,0.021-0.435c0-0.271-0.028-0.534-0.072-0.792l9.503-5.523c0.778,0.655,1.784,1.052,2.883,1.052
	c2.474,0,4.48-2.007,4.48-4.481c0-2.475-2.007-4.482-4.48-4.482c-2.477,0-4.482,2.007-4.482,4.482c0,0.363,0.049,0.713,0.13,1.052
	l-9.363,5.441c-0.803-0.761-1.883-1.23-3.08-1.23c-2.475,0-4.481,2.007-4.481,4.482c0,2.475,2.007,4.481,4.481,4.481
	c1.325,0,2.512-0.578,3.333-1.491l9,3.914c-0.012,0.133-0.02,0.268-0.02,0.404c0,2.476,2.006,4.482,4.482,4.482
	c2.474,0,4.48-2.006,4.48-4.482C292.157,19.061,290.15,17.055,287.676,17.055z"/>
<linearGradient id="SVGID_13_" gradientUnits="userSpaceOnUse" x1="13.1328" y1="1.5327" x2="13.1328" y2="24.4854">
	<stop  offset="0" style="stop-color:#F2F2F2"/>
	<stop  offset="1" style="stop-color:#BDBDBD"/>
</linearGradient>
<path fill="url(#SVGID_13_)" d="M13.133,1.533c-6.339,0-11.477,5.137-11.477,11.476c0,6.338,5.137,11.477,11.477,11.477
	c6.338,0,11.476-5.139,11.476-11.477C24.609,6.67,19.472,1.533,13.133,1.533z M13.133,5.09c1.413,0,2.735,0.374,3.884,1.022
	l-10.78,10.78c-0.649-1.148-1.022-2.471-1.022-3.885C5.215,8.634,8.759,5.09,13.133,5.09z M13.133,20.927
	c-1.31,0-2.543-0.323-3.632-0.887L20.165,9.378c0.562,1.087,0.887,2.32,0.887,3.63C21.052,17.382,17.506,20.927,13.133,20.927z"/>
<linearGradient id="SVGID_14_" gradientUnits="userSpaceOnUse" x1="112.9893" y1="1.4678" x2="112.9893" y2="24.5493">
	<stop  offset="0" style="stop-color:#A2DEF9"/>
	<stop  offset="0.2126" style="stop-color:#96CEED"/>
	<stop  offset="0.5574" style="stop-color:#79B2D9"/>
	<stop  offset="0.9894" style="stop-color:#518DBB"/>
	<stop  offset="1" style="stop-color:#508CBA"/>
</linearGradient>
<path fill="url(#SVGID_14_)" d="M112.989,1.468c-6.374,0-11.541,5.166-11.541,11.541c0,6.374,5.167,11.541,11.541,11.541
	c6.373,0,11.541-5.167,11.541-11.541C124.53,6.634,119.362,1.468,112.989,1.468z M119.07,15.697c0.938,0.936,0.938,2.455,0,3.393
	c-0.937,0.938-2.455,0.938-3.392,0l-2.689-2.689l-2.688,2.689c-0.938,0.938-2.456,0.938-3.394,0c-0.937-0.938-0.937-2.457,0-3.393
	l2.689-2.689l-2.689-2.688c-0.937-0.938-0.937-2.457,0-3.394c0.938-0.938,2.457-0.938,3.394,0l2.688,2.688l2.688-2.688
	c0.937-0.938,2.456-0.938,3.393,0c0.938,0.937,0.938,2.457,0,3.394l-2.688,2.688L119.07,15.697z"/>
<linearGradient id="SVGID_15_" gradientUnits="userSpaceOnUse" x1="246.1313" y1="35.6533" x2="246.1313" y2="58.7354">
	<stop  offset="0" style="stop-color:#A2DEF9"/>
	<stop  offset="0.2126" style="stop-color:#96CEED"/>
	<stop  offset="0.5574" style="stop-color:#79B2D9"/>
	<stop  offset="0.9894" style="stop-color:#518DBB"/>
	<stop  offset="1" style="stop-color:#508CBA"/>
</linearGradient>
<path fill="url(#SVGID_15_)" d="M246.132,35.653c-6.374,0-11.542,5.167-11.542,11.541c0,6.375,5.168,11.541,11.542,11.541
	c6.373,0,11.54-5.166,11.54-11.541C257.672,40.82,252.505,35.653,246.132,35.653z M252.332,49.593l-12.404,0.001
	c-1.325,0-2.399-1.074-2.399-2.399c0-1.326,1.074-2.4,2.4-2.399h12.404c1.323-0.001,2.398,1.073,2.398,2.398
	C254.731,48.52,253.656,49.593,252.332,49.593z"/>
<linearGradient id="SVGID_16_" gradientUnits="userSpaceOnUse" x1="312.7036" y1="35.6533" x2="312.7036" y2="58.7354">
	<stop  offset="0" style="stop-color:#A2DEF9"/>
	<stop  offset="0.2126" style="stop-color:#96CEED"/>
	<stop  offset="0.5574" style="stop-color:#79B2D9"/>
	<stop  offset="0.9894" style="stop-color:#518DBB"/>
	<stop  offset="1" style="stop-color:#508CBA"/>
</linearGradient>
<path fill="url(#SVGID_16_)" d="M312.703,35.653c-6.373,0-11.541,5.167-11.541,11.541c0,6.375,5.168,11.541,11.541,11.541
	c6.377,0,11.543-5.166,11.543-11.541C324.246,40.82,319.08,35.653,312.703,35.653z M318.904,49.594h-3.802v3.804
	c0.001,1.325-1.073,2.396-2.399,2.396c-1.325,0-2.398-1.071-2.398-2.397l-0.001-3.803l-3.803,0.002c-1.324,0-2.398-1.075-2.398-2.4
	c0-1.326,1.074-2.4,2.399-2.399h3.802v-3.802c0-1.325,1.074-2.4,2.398-2.4c1.327,0,2.401,1.075,2.4,2.4v3.802h3.803
	c1.325-0.001,2.398,1.073,2.398,2.398C321.303,48.521,320.23,49.594,318.904,49.594z"/>
<linearGradient id="SVGID_17_" gradientUnits="userSpaceOnUse" x1="179.5591" y1="36.0449" x2="179.5591" y2="59.127">
	<stop  offset="0" style="stop-color:#A2DEF9"/>
	<stop  offset="0.2126" style="stop-color:#96CEED"/>
	<stop  offset="0.5574" style="stop-color:#79B2D9"/>
	<stop  offset="0.9894" style="stop-color:#518DBB"/>
	<stop  offset="1" style="stop-color:#508CBA"/>
</linearGradient>
<path fill="url(#SVGID_17_)" d="M179.56,36.045c-6.375,0-14.516,5.168-14.516,11.541c0,6.376,8.141,11.541,14.516,11.541
	c6.374,0,14.514-5.165,14.514-11.541C194.074,41.213,185.934,36.045,179.56,36.045z M179.56,54.989
	c-4.089,0-7.403-3.315-7.403-7.403s3.314-7.402,7.403-7.402c4.088,0,7.402,3.314,7.402,7.402S183.648,54.989,179.56,54.989z"/>
<linearGradient id="SVGID_18_" gradientUnits="userSpaceOnUse" x1="179.561" y1="43.0537" x2="179.561" y2="52.1348">
	<stop  offset="0" style="stop-color:#A2DEF9"/>
	<stop  offset="0.2126" style="stop-color:#96CEED"/>
	<stop  offset="0.5574" style="stop-color:#79B2D9"/>
	<stop  offset="0.9894" style="stop-color:#518DBB"/>
	<stop  offset="1" style="stop-color:#508CBA"/>
</linearGradient>
<path fill="url(#SVGID_18_)" d="M179.855,43.054c0.094,0.306,0.146,0.631,0.146,0.968c0,1.799-1.459,3.257-3.259,3.257
	c-0.607,0-1.175-0.169-1.66-0.457c-0.043,0.248-0.069,0.503-0.069,0.765c0,2.511,2.034,4.549,4.547,4.549s4.548-2.038,4.548-4.549
	C184.108,45.175,182.227,43.205,179.855,43.054z"/>
<linearGradient id="SVGID_19_" gradientUnits="userSpaceOnUse" x1="46.4185" y1="34.0615" x2="46.4185" y2="60.3271">
	<stop  offset="0" style="stop-color:#A2DEF9"/>
	<stop  offset="0.2126" style="stop-color:#96CEED"/>
	<stop  offset="0.5574" style="stop-color:#79B2D9"/>
	<stop  offset="0.9894" style="stop-color:#518DBB"/>
	<stop  offset="1" style="stop-color:#508CBA"/>
</linearGradient>
<path fill="url(#SVGID_19_)" d="M54.079,34.062H38.757c-3.022,0-5.471,2.449-5.471,5.473v3.153v9.016v3.152
	c0,3.021,2.449,5.472,5.471,5.472h15.322c3.022,0,5.472-2.45,5.472-5.472v-3.152v-9.016v-3.153
	C59.551,36.511,57.101,34.062,54.079,34.062z M46.418,54.597c-4.089,0-7.403-3.313-7.403-7.402s3.314-7.401,7.403-7.401
	s7.403,3.312,7.403,7.401S50.507,54.597,46.418,54.597z"/>
<linearGradient id="SVGID_20_" gradientUnits="userSpaceOnUse" x1="46.4185" y1="42.6543" x2="46.4185" y2="51.7344">
	<stop  offset="0" style="stop-color:#A2DEF9"/>
	<stop  offset="0.2126" style="stop-color:#96CEED"/>
	<stop  offset="0.5574" style="stop-color:#79B2D9"/>
	<stop  offset="0.9894" style="stop-color:#518DBB"/>
	<stop  offset="1" style="stop-color:#508CBA"/>
</linearGradient>
<path fill="url(#SVGID_20_)" d="M46.712,42.654c0.095,0.305,0.146,0.631,0.146,0.967c0,1.8-1.458,3.259-3.259,3.259
	c-0.606,0-1.173-0.17-1.66-0.458c-0.043,0.25-0.07,0.504-0.07,0.765c0,2.513,2.036,4.548,4.548,4.548
	c2.511,0,4.548-2.035,4.548-4.548C50.966,44.773,49.086,42.809,46.712,42.654z"/>
<linearGradient id="SVGID_21_" gradientUnits="userSpaceOnUse" x1="121.5859" y1="36.1279" x2="121.5859" y2="43.7949">
	<stop  offset="0" style="stop-color:#A2DEF9"/>
	<stop  offset="0.2126" style="stop-color:#96CEED"/>
	<stop  offset="0.5574" style="stop-color:#79B2D9"/>
	<stop  offset="0.9894" style="stop-color:#518DBB"/>
	<stop  offset="1" style="stop-color:#508CBA"/>
</linearGradient>
<path fill="url(#SVGID_21_)" d="M124.926,40.258l-3.636-3.636c-0.659-0.658-1.728-0.658-2.386,0l-1.152,1.153l6.021,6.02l1.153-1.15
	C125.585,41.985,125.585,40.917,124.926,40.258z"/>
<linearGradient id="SVGID_22_" gradientUnits="userSpaceOnUse" x1="112.9893" y1="38.8799" x2="112.9893" y2="58.2598">
	<stop  offset="0" style="stop-color:#A2DEF9"/>
	<stop  offset="0.2126" style="stop-color:#96CEED"/>
	<stop  offset="0.5574" style="stop-color:#79B2D9"/>
	<stop  offset="0.9894" style="stop-color:#518DBB"/>
	<stop  offset="1" style="stop-color:#508CBA"/>
</linearGradient>
<path fill="url(#SVGID_22_)" d="M116.647,38.88L103.76,51.767c-0.033,0.034-0.053,0.07-0.082,0.104
	c-0.224,0.198-0.368,0.484-0.368,0.806v4.504c0,0.596,0.483,1.079,1.079,1.08l4.503-0.001c0.37,0,0.696-0.187,0.891-0.472
	l12.886-12.886L116.647,38.88z M108.193,57.227h-3.111c-0.412,0-0.745-0.334-0.746-0.745v-3.112c0-0.028,0.013-0.053,0.016-0.082
	l3.922,3.923C108.246,57.213,108.222,57.227,108.193,57.227z"/>
<linearGradient id="SVGID_23_" gradientUnits="userSpaceOnUse" x1="246.0728" y1="1.8281" x2="246.0728" y2="24.1904">
	<stop  offset="0" style="stop-color:#A2DEF9"/>
	<stop  offset="0.2126" style="stop-color:#96CEED"/>
	<stop  offset="0.5574" style="stop-color:#79B2D9"/>
	<stop  offset="0.9894" style="stop-color:#518DBB"/>
	<stop  offset="1" style="stop-color:#508CBA"/>
</linearGradient>
<polygon fill="url(#SVGID_23_)" points="246.073,1.828 249.99,8.799 257.83,10.369 252.411,16.248 253.339,24.19 246.073,20.85 
	238.809,24.19 239.738,16.248 234.317,10.369 242.159,8.799 "/>
<linearGradient id="SVGID_24_" gradientUnits="userSpaceOnUse" x1="179.5034" y1="3.3027" x2="179.5034" y2="22.7144">
	<stop  offset="0" style="stop-color:#A2DEF9"/>
	<stop  offset="0.2126" style="stop-color:#96CEED"/>
	<stop  offset="0.5574" style="stop-color:#79B2D9"/>
	<stop  offset="0.9894" style="stop-color:#518DBB"/>
	<stop  offset="1" style="stop-color:#508CBA"/>
</linearGradient>
<path fill="url(#SVGID_24_)" d="M185.659,3.303c-2.337,0-4.48,0.827-6.155,2.202c-1.675-1.375-3.818-2.202-6.154-2.202
	c-5.361,0-9.707,4.345-9.707,9.706c0,5.361,4.346,9.706,9.707,9.706c2.336,0,4.479-0.827,6.154-2.203
	c1.675,1.376,3.818,2.203,6.155,2.203c5.36,0,9.706-4.345,9.706-9.706C195.365,7.648,191.019,3.303,185.659,3.303z M185.659,20.145
	c-1.662,0-3.188-0.573-4.4-1.524c-1.663-1.308-2.737-3.333-2.737-5.613c0-2.279,1.072-4.306,2.736-5.611
	c1.214-0.952,2.739-1.525,4.401-1.525c3.94,0,7.137,3.195,7.137,7.137S189.599,20.145,185.659,20.145z"/>
<linearGradient id="SVGID_25_" gradientUnits="userSpaceOnUse" x1="312.563" y1="0" x2="312.563" y2="26.0176">
	<stop  offset="0" style="stop-color:#A2DEF9"/>
	<stop  offset="0.2126" style="stop-color:#96CEED"/>
	<stop  offset="0.5574" style="stop-color:#79B2D9"/>
	<stop  offset="0.9894" style="stop-color:#518DBB"/>
	<stop  offset="1" style="stop-color:#508CBA"/>
</linearGradient>
<path fill="url(#SVGID_25_)" d="M320.961,17.055c-1.336,0-2.531,0.587-3.352,1.513l-8.983-3.906
	c0.015-0.144,0.021-0.289,0.021-0.435c0-0.271-0.028-0.534-0.074-0.792l9.504-5.523c0.779,0.655,1.784,1.052,2.884,1.052
	c2.475,0,4.48-2.007,4.48-4.481c0-2.475-2.006-4.482-4.48-4.482c-2.478,0-4.483,2.007-4.483,4.482c0,0.363,0.05,0.713,0.131,1.052
	l-9.364,5.441c-0.803-0.761-1.883-1.23-3.078-1.23c-2.475,0-4.481,2.007-4.481,4.482c0,2.475,2.007,4.481,4.481,4.481
	c1.324,0,2.511-0.578,3.331-1.491l9.002,3.914c-0.013,0.133-0.021,0.268-0.021,0.404c0,2.476,2.006,4.482,4.483,4.482
	c2.475,0,4.48-2.006,4.48-4.482C325.442,19.061,323.436,17.055,320.961,17.055z"/>
<linearGradient id="SVGID_26_" gradientUnits="userSpaceOnUse" x1="46.418" y1="1.5327" x2="46.418" y2="24.4854">
	<stop  offset="0" style="stop-color:#A2DEF9"/>
	<stop  offset="0.2126" style="stop-color:#96CEED"/>
	<stop  offset="0.5574" style="stop-color:#79B2D9"/>
	<stop  offset="0.9894" style="stop-color:#518DBB"/>
	<stop  offset="1" style="stop-color:#508CBA"/>
</linearGradient>
<path fill="url(#SVGID_26_)" d="M46.418,1.533c-6.339,0-11.477,5.137-11.477,11.476c0,6.338,5.138,11.477,11.477,11.477
	c6.338,0,11.477-5.139,11.477-11.477C57.895,6.67,52.756,1.533,46.418,1.533z M46.418,5.09c1.412,0,2.736,0.374,3.884,1.022
	l-10.78,10.78c-0.648-1.148-1.023-2.471-1.023-3.885C38.499,8.634,42.045,5.09,46.418,5.09z M46.418,20.927
	c-1.311,0-2.542-0.323-3.63-0.887L53.451,9.378c0.563,1.087,0.886,2.32,0.886,3.63C54.337,17.382,50.791,20.927,46.418,20.927z"/>
</svg>
