<?xml version="1.0" encoding="utf-8"?>
<!-- Generator: Adobe Illustrator 15.1.0, SVG Export Plug-In . SVG Version: 6.00 Build 0)  -->
<!DOCTYPE svg PUBLIC "-//W3C//DTD SVG 1.1//EN" "http://www.w3.org/Graphics/SVG/1.1/DTD/svg11.dtd">
<svg version="1.1" id="Layer_1" xmlns="http://www.w3.org/2000/svg" xmlns:xlink="http://www.w3.org/1999/xlink" x="0px" y="0px"
	 width="120.025px" height="60px" viewBox="0 0 120.025 60" enable-background="new 0 0 120.025 60" xml:space="preserve">
<rect fill="none" width="60" height="60"/>
<rect x="59.994" y="-0.003" fill="none" width="60" height="60"/>
<g>
	<path fill="#F09622" d="M89.994,4.881c-13.872,0-25.115,11.245-25.115,25.116c0,13.87,11.243,25.116,25.115,25.116
		c13.869,0,25.115-11.246,25.115-25.116C115.109,16.126,103.863,4.881,89.994,4.881z M105.794,40.946
		c0,0.539-0.438,0.979-0.979,0.979H75.173c-0.541,0-0.979-0.439-0.979-0.979V19.05c0-0.541,0.438-0.979,0.979-0.979h29.642
		c0.541,0,0.979,0.438,0.979,0.979V40.946z"/>
	<rect x="75.925" y="33.979" fill="#F09622" width="28.107" height="6.099"/>
</g>
<g>
	<path fill="#42A648" d="M30,4.884C16.128,4.884,4.885,16.129,4.885,30c0,13.869,11.244,25.115,25.115,25.115
		c13.87,0,25.115-11.246,25.115-25.115C55.115,16.129,43.87,4.884,30,4.884z M41.108,43.805c0,0.504-0.408,0.912-0.912,0.912H19.803
		c-0.503,0-0.912-0.408-0.912-0.912V16.196c0-0.503,0.408-0.912,0.912-0.912h20.394c0.503,0,0.912,0.409,0.912,0.912V43.805z"/>
	<rect x="20.479" y="16.925" fill="#42A648" width="18.91" height="17.731"/>
</g>
</svg>
