<?xml version="1.0" encoding="utf-8"?>
<!-- Generator: Adobe Illustrator 15.1.0, SVG Export Plug-In  -->
<!DOCTYPE svg PUBLIC "-//W3C//DTD SVG 1.1//EN" "http://www.w3.org/Graphics/SVG/1.1/DTD/svg11.dtd" [
	<!ENTITY ns_flows "http://ns.adobe.com/Flows/1.0/">
]>
<svg version="1.1"
	 xmlns="http://www.w3.org/2000/svg" xmlns:xlink="http://www.w3.org/1999/xlink" xmlns:a="http://ns.adobe.com/AdobeSVGViewerExtensions/3.0/"
	 x="0px" y="0px" width="240px" height="60px" viewBox="0 0 240 60" overflow="visible" enable-background="new 0 0 240 60"
	 xml:space="preserve">
<defs>
</defs>
<rect fill="none" width="60" height="60"/>
<rect x="60" fill="none" width="60" height="60"/>
<rect x="120" fill="none" width="60" height="60"/>
<rect x="180" fill="none" width="60" height="60"/>
<path fill="#43A748" d="M30,5C16.193,5,5,16.193,5,30c0,13.807,11.193,25,25,25s25-11.193,25-25C55,16.193,43.807,5,30,5z
	 M37.35,39.872c0,2.407-1.956,4.364-4.361,4.364H20.775c-2.405,0-4.364-1.957-4.364-4.364V20.127c0-2.406,1.959-4.363,4.364-4.363
	h12.214c2.405,0,4.361,1.957,4.361,4.363v2.914c0,1.41-1.144,2.554-2.553,2.554c-1.411,0-2.554-1.144-2.554-2.554v-2.17H21.518
	v18.258h10.726v-2.17c0-1.41,1.143-2.554,2.554-2.554c1.409,0,2.553,1.144,2.553,2.554V39.872z M48.935,31.58l-6.427,6.426
	c-0.437,0.438-1.009,0.655-1.58,0.655c-0.572,0-1.144-0.218-1.58-0.655c-0.872-0.872-0.872-2.287,0-3.159l2.613-2.613H29.387
	c-1.233,0-2.232-1-2.232-2.233c0-1.234,0.999-2.235,2.232-2.235h12.574l-2.613-2.612c-0.871-0.872-0.871-2.287,0-3.159
	c0.873-0.872,2.287-0.872,3.16,0l6.427,6.427C49.807,29.292,49.807,30.708,48.935,31.58z"/>
<path fill="#F09622" d="M90,5C76.193,5,65,16.193,65,30c0,13.807,11.193,25,25,25s25-11.193,25-25C115,16.193,103.807,5,90,5z
	 M97.35,39.872c0,2.407-1.956,4.364-4.361,4.364H80.775c-2.405,0-4.364-1.957-4.364-4.364V20.127c0-2.406,1.959-4.363,4.364-4.363
	h12.214c2.405,0,4.361,1.957,4.361,4.363v2.914c0,1.41-1.144,2.554-2.553,2.554c-1.411,0-2.554-1.144-2.554-2.554v-2.17H81.518
	v18.258h10.726v-2.17c0-1.41,1.143-2.554,2.554-2.554c1.409,0,2.553,1.144,2.553,2.554V39.872z M108.935,31.58l-6.427,6.426
	c-0.437,0.438-1.009,0.655-1.58,0.655c-0.572,0-1.144-0.218-1.58-0.655c-0.872-0.872-0.872-2.287,0-3.159l2.613-2.613H89.387
	c-1.233,0-2.232-1-2.232-2.233c0-1.234,0.999-2.235,2.232-2.235h12.574l-2.613-2.612c-0.871-0.872-0.871-2.287,0-3.159
	c0.873-0.872,2.287-0.872,3.16,0l6.427,6.427C109.807,29.292,109.807,30.708,108.935,31.58z"/>
<path fill="#010101" d="M150,5c-13.808,0-25,11.193-25,25c0,13.807,11.192,25,25,25c13.807,0,24.999-11.193,24.999-25
	C174.999,16.193,163.807,5,150,5z M157.35,39.872c0,2.407-1.956,4.364-4.361,4.364h-12.214c-2.405,0-4.364-1.957-4.364-4.364V20.127
	c0-2.406,1.959-4.363,4.364-4.363h12.214c2.405,0,4.361,1.957,4.361,4.363v2.914c0,1.41-1.144,2.554-2.553,2.554
	c-1.411,0-2.554-1.144-2.554-2.554v-2.17h-10.726v18.258h10.726v-2.17c0-1.41,1.143-2.554,2.554-2.554
	c1.409,0,2.553,1.144,2.553,2.554V39.872z M168.935,31.58l-6.427,6.426c-0.437,0.438-1.009,0.655-1.58,0.655
	c-0.572,0-1.144-0.218-1.58-0.655c-0.872-0.872-0.872-2.287,0-3.159l2.613-2.613h-12.574c-1.233,0-2.232-1-2.232-2.233
	c0-1.234,0.999-2.235,2.232-2.235h12.574l-2.613-2.612c-0.871-0.872-0.871-2.287,0-3.159c0.873-0.872,2.287-0.872,3.16,0
	l6.427,6.427C169.807,29.292,169.807,30.708,168.935,31.58z"/>
<path fill="#FFFFFF" d="M210,5c-13.808,0-25,11.193-25,25c0,13.807,11.192,25,25,25c13.807,0,24.999-11.193,24.999-25
	C234.999,16.193,223.807,5,210,5z M217.35,39.872c0,2.407-1.956,4.364-4.361,4.364h-12.214c-2.405,0-4.364-1.957-4.364-4.364V20.127
	c0-2.406,1.959-4.363,4.364-4.363h12.214c2.405,0,4.361,1.957,4.361,4.363v2.914c0,1.41-1.144,2.554-2.553,2.554
	c-1.411,0-2.554-1.144-2.554-2.554v-2.17h-10.726v18.258h10.726v-2.17c0-1.41,1.143-2.554,2.554-2.554
	c1.409,0,2.553,1.144,2.553,2.554V39.872z M222.508,38.006c-0.437,0.438-1.009,0.655-1.58,0.655c-0.572,0-1.144-0.218-1.58-0.655
	c-0.872-0.872-0.872-2.287,0-3.159l2.613-2.613h-12.574c-1.233,0-2.232-1-2.232-2.233c0-1.234,0.999-2.235,2.232-2.235h12.574
	l-2.613-2.612c-0.871-0.872-0.871-2.287,0-3.159c0.873-0.872,2.287-0.872,3.16,0l6.427,6.427c0.872,0.872,0.872,2.288,0,3.16
	L222.508,38.006z"/>
</svg>
