<?xml version="1.0" encoding="utf-8"?>
<!-- Generator: Adobe Illustrator 15.0.0, SVG Export Plug-In . SVG Version: 6.00 Build 0)  -->
<!DOCTYPE svg PUBLIC "-//W3C//DTD SVG 1.1//EN" "http://www.w3.org/Graphics/SVG/1.1/DTD/svg11.dtd">
<svg version="1.1" id="Layer_1" xmlns="http://www.w3.org/2000/svg" xmlns:xlink="http://www.w3.org/1999/xlink" x="0px" y="0px"
	 width="113px" height="227px" viewBox="0 0 113 227" enable-background="new 0 0 113 227" xml:space="preserve">
<path opacity="0.4" fill="#FFFFFF" enable-background="new    " d="M24.079,0C10.781,0,0,10.779,0,24.078
	c0,13.297,10.78,24.078,24.079,24.078c13.299,0,24.078-10.781,24.078-24.078C48.157,10.779,37.377,0,24.079,0z M34.522,29.025
	c1.517,1.518,1.517,3.977,0,5.494c-0.76,0.76-1.754,1.139-2.748,1.139s-1.988-0.379-2.747-1.139l-4.948-4.947l-4.948,4.947
	c-0.759,0.76-1.753,1.139-2.748,1.139c-0.994,0-1.988-0.379-2.747-1.139c-1.517-1.518-1.517-3.977,0-5.494l4.948-4.947l-4.948-4.949
	c-1.517-1.518-1.517-3.977,0-5.494c1.518-1.518,3.977-1.518,5.495,0l4.948,4.947l4.948-4.947c1.518-1.518,3.978-1.518,5.495,0
	c1.517,1.518,1.517,3.977,0,5.494l-4.949,4.949L34.522,29.025z"/>
<path opacity="0.8" fill="#F19520" enable-background="new    " d="M80.771,0C67.475,0,56.693,10.779,56.693,24.078
	c0,13.297,10.782,24.078,24.079,24.078c13.299,0,24.078-10.781,24.078-24.078C104.85,10.779,94.07,0,80.771,0z M91.214,29.025
	c1.519,1.518,1.519,3.977,0,5.494c-0.76,0.76-1.754,1.139-2.748,1.139c-0.993,0-1.987-0.379-2.745-1.139l-4.949-4.947l-4.945,4.947
	c-0.762,0.76-1.756,1.139-2.748,1.139c-0.994,0-1.988-0.379-2.746-1.139c-1.52-1.518-1.52-3.977,0-5.494l4.945-4.947l-4.945-4.949
	c-1.52-1.518-1.52-3.977,0-5.494c1.52-1.517,3.979-1.518,5.494,0l4.945,4.947l4.949-4.947c1.518-1.518,3.977-1.518,5.493,0
	c1.517,1.518,1.519,3.977,0,5.494l-4.948,4.949L91.214,29.025z"/>
<path opacity="0.8" fill="#F19520" enable-background="new    " d="M80.771,56.693c-13.299,0-24.081,10.779-24.081,24.078
	c0,13.297,10.782,24.078,24.081,24.078c13.297,0,24.078-10.781,24.078-24.078C104.85,67.472,94.068,56.693,80.771,56.693z
	 M91.654,84.656h-6.998v6.996c0,2.146-1.74,3.887-3.885,3.887c-2.146,0-3.885-1.74-3.885-3.887v-6.996h-6.998
	c-2.146,0-3.888-1.74-3.888-3.885c0-2.146,1.737-3.887,3.888-3.887h6.998v-6.996c0-2.146,1.735-3.887,3.885-3.887
	c2.145,0,3.885,1.74,3.885,3.887v6.996h6.998c2.145,0,3.885,1.74,3.885,3.887C95.539,82.916,93.798,84.656,91.654,84.656z"/>
<path opacity="0.8" fill="#F19520" enable-background="new    " d="M80.773,113.385c-13.301,0-24.083,10.781-24.083,24.078
	c0,13.301,10.782,24.08,24.083,24.08c13.297,0,24.076-10.779,24.076-24.08C104.85,124.166,94.07,113.385,80.773,113.385z
	 M81.568,146.664c0,1.309-1.062,2.369-2.369,2.369H68.807c-1.31,0-2.371-1.061-2.371-2.369v-0.098c0-1.312,1.062-2.371,2.371-2.371
	H79.2c1.309,0,2.368,1.061,2.368,2.371V146.664L81.568,146.664z M95.105,137.512c0,1.309-1.062,2.369-2.367,2.369H68.807
	c-1.31,0-2.371-1.061-2.371-2.369v-0.098c0-1.309,1.062-2.369,2.371-2.369h23.932c1.309,0,2.367,1.061,2.367,2.369V137.512
	L95.105,137.512z M95.105,128.361c0,1.309-1.062,2.369-2.367,2.369H68.807c-1.31,0-2.371-1.062-2.371-2.369v-0.098
	c0-1.312,1.062-2.369,2.371-2.369h23.932c1.309,0,2.367,1.061,2.367,2.369V128.361L95.105,128.361z"/>
<path opacity="0.8" fill="#F19520" enable-background="new    " d="M80.773,170.078c-13.299,0-24.083,10.779-24.083,24.078
	c0,13.297,10.784,24.078,24.083,24.078c13.297,0,24.078-10.781,24.078-24.078C104.852,180.857,94.07,170.078,80.773,170.078z
	 M94.893,190.072L77.63,207.334l-11.267-11.266c-1.561-1.562-1.561-4.092,0-5.654c1.562-1.561,4.093-1.561,5.652,0.002l5.611,5.611
	l11.605-11.607c1.562-1.562,4.094-1.562,5.654,0C96.453,185.98,96.453,188.512,94.893,190.072z"/>
<path opacity="0.4" fill="#FFFFFF" enable-background="new    " d="M24.079,56.693C10.78,56.693,0,67.472,0,80.771
	c0,13.297,10.78,24.078,24.079,24.078c13.297,0,24.078-10.781,24.078-24.078C48.157,67.472,37.376,56.693,24.079,56.693z
	 M34.962,84.656h-6.998v6.996c0,2.146-1.74,3.887-3.886,3.887s-3.885-1.74-3.885-3.887v-6.996h-6.998
	c-2.146,0-3.885-1.74-3.885-3.885c0-2.146,1.739-3.887,3.885-3.887h6.998v-6.996c0-2.146,1.739-3.887,3.885-3.887
	s3.886,1.74,3.886,3.887v6.996h6.998c2.145,0,3.885,1.74,3.885,3.887C38.847,82.916,37.106,84.656,34.962,84.656z"/>
<path opacity="0.4" fill="#FFFFFF" enable-background="new    " d="M24.08,113.385c-13.3,0-24.08,10.781-24.08,24.078
	c0,13.301,10.78,24.08,24.08,24.08c13.297,0,24.076-10.779,24.076-24.08C48.156,124.166,37.378,113.385,24.08,113.385z
	 M24.876,146.664c0,1.309-1.062,2.369-2.37,2.369H12.113c-1.309,0-2.37-1.061-2.37-2.369v-0.098c0-1.312,1.062-2.371,2.37-2.371
	h10.393c1.309,0,2.37,1.061,2.37,2.371V146.664z M38.413,137.512c0,1.309-1.061,2.369-2.368,2.369H12.113
	c-1.309,0-2.37-1.061-2.37-2.369v-0.098c0-1.309,1.062-2.369,2.37-2.369h23.932c1.308,0,2.368,1.061,2.368,2.369V137.512z
	 M38.413,128.361c0,1.309-1.061,2.369-2.368,2.369H12.113c-1.309,0-2.37-1.062-2.37-2.369v-0.098c0-1.312,1.062-2.369,2.37-2.369
	h23.932c1.308,0,2.368,1.061,2.368,2.369V128.361z"/>
<path opacity="0.4" fill="#FFFFFF" enable-background="new    " d="M24.079,170.078C10.781,170.078,0,180.857,0,194.156
	s10.78,24.078,24.078,24.078c13.298,0,24.078-10.779,24.078-24.078S37.376,170.078,24.079,170.078z M38.199,190.072l-17.262,17.264
	L9.671,196.068c-1.562-1.562-1.562-4.092,0-5.652s4.092-1.562,5.653,0l5.612,5.613l11.608-11.609c1.562-1.562,4.092-1.562,5.653,0
	C39.759,185.98,39.759,188.512,38.199,190.072z"/>
</svg>
