<?xml version="1.0" encoding="utf-8"?>
<!-- Generator: Adobe Illustrator 15.1.0, SVG Export Plug-In  -->
<!DOCTYPE svg PUBLIC "-//W3C//DTD SVG 1.1//EN" "http://www.w3.org/Graphics/SVG/1.1/DTD/svg11.dtd" [
	<!ENTITY ns_flows "http://ns.adobe.com/Flows/1.0/">
]>
<svg version="1.1"
	 xmlns="http://www.w3.org/2000/svg" xmlns:xlink="http://www.w3.org/1999/xlink" xmlns:a="http://ns.adobe.com/AdobeSVGViewerExtensions/3.0/"
	 x="0px" y="0px" width="65em" height="13em" viewBox="-2.541 -2.45 650 130"
	 overflow="visible" enable-background="new -2.541 -2.45 650 130" xml:space="preserve">
<defs>
</defs>
<path fill="#FFFFFF" d="M30.286,34.183c0,0-6.174,16.965-6.174,18.418s-4.358,14.527-4.358,15.98s4.358,19.459,5.267,20.08
	s6.355,5.988,7.808,7.482c1.453,1.492,8.719,5.125,13.802,5.125c5.084,0,21.064,0,21.064,0h13.8l12.714-10.154l8.351-14.543
	c0,0,0.362-11.771,0-14.056c-0.361-2.287-2.907-16.451-3.632-17.902c-0.725-1.453-7.624-15.617-7.624-15.617l-13.076-5.085
	L30.286,34.183z"/>
<circle fill="#41A648" cx="62.458" cy="62.55" r="62.458"/>
<path fill="#FFFFFF" d="M90.401,38.989c0-0.101-0.01-0.196-0.014-0.295c0.02-0.384,0.012-0.772-0.039-1.166
	c-0.453-3.576-3.72-6.108-7.292-5.654l-36.558,4.628c-3.218,0.408-5.581,3.094-5.694,6.232c-0.004,0.08-0.014,0.16-0.014,0.241
	v21.002c-0.762-0.15-1.551-0.23-2.358-0.23c-6.708,0-12.146,5.439-12.146,12.146S31.725,88.04,38.433,88.04
	S50.58,82.601,50.58,75.894V49.14l30.035-3.803v27.466c-0.766-0.152-1.555-0.23-2.359-0.23c-6.709,0-12.146,5.438-12.146,12.145
	c0,6.709,5.438,12.146,12.146,12.146s12.146-5.438,12.146-12.146c0-0.102-0.006-0.203-0.01-0.307c0.004-0.053,0.01-0.102,0.01-0.154
	V38.989z"/>
<path fill="#FFFFFF" d="M145.15,37.836v41.09l22.192,21.084l20.528,3.669l33.524-4.779l17.52-8.655c0,0,8.877-26.789,8.877-27.653
	s-2.774-21.459-2.774-21.459l-20.528-15.931h-24.412h-33.844L145.15,37.836z"/>
<circle fill="#41A648" cx="192.459" cy="62.589" r="62.119"/>
<path fill="#FFFFFF" d="M233.912,41.791c-0.205-0.084-0.418-0.126-0.633-0.126c-0.432,0-0.854,0.167-1.172,0.485L216.059,58.2
	v-9.103v-6.275c0-2.754-2.234-4.986-4.988-4.986h-2.93h-50.439c-2.754,0-4.988,2.232-4.988,4.986v6.275v26.985v6.273
	c0,2.757,2.234,4.989,4.988,4.989h50.439h2.93c2.754,0,4.988-2.232,4.988-4.989v-6.273v-9.1l16.049,16.049
	c0.318,0.317,0.74,0.483,1.172,0.483c0.215,0,0.428-0.04,0.633-0.126c0.617-0.257,1.02-0.861,1.02-1.526V43.32
	C234.932,42.65,234.529,42.048,233.912,41.791z"/>
<polygon fill="#FFFFFF" points="281.997,26.29 275.895,85.264 289.21,99.689 332.485,99.689 358.562,96.36 371.877,77.805 
	363.555,36.44 351.904,26.29 "/>
<circle fill="#41A648" cx="322.459" cy="62.548" r="62.547"/>
<path fill="#FFFFFF" d="M355.035,38.312h-16.748v-0.848c0-3.293-2.668-5.961-5.961-5.961h-18.359c-3.287,0-5.957,2.668-5.957,5.961
	v0.848h-16.752c-3.289,0-5.957,2.669-5.957,5.962v39.749c0,3.293,2.668,5.961,5.957,5.961h63.777c3.293,0,5.962-2.668,5.962-5.961
	V44.273C360.997,40.98,358.328,38.312,355.035,38.312z M323.15,79.289c-8.361,0-15.141-6.781-15.141-15.143
	s6.779-15.14,15.141-15.14c8.358,0,15.137,6.778,15.137,15.14S331.509,79.289,323.15,79.289z"/>
<polygon fill="#FFFFFF" points="439.756,21.496 403.562,60.753 450.098,111.61 494.416,81.696 498.111,54.366 467.455,14.849 "/>
<path fill="#41A648" d="M452.459,0.003c-34.545,0-62.547,28.001-62.547,62.545c0,34.542,28.002,62.548,62.547,62.548
	c34.539,0,62.547-28.006,62.547-62.548C515.006,28.004,486.998,0.003,452.459,0.003z M480.732,72.642h-18.182v18.174
	c0,5.576-4.518,10.096-10.092,10.096c-5.576,0-10.092-4.52-10.092-10.096V72.642h-18.176c-5.576,0-10.094-4.521-10.094-10.093
	c0-5.573,4.518-10.095,10.094-10.095h18.176V34.279c0-5.576,4.516-10.095,10.092-10.095c5.574,0,10.092,4.519,10.092,10.095v18.174
	h18.182c5.57,0,10.092,4.521,10.092,10.095C490.824,68.12,486.303,72.642,480.732,72.642z"/>
<path fill="#FFFFFF" d="M545.273,37.166l-13.611,23.593l6.806,13.975l20.962,22.062l17.423,10.607l15.244-10.607
	c0,0,14.16-8.996,15.792-11.174s19.6-22.393,19.6-22.393s3.264-16.264,3.81-17.896c0.547-1.633-6.533-16.334-6.533-16.334
	l-29.943-5.989l-18.513,8.729L545.273,37.166z"/>
<path fill="#41A648" d="M582.462,0.136c-34.472,0-62.419,27.941-62.419,62.414c0,34.467,27.947,62.412,62.419,62.412
	c34.468,0,62.412-27.945,62.412-62.412C644.874,28.078,616.93,0.136,582.462,0.136z M619.06,51.964l-44.745,44.744l-29.2-29.203
	c-4.046-4.043-4.046-10.604,0-14.655c4.044-4.046,10.607-4.046,14.651,0.005l14.549,14.545l30.09-30.087
	c4.047-4.051,10.604-4.051,14.655,0C623.105,41.356,623.105,47.917,619.06,51.964z"/>
</svg>
