<?xml version="1.0" encoding="utf-8"?>
<!-- Generator: Adobe Illustrator 15.1.0, SVG Export Plug-In . SVG Version: 6.00 Build 0)  -->
<!DOCTYPE svg PUBLIC "-//W3C//DTD SVG 1.1//EN" "http://www.w3.org/Graphics/SVG/1.1/DTD/svg11.dtd">
<svg version="1.1" id="Layer_1" xmlns="http://www.w3.org/2000/svg" xmlns:xlink="http://www.w3.org/1999/xlink" x="0px" y="0px"
	 width="72em" height="180em" viewBox="0 0 72 180" enable-background="new 0 0 72 180" xml:space="preserve">
<linearGradient id="SVGID_1_" gradientUnits="userSpaceOnUse" x1="384.9551" y1="-365.9004" x2="384.9551" y2="-388.4619" gradientTransform="matrix(1.0588 0 0 -1.0588 -392.8654 -242.714)">
	<stop  offset="0" style="stop-color:#F2F2F2"/>
	<stop  offset="1" style="stop-color:#BDBDBD"/>
</linearGradient>
<polygon fill="url(#SVGID_1_)" points="14.733,144.711 18.916,152.157 27.293,153.834 21.5,160.114 22.495,168.6 14.733,165.033 
	6.97,168.6 7.965,160.114 2.175,153.834 10.55,152.157 "/>
<linearGradient id="SVGID_2_" gradientUnits="userSpaceOnUse" x1="418.9707" y1="-365.9004" x2="418.9707" y2="-388.4619" gradientTransform="matrix(1.0588 0 0 -1.0588 -392.8654 -242.714)">
	<stop  offset="0" style="stop-color:#A2DEF9"/>
	<stop  offset="0.2126" style="stop-color:#96CEED"/>
	<stop  offset="0.5574" style="stop-color:#79B2D9"/>
	<stop  offset="0.9894" style="stop-color:#518DBB"/>
	<stop  offset="1" style="stop-color:#508CBA"/>
</linearGradient>
<polygon fill="url(#SVGID_2_)" points="50.75,144.711 54.934,152.157 63.309,153.834 57.519,160.114 58.514,168.6 50.75,165.033 
	42.988,168.6 43.983,160.114 38.19,153.834 46.568,152.157 "/>
<linearGradient id="SVGID_3_" gradientUnits="userSpaceOnUse" x1="384.9502" y1="-229.5303" x2="384.9502" y2="-252.688" gradientTransform="matrix(1.0588 0 0 -1.0588 -392.8654 -242.714)">
	<stop  offset="0" style="stop-color:#F2F2F2"/>
	<stop  offset="1" style="stop-color:#BDBDBD"/>
</linearGradient>
<path fill="url(#SVGID_3_)" d="M14.729,0.319c-6.772,0-12.261,5.489-12.261,12.261c0,6.771,5.489,12.259,12.261,12.259
	c6.771,0,12.259-5.489,12.259-12.259S21.5,0.319,14.729,0.319z M14.729,4.12c1.508,0,2.922,0.399,4.149,1.092L7.362,16.729
	c-0.692-1.226-1.091-2.639-1.091-4.148C6.269,7.906,10.056,4.12,14.729,4.12z M14.729,21.038c-1.399,0-2.717-0.345-3.879-0.948
	l11.391-11.39c0.601,1.163,0.947,2.479,0.947,3.879C23.188,17.251,19.402,21.038,14.729,21.038z"/>
<linearGradient id="SVGID_4_" gradientUnits="userSpaceOnUse" x1="418.9688" y1="-229.5312" x2="418.9688" y2="-252.687" gradientTransform="matrix(1.0588 0 0 -1.0588 -392.8654 -242.714)">
	<stop  offset="0" style="stop-color:#A2DEF9"/>
	<stop  offset="0.2126" style="stop-color:#96CEED"/>
	<stop  offset="0.5574" style="stop-color:#79B2D9"/>
	<stop  offset="0.9894" style="stop-color:#518DBB"/>
	<stop  offset="1" style="stop-color:#508CBA"/>
</linearGradient>
<path fill="url(#SVGID_4_)" d="M50.746,0.32c-6.771,0-12.259,5.489-12.259,12.259c0,6.77,5.489,12.259,12.259,12.259
	s12.262-5.489,12.262-12.259C63.008,5.809,57.516,0.32,50.746,0.32z M50.746,4.121c1.51,0,2.924,0.399,4.15,1.092L43.38,16.728
	c-0.692-1.226-1.092-2.639-1.092-4.148C42.287,7.905,46.074,4.121,50.746,4.121z M50.746,21.037c-1.397,0-2.715-0.346-3.877-0.948
	l11.389-11.39c0.602,1.163,0.948,2.48,0.948,3.88C59.206,17.25,55.418,21.037,50.746,21.037z"/>
<linearGradient id="SVGID_5_" gradientUnits="userSpaceOnUse" x1="378.6426" y1="71.5098" x2="404.8516" y2="71.5098" gradientTransform="matrix(0.7487 0.7487 0.7487 -0.7487 -329.0022 -191.8052)">
	<stop  offset="0" style="stop-color:#F2F2F2"/>
	<stop  offset="1" style="stop-color:#BDBDBD"/>
</linearGradient>
<path fill="url(#SVGID_5_)" d="M2.699,48.557c3.796-2.344,8.839-1.873,12.13,1.418c0.241,0.241,0.55,0.573,0.759,0.831l-0.228,0.235
	l-2.733,2.733c-0.907,0.906-0.905,2.367-0.001,3.271c0.417,0.418,0.953,0.644,1.497,0.676l12.131,0.012c0,0,1.387,0.037,2.139-0.712
	l0.159-0.16c0.75-0.75,0.713-2.139,0.713-2.139l-0.013-12.13c-0.033-0.544-0.258-1.08-0.675-1.497
	c-0.905-0.904-2.364-0.906-3.273,0.002l-2.357,2.357l-0.358,0.355c-0.091-0.097-0.228-0.19-0.323-0.285
	c-5.418-5.418-14.203-5.419-19.622,0c-0.759,0.759-1.413,1.584-1.96,2.458l-0.272,0.464c-0.36,0.61-0.28,1.407,0.245,1.932
	c0.526,0.526,1.328,0.605,1.938,0.242L2.699,48.557z"/>
<linearGradient id="SVGID_6_" gradientUnits="userSpaceOnUse" x1="402.6934" y1="95.5615" x2="428.9043" y2="95.5615" gradientTransform="matrix(0.7487 0.7487 0.7487 -0.7487 -329.0022 -191.8052)">
	<stop  offset="0" style="stop-color:#A2DEF9"/>
	<stop  offset="0.2126" style="stop-color:#96CEED"/>
	<stop  offset="0.5574" style="stop-color:#79B2D9"/>
	<stop  offset="0.9894" style="stop-color:#518DBB"/>
	<stop  offset="1" style="stop-color:#508CBA"/>
</linearGradient>
<path fill="url(#SVGID_6_)" d="M38.716,48.557c3.795-2.344,8.839-1.873,12.129,1.418c0.24,0.241,0.55,0.573,0.759,0.831
	l-0.228,0.235l-2.731,2.733c-0.908,0.906-0.905,2.367-0.002,3.271c0.418,0.418,0.953,0.644,1.497,0.676l12.131,0.012
	c0,0,1.388,0.037,2.139-0.712l0.159-0.16c0.75-0.75,0.713-2.139,0.713-2.139l-0.012-12.13c-0.033-0.544-0.259-1.08-0.678-1.497
	c-0.904-0.904-2.363-0.906-3.271,0.002l-2.357,2.357l-0.357,0.355c-0.092-0.097-0.229-0.19-0.324-0.285
	c-5.416-5.418-14.203-5.419-19.621,0c-0.759,0.759-1.412,1.584-1.961,2.458l-0.271,0.464c-0.362,0.61-0.282,1.407,0.243,1.932
	c0.525,0.526,1.328,0.605,1.938,0.242L38.716,48.557z"/>
<linearGradient id="SVGID_7_" gradientUnits="userSpaceOnUse" x1="392.2363" y1="-297.9761" x2="392.2363" y2="-305.71" gradientTransform="matrix(1.0588 0 0 -1.0588 -392.8654 -242.714)">
	<stop  offset="0" style="stop-color:#F2F2F2"/>
	<stop  offset="1" style="stop-color:#BDBDBD"/>
</linearGradient>
<path fill="url(#SVGID_7_)" d="M26.01,77.202l-3.884-3.884c-0.704-0.703-1.843-0.703-2.546,0l-1.232,1.23l6.431,6.431l1.231-1.23
	C26.713,79.047,26.713,77.905,26.01,77.202z"/>
<linearGradient id="SVGID_8_" gradientUnits="userSpaceOnUse" x1="383.5635" y1="-300.752" x2="383.5635" y2="-320.3032" gradientTransform="matrix(1.0588 0 0 -1.0588 -392.8654 -242.714)">
	<stop  offset="0" style="stop-color:#F2F2F2"/>
	<stop  offset="1" style="stop-color:#BDBDBD"/>
</linearGradient>
<path fill="url(#SVGID_8_)" d="M17.167,75.73L3.401,89.495c-0.035,0.037-0.057,0.074-0.088,0.11
	c-0.239,0.213-0.393,0.519-0.393,0.862v4.81c0,0.637,0.517,1.152,1.153,1.154l4.809-0.002c0.397,0,0.745-0.199,0.953-0.504
	l13.764-13.764L17.167,75.73z M8.135,95.326H4.812c-0.439,0-0.795-0.355-0.796-0.797v-3.323c0-0.03,0.014-0.058,0.018-0.087
	l4.188,4.189C8.193,95.311,8.167,95.326,8.135,95.326z"/>
<linearGradient id="SVGID_9_" gradientUnits="userSpaceOnUse" x1="426.2588" y1="-297.978" x2="426.2588" y2="-305.7119" gradientTransform="matrix(1.0588 0 0 -1.0588 -392.8654 -242.714)">
	<stop  offset="0" style="stop-color:#A2DEF9"/>
	<stop  offset="0.2126" style="stop-color:#96CEED"/>
	<stop  offset="0.5574" style="stop-color:#79B2D9"/>
	<stop  offset="0.9894" style="stop-color:#518DBB"/>
	<stop  offset="1" style="stop-color:#508CBA"/>
</linearGradient>
<path fill="url(#SVGID_9_)" d="M62.035,77.204l-3.883-3.884c-0.706-0.703-1.846-0.703-2.549,0l-1.232,1.23l6.432,6.431l1.232-1.23
	C62.738,79.049,62.738,77.907,62.035,77.204z"/>
<linearGradient id="SVGID_10_" gradientUnits="userSpaceOnUse" x1="417.5859" y1="-300.7539" x2="417.5859" y2="-320.3052" gradientTransform="matrix(1.0588 0 0 -1.0588 -392.8654 -242.714)">
	<stop  offset="0" style="stop-color:#A2DEF9"/>
	<stop  offset="0.2126" style="stop-color:#96CEED"/>
	<stop  offset="0.5574" style="stop-color:#79B2D9"/>
	<stop  offset="0.9894" style="stop-color:#518DBB"/>
	<stop  offset="1" style="stop-color:#508CBA"/>
</linearGradient>
<path fill="url(#SVGID_10_)" d="M53.189,75.732L39.424,89.497c-0.035,0.037-0.057,0.074-0.088,0.11
	c-0.24,0.213-0.393,0.519-0.393,0.862v4.81c0,0.638,0.517,1.152,1.152,1.154l4.811-0.002c0.396,0,0.744-0.199,0.953-0.503
	l13.764-13.765L53.189,75.732z M44.159,95.328h-3.323c-0.438,0-0.795-0.355-0.797-0.797v-3.323c0-0.03,0.016-0.058,0.02-0.087
	l4.188,4.189C44.217,95.313,44.189,95.328,44.159,95.328z"/>
<g>
	<linearGradient id="SVGID_11_" gradientUnits="userSpaceOnUse" x1="2.5771" y1="120.6621" x2="26.9531" y2="120.6621">
		<stop  offset="0" style="stop-color:#F2F2F2"/>
		<stop  offset="1" style="stop-color:#BDBDBD"/>
	</linearGradient>
	<path fill="url(#SVGID_11_)" d="M14.767,108.475c-6.733,0-12.19,5.457-12.19,12.187c0,6.732,5.457,12.189,12.19,12.189
		c6.729,0,12.186-5.457,12.186-12.189C26.953,113.932,21.498,108.475,14.767,108.475z M15.169,125.318c0,0.663-0.538,1.2-1.2,1.2
		h-5.26c-0.663,0-1.2-0.537-1.2-1.2v-0.048c0-0.664,0.537-1.2,1.2-1.2h5.26c0.663,0,1.2,0.536,1.2,1.2V125.318z M22.021,120.686
		c0,0.663-0.537,1.199-1.199,1.199H8.709c-0.663,0-1.2-0.536-1.2-1.199v-0.049c0-0.662,0.537-1.199,1.2-1.199h12.113
		c0.662,0,1.199,0.537,1.199,1.199V120.686z M22.021,116.055c0,0.661-0.537,1.2-1.199,1.2H8.709c-0.663,0-1.2-0.539-1.2-1.2v-0.048
		c0-0.663,0.537-1.201,1.2-1.201h12.113c0.662,0,1.199,0.538,1.199,1.201V116.055z"/>
</g>
<g>
	<linearGradient id="SVGID_12_" gradientUnits="userSpaceOnUse" x1="38.5664" y1="120.6621" x2="62.9414" y2="120.6621">
		<stop  offset="0" style="stop-color:#A2DDF8"/>
		<stop  offset="0.195" style="stop-color:#99D4F1"/>
		<stop  offset="0.5111" style="stop-color:#81BCDF"/>
		<stop  offset="0.9071" style="stop-color:#5A95C2"/>
		<stop  offset="1" style="stop-color:#508BBA"/>
	</linearGradient>
	<path fill="url(#SVGID_12_)" d="M50.756,108.475c-6.732,0-12.189,5.457-12.189,12.187c0,6.732,5.457,12.189,12.189,12.189
		c6.729,0,12.186-5.457,12.186-12.189C62.941,113.932,57.486,108.475,50.756,108.475z M51.158,125.318c0,0.663-0.537,1.2-1.199,1.2
		h-5.26c-0.664,0-1.199-0.537-1.199-1.2v-0.048c0-0.664,0.535-1.2,1.199-1.2h5.26c0.662,0,1.199,0.536,1.199,1.2V125.318z
		 M58.01,120.686c0,0.663-0.535,1.199-1.197,1.199H44.699c-0.664,0-1.199-0.536-1.199-1.199v-0.049c0-0.662,0.535-1.199,1.199-1.199
		h12.113c0.662,0,1.197,0.537,1.197,1.199V120.686z M58.01,116.055c0,0.661-0.535,1.2-1.197,1.2H44.699
		c-0.664,0-1.199-0.539-1.199-1.2v-0.048c0-0.663,0.535-1.201,1.199-1.201h12.113c0.662,0,1.197,0.538,1.197,1.201V116.055z"/>
</g>
</svg>
