<?xml version="1.0" encoding="utf-8"?>
<!-- Generator: Adobe Illustrator 15.1.0, SVG Export Plug-In  -->
<!DOCTYPE svg PUBLIC "-//W3C//DTD SVG 1.1//EN" "http://www.w3.org/Graphics/SVG/1.1/DTD/svg11.dtd" [
	<!ENTITY ns_flows "http://ns.adobe.com/Flows/1.0/">
]>
<svg version="1.1"
	 xmlns="http://www.w3.org/2000/svg" xmlns:xlink="http://www.w3.org/1999/xlink" xmlns:a="http://ns.adobe.com/AdobeSVGViewerExtensions/3.0/"
	 x="0px" y="0px" width="3.2em" height="9.7em" viewBox="-3.806 -3.805 32 97"
	 overflow="visible" enable-background="new -3.806 -3.805 32 97" xml:space="preserve">
<defs>
</defs>
<circle fill="#42A648" cx="12.273" cy="12.273" r="12.273"/>
<path fill="#FFFFFF" d="M20.463,8.163c-0.039-0.017-0.082-0.025-0.125-0.025c-0.086,0-0.17,0.033-0.23,0.096l-3.172,3.17V9.607
	v-1.24c0-0.544-0.44-0.984-0.984-0.984h-0.578H5.405c-0.544,0-0.985,0.44-0.985,0.984v1.24v5.333v1.238
	c0,0.545,0.441,0.985,0.985,0.985h9.966h0.578c0.544,0,0.984-0.44,0.984-0.985v-1.238v-1.8l3.172,3.171
	c0.061,0.063,0.145,0.096,0.23,0.096c0.043,0,0.086-0.008,0.125-0.023c0.123-0.052,0.203-0.172,0.203-0.303V8.466
	C20.666,8.333,20.586,8.214,20.463,8.163z"/>
<circle fill="#42A648" cx="12.272" cy="44.686" r="12.271"/>
<path fill="#FFFFFF" d="M17.762,40.056c0-0.019,0-0.039-0.002-0.057c0.004-0.077,0.002-0.153-0.007-0.23
	c-0.09-0.702-0.73-1.201-1.434-1.111l-7.184,0.909c-0.631,0.079-1.096,0.608-1.118,1.225c0,0.016-0.002,0.031-0.002,0.047v4.126
	c-0.149-0.029-0.305-0.044-0.464-0.044c-1.317,0-2.387,1.068-2.387,2.386c0,1.318,1.069,2.387,2.387,2.387
	c1.318,0,2.389-1.068,2.389-2.387V42.05l5.898-0.748v5.397c-0.148-0.029-0.305-0.045-0.463-0.045c-1.318,0-2.387,1.067-2.387,2.387
	c0,1.318,1.069,2.387,2.387,2.387c1.316,0,2.386-1.068,2.386-2.387c0-0.021,0-0.041,0-0.06c0-0.011,0-0.021,0-0.03V40.056z"/>
<circle fill="#42A648" cx="12.272" cy="77.09" r="12.271"/>
<path fill="#FFFFFF" d="M18.664,72.335H15.38v-0.167c0-0.646-0.523-1.17-1.17-1.17h-3.603c-0.646,0-1.17,0.523-1.17,1.17v0.167
	H6.151c-0.646,0-1.169,0.523-1.169,1.171v7.799c0,0.645,0.522,1.17,1.169,1.17h12.513c0.648,0,1.172-0.525,1.172-1.17v-7.799
	C19.835,72.858,19.312,72.335,18.664,72.335z M12.408,80.375c-1.64,0-2.97-1.33-2.97-2.971s1.33-2.971,2.97-2.971
	c1.642,0,2.972,1.33,2.972,2.971C15.38,79.044,14.049,80.375,12.408,80.375z"/>
</svg>
