<?xml version="1.0" encoding="utf-8"?>
<!-- Generator: Adobe Illustrator 15.1.0, SVG Export Plug-In  -->
<!DOCTYPE svg PUBLIC "-//W3C//DTD SVG 1.1//EN" "http://www.w3.org/Graphics/SVG/1.1/DTD/svg11.dtd" [
	<!ENTITY ns_flows "http://ns.adobe.com/Flows/1.0/">
]>
<svg version="1.1"
	 xmlns="http://www.w3.org/2000/svg" xmlns:xlink="http://www.w3.org/1999/xlink" xmlns:a="http://ns.adobe.com/AdobeSVGViewerExtensions/3.0/"
	 x="0px" y="0px" width="6em" height="15em" viewBox="-3.275 -5.421 68 170"
	 overflow="visible" enable-background="new -3.275 -5.421 68 170" xml:space="preserve">
<defs>
</defs>
<linearGradient id="SVGID_1_" gradientUnits="userSpaceOnUse" x1="158.6675" y1="256.8989" x2="158.6675" y2="279.4614" gradientTransform="matrix(1 0 0 1 -144.9336 -120.5293)">
	<stop  offset="0" style="stop-color:#F2F2F2"/>
	<stop  offset="1" style="stop-color:#BDBDBD"/>
</linearGradient>
<polygon fill="url(#SVGID_1_)" points="13.733,136.37 17.683,143.403 25.595,144.987 20.124,150.918 21.063,158.932 13.733,155.563 
	6.401,158.932 7.341,150.918 1.872,144.987 9.782,143.403 "/>
<linearGradient id="SVGID_2_" gradientUnits="userSpaceOnUse" x1="192.6821" y1="256.8989" x2="192.6821" y2="279.4614" gradientTransform="matrix(1 0 0 1 -144.9336 -120.5293)">
	<stop  offset="0" style="stop-color:#A2DEF9"/>
	<stop  offset="0.2126" style="stop-color:#96CEED"/>
	<stop  offset="0.5574" style="stop-color:#79B2D9"/>
	<stop  offset="0.9894" style="stop-color:#518DBB"/>
	<stop  offset="1" style="stop-color:#508CBA"/>
</linearGradient>
<polygon fill="url(#SVGID_2_)" points="47.749,136.37 51.7,143.403 59.61,144.987 54.141,150.918 55.081,158.932 47.749,155.563 
	40.418,158.932 41.358,150.918 35.887,144.987 43.799,143.403 "/>
<linearGradient id="SVGID_3_" gradientUnits="userSpaceOnUse" x1="158.6626" y1="120.5288" x2="158.6626" y2="143.687" gradientTransform="matrix(1 0 0 1 -144.9336 -120.5293)">
	<stop  offset="0" style="stop-color:#F2F2F2"/>
	<stop  offset="1" style="stop-color:#BDBDBD"/>
</linearGradient>
<path fill="url(#SVGID_3_)" d="M13.729,0C7.333,0,2.149,5.184,2.149,11.58c0,6.395,5.184,11.578,11.58,11.578
	c6.395,0,11.578-5.184,11.578-11.578S20.124,0,13.729,0z M13.729,3.59c1.424,0,2.76,0.377,3.918,1.031L6.771,15.498
	c-0.654-1.158-1.031-2.492-1.031-3.918C5.739,7.166,9.315,3.59,13.729,3.59z M13.729,19.568c-1.322,0-2.566-0.326-3.664-0.895
	L20.823,7.916c0.568,1.098,0.895,2.342,0.895,3.664C21.718,15.992,18.142,19.568,13.729,19.568z"/>
<linearGradient id="SVGID_4_" gradientUnits="userSpaceOnUse" x1="192.6792" y1="120.5298" x2="192.6792" y2="143.686" gradientTransform="matrix(1 0 0 1 -144.9336 -120.5293)">
	<stop  offset="0" style="stop-color:#A2DEF9"/>
	<stop  offset="0.2126" style="stop-color:#96CEED"/>
	<stop  offset="0.5574" style="stop-color:#79B2D9"/>
	<stop  offset="0.9894" style="stop-color:#518DBB"/>
	<stop  offset="1" style="stop-color:#508CBA"/>
</linearGradient>
<path fill="url(#SVGID_4_)" d="M47.745,0.001c-6.395,0-11.578,5.184-11.578,11.578s5.184,11.578,11.578,11.578
	s11.58-5.184,11.58-11.578S54.139,0.001,47.745,0.001z M47.745,3.591c1.426,0,2.762,0.377,3.92,1.031L40.788,15.497
	c-0.654-1.158-1.031-2.492-1.031-3.918C39.756,7.165,43.333,3.591,47.745,3.591z M47.745,19.567c-1.32,0-2.564-0.326-3.662-0.895
	L54.84,7.915c0.568,1.098,0.895,2.342,0.895,3.664C55.735,15.991,52.157,19.567,47.745,19.567z"/>
<linearGradient id="SVGID_5_" gradientUnits="userSpaceOnUse" x1="3.6602" y1="85.521" x2="29.8691" y2="85.521" gradientTransform="matrix(0.7071 0.7071 -0.7071 0.7071 65.2811 -27.3386)">
	<stop  offset="0" style="stop-color:#F2F2F2"/>
	<stop  offset="1" style="stop-color:#BDBDBD"/>
</linearGradient>
<path fill="url(#SVGID_5_)" d="M2.367,45.558c3.585-2.214,8.348-1.769,11.456,1.339c0.227,0.228,0.519,0.541,0.717,0.785
	l-0.215,0.222l-2.581,2.581c-0.857,0.856-0.855,2.235-0.001,3.089c0.394,0.395,0.9,0.608,1.414,0.639l11.457,0.011
	c0,0,1.31,0.035,2.02-0.673l0.15-0.151c0.708-0.708,0.674-2.02,0.674-2.02l-0.012-11.456c-0.031-0.514-0.244-1.02-0.638-1.414
	c-0.855-0.854-2.233-0.856-3.091,0.002l-2.226,2.226l-0.338,0.335c-0.086-0.091-0.215-0.179-0.305-0.269
	c-5.117-5.117-13.414-5.118-18.532,0c-0.717,0.717-1.334,1.496-1.851,2.322l-0.257,0.438c-0.34,0.576-0.264,1.329,0.231,1.824
	c0.497,0.497,1.254,0.572,1.83,0.229L2.367,45.558z"/>
<linearGradient id="SVGID_6_" gradientUnits="userSpaceOnUse" x1="27.7129" y1="61.4683" x2="53.9224" y2="61.4683" gradientTransform="matrix(0.7071 0.7071 -0.7071 0.7071 65.2811 -27.3386)">
	<stop  offset="0" style="stop-color:#A2DEF9"/>
	<stop  offset="0.2126" style="stop-color:#96CEED"/>
	<stop  offset="0.5574" style="stop-color:#79B2D9"/>
	<stop  offset="0.9894" style="stop-color:#518DBB"/>
	<stop  offset="1" style="stop-color:#508CBA"/>
</linearGradient>
<path fill="url(#SVGID_6_)" d="M36.383,45.558c3.584-2.214,8.348-1.769,11.455,1.339c0.227,0.228,0.52,0.541,0.717,0.785
	l-0.215,0.222l-2.58,2.581c-0.857,0.856-0.855,2.235-0.002,3.089c0.395,0.395,0.9,0.608,1.414,0.639l11.457,0.011
	c0,0,1.311,0.035,2.02-0.673l0.15-0.151c0.709-0.708,0.674-2.02,0.674-2.02l-0.012-11.456c-0.031-0.514-0.244-1.02-0.639-1.414
	c-0.854-0.854-2.232-0.856-3.09,0.002l-2.227,2.226l-0.338,0.335c-0.086-0.091-0.215-0.179-0.305-0.269
	c-5.115-5.117-13.414-5.118-18.531,0c-0.717,0.717-1.334,1.496-1.852,2.322l-0.256,0.438c-0.342,0.576-0.266,1.329,0.23,1.824
	c0.496,0.497,1.254,0.572,1.83,0.229L36.383,45.558z"/>
<linearGradient id="SVGID_7_" gradientUnits="userSpaceOnUse" x1="165.9478" y1="188.9751" x2="165.9478" y2="196.7095" gradientTransform="matrix(1 0 0 1 -144.9336 -120.5293)">
	<stop  offset="0" style="stop-color:#F2F2F2"/>
	<stop  offset="1" style="stop-color:#BDBDBD"/>
</linearGradient>
<path fill="url(#SVGID_7_)" d="M24.383,72.612l-3.668-3.668c-0.665-0.664-1.741-0.664-2.405,0l-1.164,1.162l6.074,6.074l1.163-1.162
	C25.047,74.354,25.047,73.276,24.383,72.612z"/>
<linearGradient id="SVGID_8_" gradientUnits="userSpaceOnUse" x1="157.2749" y1="191.7505" x2="157.2749" y2="211.3013" gradientTransform="matrix(1 0 0 1 -144.9336 -120.5293)">
	<stop  offset="0" style="stop-color:#F2F2F2"/>
	<stop  offset="1" style="stop-color:#BDBDBD"/>
</linearGradient>
<path fill="url(#SVGID_8_)" d="M16.031,71.222l-13.001,13c-0.033,0.035-0.054,0.07-0.083,0.104c-0.226,0.201-0.371,0.49-0.371,0.814
	v4.543c0,0.602,0.488,1.088,1.089,1.09l4.542-0.002c0.375,0,0.703-0.188,0.9-0.475l12.999-13L16.031,71.222z M7.501,89.729H4.363
	c-0.415,0-0.751-0.336-0.752-0.752v-3.139c0-0.029,0.013-0.055,0.017-0.082l3.956,3.957C7.556,89.715,7.531,89.729,7.501,89.729z"/>
<linearGradient id="SVGID_9_" gradientUnits="userSpaceOnUse" x1="199.9702" y1="188.9771" x2="199.9702" y2="196.7114" gradientTransform="matrix(1 0 0 1 -144.9336 -120.5293)">
	<stop  offset="0" style="stop-color:#A2DEF9"/>
	<stop  offset="0.2126" style="stop-color:#96CEED"/>
	<stop  offset="0.5574" style="stop-color:#79B2D9"/>
	<stop  offset="0.9894" style="stop-color:#518DBB"/>
	<stop  offset="1" style="stop-color:#508CBA"/>
</linearGradient>
<path fill="url(#SVGID_9_)" d="M58.407,72.614l-3.668-3.668c-0.666-0.664-1.742-0.664-2.406,0l-1.164,1.162l6.074,6.074l1.164-1.162
	C59.071,74.356,59.071,73.278,58.407,72.614z"/>
<linearGradient id="SVGID_10_" gradientUnits="userSpaceOnUse" x1="191.2974" y1="191.7524" x2="191.2974" y2="211.3032" gradientTransform="matrix(1 0 0 1 -144.9336 -120.5293)">
	<stop  offset="0" style="stop-color:#A2DEF9"/>
	<stop  offset="0.2126" style="stop-color:#96CEED"/>
	<stop  offset="0.5574" style="stop-color:#79B2D9"/>
	<stop  offset="0.9894" style="stop-color:#518DBB"/>
	<stop  offset="1" style="stop-color:#508CBA"/>
</linearGradient>
<path fill="url(#SVGID_10_)" d="M50.053,71.224l-13.002,13c-0.033,0.035-0.053,0.07-0.082,0.104
	c-0.227,0.201-0.371,0.49-0.371,0.814v4.543c0,0.602,0.488,1.088,1.088,1.09l4.543-0.002c0.375,0,0.703-0.188,0.9-0.475l13-13
	L50.053,71.224z M41.524,89.731h-3.139c-0.414,0-0.75-0.336-0.752-0.752V85.84c0-0.029,0.014-0.055,0.018-0.082l3.955,3.957
	C41.579,89.717,41.553,89.731,41.524,89.731z"/>
<linearGradient id="SVGID_11_" gradientUnits="userSpaceOnUse" x1="13.728" y1="102.1489" x2="13.728" y2="125.1021">
	<stop  offset="0" style="stop-color:#F2F2F2"/>
	<stop  offset="1" style="stop-color:#BDBDBD"/>
</linearGradient>
<path fill="url(#SVGID_11_)" d="M13.729,102.149c-6.339,0-11.477,5.139-11.477,11.477s5.138,11.477,11.477,11.477
	s11.476-5.139,11.476-11.477S20.067,102.149,13.729,102.149z M13.78,106.719c0.354-0.35,0.775-0.525,1.268-0.525
	c0.49,0,0.912,0.176,1.266,0.525s0.53,0.775,0.53,1.277c0,0.492-0.177,0.916-0.53,1.27c-0.354,0.355-0.775,0.533-1.266,0.533
	c-0.492,0-0.914-0.178-1.268-0.533c-0.354-0.354-0.529-0.777-0.529-1.27C13.251,107.495,13.427,107.069,13.78,106.719z
	 M13.248,121.057c-0.71,0-1.245-0.15-1.604-0.449s-0.539-0.744-0.539-1.336c0-0.346,0.133-0.951,0.396-1.82l1.218-3.973
	c0.095-0.307,0.142-0.508,0.142-0.6s-0.021-0.158-0.062-0.201c-0.043-0.043-0.109-0.062-0.202-0.062
	c-0.392,0-0.853,0.498-1.384,1.496h-1.105c0.985-2.143,2.375-3.213,4.172-3.213c0.633,0,1.127,0.154,1.479,0.465
	c0.351,0.309,0.526,0.736,0.526,1.277c0,0.398-0.14,1.031-0.418,1.898l-1.184,3.641c-0.171,0.514-0.255,0.838-0.255,0.971
	c0,0.086,0.025,0.152,0.074,0.201c0.051,0.045,0.121,0.068,0.213,0.068c0.199,0,0.455-0.17,0.766-0.514
	c0.311-0.342,0.547-0.67,0.708-0.982h1.163C16.372,120.012,15.005,121.057,13.248,121.057z"/>
<linearGradient id="SVGID_12_" gradientUnits="userSpaceOnUse" x1="47.7524" y1="102.147" x2="47.7524" y2="125.1001">
	<stop  offset="0" style="stop-color:#A2DEF9"/>
	<stop  offset="0.2126" style="stop-color:#96CEED"/>
	<stop  offset="0.5574" style="stop-color:#79B2D9"/>
	<stop  offset="0.9894" style="stop-color:#518DBB"/>
	<stop  offset="1" style="stop-color:#508CBA"/>
</linearGradient>
<path fill="url(#SVGID_12_)" d="M47.752,102.147c-6.338,0-11.477,5.139-11.477,11.477c0,6.34,5.139,11.477,11.477,11.477
	s11.477-5.137,11.477-11.477C59.229,107.286,54.09,102.147,47.752,102.147z M47.803,106.717c0.354-0.35,0.775-0.525,1.268-0.525
	s0.914,0.176,1.266,0.525c0.354,0.352,0.531,0.777,0.531,1.277c0,0.492-0.178,0.916-0.531,1.271
	c-0.352,0.354-0.773,0.531-1.266,0.531s-0.914-0.178-1.268-0.531c-0.354-0.355-0.529-0.779-0.529-1.271
	C47.274,107.495,47.45,107.069,47.803,106.717z M47.272,121.055c-0.711,0-1.246-0.15-1.605-0.449
	c-0.357-0.299-0.537-0.744-0.537-1.336c0-0.346,0.131-0.951,0.395-1.82l1.219-3.973c0.094-0.307,0.143-0.508,0.143-0.598
	c0-0.094-0.021-0.16-0.064-0.203c-0.043-0.041-0.109-0.062-0.201-0.062c-0.393,0-0.854,0.498-1.383,1.496h-1.107
	c0.986-2.141,2.377-3.213,4.172-3.213c0.635,0,1.127,0.156,1.479,0.465c0.352,0.311,0.527,0.736,0.527,1.279
	c0,0.396-0.139,1.029-0.418,1.896l-1.184,3.641c-0.17,0.516-0.256,0.838-0.256,0.971c0,0.088,0.025,0.154,0.074,0.201
	c0.051,0.047,0.121,0.07,0.215,0.07c0.199,0,0.455-0.172,0.766-0.516c0.309-0.342,0.545-0.67,0.707-0.982h1.162
	C50.397,120.012,49.028,121.055,47.272,121.055z"/>
</svg>
