<?xml version="1.0" encoding="utf-8"?>
<!-- Generator: Adobe Illustrator 15.1.0, SVG Export Plug-In . SVG Version: 6.00 Build 0)  -->
<!DOCTYPE svg PUBLIC "-//W3C//DTD SVG 1.1//EN" "http://www.w3.org/Graphics/SVG/1.1/DTD/svg11.dtd">
<svg version="1.1" id="Layer_1" xmlns="http://www.w3.org/2000/svg" xmlns:xlink="http://www.w3.org/1999/xlink" x="0px" y="0px"
	 width="2.4em" height="2.4em" viewBox="0 0 240 240" enable-background="new 0 0 240 240" xml:space="preserve">
<rect x="18.023" y="12.945" fill="#FFFFFF" width="25.391" height="33.203"/>
<rect x="77.305" y="12.945" fill="#FFFFFF" width="25.391" height="33.203"/>
<rect x="137.305" y="12.945" fill="#FFFFFF" width="25.392" height="33.203"/>
<rect x="193.674" y="12.945" fill="#FFFFFF" width="31.938" height="33.203"/>
<path fill="#43A748" d="M30.002,4.38c-14.148,0-25.619,11.469-25.619,25.619c0,14.146,11.471,25.619,25.619,25.619
	c14.15,0,25.617-11.472,25.617-25.619C55.619,15.848,44.153,4.38,30.002,4.38z M25.983,43.945c-1.053,0-2.105-0.402-2.906-1.205
	c-1.607-1.607-1.607-4.21,0-5.814l6.924-6.923l-7.01-7.012c-1.605-1.605-1.605-4.211,0-5.814c1.609-1.605,4.211-1.605,5.814,0
	l12.824,12.824L28.891,42.739C28.086,43.542,27.033,43.945,25.983,43.945z"/>
<path fill="#43A748" d="M150.002,4.38c-14.147,0-25.619,11.469-25.619,25.619c0,14.146,11.472,25.619,25.619,25.619
	c14.149,0,25.616-11.472,25.616-25.619C175.618,15.848,164.153,4.38,150.002,4.38z M147.012,38.701c0,1.886-1.528,3.416-3.416,3.416
	h-0.099c-1.885,0-3.413-1.529-3.413-3.416V21.297c0-1.886,1.528-3.416,3.413-3.416h0.099c1.888,0,3.416,1.529,3.416,3.416V38.701z
	 M159.918,38.701c0,1.886-1.529,3.416-3.414,3.416h-0.099c-1.887,0-3.416-1.529-3.416-3.416V21.297c0-1.886,1.529-3.416,3.416-3.416
	h0.099c1.885,0,3.414,1.529,3.414,3.416V38.701z"/>
<path fill="#43A748" d="M210.002,4.38c-14.147,0-25.619,11.469-25.619,25.619c0,14.146,11.472,25.619,25.619,25.619
	c14.149,0,25.616-11.472,25.616-25.619C235.618,15.848,224.153,4.38,210.002,4.38z M224.536,36.343c0,2.901-2.352,5.253-5.254,5.253
	h-18.565c-2.901,0-5.254-2.352-5.254-5.253V23.655c0-2.901,2.353-5.253,5.254-5.253h18.565c2.902,0,5.254,2.352,5.254,5.253V36.343z
	"/>
<path fill="#43A748" d="M217.254,23.795h-14.511c-1.551,0-1.811,0.258-1.811,1.81v8.788c0,1.552,0.26,1.81,1.811,1.81h14.511
	c1.551,0,1.812-0.258,1.812-1.81v-8.788C219.065,24.053,218.805,23.795,217.254,23.795z"/>
<path fill="#43A748" d="M90.002,4.38c-14.149,0-25.62,11.469-25.62,25.619c0,14.146,11.471,25.619,25.62,25.619
	c14.149,0,25.616-11.472,25.616-25.619C115.618,15.848,104.152,4.38,90.002,4.38z M98.979,35.978c0,1.657-1.343,3-3,3H84.02
	c-1.657,0-3-1.343-3-3v-11.96c0-1.657,1.343-3,3-3h11.958c1.657,0,3,1.343,3,3v11.96H98.979z"/>
<path d="M30.002,64.376c-14.148,0-25.619,11.469-25.619,25.619c0,14.147,11.471,25.619,25.619,25.619
	c14.15,0,25.617-11.472,25.617-25.619C55.619,75.844,44.153,64.376,30.002,64.376z M25.983,103.941
	c-1.053,0-2.105-0.402-2.906-1.205c-1.607-1.607-1.607-4.21,0-5.814l6.924-6.923l-7.01-7.012c-1.605-1.605-1.605-4.211,0-5.814
	c1.609-1.605,4.211-1.605,5.814,0l12.824,12.824l-12.738,12.739C28.086,103.538,27.033,103.941,25.983,103.941z"/>
<path d="M150.002,64.376c-14.147,0-25.619,11.469-25.619,25.619c0,14.147,11.472,25.619,25.619,25.619
	c14.149,0,25.616-11.472,25.616-25.619C175.618,75.844,164.153,64.376,150.002,64.376z M147.012,98.697
	c0,1.886-1.528,3.416-3.416,3.416h-0.099c-1.885,0-3.413-1.529-3.413-3.416V81.293c0-1.886,1.528-3.416,3.413-3.416h0.099
	c1.888,0,3.416,1.529,3.416,3.416V98.697z M159.918,98.697c0,1.886-1.529,3.416-3.414,3.416h-0.099
	c-1.887,0-3.416-1.529-3.416-3.416V81.293c0-1.886,1.529-3.416,3.416-3.416h0.099c1.885,0,3.414,1.529,3.414,3.416V98.697z"/>
<path d="M210.002,64.376c-14.147,0-25.619,11.469-25.619,25.619c0,14.147,11.472,25.619,25.619,25.619
	c14.149,0,25.616-11.472,25.616-25.619C235.618,75.844,224.153,64.376,210.002,64.376z M224.536,96.339
	c0,2.901-2.352,5.253-5.254,5.253h-18.565c-2.901,0-5.254-2.352-5.254-5.253V83.651c0-2.901,2.353-5.253,5.254-5.253h18.565
	c2.902,0,5.254,2.352,5.254,5.253V96.339z"/>
<path d="M217.254,83.791h-14.511c-1.551,0-1.811,0.258-1.811,1.81v8.788c0,1.552,0.26,1.81,1.811,1.81h14.511
	c1.551,0,1.812-0.258,1.812-1.81v-8.788C219.065,84.049,218.805,83.791,217.254,83.791z"/>
<path d="M90.002,64.376c-14.149,0-25.62,11.469-25.62,25.619c0,14.147,11.471,25.619,25.62,25.619
	c14.149,0,25.616-11.472,25.616-25.619C115.618,75.844,104.152,64.376,90.002,64.376z M98.979,95.974c0,1.657-1.343,3-3,3H84.02
	c-1.657,0-3-1.343-3-3v-11.96c0-1.657,1.343-3,3-3h11.958c1.657,0,3,1.343,3,3v11.96H98.979z"/>
<path fill="#FFFFFF" d="M30.002,124.373c-14.148,0-25.619,11.469-25.619,25.618c0,14.146,11.471,25.619,25.619,25.619
	c14.15,0,25.617-11.473,25.617-25.619C55.619,135.842,44.153,124.373,30.002,124.373z M25.983,163.937
	c-1.053,0-2.105-0.402-2.906-1.205c-1.607-1.606-1.607-4.21,0-5.812l6.924-6.924l-7.01-7.012c-1.605-1.604-1.605-4.211,0-5.813
	c1.609-1.604,4.211-1.604,5.814,0l12.824,12.823l-12.738,12.738C28.086,163.534,27.033,163.937,25.983,163.937z"/>
<path fill="#FFFFFF" d="M150.002,124.373c-14.147,0-25.619,11.469-25.619,25.618c0,14.146,11.472,25.619,25.619,25.619
	c14.149,0,25.616-11.473,25.616-25.619C175.618,135.842,164.153,124.373,150.002,124.373z M147.012,158.694
	c0,1.885-1.528,3.414-3.416,3.414h-0.099c-1.885,0-3.413-1.529-3.413-3.414V141.29c0-1.887,1.528-3.415,3.413-3.415h0.099
	c1.888,0,3.416,1.528,3.416,3.415V158.694z M159.918,158.694c0,1.885-1.529,3.414-3.414,3.414h-0.099
	c-1.887,0-3.416-1.529-3.416-3.414V141.29c0-1.887,1.529-3.415,3.416-3.415h0.099c1.885,0,3.414,1.528,3.414,3.415V158.694z"/>
<path fill="#FFFFFF" d="M210.002,124.373c-14.147,0-25.619,11.469-25.619,25.618c0,14.146,11.472,25.619,25.619,25.619
	c14.149,0,25.616-11.473,25.616-25.619C235.618,135.842,224.153,124.373,210.002,124.373z M224.536,156.336
	c0,2.901-2.352,5.254-5.254,5.254h-18.565c-2.901,0-5.254-2.353-5.254-5.254v-12.688c0-2.902,2.353-5.254,5.254-5.254h18.565
	c2.902,0,5.254,2.352,5.254,5.254V156.336z"/>
<path fill="#FFFFFF" d="M217.254,143.788h-14.511c-1.551,0-1.811,0.259-1.811,1.81v8.788c0,1.552,0.26,1.811,1.811,1.811h14.511
	c1.551,0,1.812-0.259,1.812-1.811v-8.788C219.065,144.047,218.805,143.788,217.254,143.788z"/>
<path fill="#FFFFFF" d="M90.002,124.373c-14.149,0-25.62,11.469-25.62,25.618c0,14.146,11.471,25.619,25.62,25.619
	c14.149,0,25.616-11.473,25.616-25.619C115.618,135.842,104.152,124.373,90.002,124.373z M98.979,155.97c0,1.657-1.343,3-3,3H84.02
	c-1.657,0-3-1.343-3-3v-11.959c0-1.656,1.343-3,3-3h11.958c1.657,0,3,1.344,3,3v11.959H98.979z"/>
<path fill="#F09622" d="M30.002,184.368c-14.148,0-25.619,11.47-25.619,25.619c0,14.146,11.471,25.619,25.619,25.619
	c14.15,0,25.617-11.473,25.617-25.619C55.619,195.838,44.153,184.368,30.002,184.368z M25.983,223.933
	c-1.053,0-2.105-0.402-2.906-1.205c-1.607-1.607-1.607-4.21,0-5.812l6.924-6.924l-7.01-7.012c-1.605-1.604-1.605-4.211,0-5.813
	c1.609-1.605,4.211-1.605,5.814,0l12.824,12.823l-12.738,12.738C28.086,223.53,27.033,223.933,25.983,223.933z"/>
<path fill="#F09622" d="M150.002,184.368c-14.147,0-25.619,11.47-25.619,25.619c0,14.146,11.472,25.619,25.619,25.619
	c14.149,0,25.616-11.473,25.616-25.619C175.618,195.838,164.153,184.368,150.002,184.368z M147.012,218.69
	c0,1.885-1.528,3.414-3.416,3.414h-0.099c-1.885,0-3.413-1.529-3.413-3.414v-17.404c0-1.887,1.528-3.416,3.413-3.416h0.099
	c1.888,0,3.416,1.529,3.416,3.416V218.69z M159.918,218.69c0,1.885-1.529,3.414-3.414,3.414h-0.099
	c-1.887,0-3.416-1.529-3.416-3.414v-17.404c0-1.887,1.529-3.416,3.416-3.416h0.099c1.885,0,3.414,1.529,3.414,3.416V218.69z"/>
<path fill="#F09622" d="M210.002,184.368c-14.147,0-25.619,11.47-25.619,25.619c0,14.146,11.472,25.619,25.619,25.619
	c14.149,0,25.616-11.473,25.616-25.619C235.618,195.838,224.153,184.368,210.002,184.368z M224.536,216.332
	c0,2.901-2.352,5.254-5.254,5.254h-18.565c-2.901,0-5.254-2.353-5.254-5.254v-12.688c0-2.902,2.353-5.254,5.254-5.254h18.565
	c2.902,0,5.254,2.352,5.254,5.254V216.332z"/>
<path fill="#F09622" d="M217.254,203.784h-14.511c-1.551,0-1.811,0.259-1.811,1.81v8.788c0,1.552,0.26,1.811,1.811,1.811h14.511
	c1.551,0,1.812-0.259,1.812-1.811v-8.788C219.065,204.043,218.805,203.784,217.254,203.784z"/>
<path fill="#F09622" d="M90.002,184.368c-14.149,0-25.62,11.47-25.62,25.619c0,14.146,11.471,25.619,25.62,25.619
	c14.149,0,25.616-11.473,25.616-25.619C115.618,195.838,104.152,184.368,90.002,184.368z M98.979,215.967c0,1.657-1.343,3-3,3H84.02
	c-1.657,0-3-1.343-3-3v-11.959c0-1.656,1.343-3,3-3h11.958c1.657,0,3,1.344,3,3v11.959H98.979z"/>
</svg>
