<?xml version="1.0" encoding="utf-8"?>
<!-- Generator: Adobe Illustrator 15.1.0, SVG Export Plug-In  -->
<!DOCTYPE svg PUBLIC "-//W3C//DTD SVG 1.1//EN" "http://www.w3.org/Graphics/SVG/1.1/DTD/svg11.dtd" [
	<!ENTITY ns_flows "http://ns.adobe.com/Flows/1.0/">
]>
<svg version="1.1"
	 xmlns="http://www.w3.org/2000/svg" xmlns:xlink="http://www.w3.org/1999/xlink" xmlns:a="http://ns.adobe.com/AdobeSVGViewerExtensions/3.0/"
	 x="0px" y="0px" width="34em" height="102em" viewBox="-4.131 -4.137 34 102"
	 overflow="visible" enable-background="new -4.131 -4.137 34 102" xml:space="preserve">
<defs>
</defs>
<circle fill="#42A648" cx="12.879" cy="12.879" r="12.879"/>
<path fill="#FFFFFF" d="M21.473,8.566c-0.041-0.018-0.086-0.026-0.131-0.026c-0.09,0-0.178,0.035-0.242,0.101l-3.328,3.327v-1.887
	V8.78c0-0.571-0.463-1.033-1.033-1.033h-0.607H5.672c-0.571,0-1.034,0.462-1.034,1.033v1.301v5.596v1.299
	c0,0.572,0.463,1.034,1.034,1.034h10.458h0.607c0.57,0,1.033-0.462,1.033-1.034v-1.299v-1.889l3.328,3.328
	c0.064,0.066,0.152,0.101,0.242,0.101c0.045,0,0.09-0.009,0.131-0.025c0.129-0.054,0.213-0.18,0.213-0.318V8.884
	C21.686,8.744,21.602,8.62,21.473,8.566z"/>
<circle fill="#42A648" cx="12.878" cy="46.893" r="12.877"/>
<path fill="#FFFFFF" d="M18.639,42.034c0-0.02,0-0.041-0.002-0.06c0.004-0.08,0.002-0.16-0.008-0.241
	c-0.094-0.737-0.766-1.26-1.504-1.166l-7.538,0.954c-0.662,0.083-1.15,0.638-1.174,1.286c0,0.016-0.002,0.032-0.002,0.049v4.33
	c-0.157-0.031-0.319-0.047-0.486-0.047c-1.383,0-2.505,1.121-2.505,2.504s1.122,2.505,2.505,2.505s2.506-1.122,2.506-2.505v-5.516
	l6.19-0.785v5.664c-0.156-0.032-0.32-0.048-0.486-0.048c-1.383,0-2.504,1.12-2.504,2.505c0,1.383,1.122,2.504,2.504,2.504
	s2.504-1.121,2.504-2.504c0-0.022,0-0.043,0-0.063c0-0.011,0-0.021,0-0.032V42.034z"/>
<circle fill="#42A648" cx="12.878" cy="80.897" r="12.877"/>
<path fill="#FFFFFF" d="M19.586,75.907h-3.447v-0.176c0-0.678-0.549-1.227-1.227-1.227h-3.781c-0.678,0-1.228,0.549-1.228,1.227
	v0.176H6.455c-0.678,0-1.227,0.549-1.227,1.228v8.184c0,0.677,0.549,1.228,1.227,1.228h13.131c0.68,0,1.229-0.551,1.229-1.228
	v-8.184C20.814,76.456,20.266,75.907,19.586,75.907z M13.021,84.344c-1.721,0-3.117-1.396-3.117-3.117
	c0-1.722,1.396-3.118,3.117-3.118c1.722,0,3.118,1.396,3.118,3.118C16.139,82.947,14.742,84.344,13.021,84.344z"/>
</svg>
