<?xml version="1.0" encoding="utf-8"?>
<!-- Generator: Adobe Illustrator 15.1.0, SVG Export Plug-In  -->
<!DOCTYPE svg PUBLIC "-//W3C//DTD SVG 1.1//EN" "http://www.w3.org/Graphics/SVG/1.1/DTD/svg11.dtd" [
	<!ENTITY ns_flows "http://ns.adobe.com/Flows/1.0/">
]>
<svg version="1.1"
	 xmlns="http://www.w3.org/2000/svg" xmlns:xlink="http://www.w3.org/1999/xlink" xmlns:a="http://ns.adobe.com/AdobeSVGViewerExtensions/3.0/"
	 x="0px" y="0px" width="7em" height="10em" viewBox="0 0 70 105" overflow="visible" enable-background="new 0 0 70 105"
	 xml:space="preserve">
<defs>
</defs>
<linearGradient id="SVGID_1_" gradientUnits="userSpaceOnUse" x1="162.4346" y1="126.0283" x2="162.4346" y2="150.0283" gradientTransform="matrix(1 0 0 1 -144.9336 -120.5293)">
	<stop  offset="0" style="stop-color:#8C8C8C"/>
	<stop  offset="0.0014" style="stop-color:#8C8C8C"/>
	<stop  offset="0.4198" style="stop-color:#6B6B6B"/>
	<stop  offset="0.7677" style="stop-color:#565656"/>
	<stop  offset="1" style="stop-color:#4F4F4F"/>
</linearGradient>
<path fill="url(#SVGID_1_)" d="M17.501,5.5C10.692,5.5,2,10.872,2,17.499C2,24.127,10.692,29.5,17.501,29.5
	C24.307,29.5,33,24.127,33,17.499C33,10.872,24.307,5.5,17.501,5.5z M17.501,25.197c-4.366,0-7.906-3.446-7.906-7.698
	c0-4.251,3.54-7.697,7.906-7.697c4.367,0,7.906,3.446,7.906,7.697C25.407,21.751,21.868,25.197,17.501,25.197z"/>
<linearGradient id="SVGID_2_" gradientUnits="userSpaceOnUse" x1="162.4355" y1="133.3154" x2="162.4355" y2="142.7559" gradientTransform="matrix(1 0 0 1 -144.9336 -120.5293)">
	<stop  offset="0" style="stop-color:#8C8C8C"/>
	<stop  offset="0.0014" style="stop-color:#8C8C8C"/>
	<stop  offset="0.4198" style="stop-color:#6B6B6B"/>
	<stop  offset="0.7677" style="stop-color:#565656"/>
	<stop  offset="1" style="stop-color:#4F4F4F"/>
</linearGradient>
<path fill="url(#SVGID_2_)" d="M17.814,12.787c0.102,0.318,0.155,0.656,0.155,1.006c0,1.871-1.557,3.386-3.479,3.386
	c-0.647,0-1.254-0.175-1.772-0.475c-0.046,0.258-0.074,0.523-0.074,0.795c0,2.611,2.173,4.729,4.856,4.729
	c2.681,0,4.856-2.117,4.856-4.729C22.357,14.991,20.35,12.943,17.814,12.787z"/>
<rect fill="none" width="35" height="35"/>
<linearGradient id="SVGID_3_" gradientUnits="userSpaceOnUse" x1="197.4336" y1="126.0283" x2="197.4336" y2="150.0283" gradientTransform="matrix(1 0 0 1 -144.9336 -120.5293)">
	<stop  offset="0" style="stop-color:#A2DEF9"/>
	<stop  offset="0.2126" style="stop-color:#96CEED"/>
	<stop  offset="0.5574" style="stop-color:#79B2D9"/>
	<stop  offset="0.9894" style="stop-color:#518DBB"/>
	<stop  offset="1" style="stop-color:#508CBA"/>
</linearGradient>
<path fill="url(#SVGID_3_)" d="M52.501,5.5C45.692,5.5,37,10.872,37,17.499C37,24.127,45.692,29.5,52.501,29.5
	c6.806,0,15.5-5.373,15.5-12.001C68.001,10.872,59.307,5.5,52.501,5.5z M52.501,25.197c-4.366,0-7.906-3.446-7.906-7.698
	c0-4.251,3.54-7.697,7.906-7.697c4.367,0,7.906,3.446,7.906,7.697C60.407,21.751,56.868,25.197,52.501,25.197z"/>
<linearGradient id="SVGID_4_" gradientUnits="userSpaceOnUse" x1="197.4346" y1="133.3154" x2="197.4346" y2="142.7559" gradientTransform="matrix(1 0 0 1 -144.9336 -120.5293)">
	<stop  offset="0" style="stop-color:#A2DEF9"/>
	<stop  offset="0.2126" style="stop-color:#96CEED"/>
	<stop  offset="0.5574" style="stop-color:#79B2D9"/>
	<stop  offset="0.9894" style="stop-color:#518DBB"/>
	<stop  offset="1" style="stop-color:#508CBA"/>
</linearGradient>
<path fill="url(#SVGID_4_)" d="M52.815,12.787c0.102,0.318,0.154,0.656,0.154,1.006c0,1.871-1.557,3.386-3.479,3.386
	c-0.647,0-1.254-0.175-1.771-0.475c-0.047,0.258-0.075,0.523-0.075,0.795c0,2.611,2.173,4.729,4.856,4.729
	c2.681,0,4.856-2.117,4.856-4.729C57.357,14.991,55.35,12.943,52.815,12.787z"/>
<rect x="35" fill="none" width="35" height="35"/>
<rect y="35" fill="none" width="35" height="35"/>
<linearGradient id="SVGID_5_" gradientUnits="userSpaceOnUse" x1="17.5005" y1="46.0415" x2="17.5005" y2="62.4528">
	<stop  offset="0" style="stop-color:#8C8C8C"/>
	<stop  offset="0.0014" style="stop-color:#8C8C8C"/>
	<stop  offset="0.4198" style="stop-color:#6B6B6B"/>
	<stop  offset="0.7677" style="stop-color:#565656"/>
	<stop  offset="1" style="stop-color:#4F4F4F"/>
</linearGradient>
<path fill="url(#SVGID_5_)" d="M17.501,52.271c5.739,0,10.528-4.234,11.581-9.823c-0.867-0.598-1.909-0.948-3.031-0.948H8.95
	c-1.123,0-2.165,0.351-3.032,0.948C6.973,48.037,11.763,52.271,17.501,52.271z"/>
<linearGradient id="SVGID_6_" gradientUnits="userSpaceOnUse" x1="17.5" y1="46.043" x2="17.5" y2="62.4546">
	<stop  offset="0" style="stop-color:#8C8C8C"/>
	<stop  offset="0.0014" style="stop-color:#8C8C8C"/>
	<stop  offset="0.4198" style="stop-color:#6B6B6B"/>
	<stop  offset="0.7677" style="stop-color:#565656"/>
	<stop  offset="1" style="stop-color:#4F4F4F"/>
</linearGradient>
<path fill="url(#SVGID_6_)" d="M31.16,45.17c-2.016,5.763-7.369,9.906-13.659,9.906c-6.291,0-11.644-4.143-13.661-9.906
	c-0.216,0.604-0.34,1.253-0.34,1.934v10.793c0,1.047,0.284,2.025,0.772,2.863l5.506-5.568c0.537-0.541,1.4-0.537,1.927,0.018
	c0.528,0.551,0.521,1.438-0.017,1.98l-5.483,5.543C7.012,63.217,7.948,63.5,8.95,63.5h17.101c1.002,0,1.938-0.283,2.746-0.768
	l-5.484-5.545c-0.535-0.545-0.543-1.432-0.016-1.982c0.527-0.553,1.392-0.559,1.927-0.018l5.507,5.57
	c0.486-0.836,0.77-1.814,0.77-2.861V47.104C31.5,46.423,31.377,45.774,31.16,45.17z"/>
<rect x="35" y="35" fill="none" width="35" height="35"/>
<linearGradient id="SVGID_7_" gradientUnits="userSpaceOnUse" x1="52.5" y1="46.0415" x2="52.5" y2="62.4528">
	<stop  offset="0" style="stop-color:#A2DEF9"/>
	<stop  offset="0.2126" style="stop-color:#96CEED"/>
	<stop  offset="0.5574" style="stop-color:#79B2D9"/>
	<stop  offset="0.9894" style="stop-color:#518DBB"/>
	<stop  offset="1" style="stop-color:#508CBA"/>
</linearGradient>
<path fill="url(#SVGID_7_)" d="M52.501,52.271c5.739,0,10.528-4.234,11.581-9.823c-0.867-0.598-1.909-0.948-3.031-0.948H43.95
	c-1.123,0-2.165,0.351-3.031,0.948C41.974,48.037,46.763,52.271,52.501,52.271z"/>
<linearGradient id="SVGID_8_" gradientUnits="userSpaceOnUse" x1="52.5" y1="46.043" x2="52.5" y2="62.4546">
	<stop  offset="0" style="stop-color:#A2DEF9"/>
	<stop  offset="0.2126" style="stop-color:#96CEED"/>
	<stop  offset="0.5574" style="stop-color:#79B2D9"/>
	<stop  offset="0.9894" style="stop-color:#518DBB"/>
	<stop  offset="1" style="stop-color:#508CBA"/>
</linearGradient>
<path fill="url(#SVGID_8_)" d="M66.16,45.17c-2.016,5.763-7.369,9.906-13.659,9.906c-6.291,0-11.645-4.143-13.66-9.906
	c-0.217,0.604-0.341,1.253-0.341,1.934v10.793c0,1.047,0.284,2.025,0.772,2.863l5.506-5.568c0.537-0.541,1.4-0.537,1.928,0.018
	c0.527,0.551,0.52,1.438-0.018,1.98l-5.482,5.543c0.807,0.484,1.742,0.768,2.744,0.768h17.101c1.002,0,1.938-0.283,2.746-0.768
	l-5.484-5.545c-0.535-0.545-0.543-1.432-0.016-1.982c0.527-0.553,1.392-0.559,1.927-0.018l5.507,5.57
	c0.486-0.836,0.77-1.814,0.77-2.861V47.104C66.5,46.423,66.377,45.774,66.16,45.17z"/>
<rect y="70" fill="none" width="35" height="35"/>
<linearGradient id="SVGID_9_" gradientUnits="userSpaceOnUse" x1="162.4346" y1="196.0293" x2="162.4346" y2="220.0293" gradientTransform="matrix(1 0 0 1 -144.9336 -120.5293)">
	<stop  offset="0" style="stop-color:#8C8C8C"/>
	<stop  offset="0.0014" style="stop-color:#8C8C8C"/>
	<stop  offset="0.4198" style="stop-color:#6B6B6B"/>
	<stop  offset="0.7677" style="stop-color:#565656"/>
	<stop  offset="1" style="stop-color:#4F4F4F"/>
</linearGradient>
<path fill="url(#SVGID_9_)" d="M17.5,75.5c-6.627,0-12,5.372-12,12.001c0,6.626,5.373,11.999,12,11.999c6.628,0,12-5.373,12-11.999
	C29.5,80.872,24.128,75.5,17.5,75.5z M23.826,90.296c0.974,0.973,0.974,2.554,0,3.527c-0.977,0.975-2.555,0.975-3.529,0L17.5,91.028
	l-2.796,2.795c-0.974,0.975-2.553,0.975-3.527,0c-0.973-0.974-0.973-2.555,0-3.527l2.795-2.795l-2.795-2.796
	c-0.973-0.975-0.973-2.556,0-3.53c0.975-0.973,2.554-0.973,3.529,0l2.794,2.797l2.797-2.797c0.975-0.973,2.553-0.973,3.529,0
	c0.974,0.975,0.974,2.556,0,3.53l-2.797,2.796L23.826,90.296z"/>
<rect x="35" y="70" fill="none" width="35" height="35"/>
<linearGradient id="SVGID_10_" gradientUnits="userSpaceOnUse" x1="197.4336" y1="196.0293" x2="197.4336" y2="220.0293" gradientTransform="matrix(1 0 0 1 -144.9336 -120.5293)">
	<stop  offset="0" style="stop-color:#A2DEF9"/>
	<stop  offset="0.2126" style="stop-color:#96CEED"/>
	<stop  offset="0.5574" style="stop-color:#79B2D9"/>
	<stop  offset="0.9894" style="stop-color:#518DBB"/>
	<stop  offset="1" style="stop-color:#508CBA"/>
</linearGradient>
<path fill="url(#SVGID_10_)" d="M52.5,75.5c-6.627,0-11.999,5.372-11.999,12.001c0,6.626,5.372,11.999,11.999,11.999
	c6.628,0,12-5.373,12-11.999C64.5,80.872,59.128,75.5,52.5,75.5z M58.826,90.296c0.974,0.973,0.974,2.554,0,3.527
	c-0.977,0.975-2.555,0.975-3.529,0L52.5,91.028l-2.796,2.795c-0.975,0.975-2.553,0.975-3.527,0c-0.974-0.974-0.974-2.555,0-3.527
	l2.795-2.795l-2.795-2.796c-0.974-0.975-0.974-2.556,0-3.53c0.975-0.973,2.553-0.973,3.529,0l2.794,2.797l2.797-2.797
	c0.975-0.973,2.553-0.973,3.529,0c0.974,0.975,0.974,2.556,0,3.53l-2.797,2.796L58.826,90.296z"/>
</svg>
