<?xml version="1.0" encoding="utf-8"?>
<!-- Generator: Adobe Illustrator 15.1.0, SVG Export Plug-In  -->
<!DOCTYPE svg PUBLIC "-//W3C//DTD SVG 1.1//EN" "http://www.w3.org/Graphics/SVG/1.1/DTD/svg11.dtd" [
	<!ENTITY ns_flows "http://ns.adobe.com/Flows/1.0/">
]>
<svg version="1.1"
	 xmlns="http://www.w3.org/2000/svg" xmlns:xlink="http://www.w3.org/1999/xlink" xmlns:a="http://ns.adobe.com/AdobeSVGViewerExtensions/3.0/"
	 x="0px" y="0px" width="8em" height="12em" viewBox="0 0 80 120" overflow="visible" enable-background="new 0 0 80 120"
	 xml:space="preserve">
<defs>
</defs>
<linearGradient id="SVGID_1_" gradientUnits="userSpaceOnUse" x1="164.9346" y1="128.792" x2="164.9346" y2="152.792" gradientTransform="matrix(1 0 0 1 -144.9336 -120.5293)">
	<stop  offset="0" style="stop-color:#8C8C8C"/>
	<stop  offset="0.0014" style="stop-color:#8C8C8C"/>
	<stop  offset="0.4198" style="stop-color:#6B6B6B"/>
	<stop  offset="0.7677" style="stop-color:#565656"/>
	<stop  offset="1" style="stop-color:#4F4F4F"/>
</linearGradient>
<path fill="url(#SVGID_1_)" d="M20.001,8.264c-6.808,0-15.501,5.373-15.501,12c0,6.628,8.693,12,15.501,12
	c6.806,0,15.499-5.373,15.499-12C35.5,13.636,26.807,8.264,20.001,8.264z M20.001,27.961c-4.366,0-7.906-3.446-7.906-7.698
	s3.54-7.698,7.906-7.698c4.367,0,7.906,3.446,7.906,7.698S24.368,27.961,20.001,27.961z"/>
<linearGradient id="SVGID_2_" gradientUnits="userSpaceOnUse" x1="164.9355" y1="136.0791" x2="164.9355" y2="145.5195" gradientTransform="matrix(1 0 0 1 -144.9336 -120.5293)">
	<stop  offset="0" style="stop-color:#8C8C8C"/>
	<stop  offset="0.0014" style="stop-color:#8C8C8C"/>
	<stop  offset="0.4198" style="stop-color:#6B6B6B"/>
	<stop  offset="0.7677" style="stop-color:#565656"/>
	<stop  offset="1" style="stop-color:#4F4F4F"/>
</linearGradient>
<path fill="url(#SVGID_2_)" d="M20.315,15.551c0.102,0.318,0.155,0.656,0.155,1.006c0,1.871-1.557,3.386-3.479,3.386
	c-0.647,0-1.253-0.175-1.772-0.475c-0.046,0.258-0.075,0.523-0.075,0.795c0,2.611,2.173,4.728,4.856,4.728
	c2.681,0,4.856-2.117,4.856-4.728C24.857,17.755,22.849,15.708,20.315,15.551z"/>
<rect fill="none" width="40" height="40"/>
<linearGradient id="SVGID_3_" gradientUnits="userSpaceOnUse" x1="204.9336" y1="128.792" x2="204.9336" y2="152.792" gradientTransform="matrix(1 0 0 1 -144.9336 -120.5293)">
	<stop  offset="0" style="stop-color:#A2DEF9"/>
	<stop  offset="0.2126" style="stop-color:#96CEED"/>
	<stop  offset="0.5574" style="stop-color:#79B2D9"/>
	<stop  offset="0.9894" style="stop-color:#518DBB"/>
	<stop  offset="1" style="stop-color:#508CBA"/>
</linearGradient>
<path fill="url(#SVGID_3_)" d="M60.001,8.264c-6.808,0-15.501,5.373-15.501,11.999c0,6.628,8.693,12.001,15.501,12.001
	c6.806,0,15.499-5.373,15.499-12.001C75.5,13.637,66.807,8.264,60.001,8.264z M60.001,27.961c-4.366,0-7.905-3.446-7.905-7.698
	c0-4.25,3.539-7.697,7.905-7.697c4.367,0,7.906,3.447,7.906,7.697C67.907,24.515,64.368,27.961,60.001,27.961z"/>
<linearGradient id="SVGID_4_" gradientUnits="userSpaceOnUse" x1="204.9336" y1="136.0791" x2="204.9336" y2="145.5195" gradientTransform="matrix(1 0 0 1 -144.9336 -120.5293)">
	<stop  offset="0" style="stop-color:#A2DEF9"/>
	<stop  offset="0.2126" style="stop-color:#96CEED"/>
	<stop  offset="0.5574" style="stop-color:#79B2D9"/>
	<stop  offset="0.9894" style="stop-color:#518DBB"/>
	<stop  offset="1" style="stop-color:#508CBA"/>
</linearGradient>
<path fill="url(#SVGID_4_)" d="M60.315,15.551c0.101,0.318,0.154,0.657,0.154,1.006c0,1.871-1.556,3.386-3.479,3.386
	c-0.647,0-1.253-0.176-1.772-0.476c-0.045,0.258-0.074,0.523-0.074,0.795c0,2.611,2.172,4.728,4.856,4.728
	c2.681,0,4.855-2.117,4.855-4.728C64.856,17.755,62.849,15.708,60.315,15.551z"/>
<rect x="40" fill="none" width="40" height="40"/>
<linearGradient id="SVGID_5_" gradientUnits="userSpaceOnUse" x1="20" y1="53.3994" x2="20" y2="69.8115">
	<stop  offset="0" style="stop-color:#8C8C8C"/>
	<stop  offset="0.0014" style="stop-color:#8C8C8C"/>
	<stop  offset="0.4198" style="stop-color:#6B6B6B"/>
	<stop  offset="0.7677" style="stop-color:#565656"/>
	<stop  offset="1" style="stop-color:#4F4F4F"/>
</linearGradient>
<path fill="url(#SVGID_5_)" d="M20.001,59.629c5.739,0,10.528-4.234,11.581-9.824c-0.866-0.598-1.909-0.948-3.031-0.948H11.45
	c-1.123,0-2.165,0.35-3.032,0.948C9.473,55.395,14.263,59.629,20.001,59.629z"/>
<linearGradient id="SVGID_6_" gradientUnits="userSpaceOnUse" x1="20" y1="53.3999" x2="20" y2="69.8119">
	<stop  offset="0" style="stop-color:#8C8C8C"/>
	<stop  offset="0.0014" style="stop-color:#8C8C8C"/>
	<stop  offset="0.4198" style="stop-color:#6B6B6B"/>
	<stop  offset="0.7677" style="stop-color:#565656"/>
	<stop  offset="1" style="stop-color:#4F4F4F"/>
</linearGradient>
<path fill="url(#SVGID_6_)" d="M33.66,52.527c-2.015,5.765-7.369,9.906-13.659,9.906c-6.291,0-11.644-4.141-13.661-9.906
	C6.125,53.131,6,53.78,6,54.461v10.793c0,1.047,0.284,2.024,0.772,2.863l5.506-5.568c0.537-0.542,1.4-0.537,1.927,0.017
	c0.528,0.552,0.521,1.438-0.017,1.98l-5.483,5.543c0.806,0.485,1.742,0.769,2.744,0.769h17.101c1.002,0,1.938-0.283,2.746-0.769
	l-5.483-5.545c-0.535-0.544-0.543-1.431-0.016-1.982c0.527-0.553,1.391-0.559,1.926-0.017l5.507,5.569
	c0.487-0.836,0.77-1.813,0.77-2.86V54.461C34,53.78,33.877,53.131,33.66,52.527z"/>
<rect y="40" fill="none" width="40" height="40"/>
<linearGradient id="SVGID_7_" gradientUnits="userSpaceOnUse" x1="60" y1="53.3994" x2="60" y2="69.8115">
	<stop  offset="0" style="stop-color:#A2DEF9"/>
	<stop  offset="0.2126" style="stop-color:#96CEED"/>
	<stop  offset="0.5574" style="stop-color:#79B2D9"/>
	<stop  offset="0.9894" style="stop-color:#518DBB"/>
	<stop  offset="1" style="stop-color:#508CBA"/>
</linearGradient>
<path fill="url(#SVGID_7_)" d="M60.001,59.629c5.738,0,10.528-4.236,11.58-9.825c-0.865-0.599-1.908-0.947-3.03-0.947H51.45
	c-1.123,0-2.166,0.348-3.031,0.947C49.473,55.393,54.263,59.629,60.001,59.629z"/>
<linearGradient id="SVGID_8_" gradientUnits="userSpaceOnUse" x1="60" y1="53.3989" x2="60" y2="69.8118">
	<stop  offset="0" style="stop-color:#A2DEF9"/>
	<stop  offset="0.2126" style="stop-color:#96CEED"/>
	<stop  offset="0.5574" style="stop-color:#79B2D9"/>
	<stop  offset="0.9894" style="stop-color:#518DBB"/>
	<stop  offset="1" style="stop-color:#508CBA"/>
</linearGradient>
<path fill="url(#SVGID_8_)" d="M73.659,52.526c-2.015,5.765-7.368,9.906-13.658,9.906c-6.291,0-11.644-4.141-13.66-9.906
	C46.125,53.13,46,53.779,46,54.46v10.794c0,1.046,0.285,2.024,0.771,2.864l5.507-5.569c0.537-0.542,1.4-0.537,1.927,0.018
	c0.528,0.552,0.521,1.438-0.016,1.979l-5.484,5.543c0.807,0.485,1.742,0.769,2.745,0.769h17.101c1.003,0,1.938-0.283,2.746-0.769
	l-5.484-5.545c-0.534-0.544-0.542-1.43-0.015-1.982c0.526-0.552,1.391-0.56,1.926-0.017l5.507,5.569
	C73.717,67.278,74,66.3,74,65.254V54.46C74,53.779,73.877,53.13,73.659,52.526z"/>
<rect x="40" y="40" fill="none" width="40" height="40"/>
<linearGradient id="SVGID_9_" gradientUnits="userSpaceOnUse" x1="164.9346" y1="208.1133" x2="164.9346" y2="232.1133" gradientTransform="matrix(1 0 0 1 -144.9336 -120.5293)">
	<stop  offset="0" style="stop-color:#8C8C8C"/>
	<stop  offset="0.0014" style="stop-color:#8C8C8C"/>
	<stop  offset="0.4198" style="stop-color:#6B6B6B"/>
	<stop  offset="0.7677" style="stop-color:#565656"/>
	<stop  offset="1" style="stop-color:#4F4F4F"/>
</linearGradient>
<path fill="url(#SVGID_9_)" d="M20,87.584c-6.627,0-12,5.372-12,12.001c0,6.626,5.373,11.999,12,11.999c6.628,0,12-5.373,12-11.999
	C32,92.956,26.628,87.584,20,87.584z M26.326,102.38c0.974,0.973,0.974,2.554,0,3.527c-0.976,0.975-2.555,0.975-3.529,0L20,103.112
	l-2.796,2.795c-0.974,0.975-2.553,0.975-3.527,0c-0.973-0.974-0.973-2.555,0-3.527l2.795-2.795l-2.795-2.796
	c-0.973-0.975-0.973-2.556,0-3.53c0.975-0.973,2.554-0.973,3.529,0L20,96.056l2.796-2.797c0.975-0.973,2.554-0.973,3.529,0
	c0.974,0.975,0.974,2.556,0,3.53l-2.797,2.796L26.326,102.38z"/>
<rect y="80" fill="none" width="40" height="40"/>
<linearGradient id="SVGID_10_" gradientUnits="userSpaceOnUse" x1="204.9336" y1="208.1133" x2="204.9336" y2="232.1133" gradientTransform="matrix(1 0 0 1 -144.9336 -120.5293)">
	<stop  offset="0" style="stop-color:#A2DEF9"/>
	<stop  offset="0.2126" style="stop-color:#96CEED"/>
	<stop  offset="0.5574" style="stop-color:#79B2D9"/>
	<stop  offset="0.9894" style="stop-color:#518DBB"/>
	<stop  offset="1" style="stop-color:#508CBA"/>
</linearGradient>
<path fill="url(#SVGID_10_)" d="M60,87.584c-6.627,0-12,5.374-12,12.001c0,6.626,5.373,11.999,12,11.999c6.628,0,12-5.373,12-11.999
	C72,92.958,66.628,87.584,60,87.584z M66.325,102.381c0.975,0.972,0.975,2.553,0,3.526c-0.975,0.975-2.555,0.975-3.528,0L60,103.111
	l-2.797,2.796c-0.973,0.975-2.553,0.975-3.526,0c-0.974-0.974-0.974-2.555,0-3.526l2.794-2.796l-2.794-2.795
	c-0.974-0.975-0.974-2.556,0-3.528c0.974-0.975,2.554-0.975,3.528,0L60,96.058l2.797-2.796c0.974-0.975,2.554-0.975,3.528,0
	c0.975,0.973,0.975,2.554,0,3.528l-2.796,2.795L66.325,102.381z"/>
<rect x="40" y="80" fill="none" width="40" height="40"/>
</svg>
