<?xml version="1.0" encoding="utf-8"?>
<!-- Generator: Adobe Illustrator 15.1.0, SVG Export Plug-In  -->
<!DOCTYPE svg PUBLIC "-//W3C//DTD SVG 1.1//EN" "http://www.w3.org/Graphics/SVG/1.1/DTD/svg11.dtd" [
	<!ENTITY ns_flows "http://ns.adobe.com/Flows/1.0/">
]>
<svg version="1.1"
	 xmlns="http://www.w3.org/2000/svg" xmlns:xlink="http://www.w3.org/1999/xlink" xmlns:a="http://ns.adobe.com/AdobeSVGViewerExtensions/3.0/"
	 x="0px" y="0px" width="8em" height="12em" viewBox="0 0 80 120" overflow="visible" enable-background="new 0 0 80 120"
	 xml:space="preserve">
<defs>
</defs>
<linearGradient id="SVGID_1_" gradientUnits="userSpaceOnUse" x1="164.9346" y1="128.2646" x2="164.9346" y2="152.792" gradientTransform="matrix(1 0 0 1 -144.9336 -120.5293)">
	<stop  offset="0" style="stop-color:#8C8C8C"/>
	<stop  offset="0.0014" style="stop-color:#8C8C8C"/>
	<stop  offset="0.4198" style="stop-color:#6B6B6B"/>
	<stop  offset="0.7677" style="stop-color:#565656"/>
	<stop  offset="1" style="stop-color:#4F4F4F"/>
</linearGradient>
<path fill="url(#SVGID_1_)" d="M20.001,7.736C13.227,7.736,4.576,13.227,4.576,20c0,6.773,8.65,12.264,15.425,12.264
	c6.772,0,15.423-5.491,15.423-12.264C35.424,13.227,26.773,7.736,20.001,7.736z M20.001,27.866c-4.345,0-7.867-3.522-7.867-7.867
	s3.522-7.867,7.867-7.867c4.346,0,7.867,3.522,7.867,7.867S24.347,27.866,20.001,27.866z"/>
<linearGradient id="SVGID_2_" gradientUnits="userSpaceOnUse" x1="164.9355" y1="135.7119" x2="164.9355" y2="145.3604" gradientTransform="matrix(1 0 0 1 -144.9336 -120.5293)">
	<stop  offset="0" style="stop-color:#8C8C8C"/>
	<stop  offset="0.0014" style="stop-color:#8C8C8C"/>
	<stop  offset="0.4198" style="stop-color:#6B6B6B"/>
	<stop  offset="0.7677" style="stop-color:#565656"/>
	<stop  offset="1" style="stop-color:#4F4F4F"/>
</linearGradient>
<path fill="url(#SVGID_2_)" d="M20.313,15.184c0.101,0.325,0.154,0.67,0.154,1.028c0,1.912-1.549,3.46-3.462,3.46
	c-0.644,0-1.247-0.179-1.763-0.486c-0.045,0.264-0.074,0.535-0.074,0.813c0,2.668,2.162,4.832,4.833,4.832
	c2.668,0,4.832-2.164,4.832-4.832C24.833,17.436,22.835,15.344,20.313,15.184z"/>
<rect fill="none" width="40" height="40"/>
<linearGradient id="SVGID_3_" gradientUnits="userSpaceOnUse" x1="204.9336" y1="128.2646" x2="204.9336" y2="152.792" gradientTransform="matrix(1 0 0 1 -144.9336 -120.5293)">
	<stop  offset="0" style="stop-color:#A2DEF9"/>
	<stop  offset="0.2126" style="stop-color:#96CEED"/>
	<stop  offset="0.5574" style="stop-color:#79B2D9"/>
	<stop  offset="0.9894" style="stop-color:#518DBB"/>
	<stop  offset="1" style="stop-color:#508CBA"/>
</linearGradient>
<path fill="url(#SVGID_3_)" d="M60.001,7.736c-6.774,0-15.425,5.491-15.425,12.263c0,6.773,8.65,12.265,15.425,12.265
	c6.772,0,15.423-5.491,15.423-12.265C75.424,13.228,66.773,7.736,60.001,7.736z M60.001,27.866c-4.345,0-7.866-3.521-7.866-7.867
	c0-4.344,3.521-7.866,7.866-7.866c4.346,0,7.867,3.522,7.867,7.866C67.868,24.345,64.347,27.866,60.001,27.866z"/>
<linearGradient id="SVGID_4_" gradientUnits="userSpaceOnUse" x1="204.9336" y1="135.7119" x2="204.9336" y2="145.3594" gradientTransform="matrix(1 0 0 1 -144.9336 -120.5293)">
	<stop  offset="0" style="stop-color:#A2DEF9"/>
	<stop  offset="0.2126" style="stop-color:#96CEED"/>
	<stop  offset="0.5574" style="stop-color:#79B2D9"/>
	<stop  offset="0.9894" style="stop-color:#518DBB"/>
	<stop  offset="1" style="stop-color:#508CBA"/>
</linearGradient>
<path fill="url(#SVGID_4_)" d="M60.313,15.184c0.101,0.325,0.154,0.671,0.154,1.028c0,1.912-1.549,3.461-3.462,3.461
	c-0.645,0-1.247-0.18-1.764-0.486c-0.045,0.264-0.074,0.535-0.074,0.812c0,2.668,2.162,4.832,4.833,4.832
	c2.668,0,4.832-2.164,4.832-4.832C64.833,17.437,62.835,15.344,60.313,15.184z"/>
<rect x="40" fill="none" width="40" height="40"/>
<linearGradient id="SVGID_5_" gradientUnits="userSpaceOnUse" x1="20" y1="53.624" x2="20" y2="69.8248">
	<stop  offset="0" style="stop-color:#8C8C8C"/>
	<stop  offset="0.0014" style="stop-color:#8C8C8C"/>
	<stop  offset="0.4198" style="stop-color:#6B6B6B"/>
	<stop  offset="0.7677" style="stop-color:#565656"/>
	<stop  offset="1" style="stop-color:#4F4F4F"/>
</linearGradient>
<path fill="url(#SVGID_5_)" d="M20.001,59.773c5.825,0,10.687-4.18,11.755-9.697c-0.879-0.59-1.938-0.936-3.076-0.936H11.321
	c-1.14,0-2.198,0.346-3.077,0.936C9.314,55.594,14.176,59.773,20.001,59.773z"/>
<linearGradient id="SVGID_6_" gradientUnits="userSpaceOnUse" x1="20" y1="53.6245" x2="20" y2="69.8254">
	<stop  offset="0" style="stop-color:#8C8C8C"/>
	<stop  offset="0.0014" style="stop-color:#8C8C8C"/>
	<stop  offset="0.4198" style="stop-color:#6B6B6B"/>
	<stop  offset="0.7677" style="stop-color:#565656"/>
	<stop  offset="1" style="stop-color:#4F4F4F"/>
</linearGradient>
<path fill="url(#SVGID_6_)" d="M33.865,52.763c-2.045,5.69-7.479,9.778-13.864,9.778c-6.385,0-11.819-4.088-13.866-9.778
	C5.916,53.359,5.789,54,5.789,54.672v10.654c0,1.033,0.289,1.998,0.784,2.826l5.589-5.496c0.545-0.535,1.421-0.53,1.956,0.016
	c0.536,0.545,0.528,1.42-0.017,1.955l-5.566,5.472c0.818,0.479,1.768,0.759,2.786,0.759H28.68c1.018,0,1.967-0.279,2.787-0.759
	L25.9,64.625c-0.543-0.537-0.551-1.412-0.016-1.957s1.412-0.551,1.955-0.016l5.59,5.497c0.494-0.825,0.781-1.79,0.781-2.823V54.672
	C34.211,54,34.086,53.359,33.865,52.763z"/>
<rect y="40" fill="none" width="40" height="40"/>
<linearGradient id="SVGID_7_" gradientUnits="userSpaceOnUse" x1="60" y1="53.624" x2="60" y2="69.8248">
	<stop  offset="0" style="stop-color:#A2DEF9"/>
	<stop  offset="0.2126" style="stop-color:#96CEED"/>
	<stop  offset="0.5574" style="stop-color:#79B2D9"/>
	<stop  offset="0.9894" style="stop-color:#518DBB"/>
	<stop  offset="1" style="stop-color:#508CBA"/>
</linearGradient>
<path fill="url(#SVGID_7_)" d="M60.001,59.773c5.825,0,10.687-4.182,11.755-9.698c-0.879-0.591-1.938-0.935-3.076-0.935H51.321
	c-1.14,0-2.198,0.344-3.077,0.935C49.314,55.592,54.176,59.773,60.001,59.773z"/>
<linearGradient id="SVGID_8_" gradientUnits="userSpaceOnUse" x1="60" y1="53.6235" x2="60" y2="69.8253">
	<stop  offset="0" style="stop-color:#A2DEF9"/>
	<stop  offset="0.2126" style="stop-color:#96CEED"/>
	<stop  offset="0.5574" style="stop-color:#79B2D9"/>
	<stop  offset="0.9894" style="stop-color:#518DBB"/>
	<stop  offset="1" style="stop-color:#508CBA"/>
</linearGradient>
<path fill="url(#SVGID_8_)" d="M73.865,52.762c-2.045,5.69-7.479,9.778-13.864,9.778c-6.386,0-11.819-4.088-13.866-9.778
	c-0.219,0.597-0.346,1.237-0.346,1.909v10.655c0,1.032,0.289,1.998,0.783,2.827l5.59-5.497c0.545-0.535,1.421-0.53,1.956,0.017
	c0.536,0.545,0.528,1.419-0.017,1.954l-5.566,5.472c0.818,0.479,1.769,0.759,2.786,0.759H68.68c1.018,0,1.967-0.279,2.787-0.759
	L65.9,64.625c-0.543-0.537-0.551-1.411-0.016-1.957c0.535-0.544,1.412-0.552,1.955-0.016l5.59,5.497
	c0.494-0.825,0.781-1.791,0.781-2.823V54.671C74.211,53.999,74.086,53.358,73.865,52.762z"/>
<rect x="40" y="40" fill="none" width="40" height="40"/>
<linearGradient id="SVGID_9_" gradientUnits="userSpaceOnUse" x1="164.9355" y1="208.9453" x2="164.9355" y2="232.1133" gradientTransform="matrix(1 0 0 1 -144.9336 -120.5293)">
	<stop  offset="0" style="stop-color:#8C8C8C"/>
	<stop  offset="0.0014" style="stop-color:#8C8C8C"/>
	<stop  offset="0.4198" style="stop-color:#6B6B6B"/>
	<stop  offset="0.7677" style="stop-color:#565656"/>
	<stop  offset="1" style="stop-color:#4F4F4F"/>
</linearGradient>
<path fill="url(#SVGID_9_)" d="M20,88.416c-6.396,0-11.582,5.186-11.582,11.585c0,6.396,5.186,11.583,11.582,11.583
	c6.397,0,11.583-5.187,11.583-11.583C31.583,93.602,26.397,88.416,20,88.416z M26.105,102.699c0.94,0.938,0.94,2.465,0,3.405
	c-0.941,0.94-2.466,0.94-3.406,0L20,103.406l-2.699,2.698c-0.939,0.94-2.464,0.94-3.404,0c-0.939-0.94-0.939-2.467,0-3.405
	l2.697-2.698l-2.697-2.699c-0.939-0.94-0.939-2.467,0-3.407c0.94-0.939,2.465-0.939,3.406,0L20,96.594l2.699-2.699
	c0.94-0.939,2.465-0.939,3.406,0c0.94,0.94,0.94,2.467,0,3.407l-2.699,2.699L26.105,102.699z"/>
<rect y="80" fill="none" width="40" height="40"/>
<linearGradient id="SVGID_10_" gradientUnits="userSpaceOnUse" x1="204.9336" y1="208.9453" x2="204.9336" y2="232.1133" gradientTransform="matrix(1 0 0 1 -144.9336 -120.5293)">
	<stop  offset="0" style="stop-color:#A2DEF9"/>
	<stop  offset="0.2126" style="stop-color:#96CEED"/>
	<stop  offset="0.5574" style="stop-color:#79B2D9"/>
	<stop  offset="0.9894" style="stop-color:#518DBB"/>
	<stop  offset="1" style="stop-color:#508CBA"/>
</linearGradient>
<path fill="url(#SVGID_10_)" d="M60,88.416c-6.396,0-11.582,5.188-11.582,11.585c0,6.396,5.186,11.583,11.582,11.583
	c6.397,0,11.583-5.187,11.583-11.583C71.583,93.604,66.397,88.416,60,88.416z M66.105,102.7c0.94,0.938,0.94,2.464,0,3.404
	c-0.941,0.94-2.466,0.94-3.406,0L60,103.405l-2.699,2.699c-0.939,0.94-2.464,0.94-3.404,0c-0.939-0.94-0.939-2.467,0-3.404
	l2.697-2.699l-2.697-2.698c-0.939-0.94-0.939-2.467,0-3.406c0.94-0.94,2.465-0.94,3.406,0L60,96.596l2.699-2.699
	c0.94-0.94,2.465-0.94,3.406,0c0.94,0.939,0.94,2.466,0,3.406l-2.699,2.698L66.105,102.7z"/>
<rect x="40" y="80" fill="none" width="40" height="40"/>
</svg>
