<?xml version="1.0" encoding="utf-8"?>
<!-- Generator: Adobe Illustrator 15.1.0, SVG Export Plug-In . SVG Version: 6.00 Build 0)  -->
<!DOCTYPE svg PUBLIC "-//W3C//DTD SVG 1.1//EN" "http://www.w3.org/Graphics/SVG/1.1/DTD/svg11.dtd">
<svg version="1.1" id="Layer_1" xmlns="http://www.w3.org/2000/svg" xmlns:xlink="http://www.w3.org/1999/xlink" x="0px" y="0px"
	 width="141.73em" height="342.99em" viewBox="0 0 141.73 342.99" enable-background="new 0 0 141.73 342.99" xml:space="preserve">
<linearGradient id="SVGID_1_" gradientUnits="userSpaceOnUse" x1="193.6582" y1="280.0488" x2="193.6582" y2="275.9893" gradientTransform="matrix(12 0 0 -12 -2289.5469 3368.1719)">
	<stop  offset="0" style="stop-color:#F3F3F3"/>
	<stop  offset="1" style="stop-color:#BDBDBD"/>
</linearGradient>
<path fill="url(#SVGID_1_)" d="M34.366,7.587c-13.456,0-24.362,10.906-24.362,24.363c0,13.454,10.907,24.358,24.362,24.358
	s24.359-10.906,24.359-24.358C58.726,18.498,47.822,7.587,34.366,7.587z M34.366,15.14c2.997,0,5.807,0.794,8.244,2.169
	L19.728,40.193c-1.376-2.436-2.169-5.242-2.169-8.242C17.557,22.664,25.08,15.14,34.366,15.14z M34.366,48.756
	c-2.781,0-5.398-0.686-7.708-1.884l22.633-22.63c1.194,2.31,1.882,4.927,1.882,7.708C51.174,41.233,43.651,48.756,34.366,48.756z"/>
<linearGradient id="SVGID_2_" gradientUnits="userSpaceOnUse" x1="199.623" y1="280.0488" x2="199.623" y2="275.9893" gradientTransform="matrix(12 0 0 -12 -2289.5469 3368.1719)">
	<stop  offset="0" style="stop-color:#A4DEF9"/>
	<stop  offset="0.2126" style="stop-color:#98CEEB"/>
	<stop  offset="0.5574" style="stop-color:#7BB3D9"/>
	<stop  offset="0.9894" style="stop-color:#528EBB"/>
	<stop  offset="1" style="stop-color:#508DBB"/>
</linearGradient>
<path fill="url(#SVGID_2_)" d="M105.933,7.59c-13.455,0-24.358,10.906-24.358,24.358s10.906,24.358,24.358,24.358
	s24.363-10.906,24.363-24.358S119.387,7.59,105.933,7.59z M105.933,15.143c3,0,5.812,0.793,8.247,2.169L91.296,40.191
	c-1.377-2.436-2.169-5.243-2.169-8.243C89.127,22.662,96.65,15.143,105.933,15.143z M105.933,48.754
	c-2.778,0-5.396-0.686-7.705-1.883l22.634-22.632c1.195,2.311,1.883,4.928,1.883,7.709
	C122.742,41.231,115.216,48.754,105.933,48.754z"/>
<linearGradient id="SVGID_3_" gradientUnits="userSpaceOnUse" x1="43.6133" y1="352.9844" x2="48.2085" y2="352.9844" gradientTransform="matrix(8.4852 8.4852 8.4852 -8.4852 -3344.1719 2707.8115)">
	<stop  offset="0" style="stop-color:#F3F3F3"/>
	<stop  offset="1" style="stop-color:#BDBDBD"/>
</linearGradient>
<path fill="url(#SVGID_3_)" d="M10.463,103.436c7.542-4.658,17.563-3.723,24.102,2.817c0.478,0.479,1.092,1.138,1.509,1.652
	l-0.453,0.466l-5.43,5.43c-1.803,1.801-1.798,4.703-0.002,6.5c0.829,0.831,1.894,1.279,2.976,1.344l24.104,0.023
	c0,0,2.757,0.074,4.25-1.416l0.316-0.318c1.489-1.489,1.417-4.25,1.417-4.25l-0.025-24.102c-0.065-1.081-0.513-2.146-1.343-2.976
	c-1.799-1.796-4.697-1.8-6.502,0.005l-4.684,4.683L49.986,94c-0.181-0.191-0.452-0.376-0.643-0.566
	c-10.765-10.766-28.22-10.768-38.988,0c-1.509,1.509-2.808,3.147-3.895,4.886L5.92,99.241c-0.716,1.211-0.556,2.795,0.485,3.836
	c1.046,1.047,2.638,1.205,3.85,0.483L10.463,103.436z"/>
<linearGradient id="SVGID_4_" gradientUnits="userSpaceOnUse" x1="47.8301" y1="357.2012" x2="52.4253" y2="357.2012" gradientTransform="matrix(8.4852 8.4852 8.4852 -8.4852 -3344.1719 2707.8115)">
	<stop  offset="0" style="stop-color:#A4DEF9"/>
	<stop  offset="0.2126" style="stop-color:#98CEEB"/>
	<stop  offset="0.5574" style="stop-color:#7BB3D9"/>
	<stop  offset="0.9894" style="stop-color:#528EBB"/>
	<stop  offset="1" style="stop-color:#508DBB"/>
</linearGradient>
<path fill="url(#SVGID_4_)" d="M82.03,103.436c7.541-4.658,17.562-3.723,24.1,2.817c0.477,0.479,1.094,1.138,1.509,1.652
	l-0.451,0.466l-5.43,5.43c-1.804,1.801-1.799,4.703-0.004,6.5c0.83,0.831,1.894,1.279,2.975,1.344l24.104,0.023
	c0,0,2.758,0.074,4.25-1.416l0.315-0.318c1.491-1.489,1.417-4.25,1.417-4.25l-0.023-24.102c-0.065-1.081-0.516-2.146-1.344-2.976
	c-1.799-1.796-4.697-1.8-6.503,0.005l-4.686,4.683L121.549,94c-0.181-0.191-0.451-0.376-0.641-0.566
	c-10.762-10.766-28.222-10.768-38.987,0c-1.509,1.509-2.807,3.147-3.896,4.886l-0.539,0.922c-0.719,1.211-0.559,2.795,0.483,3.836
	c1.044,1.047,2.639,1.205,3.851,0.483L82.03,103.436z"/>
<linearGradient id="SVGID_5_" gradientUnits="userSpaceOnUse" x1="194.9355" y1="268.0488" x2="194.9355" y2="266.6934" gradientTransform="matrix(12 0 0 -12 -2289.5469 3368.1719)">
	<stop  offset="0" style="stop-color:#F3F3F3"/>
	<stop  offset="1" style="stop-color:#BDBDBD"/>
</linearGradient>
<path fill="url(#SVGID_5_)" d="M56.781,160.355l-7.717-7.719c-1.399-1.396-3.663-1.396-5.06,0l-2.449,2.445l12.779,12.779
	l2.447-2.445C58.178,164.019,58.178,161.751,56.781,160.355z"/>
<linearGradient id="SVGID_6_" gradientUnits="userSpaceOnUse" x1="193.416" y1="267.5625" x2="193.416" y2="264.1348" gradientTransform="matrix(12 0 0 -12 -2289.5469 3368.1719)">
	<stop  offset="0" style="stop-color:#F3F3F3"/>
	<stop  offset="1" style="stop-color:#BDBDBD"/>
</linearGradient>
<path fill="url(#SVGID_6_)" d="M39.21,157.43L11.857,184.78c-0.069,0.073-0.114,0.146-0.174,0.219
	c-0.476,0.422-0.781,1.03-0.781,1.712v9.559c0,1.265,1.026,2.289,2.291,2.292l9.556-0.003c0.788,0,1.479-0.396,1.893-0.998
	l27.349-27.352L39.21,157.43z M21.264,196.366h-6.603c-0.872,0-1.58-0.707-1.581-1.582v-6.604c0-0.061,0.027-0.116,0.036-0.174
	l8.323,8.325C21.379,196.339,21.327,196.366,21.264,196.366z"/>
<linearGradient id="SVGID_7_" gradientUnits="userSpaceOnUse" x1="200.9004" y1="268.0488" x2="200.9004" y2="266.6924" gradientTransform="matrix(12 0 0 -12 -2289.5469 3368.1719)">
	<stop  offset="0" style="stop-color:#A4DEF9"/>
	<stop  offset="0.2126" style="stop-color:#98CEEB"/>
	<stop  offset="0.5574" style="stop-color:#7BB3D9"/>
	<stop  offset="0.9894" style="stop-color:#528EBB"/>
	<stop  offset="1" style="stop-color:#508DBB"/>
</linearGradient>
<path fill="url(#SVGID_7_)" d="M128.362,160.359l-7.718-7.718c-1.401-1.397-3.665-1.397-5.062,0l-2.448,2.445l12.779,12.779
	l2.449-2.445C129.758,164.023,129.758,161.755,128.362,160.359z"/>
<linearGradient id="SVGID_8_" gradientUnits="userSpaceOnUse" x1="199.3809" y1="267.5615" x2="199.3809" y2="264.1338" gradientTransform="matrix(12 0 0 -12 -2289.5469 3368.1719)">
	<stop  offset="0" style="stop-color:#A4DEF9"/>
	<stop  offset="0.2126" style="stop-color:#98CEEB"/>
	<stop  offset="0.5574" style="stop-color:#7BB3D9"/>
	<stop  offset="0.9894" style="stop-color:#528EBB"/>
	<stop  offset="1" style="stop-color:#508DBB"/>
</linearGradient>
<path fill="url(#SVGID_8_)" d="M110.787,157.434l-27.353,27.349c-0.07,0.075-0.112,0.147-0.174,0.221
	c-0.479,0.422-0.779,1.029-0.779,1.713v9.557c0,1.267,1.026,2.288,2.288,2.293l9.558-0.005c0.788,0,1.479-0.395,1.894-0.999
	l27.351-27.35L110.787,157.434z M92.841,196.37h-6.604c-0.871,0-1.577-0.707-1.582-1.584v-6.604c0-0.061,0.03-0.113,0.039-0.171
	l8.32,8.324C92.958,196.343,92.905,196.37,92.841,196.37z"/>
<linearGradient id="SVGID_9_" gradientUnits="userSpaceOnUse" x1="48.7261" y1="382.6689" x2="48.7261" y2="378.6455" gradientTransform="matrix(12 0 0 -12 -550.3438 4814.5234)">
	<stop  offset="0" style="stop-color:#F3F3F3"/>
	<stop  offset="1" style="stop-color:#BDBDBD"/>
</linearGradient>
<path fill="url(#SVGID_9_)" d="M34.366,222.495c-13.336,0-24.146,10.812-24.146,24.145c0,13.336,10.809,24.146,24.146,24.146
	c13.337,0,24.144-10.811,24.144-24.146C58.508,233.307,47.701,222.495,34.366,222.495z M34.474,232.11
	c0.745-0.736,1.63-1.104,2.668-1.104c1.031,0,1.919,0.371,2.664,1.104c0.744,0.738,1.115,1.634,1.115,2.687
	c0,1.036-0.372,1.927-1.115,2.675c-0.743,0.746-1.631,1.118-2.664,1.118c-1.035,0-1.923-0.373-2.668-1.118
	c-0.745-0.744-1.112-1.638-1.112-2.675C33.361,233.744,33.731,232.846,34.474,232.11z M33.355,262.276
	c-1.494,0-2.62-0.316-3.375-0.945c-0.754-0.629-1.134-1.564-1.134-2.811c0-0.729,0.28-2.001,0.833-3.829l2.563-8.358
	c0.199-0.646,0.298-1.069,0.298-1.26c0-0.196-0.044-0.335-0.13-0.426c-0.091-0.089-0.229-0.129-0.425-0.129
	c-0.825,0-1.795,1.046-2.912,3.146h-2.325c2.072-4.508,4.997-6.76,8.777-6.76c1.332,0,2.371,0.327,3.112,0.979
	c0.739,0.652,1.106,1.549,1.106,2.688c0,0.834-0.294,2.167-0.879,3.99l-2.491,7.661c-0.36,1.083-0.536,1.763-0.536,2.043
	c0,0.183,0.053,0.322,0.156,0.421c0.108,0.099,0.254,0.146,0.448,0.146c0.418,0,0.958-0.36,1.611-1.083
	c0.654-0.72,1.151-1.41,1.489-2.066h2.447C39.928,260.08,37.052,262.276,33.355,262.276z"/>
<linearGradient id="SVGID_10_" gradientUnits="userSpaceOnUse" x1="54.6909" y1="382.6699" x2="54.6909" y2="378.6455" gradientTransform="matrix(12 0 0 -12 -550.3438 4814.5234)">
	<stop  offset="0" style="stop-color:#A4DEF9"/>
	<stop  offset="0.2126" style="stop-color:#98CEEB"/>
	<stop  offset="0.5574" style="stop-color:#7BB3D9"/>
	<stop  offset="0.9894" style="stop-color:#528EBB"/>
	<stop  offset="1" style="stop-color:#508DBB"/>
</linearGradient>
<path fill="url(#SVGID_10_)" d="M105.947,222.492c-13.335,0-24.146,10.812-24.146,24.146c0,13.336,10.812,24.146,24.146,24.146
	c13.334,0,24.146-10.81,24.146-24.146C130.093,233.304,119.281,222.492,105.947,222.492z M106.054,232.109
	c0.745-0.736,1.634-1.104,2.668-1.104c1.035,0,1.923,0.369,2.666,1.104c0.743,0.736,1.115,1.632,1.115,2.687
	c0,1.034-0.374,1.927-1.115,2.673c-0.74,0.748-1.63,1.119-2.666,1.119c-1.032,0-1.923-0.373-2.668-1.119
	c-0.742-0.745-1.113-1.636-1.113-2.673C104.939,233.741,105.312,232.845,106.054,232.109z M104.936,262.275
	c-1.497,0-2.62-0.318-3.376-0.947c-0.753-0.627-1.132-1.564-1.132-2.811c0-0.726,0.279-2.001,0.834-3.827l2.562-8.359
	c0.199-0.645,0.301-1.069,0.301-1.26c0-0.197-0.045-0.337-0.135-0.426c-0.087-0.088-0.23-0.13-0.423-0.13
	c-0.827,0-1.797,1.047-2.909,3.147h-2.332c2.073-4.508,4.999-6.761,8.778-6.761c1.334,0,2.369,0.327,3.109,0.978
	c0.741,0.654,1.108,1.549,1.108,2.689c0,0.836-0.291,2.167-0.88,3.991l-2.49,7.66c-0.358,1.083-0.536,1.763-0.536,2.042
	c0,0.184,0.05,0.323,0.155,0.425c0.104,0.096,0.254,0.146,0.449,0.146c0.42,0,0.957-0.361,1.612-1.085
	c0.652-0.719,1.146-1.409,1.486-2.065h2.448C111.509,260.078,108.631,262.275,104.936,262.275z"/>
<linearGradient id="SVGID_11_" gradientUnits="userSpaceOnUse" x1="130.7773" y1="39.457" x2="130.7773" y2="3.2617" gradientTransform="matrix(1.2353 0 0 -1.2353 -125.4834 333.7383)">
	<stop  offset="0" style="stop-color:#A5DEF8"/>
	<stop  offset="0.2126" style="stop-color:#97CCE9"/>
	<stop  offset="0.5574" style="stop-color:#7BB1D8"/>
	<stop  offset="0.9894" style="stop-color:#518DBB"/>
	<stop  offset="1" style="stop-color:#4F8CBB"/>
</linearGradient>
<polygon fill="url(#SVGID_11_)" points="36.066,284.997 43.896,298.936 59.571,302.075 48.733,313.828 50.595,329.709 
	36.066,323.033 21.541,329.709 23.402,313.828 12.561,302.075 28.24,298.936 "/>
</svg>
