<?xml version="1.0" encoding="utf-8"?>
<!-- Generator: Adobe Illustrator 15.1.0, SVG Export Plug-In  -->
<!DOCTYPE svg PUBLIC "-//W3C//DTD SVG 1.1//EN" "http://www.w3.org/Graphics/SVG/1.1/DTD/svg11.dtd" [
	<!ENTITY ns_flows "http://ns.adobe.com/Flows/1.0/">
]>
<svg version="1.1"
	 xmlns="http://www.w3.org/2000/svg" xmlns:xlink="http://www.w3.org/1999/xlink" xmlns:a="http://ns.adobe.com/AdobeSVGViewerExtensions/3.0/"
	 x="0px" y="0px" width="114px" height="228px" viewBox="-4.291 -4.292 114 228"
	 overflow="visible" enable-background="new -4.291 -4.292 114 228" xml:space="preserve">
<defs>
</defs>
<path opacity="0.45" fill="#FFFFFF" d="M24.21,0C10.839,0,0,10.838,0,24.208C0,37.578,10.839,48.417,24.21,48.417
	c13.37,0,24.208-10.84,24.208-24.209C48.418,10.838,37.58,0,24.21,0z M34.709,29.183c1.525,1.526,1.525,3.999,0,5.524
	c-0.764,0.764-1.763,1.145-2.763,1.145s-1.999-0.381-2.762-1.145l-4.975-4.974l-4.974,4.974c-0.763,0.764-1.763,1.145-2.763,1.145
	c-1,0-1.999-0.381-2.762-1.145c-1.525-1.525-1.525-3.998,0-5.524l4.975-4.974l-4.975-4.976c-1.525-1.526-1.525-3.999,0-5.524
	c1.525-1.526,3.999-1.526,5.524,0l4.974,4.974l4.975-4.974c1.526-1.526,4-1.526,5.525,0c1.525,1.525,1.525,3.998,0,5.524
	l-4.976,4.976L34.709,29.183z"/>
<path opacity="0.9" fill="#F19520" d="M81.209,0C67.84,0,57,10.838,57,24.208c0,13.369,10.84,24.209,24.209,24.209
	c13.371,0,24.208-10.84,24.208-24.209C105.417,10.838,94.581,0,81.209,0z M91.709,29.183c1.525,1.526,1.525,3.999,0,5.524
	c-0.765,0.764-1.764,1.145-2.764,1.145c-0.999,0-1.999-0.381-2.761-1.145l-4.976-4.974l-4.975,4.974
	c-0.764,0.764-1.763,1.145-2.763,1.145c-0.999,0-1.999-0.381-2.761-1.145c-1.526-1.525-1.526-3.998,0-5.524l4.974-4.974
	l-4.974-4.976c-1.526-1.526-1.526-3.999,0-5.524c1.525-1.526,3.998-1.526,5.523,0l4.975,4.974l4.976-4.974
	c1.526-1.526,3.998-1.526,5.524,0c1.525,1.525,1.525,3.998,0,5.524l-4.977,4.976L91.709,29.183z"/>
<path opacity="0.9" fill="#F19520" d="M81.208,56.999C67.837,56.999,57,67.837,57,81.208c0,13.369,10.838,24.209,24.209,24.209
	c13.368,0,24.208-10.84,24.208-24.209C105.417,67.837,94.577,56.999,81.208,56.999z M92.15,85.114h-7.036v7.034
	c0,2.158-1.749,3.908-3.905,3.908c-2.158,0-3.906-1.75-3.906-3.908v-7.034h-7.036c-2.158,0-3.905-1.75-3.905-3.906
	c0-2.158,1.747-3.908,3.905-3.908h7.036v-7.034c0-2.158,1.748-3.908,3.906-3.908c2.156,0,3.905,1.75,3.905,3.908V77.3h7.036
	c2.156,0,3.906,1.75,3.906,3.908C96.056,83.364,94.306,85.114,92.15,85.114z"/>
<path opacity="0.9" fill="#F19520" d="M81.21,113.999C67.837,113.999,57,124.837,57,138.207c0,13.373,10.838,24.211,24.211,24.211
	c13.369,0,24.206-10.838,24.206-24.211C105.417,124.837,94.58,113.999,81.21,113.999z M82.009,147.458
	c0,1.316-1.066,2.382-2.382,2.382H69.178c-1.315,0-2.384-1.065-2.384-2.382v-0.098c0-1.318,1.068-2.384,2.384-2.384h10.449
	c1.315,0,2.382,1.065,2.382,2.384V147.458z M95.62,138.255c0,1.316-1.066,2.383-2.38,2.383H69.178c-1.315,0-2.384-1.066-2.384-2.383
	v-0.098c0-1.315,1.068-2.382,2.384-2.382H93.24c1.313,0,2.38,1.066,2.38,2.382V138.255z M95.62,129.056
	c0,1.315-1.066,2.382-2.38,2.382H69.178c-1.315,0-2.384-1.066-2.384-2.382v-0.099c0-1.315,1.068-2.382,2.384-2.382H93.24
	c1.313,0,2.38,1.066,2.38,2.382V129.056z"/>
<path opacity="0.9" fill="#F19520" d="M81.209,171c-13.371,0-24.211,10.838-24.211,24.209c0,13.368,10.84,24.208,24.211,24.208
	c13.369,0,24.208-10.84,24.208-24.208C105.417,181.838,94.579,171,81.209,171z M95.405,191.103l-17.355,17.355l-11.326-11.327
	c-1.569-1.568-1.569-4.113,0-5.685c1.568-1.569,4.114-1.569,5.683,0.002l5.644,5.642l11.671-11.67c1.57-1.571,4.113-1.571,5.685,0
	C96.974,186.989,96.974,189.534,95.405,191.103z"/>
<path opacity="0.45" fill="#FFFFFF" d="M24.21,57C10.839,57,0,67.838,0,81.208c0,13.369,10.839,24.209,24.21,24.209
	c13.369,0,24.208-10.84,24.208-24.209C48.418,67.838,37.579,57,24.21,57z M35.151,85.115h-7.036v7.034
	c0,2.158-1.75,3.908-3.907,3.908c-2.157,0-3.906-1.75-3.906-3.908v-7.034h-7.036c-2.157,0-3.906-1.75-3.906-3.906
	c0-2.158,1.749-3.908,3.906-3.908h7.036v-7.034c0-2.158,1.749-3.908,3.906-3.908c2.157,0,3.907,1.75,3.907,3.908v7.034h7.036
	c2.156,0,3.906,1.75,3.906,3.908C39.057,83.365,37.308,85.115,35.151,85.115z"/>
<path opacity="0.45" fill="#FFFFFF" d="M24.211,114C10.839,114,0,124.838,0,138.208c0,13.373,10.839,24.211,24.211,24.211
	c13.369,0,24.207-10.838,24.207-24.211C48.418,124.838,37.581,114,24.211,114z M25.011,147.458c0,1.316-1.067,2.382-2.383,2.382
	H12.18c-1.316,0-2.383-1.065-2.383-2.382v-0.098c0-1.318,1.067-2.384,2.383-2.384h10.449c1.316,0,2.383,1.065,2.383,2.384V147.458z
	 M38.622,138.257c0,1.315-1.066,2.382-2.381,2.382H12.18c-1.316,0-2.383-1.066-2.383-2.382v-0.099c0-1.315,1.067-2.382,2.383-2.382
	h24.061c1.315,0,2.381,1.066,2.381,2.382V138.257z M38.622,129.057c0,1.315-1.066,2.382-2.381,2.382H12.18
	c-1.316,0-2.383-1.066-2.383-2.382v-0.099c0-1.315,1.067-2.382,2.383-2.382h24.061c1.315,0,2.381,1.066,2.381,2.382V129.057z"/>
<path opacity="0.45" fill="#FFFFFF" d="M24.21,171c-13.37,0-24.209,10.838-24.209,24.209s10.839,24.208,24.209,24.208
	c13.37,0,24.208-10.837,24.208-24.208S37.58,171,24.21,171z M38.406,191.102l-17.355,17.357L9.725,197.13
	c-1.57-1.568-1.57-4.113,0-5.683c1.57-1.569,4.114-1.571,5.684,0l5.643,5.644l11.671-11.672c1.57-1.571,4.114-1.571,5.684,0
	C39.975,186.988,39.975,189.533,38.406,191.102z"/>
</svg>
