<?xml version="1.0" encoding="utf-8"?>
<!-- Generator: Adobe Illustrator 15.1.0, SVG Export Plug-In . SVG Version: 6.00 Build 0)  -->
<!DOCTYPE svg PUBLIC "-//W3C//DTD SVG 1.1//EN" "http://www.w3.org/Graphics/SVG/1.1/DTD/svg11.dtd">
<svg version="1.1" id="Layer_1" xmlns="http://www.w3.org/2000/svg" xmlns:xlink="http://www.w3.org/1999/xlink" x="0px" y="0px"
	 width="6.8em" height="17em" viewBox="0 0 68 170" enable-background="new 0 0 68 170" xml:space="preserve">
<linearGradient id="SVGID_1_" gradientUnits="userSpaceOnUse" x1="161.8555" y1="-93.3228" x2="161.8555" y2="-115.8862" gradientTransform="matrix(1 0 0 -1 -144.7935 48.5254)">
	<stop  offset="0" style="stop-color:#F2F2F2"/>
	<stop  offset="1" style="stop-color:#BDBDBD"/>
</linearGradient>
<polygon fill="url(#SVGID_1_)" points="17.063,141.848 21.012,148.881 28.924,150.465 23.454,156.396 24.393,164.411 
	17.063,161.042 9.731,164.411 10.67,156.396 5.202,150.465 13.112,148.881 "/>
<linearGradient id="SVGID_2_" gradientUnits="userSpaceOnUse" x1="195.8711" y1="-93.3228" x2="195.8711" y2="-115.8862" gradientTransform="matrix(1 0 0 -1 -144.7935 48.5254)">
	<stop  offset="0" style="stop-color:#A2DEF9"/>
	<stop  offset="0.2126" style="stop-color:#96CEED"/>
	<stop  offset="0.5574" style="stop-color:#79B2D9"/>
	<stop  offset="0.9894" style="stop-color:#518DBB"/>
	<stop  offset="1" style="stop-color:#508CBA"/>
</linearGradient>
<polygon fill="url(#SVGID_2_)" points="51.078,141.848 55.029,148.881 62.939,150.465 57.471,156.396 58.41,164.411 51.078,161.042 
	43.748,164.411 44.688,156.396 39.217,150.465 47.129,148.881 "/>
<linearGradient id="SVGID_3_" gradientUnits="userSpaceOnUse" x1="161.8516" y1="43.0464" x2="161.8516" y2="19.8882" gradientTransform="matrix(1 0 0 -1 -144.7935 48.5254)">
	<stop  offset="0" style="stop-color:#F2F2F2"/>
	<stop  offset="1" style="stop-color:#BDBDBD"/>
</linearGradient>
<path fill="url(#SVGID_3_)" d="M17.059,5.479c-6.396,0-11.58,5.184-11.58,11.58c0,6.395,5.184,11.578,11.58,11.578
	c6.395,0,11.578-5.184,11.578-11.578S23.454,5.479,17.059,5.479z M17.059,9.068c1.424,0,2.76,0.377,3.918,1.031L10.1,20.977
	c-0.654-1.158-1.031-2.492-1.031-3.918C9.069,12.645,12.645,9.068,17.059,9.068z M17.059,25.047c-1.322,0-2.566-0.326-3.664-0.895
	l10.758-10.758c0.568,1.098,0.895,2.342,0.895,3.664C25.047,21.471,21.471,25.047,17.059,25.047z"/>
<linearGradient id="SVGID_4_" gradientUnits="userSpaceOnUse" x1="195.8682" y1="43.0464" x2="195.8682" y2="19.8906" gradientTransform="matrix(1 0 0 -1 -144.7935 48.5254)">
	<stop  offset="0" style="stop-color:#A2DEF9"/>
	<stop  offset="0.2126" style="stop-color:#96CEED"/>
	<stop  offset="0.5574" style="stop-color:#79B2D9"/>
	<stop  offset="0.9894" style="stop-color:#518DBB"/>
	<stop  offset="1" style="stop-color:#508CBA"/>
</linearGradient>
<path fill="url(#SVGID_4_)" d="M51.074,5.479c-6.395,0-11.578,5.184-11.578,11.578s5.184,11.578,11.578,11.578
	c6.394,0,11.58-5.184,11.58-11.578S57.469,5.479,51.074,5.479z M51.074,9.069c1.426,0,2.762,0.377,3.92,1.031L44.117,20.976
	c-0.654-1.158-1.031-2.492-1.031-3.918C43.086,12.644,46.662,9.069,51.074,9.069z M51.074,25.046c-1.32,0-2.564-0.326-3.662-0.895
	L58.17,13.394c0.568,1.098,0.895,2.342,0.895,3.664C59.064,21.47,55.486,25.046,51.074,25.046z"/>
<linearGradient id="SVGID_5_" gradientUnits="userSpaceOnUse" x1="169.1367" y1="-25.3994" x2="169.1367" y2="-33.1338" gradientTransform="matrix(1 0 0 -1 -144.7935 48.5254)">
	<stop  offset="0" style="stop-color:#F2F2F2"/>
	<stop  offset="1" style="stop-color:#BDBDBD"/>
</linearGradient>
<path fill="url(#SVGID_5_)" d="M27.713,78.091l-3.668-3.668c-0.665-0.664-1.741-0.664-2.405,0l-1.164,1.162l6.074,6.074l1.163-1.162
	C28.377,79.833,28.377,78.755,27.713,78.091z"/>
<linearGradient id="SVGID_6_" gradientUnits="userSpaceOnUse" x1="160.4629" y1="-28.1748" x2="160.4629" y2="-47.7261" gradientTransform="matrix(1 0 0 -1 -144.7935 48.5254)">
	<stop  offset="0" style="stop-color:#F2F2F2"/>
	<stop  offset="1" style="stop-color:#BDBDBD"/>
</linearGradient>
<path fill="url(#SVGID_6_)" d="M19.36,76.7l-13.001,13c-0.033,0.034-0.054,0.069-0.083,0.104c-0.226,0.2-0.371,0.489-0.371,0.813
	v4.543c0,0.603,0.488,1.088,1.089,1.09l4.542-0.002c0.375,0,0.703-0.188,0.9-0.476l12.999-13L19.36,76.7z M10.831,95.208H7.693
	c-0.415,0-0.751-0.336-0.752-0.752v-3.14c0-0.028,0.013-0.055,0.017-0.082l3.956,3.957C10.886,95.193,10.86,95.208,10.831,95.208z"
	/>
<linearGradient id="SVGID_7_" gradientUnits="userSpaceOnUse" x1="203.1592" y1="-25.4014" x2="203.1592" y2="-33.1357" gradientTransform="matrix(1 0 0 -1 -144.7935 48.5254)">
	<stop  offset="0" style="stop-color:#A2DEF9"/>
	<stop  offset="0.2126" style="stop-color:#96CEED"/>
	<stop  offset="0.5574" style="stop-color:#79B2D9"/>
	<stop  offset="0.9894" style="stop-color:#518DBB"/>
	<stop  offset="1" style="stop-color:#508CBA"/>
</linearGradient>
<path fill="url(#SVGID_7_)" d="M61.736,78.093l-3.668-3.668c-0.666-0.664-1.742-0.664-2.406,0l-1.164,1.162l6.074,6.074l1.164-1.162
	C62.4,79.835,62.4,78.757,61.736,78.093z"/>
<linearGradient id="SVGID_8_" gradientUnits="userSpaceOnUse" x1="194.4863" y1="-28.1768" x2="194.4863" y2="-47.728" gradientTransform="matrix(1 0 0 -1 -144.7935 48.5254)">
	<stop  offset="0" style="stop-color:#A2DEF9"/>
	<stop  offset="0.2126" style="stop-color:#96CEED"/>
	<stop  offset="0.5574" style="stop-color:#79B2D9"/>
	<stop  offset="0.9894" style="stop-color:#518DBB"/>
	<stop  offset="1" style="stop-color:#508CBA"/>
</linearGradient>
<path fill="url(#SVGID_8_)" d="M53.383,76.702l-13.002,13c-0.033,0.034-0.053,0.069-0.082,0.104c-0.227,0.2-0.371,0.489-0.371,0.813
	v4.543c0,0.603,0.488,1.088,1.088,1.09l4.543-0.002c0.375,0,0.703-0.188,0.9-0.476l13-13L53.383,76.702z M44.854,95.209h-3.139
	c-0.414,0-0.75-0.336-0.752-0.752v-3.139c0-0.029,0.014-0.055,0.018-0.082l3.955,3.957C44.908,95.195,44.883,95.209,44.854,95.209z"
	/>
<linearGradient id="SVGID_9_" gradientUnits="userSpaceOnUse" x1="5.46" y1="49.9746" x2="28.3687" y2="49.9746" gradientTransform="matrix(1 0 0 -1 0.1401 169.0547)">
	<stop  offset="0" style="stop-color:#F2F2F2"/>
	<stop  offset="1" style="stop-color:#BDBDBD"/>
</linearGradient>
<path fill="url(#SVGID_9_)" d="M17.056,107.625c-6.328,0-11.456,5.129-11.456,11.454c0,6.327,5.128,11.456,11.456,11.456
	c6.325,0,11.453-5.129,11.453-11.456C28.509,112.754,23.382,107.625,17.056,107.625z M17.435,123.457
	c0,0.623-0.505,1.128-1.128,1.128h-4.944c-0.623,0-1.127-0.505-1.127-1.128v-0.045c0-0.624,0.505-1.128,1.127-1.128h4.944
	c0.623,0,1.128,0.504,1.128,1.128V123.457z M23.875,119.102c0,0.623-0.504,1.127-1.127,1.127H11.363
	c-0.623,0-1.127-0.504-1.127-1.127v-0.045c0-0.623,0.505-1.127,1.127-1.127h11.385c0.623,0,1.127,0.504,1.127,1.127V119.102z
	 M23.875,114.75c0,0.622-0.504,1.128-1.127,1.128H11.363c-0.623,0-1.127-0.506-1.127-1.128v-0.045c0-0.623,0.505-1.129,1.127-1.129
	h11.385c0.623,0,1.127,0.506,1.127,1.129V114.75z"/>
<linearGradient id="SVGID_10_" gradientUnits="userSpaceOnUse" x1="39.4863" y1="49.9746" x2="62.3965" y2="49.9746" gradientTransform="matrix(1 0 0 -1 0.1401 169.0547)">
	<stop  offset="0" style="stop-color:#A2DEF9"/>
	<stop  offset="0.2126" style="stop-color:#96CEED"/>
	<stop  offset="0.5574" style="stop-color:#79B2D9"/>
	<stop  offset="0.9894" style="stop-color:#518DBB"/>
	<stop  offset="1" style="stop-color:#508CBA"/>
</linearGradient>
<path fill="url(#SVGID_10_)" d="M51.084,107.625c-6.328,0-11.457,5.129-11.457,11.454c0,6.327,5.129,11.456,11.457,11.456
	c6.324,0,11.453-5.129,11.453-11.456C62.537,112.754,57.41,107.625,51.084,107.625z M51.462,123.457
	c0,0.623-0.505,1.128-1.128,1.128h-4.943c-0.623,0-1.127-0.505-1.127-1.128v-0.045c0-0.624,0.504-1.128,1.127-1.128h4.943
	c0.623,0,1.128,0.504,1.128,1.128V123.457z M57.902,119.102c0,0.623-0.506,1.127-1.127,1.127H45.391
	c-0.623,0-1.127-0.504-1.127-1.127v-0.045c0-0.623,0.504-1.127,1.127-1.127h11.385c0.623,0,1.127,0.504,1.127,1.127V119.102
	L57.902,119.102z M57.902,114.75c0,0.622-0.506,1.128-1.127,1.128H45.391c-0.623,0-1.127-0.506-1.127-1.128v-0.045
	c0-0.623,0.504-1.129,1.127-1.129h11.385c0.623,0,1.127,0.506,1.127,1.129V114.75L57.902,114.75z"/>
<linearGradient id="SVGID_11_" gradientUnits="userSpaceOnUse" x1="7.0547" y1="117.9805" x2="26.7959" y2="117.9805" gradientTransform="matrix(1 0 0 -1 0.1401 169.0547)">
	<stop  offset="0" style="stop-color:#F2F2F2"/>
	<stop  offset="1" style="stop-color:#BDBDBD"/>
</linearGradient>
<path fill="url(#SVGID_11_)" d="M25.914,42.226c-1.363-1.362-3.573-1.362-4.938,0.001l-3.912,3.912l-3.91-3.912
	c-1.363-1.366-3.573-1.366-4.936,0c-1.364,1.364-1.364,3.571,0,4.936l3.91,3.911l-3.91,3.913c-1.364,1.363-1.363,3.572,0.002,4.937
	c1.362,1.361,3.57,1.363,4.936,0l3.911-3.912l3.911,3.912c1.362,1.361,3.57,1.363,4.936,0c1.363-1.364,1.363-3.576,0-4.936
	l-3.912-3.911l3.912-3.913C27.277,45.8,27.277,43.589,25.914,42.226z"/>
<linearGradient id="SVGID_12_" gradientUnits="userSpaceOnUse" x1="41.0693" y1="117.9805" x2="60.8115" y2="117.9805" gradientTransform="matrix(1 0 0 -1 0.1401 169.0547)">
	<stop  offset="0" style="stop-color:#A2DEF9"/>
	<stop  offset="0.2126" style="stop-color:#96CEED"/>
	<stop  offset="0.5574" style="stop-color:#79B2D9"/>
	<stop  offset="0.9894" style="stop-color:#518DBB"/>
	<stop  offset="1" style="stop-color:#508CBA"/>
</linearGradient>
<path fill="url(#SVGID_12_)" d="M59.93,42.226c-1.363-1.362-3.574-1.362-4.938,0.001l-3.912,3.912l-3.911-3.912
	c-1.361-1.366-3.572-1.366-4.936,0c-1.364,1.364-1.364,3.571,0,4.936l3.91,3.911l-3.91,3.913c-1.364,1.363-1.362,3.572,0.002,4.937
	c1.361,1.361,3.57,1.363,4.936,0l3.911-3.912l3.912,3.912c1.36,1.361,3.569,1.363,4.937,0c1.362-1.364,1.362-3.576,0-4.936
	l-3.912-3.911l3.912-3.913C61.292,45.8,61.292,43.589,59.93,42.226z"/>
</svg>
