<?xml version="1.0" encoding="utf-8"?>
<!-- Generator: Adobe Illustrator 15.1.0, SVG Export Plug-In . SVG Version: 6.00 Build 0)  -->
<!DOCTYPE svg PUBLIC "-//W3C//DTD SVG 1.1//EN" "http://www.w3.org/Graphics/SVG/1.1/DTD/svg11.dtd">
<svg version="1.1" id="Layer_1" xmlns="http://www.w3.org/2000/svg" xmlns:xlink="http://www.w3.org/1999/xlink" x="0px" y="0px"
	 width="17em" height="22.7em" viewBox="0 0 170 227" enable-background="new 0 0 170 227" xml:space="preserve">
<circle fill="#41A648" cx="28.85" cy="85.542" r="24.078"/>
<path fill="#FFFFFF" d="M39.622,76.459c0-0.039-0.004-0.076-0.006-0.114c0.008-0.148,0.005-0.298-0.015-0.45
	c-0.175-1.378-1.434-2.354-2.812-2.18L22.697,75.5c-1.24,0.157-2.151,1.193-2.195,2.403c-0.001,0.031-0.005,0.062-0.005,0.093v8.097
	c-0.294-0.058-0.598-0.089-0.909-0.089c-2.586,0-4.683,2.097-4.683,4.683s2.097,4.683,4.683,4.683s4.683-2.097,4.683-4.683V80.373
	l11.578-1.466v10.588c-0.295-0.059-0.599-0.089-0.909-0.089c-2.586,0-4.683,2.096-4.683,4.682c0,2.587,2.097,4.683,4.683,4.683
	s4.683-2.096,4.683-4.683c0-0.039-0.003-0.078-0.004-0.118c0.001-0.02,0.004-0.039,0.004-0.06L39.622,76.459L39.622,76.459z"/>
<circle fill="#41A648" cx="28.851" cy="142.235" r="24.078"/>
<path fill="#FFFFFF" d="M41.392,132.904h-6.447v-0.325c0-1.269-1.027-2.295-2.295-2.295h-7.068c-1.266,0-2.293,1.026-2.293,2.295
	v0.325H16.84c-1.266,0-2.293,1.027-2.293,2.296v15.302c0,1.268,1.027,2.295,2.293,2.295h24.553c1.268,0,2.295-1.027,2.295-2.295
	V135.2C43.687,133.934,42.66,132.904,41.392,132.904z M29.117,148.68c-3.219,0-5.828-2.609-5.828-5.828
	c0-3.22,2.609-5.828,5.828-5.828c3.219,0,5.828,2.608,5.828,5.828C34.945,146.07,32.335,148.68,29.117,148.68z"/>
<circle fill="#41A648" cx="28.851" cy="198.93" r="24.079"/>
<path fill="#FFFFFF" d="M36.578,189.375H21.124c-1.523,0-2.759,1.234-2.759,2.759s1.235,2.759,2.759,2.759h4.969v12.695
	c0,1.523,1.234,2.76,2.758,2.76s2.759-1.236,2.759-2.76v-12.695h4.969c1.523,0,2.759-1.234,2.759-2.759
	S38.102,189.375,36.578,189.375z"/>
<circle fill="#41A648" cx="28.85" cy="28.85" r="24.078"/>
<path fill="#FFFFFF" d="M44.917,20.788c-0.079-0.033-0.162-0.049-0.245-0.049c-0.167,0-0.331,0.065-0.454,0.188l-6.221,6.221V23.62
	v-2.432c0-1.068-0.866-1.933-1.934-1.933h-1.136h-19.55c-1.067,0-1.934,0.865-1.934,1.933v2.432v10.46v2.432
	c0,1.068,0.866,1.934,1.934,1.934h19.551h1.136c1.067,0,1.934-0.865,1.934-1.934V34.08v-3.528l6.221,6.221
	c0.123,0.123,0.287,0.188,0.454,0.188c0.083,0,0.166-0.017,0.245-0.049c0.239-0.1,0.396-0.334,0.396-0.593V21.38
	C45.312,21.121,45.156,20.887,44.917,20.788z"/>
<path fill="#FFFFFF" d="M85.543,174.852c-13.299,0-24.078,10.78-24.078,24.08c0,13.297,10.779,24.077,24.078,24.077
	s24.079-10.78,24.079-24.077C109.622,185.632,98.843,174.852,85.543,174.852z M93.271,194.895h-4.97v12.694
	c0,1.522-1.233,2.759-2.758,2.759c-1.523,0-2.758-1.234-2.758-2.759v-12.694h-4.969c-1.523,0-2.76-1.235-2.76-2.76
	c0-1.523,1.236-2.759,2.76-2.759h15.455c1.522,0,2.76,1.235,2.76,2.759C96.031,193.659,94.794,194.895,93.271,194.895z"/>
<circle fill="#FFFFFF" cx="85.809" cy="142.851" r="5.829"/>
<path fill="#FFFFFF" d="M85.542,118.157c-13.297,0-24.077,10.78-24.077,24.077c0,13.299,10.78,24.08,24.077,24.08
	c13.298,0,24.078-10.781,24.078-24.08C109.62,128.938,98.841,118.157,85.542,118.157z M100.38,150.502
	c0,1.268-1.026,2.295-2.295,2.295H73.533c-1.268,0-2.295-1.027-2.295-2.295V135.2c0-1.269,1.027-2.296,2.295-2.296h6.447v-0.325
	c0-1.269,1.027-2.295,2.295-2.295h7.068c1.269,0,2.296,1.026,2.296,2.295v0.325h6.446c1.269,0,2.295,1.027,2.295,2.296V150.502z"/>
<path fill="#FFFFFF" d="M85.542,61.464c-13.298,0-24.078,10.78-24.078,24.079c0,13.297,10.78,24.079,24.078,24.079
	s24.078-10.781,24.078-24.079C109.62,72.244,98.841,61.464,85.542,61.464z M96.314,93.91c0,0.021-0.004,0.04-0.004,0.06
	c0,0.04,0.004,0.079,0.004,0.118c0,2.587-2.098,4.683-4.684,4.683s-4.682-2.096-4.682-4.683c0-2.586,2.096-4.682,4.682-4.682
	c0.311,0,0.615,0.03,0.91,0.089V78.907l-11.579,1.466v10.314c0,2.586-2.097,4.683-4.683,4.683c-2.586,0-4.683-2.097-4.683-4.683
	s2.097-4.683,4.683-4.683c0.312,0,0.615,0.031,0.909,0.089v-8.097c0-0.031,0.004-0.062,0.005-0.093
	c0.044-1.21,0.955-2.246,2.195-2.403l14.092-1.784c1.377-0.175,2.638,0.801,2.812,2.18c0.021,0.152,0.022,0.302,0.017,0.45
	c0.002,0.038,0.006,0.075,0.006,0.114V93.91L96.314,93.91z"/>
<path fill="#FFFFFF" d="M85.542,4.771c-13.297,0-24.078,10.78-24.078,24.078c0,13.298,10.781,24.078,24.078,24.078
	c13.298,0,24.078-10.78,24.078-24.078C109.62,15.551,98.841,4.771,85.542,4.771z M102.005,36.319c0,0.259-0.155,0.493-0.396,0.593
	c-0.08,0.032-0.161,0.049-0.246,0.049c-0.165,0-0.329-0.065-0.452-0.188l-6.222-6.221v3.528v2.432c0,1.068-0.866,1.934-1.934,1.934
	H91.62H72.07c-1.066,0-1.934-0.865-1.934-1.934V34.08V23.62v-2.432c0-1.068,0.867-1.933,1.934-1.933h19.55h1.137
	c1.066,0,1.935,0.865,1.935,1.933v2.432v3.528l6.221-6.221c0.123-0.123,0.287-0.188,0.453-0.188c0.084,0,0.166,0.016,0.246,0.049
	c0.238,0.1,0.395,0.333,0.395,0.593L102.005,36.319L102.005,36.319z"/>
<path d="M142.204,174.852c-13.3,0-24.078,10.78-24.078,24.08c0,13.297,10.778,24.077,24.078,24.077
	c13.299,0,24.078-10.78,24.078-24.077C166.282,185.632,155.503,174.852,142.204,174.852z M149.932,194.895h-4.97v12.694
	c0,1.522-1.233,2.759-2.758,2.759s-2.759-1.234-2.759-2.759v-12.694h-4.969c-1.522,0-2.76-1.235-2.76-2.76
	c0-1.523,1.236-2.759,2.76-2.759h15.453c1.523,0,2.76,1.235,2.76,2.759C152.689,193.659,151.454,194.895,149.932,194.895z"/>
<circle cx="142.471" cy="142.851" r="5.829"/>
<path d="M142.204,118.157c-13.297,0-24.078,10.78-24.078,24.077c0,13.299,10.781,24.08,24.078,24.08
	c13.299,0,24.078-10.781,24.078-24.08C166.282,128.938,155.503,118.157,142.204,118.157z M157.042,150.502
	c0,1.268-1.026,2.295-2.295,2.295h-24.554c-1.268,0-2.295-1.027-2.295-2.295V135.2c0-1.269,1.027-2.296,2.295-2.296h6.447v-0.325
	c0-1.269,1.027-2.295,2.295-2.295h7.068c1.268,0,2.295,1.026,2.295,2.295v0.325h6.447c1.268,0,2.295,1.027,2.295,2.296
	L157.042,150.502L157.042,150.502z"/>
<path d="M142.204,61.464c-13.3,0-24.078,10.78-24.078,24.079c0,13.297,10.778,24.079,24.078,24.079
	c13.297,0,24.078-10.781,24.078-24.079C166.282,72.244,155.501,61.464,142.204,61.464z M152.977,93.91
	c0,0.021-0.002,0.04-0.004,0.06c0.002,0.04,0.004,0.079,0.004,0.118c0,2.587-2.097,4.683-4.683,4.683s-4.685-2.096-4.685-4.683
	c0-2.586,2.099-4.682,4.685-4.682c0.312,0,0.613,0.03,0.908,0.089V78.907l-11.578,1.466v10.314c0,2.586-2.097,4.683-4.683,4.683
	s-4.684-2.097-4.684-4.683s2.098-4.683,4.684-4.683c0.312,0,0.615,0.031,0.908,0.089v-8.097c0-0.031,0.004-0.062,0.006-0.093
	c0.043-1.21,0.955-2.246,2.195-2.403l14.092-1.784c1.379-0.175,2.637,0.801,2.812,2.18c0.02,0.152,0.021,0.302,0.014,0.45
	c0.002,0.038,0.006,0.075,0.006,0.114v17.45H152.977z"/>
<path d="M142.204,4.771c-13.297,0-24.078,10.78-24.078,24.078c0,13.298,10.781,24.078,24.078,24.078
	c13.299,0,24.078-10.78,24.078-24.078C166.282,15.551,155.503,4.771,142.204,4.771z M158.667,36.319
	c0,0.259-0.155,0.493-0.396,0.593c-0.08,0.032-0.162,0.049-0.246,0.049c-0.166,0-0.33-0.065-0.452-0.188l-6.222-6.221v3.528v2.432
	c0,1.068-0.867,1.934-1.934,1.934h-1.137H128.73c-1.066,0-1.935-0.865-1.935-1.934V34.08V23.62v-2.432
	c0-1.068,0.867-1.933,1.935-1.933h19.551h1.137c1.066,0,1.934,0.865,1.934,1.933v2.432v3.528l6.222-6.221
	c0.122-0.123,0.286-0.188,0.452-0.188c0.084,0,0.166,0.016,0.246,0.049c0.238,0.1,0.396,0.333,0.396,0.593V36.319z"/>
</svg>
