<?xml version="1.0" encoding="utf-8"?>
<!-- Generator: Adobe Illustrator 15.1.0, SVG Export Plug-In . SVG Version: 6.00 Build 0)  -->
<!DOCTYPE svg PUBLIC "-//W3C//DTD SVG 1.1//EN" "http://www.w3.org/Graphics/SVG/1.1/DTD/svg11.dtd">
<svg version="1.1" id="Layer_1" xmlns="http://www.w3.org/2000/svg" xmlns:xlink="http://www.w3.org/1999/xlink" x="0px" y="0px"
	 width="5.7em" height="17em" viewBox="0 0 57 170" enable-background="new 0 0 57 170" xml:space="preserve">
<path fill="#FFFFFF" d="M41.393,76.212h-6.447v-0.326c0-1.268-1.027-2.295-2.295-2.295h-7.068c-1.266,0-2.293,1.027-2.293,2.295
	v0.326H16.84c-1.266,0-2.293,1.027-2.293,2.295v15.302c0,1.269,1.027,2.295,2.293,2.295h24.553c1.269,0,2.295-1.026,2.295-2.295
	V78.507C43.688,77.239,42.66,76.212,41.393,76.212z M29.117,91.986c-3.219,0-5.828-2.61-5.828-5.829
	c0-3.219,2.609-5.828,5.828-5.828c3.219,0,5.828,2.609,5.828,5.828C34.945,89.376,32.335,91.986,29.117,91.986z"/>
<path fill="#FFFFFF" d="M36.578,132.682H21.124c-1.523,0-2.759,1.235-2.759,2.76c0,1.523,1.235,2.759,2.759,2.759h4.969v12.694
	c0,1.523,1.234,2.76,2.758,2.76s2.758-1.235,2.758-2.76V138.2h4.97c1.522,0,2.759-1.235,2.759-2.759
	C39.338,133.917,38.102,132.682,36.578,132.682z"/>
<path fill="#FFFFFF" d="M44.917,20.788c-0.079-0.033-0.162-0.049-0.245-0.049c-0.167,0-0.331,0.065-0.454,0.188l-6.221,6.221V23.62
	v-2.432c0-1.068-0.866-1.933-1.935-1.933h-1.136h-19.55c-1.067,0-1.934,0.865-1.934,1.933v2.432v10.46v2.432
	c0,1.068,0.866,1.934,1.934,1.934h19.551h1.137c1.066,0,1.934-0.865,1.934-1.934V34.08v-3.528l6.221,6.221
	c0.123,0.123,0.287,0.188,0.454,0.188c0.083,0,0.166-0.017,0.245-0.049c0.239-0.1,0.396-0.334,0.396-0.593V21.38
	C45.312,21.121,45.156,20.887,44.917,20.788z"/>
</svg>
