<?xml version="1.0" encoding="utf-8"?>
<!-- Generator: Adobe Illustrator 15.1.0, SVG Export Plug-In  -->
<!DOCTYPE svg PUBLIC "-//W3C//DTD SVG 1.1//EN" "http://www.w3.org/Graphics/SVG/1.1/DTD/svg11.dtd" [
	<!ENTITY ns_flows "http://ns.adobe.com/Flows/1.0/">
]>
<svg version="1.1"
	 xmlns="http://www.w3.org/2000/svg" xmlns:xlink="http://www.w3.org/1999/xlink" xmlns:a="http://ns.adobe.com/AdobeSVGViewerExtensions/3.0/"
	 x="0px" y="0px" width="1.7em" height="1.7em" viewBox="0 0 17 17" overflow="visible" enable-background="new 0 0 17 17"
	 xml:space="preserve">
<defs>
</defs>
<circle fill="#ED1C24" cx="8.5" cy="8.5" r="7.5"/>
<path fill="#FFFFFF" d="M8.5,0C3.813,0,0,3.813,0,8.5C0,13.188,3.813,17,8.5,17c4.687,0,8.5-3.812,8.5-8.5C17,3.813,13.187,0,8.5,0z
	 M8.5,16C4.358,16,1,12.643,1,8.5S4.358,1,8.5,1C12.643,1,16,4.357,16,8.5S12.643,16,8.5,16z"/>
<circle fill="#FFFFFF" cx="8.5" cy="12.354" r="1.233"/>
<path fill="#FFFFFF" d="M8.5,9.652c-0.666,0-1.205-0.539-1.205-1.204V4.616c0-0.665,0.54-1.204,1.205-1.204
	c0.666,0,1.205,0.539,1.205,1.204v3.832C9.705,9.113,9.166,9.652,8.5,9.652z"/>
</svg>
