<?xml version="1.0" encoding="utf-8"?>
<!-- Generator: Adobe Illustrator 15.1.0, SVG Export Plug-In  -->
<!DOCTYPE svg PUBLIC "-//W3C//DTD SVG 1.1//EN" "http://www.w3.org/Graphics/SVG/1.1/DTD/svg11.dtd" [
	<!ENTITY ns_flows "http://ns.adobe.com/Flows/1.0/">
]>
<svg version="1.1"
	 xmlns="http://www.w3.org/2000/svg" xmlns:xlink="http://www.w3.org/1999/xlink" xmlns:a="http://ns.adobe.com/AdobeSVGViewerExtensions/3.0/"
	 x="0px" y="0px" width="3.4em" height="3.4em" viewBox="0 0 34 34" overflow="visible" enable-background="new 0 0 34 34"
	 xml:space="preserve">
<defs>
</defs>
<linearGradient id="SVGID_1_" gradientUnits="userSpaceOnUse" x1="1.7891" y1="17.0078" x2="32.2271" y2="17.0078">
	<stop  offset="0" style="stop-color:#A2DEF9"/>
	<stop  offset="0.2126" style="stop-color:#96CEED"/>
	<stop  offset="0.5574" style="stop-color:#79B2D9"/>
	<stop  offset="0.9894" style="stop-color:#518DBB"/>
	<stop  offset="1" style="stop-color:#508CBA"/>
</linearGradient>
<path fill="url(#SVGID_1_)" d="M22.74,12.841c-3.847,0-7.151,2.293-8.641,5.584l-3.289-1.431c0.014-0.145,0.021-0.291,0.021-0.439
	c0-0.273-0.027-0.539-0.074-0.799l9.587-5.572c0.787,0.66,1.801,1.061,2.908,1.061c2.498,0,4.521-2.023,4.521-4.521
	c0-2.496-2.023-4.521-4.521-4.521c-2.496,0-4.521,2.025-4.521,4.521c0,0.367,0.049,0.721,0.131,1.062l-9.445,5.49
	c-0.811-0.768-1.902-1.242-3.107-1.242c-2.496,0-4.521,2.025-4.521,4.521c0,2.498,2.025,4.521,4.521,4.521
	c1.336,0,2.533-0.582,3.361-1.504l3.659,1.592c-0.047,0.382-0.078,0.769-0.078,1.164c0,5.24,4.247,9.487,9.487,9.487
	s9.487-4.247,9.487-9.487S27.98,12.841,22.74,12.841z"/>
<path fill="#FFFFFF" d="M24.173,16.381c-0.086-0.146-0.202-0.272-0.346-0.376c-0.143-0.103-0.311-0.182-0.501-0.237
	c-0.189-0.055-0.386-0.082-0.587-0.082s-0.397,0.027-0.587,0.082c-0.19,0.056-0.357,0.135-0.501,0.237
	c-0.144,0.104-0.26,0.229-0.346,0.376c-0.086,0.148-0.129,0.315-0.129,0.506c0,0.068,0.002,0.118,0.007,0.146l0.286,6.09
	c0.012,0.277,0.043,0.533,0.094,0.769c0.053,0.236,0.131,0.441,0.234,0.614c0.104,0.172,0.233,0.308,0.388,0.406
	c0.156,0.097,0.343,0.147,0.563,0.147c0.218,0,0.405-0.051,0.561-0.147c0.155-0.099,0.282-0.234,0.38-0.406
	c0.098-0.173,0.173-0.378,0.226-0.614c0.051-0.235,0.082-0.491,0.094-0.769l0.286-6.09c0.005-0.028,0.007-0.078,0.007-0.146
	C24.302,16.696,24.259,16.529,24.173,16.381z"/>
<circle fill="#FFFFFF" cx="22.74" cy="27.426" r="1.545"/>
<rect fill="none" width="34.017" height="34.016"/>
</svg>
