<?xml version="1.0" encoding="utf-8"?>
<!-- Generator: Adobe Illustrator 15.1.0, SVG Export Plug-In . SVG Version: 6.00 Build 0)  -->
<!DOCTYPE svg PUBLIC "-//W3C//DTD SVG 1.1//EN" "http://www.w3.org/Graphics/SVG/1.1/DTD/svg11.dtd">
<svg version="1.1" id="Layer_1" xmlns="http://www.w3.org/2000/svg" xmlns:xlink="http://www.w3.org/1999/xlink" x="0px" y="0px"
	 width="16.8em" height="22.4em" viewBox="0 0 246 325" enable-background="new 0 0 246 325" xml:space="preserve">
<circle fill="#41A648" cx="44.264" cy="123.132" r="34.367"/>
<path fill="#FFFFFF" d="M59.638,109.182c0-0.056-0.006-0.108-0.008-0.163c0.012-0.212,0.007-0.425-0.021-0.642
	c-0.25-1.966-2.047-3.36-4.013-3.112l-20.114,2.548c-1.77,0.224-3.07,1.703-3.133,3.429c-0.001,0.045-0.007,0.089-0.007,0.133
	v11.557c-0.42-0.082-0.853-0.126-1.298-0.126c-3.69,0-6.683,2.994-6.683,6.684c0,3.692,2.993,6.685,6.683,6.685
	c3.692,0,6.685-2.994,6.685-6.685v-14.721l16.526-2.093v15.113c-0.421-0.084-0.855-0.127-1.297-0.127
	c-3.692,0-6.685,2.992-6.685,6.683s2.993,6.684,6.685,6.684c3.691,0,6.685-2.993,6.685-6.684c0-0.056-0.004-0.112-0.006-0.169
	c0.001-0.028,0.006-0.056,0.006-0.085L59.638,109.182L59.638,109.182z"/>
<circle fill="#41A648" cx="44.264" cy="201.867" r="34.367"/>
<path fill="#FFFFFF" d="M62.164,189.541h-9.201v-0.467c0-1.811-1.466-3.273-3.276-3.273H39.598c-1.807,0-3.272,1.465-3.272,3.273
	v0.467h-9.205c-1.807,0-3.272,1.467-3.272,3.275v21.84c0,1.812,1.465,3.277,3.272,3.277h35.044c1.811,0,3.276-1.467,3.276-3.277
	v-21.84C65.438,191.01,63.974,189.541,62.164,189.541z M44.644,212.057c-4.595,0-8.319-3.725-8.319-8.318
	c0-4.596,3.724-8.316,8.319-8.316c4.595,0,8.319,3.723,8.319,8.316C52.961,208.334,49.236,212.057,44.644,212.057z"/>
<circle fill="#41A648" cx="44.265" cy="280.605" r="34.369"/>
<path fill="#FFFFFF" d="M55.293,265.639H33.235c-2.174,0-3.938,1.762-3.938,3.938c0,2.178,1.763,3.939,3.938,3.939h7.093v18.117
	c0,2.176,1.762,3.939,3.937,3.939c2.175,0,3.938-1.764,3.938-3.939v-18.115h7.093c2.174,0,3.938-1.762,3.938-3.939
	C59.233,267.4,57.47,265.639,55.293,265.639z"/>
<circle fill="#41A648" cx="44.264" cy="44.395" r="34.367"/>
<path fill="#FFFFFF" d="M67.195,32.886c-0.113-0.047-0.23-0.071-0.35-0.071c-0.238,0-0.472,0.093-0.648,0.269l-8.879,8.88v-5.036
	v-3.471c0-1.523-1.236-2.758-2.761-2.758h-1.621H25.033c-1.524,0-2.761,1.235-2.761,2.758v3.471v14.931v3.471
	c0,1.525,1.236,2.761,2.761,2.761h27.905h1.622c1.522,0,2.76-1.235,2.76-2.761v-3.471v-5.035l8.879,8.879
	c0.175,0.175,0.409,0.269,0.647,0.269c0.119,0,0.237-0.025,0.35-0.07c0.341-0.143,0.566-0.477,0.566-0.847V33.731
	C67.761,33.361,67.537,33.027,67.195,32.886z"/>
<path fill="#FFFFFF" d="M123.002,246.238c-18.982,0-34.368,15.389-34.368,34.369s15.385,34.365,34.368,34.365
	c18.98,0,34.371-15.387,34.371-34.365C157.373,261.627,141.984,246.238,123.002,246.238z M134.035,274.846h-7.098v18.119
	c0,2.172-1.758,3.938-3.936,3.938c-2.173,0-3.938-1.76-3.938-3.938v-18.119h-7.091c-2.174,0-3.939-1.762-3.939-3.939
	c0-2.174,1.764-3.938,3.939-3.938h22.061c2.172,0,3.938,1.764,3.938,3.938C137.973,273.08,136.209,274.846,134.035,274.846z"/>
<circle fill="#FFFFFF" cx="123.381" cy="201.868" r="8.319"/>
<path fill="#FFFFFF" d="M123,167.5c-18.98,0-34.366,15.387-34.366,34.365c0,18.982,15.386,34.371,34.366,34.371
	s34.369-15.389,34.369-34.371C157.369,182.887,141.982,167.5,123,167.5z M144.182,213.666c0,1.809-1.465,3.275-3.277,3.275h-35.043
	c-1.811,0-3.276-1.465-3.276-3.275v-21.84c0-1.811,1.465-3.277,3.276-3.277h9.201v-0.465c0-1.811,1.467-3.275,3.276-3.275h10.089
	c1.811,0,3.277,1.465,3.277,3.275v0.465h9.197c1.812,0,3.277,1.465,3.277,3.277v21.84H144.182z"/>
<path fill="#FFFFFF" d="M123,88.763c-18.981,0-34.368,15.388-34.368,34.369c0,18.979,15.387,34.371,34.368,34.371
	c18.98,0,34.369-15.39,34.369-34.371S141.982,88.763,123,88.763z M138.377,135.073c0,0.03-0.006,0.057-0.006,0.085
	c0,0.057,0.006,0.113,0.006,0.169c0,3.692-2.996,6.684-6.688,6.684c-3.689,0-6.682-2.993-6.682-6.684
	c0-3.691,2.992-6.683,6.682-6.683c0.443,0,0.877,0.042,1.299,0.127v-15.113l-16.527,2.093v14.721c0,3.692-2.994,6.685-6.685,6.685
	s-6.685-2.994-6.685-6.685s2.994-6.684,6.685-6.684c0.446,0,0.878,0.044,1.298,0.126v-11.557c0-0.044,0.006-0.088,0.007-0.133
	c0.063-1.726,1.363-3.205,3.134-3.429l20.115-2.548c1.965-0.25,3.764,1.144,4.014,3.112c0.029,0.217,0.031,0.43,0.025,0.642
	c0.002,0.055,0.006,0.107,0.006,0.163v24.908L138.377,135.073L138.377,135.073z"/>
<path fill="#FFFFFF" d="M123,10.027c-18.98,0-34.368,15.386-34.368,34.367c0,18.979,15.388,34.367,34.368,34.367
	c18.981,0,34.37-15.388,34.37-34.367C157.369,25.414,141.982,10.027,123,10.027z M146.5,55.057c0,0.37-0.223,0.704-0.566,0.847
	c-0.113,0.045-0.229,0.07-0.35,0.07c-0.236,0-0.475-0.093-0.646-0.27l-8.883-8.879v5.035v3.471c0,1.525-1.234,2.76-2.76,2.76h-1.621
	H103.77c-1.521,0-2.761-1.234-2.761-2.76v-3.471v-14.93V33.46c0-1.523,1.238-2.758,2.761-2.758h27.904h1.625
	c1.521,0,2.762,1.235,2.762,2.758v3.471v5.036l8.879-8.88c0.174-0.175,0.408-0.269,0.646-0.269c0.123,0,0.238,0.024,0.354,0.071
	c0.34,0.142,0.562,0.475,0.562,0.846L146.5,55.057L146.5,55.057z"/>
<path d="M201.736,246.238c-18.982,0-34.367,15.389-34.367,34.369s15.385,34.365,34.367,34.365s34.367-15.387,34.367-34.365
	C236.104,261.627,220.719,246.238,201.736,246.238z M212.766,274.846h-7.092v18.119c0,2.172-1.76,3.938-3.939,3.938
	c-2.178,0-3.938-1.76-3.938-3.938v-18.119h-7.092c-2.172,0-3.939-1.762-3.939-3.939c0-2.174,1.764-3.938,3.939-3.938h22.057
	c2.172,0,3.939,1.764,3.939,3.938S214.938,274.846,212.766,274.846z"/>
<circle cx="202.117" cy="201.868" r="8.319"/>
<path d="M201.736,167.5c-18.979,0-34.367,15.387-34.367,34.365c0,18.982,15.389,34.371,34.367,34.371
	c18.982,0,34.367-15.389,34.367-34.371C236.104,182.887,220.719,167.5,201.736,167.5z M222.914,213.666
	c0,1.809-1.465,3.275-3.275,3.275h-35.047c-1.809,0-3.275-1.465-3.275-3.275v-21.84c0-1.811,1.467-3.277,3.275-3.277h9.201v-0.465
	c0-1.811,1.467-3.275,3.277-3.275h10.086c1.811,0,3.275,1.465,3.275,3.275v0.465h9.201c1.811,0,3.277,1.465,3.277,3.277
	L222.914,213.666L222.914,213.666z"/>
<path d="M201.736,88.763c-18.982,0-34.367,15.388-34.367,34.369c0,18.979,15.385,34.371,34.367,34.371
	c18.979,0,34.367-15.39,34.367-34.371S220.717,88.763,201.736,88.763z M217.111,135.073c0,0.03-0.002,0.057-0.006,0.085
	c0.004,0.057,0.006,0.113,0.006,0.169c0,3.692-2.992,6.684-6.684,6.684s-6.686-2.993-6.686-6.684c0-3.691,2.994-6.683,6.686-6.683
	c0.445,0,0.875,0.042,1.297,0.127v-15.113l-16.527,2.093v14.721c0,3.692-2.992,6.685-6.684,6.685c-3.689,0-6.686-2.994-6.686-6.685
	s2.996-6.684,6.686-6.684c0.447,0,0.879,0.044,1.297,0.126v-11.557c0-0.044,0.006-0.088,0.008-0.133
	c0.062-1.726,1.363-3.205,3.135-3.429l20.111-2.548c1.971-0.25,3.766,1.144,4.016,3.112c0.027,0.217,0.029,0.43,0.02,0.642
	c0.004,0.055,0.01,0.107,0.01,0.163v24.906h0.002V135.073L217.111,135.073z"/>
<path d="M201.736,10.027c-18.979,0-34.367,15.386-34.367,34.367c0,18.979,15.389,34.367,34.367,34.367
	c18.982,0,34.367-15.388,34.367-34.367C236.104,25.414,220.719,10.027,201.736,10.027z M225.232,55.057
	c0,0.37-0.221,0.704-0.564,0.847c-0.115,0.045-0.23,0.07-0.352,0.07c-0.236,0-0.471-0.093-0.645-0.27l-8.883-8.879v5.035v3.471
	c0,1.525-1.236,2.76-2.76,2.76h-1.623h-27.902c-1.521,0-2.762-1.234-2.762-2.76v-3.471v-14.93V33.46
	c0-1.523,1.236-2.758,2.762-2.758h27.906h1.619c1.521,0,2.764,1.235,2.764,2.758v3.471v5.036l8.879-8.88
	c0.174-0.175,0.408-0.269,0.645-0.269c0.123,0,0.238,0.024,0.352,0.071c0.34,0.142,0.566,0.475,0.566,0.846L225.232,55.057
	L225.232,55.057z"/>
</svg>
