<?xml version="1.0" encoding="utf-8"?>
<!-- Generator: Adobe Illustrator 15.1.0, SVG Export Plug-In  -->
<!DOCTYPE svg PUBLIC "-//W3C//DTD SVG 1.1//EN" "http://www.w3.org/Graphics/SVG/1.1/DTD/svg11.dtd" [
	<!ENTITY ns_flows "http://ns.adobe.com/Flows/1.0/">
]>
<svg version="1.1"
	 xmlns="http://www.w3.org/2000/svg" xmlns:xlink="http://www.w3.org/1999/xlink" xmlns:a="http://ns.adobe.com/AdobeSVGViewerExtensions/3.0/"
	 x="0px" y="0px" width="22.88em" height="45.6em" viewBox="-4.292 -4.292 228 456"
	 overflow="visible" enable-background="new -4.292 -4.292 228 456" xml:space="preserve">
<defs>
</defs>
<path fill="#FFFFFF" d="M24.21,0C10.839,0,0,10.838,0,24.208C0,37.578,10.839,48.417,24.21,48.417
	c13.37,0,24.208-10.84,24.208-24.209C48.418,10.838,37.58,0,24.21,0z M34.709,29.183c1.525,1.526,1.525,3.999,0,5.524
	c-0.764,0.764-1.763,1.145-2.763,1.145s-1.999-0.381-2.762-1.145l-4.975-4.974l-4.974,4.974c-0.763,0.764-1.763,1.145-2.763,1.145
	c-1,0-1.999-0.381-2.762-1.145c-1.525-1.525-1.525-3.998,0-5.524l4.975-4.974l-4.975-4.976c-1.525-1.526-1.525-3.999,0-5.524
	c1.525-1.526,3.999-1.526,5.524,0l4.974,4.974l4.975-4.974c1.526-1.526,4-1.526,5.525,0c1.525,1.525,1.525,3.998,0,5.524
	l-4.976,4.976L34.709,29.183z"/>
<path fill="#F19520" d="M81.209,0C67.84,0,57,10.838,57,24.208c0,13.369,10.84,24.209,24.209,24.209
	c13.371,0,24.208-10.84,24.208-24.209C105.417,10.838,94.581,0,81.209,0z M91.709,29.183c1.525,1.526,1.525,3.999,0,5.524
	c-0.765,0.764-1.764,1.145-2.764,1.145c-0.999,0-1.999-0.381-2.761-1.145l-4.976-4.974l-4.975,4.974
	c-0.764,0.764-1.763,1.145-2.763,1.145c-0.999,0-1.999-0.381-2.761-1.145c-1.526-1.525-1.526-3.998,0-5.524l4.974-4.974
	l-4.974-4.976c-1.526-1.526-1.526-3.999,0-5.524c1.525-1.526,3.998-1.526,5.523,0l4.975,4.974l4.976-4.974
	c1.526-1.526,3.998-1.526,5.524,0c1.525,1.525,1.525,3.998,0,5.524l-4.977,4.976L91.709,29.183z"/>
<path fill="#F19520" d="M81.208,56.999C67.837,56.999,57,67.837,57,81.208c0,13.369,10.838,24.209,24.209,24.209
	c13.368,0,24.208-10.84,24.208-24.209C105.417,67.837,94.577,56.999,81.208,56.999z M92.15,85.114h-7.036v7.034
	c0,2.158-1.749,3.908-3.905,3.908c-2.158,0-3.906-1.75-3.906-3.908v-7.034h-7.036c-2.158,0-3.905-1.75-3.905-3.906
	c0-2.158,1.747-3.908,3.905-3.908h7.036v-7.034c0-2.158,1.748-3.908,3.906-3.908c2.156,0,3.905,1.75,3.905,3.908V77.3h7.036
	c2.156,0,3.906,1.75,3.906,3.908C96.056,83.364,94.306,85.114,92.15,85.114z"/>
<path fill="#F19520" d="M81.21,113.999C67.837,113.999,57,124.837,57,138.207c0,13.373,10.838,24.211,24.211,24.211
	c13.369,0,24.206-10.838,24.206-24.211C105.417,124.837,94.58,113.999,81.21,113.999z M82.009,147.458
	c0,1.316-1.066,2.382-2.382,2.382H69.178c-1.315,0-2.384-1.065-2.384-2.382v-0.098c0-1.318,1.068-2.384,2.384-2.384h10.449
	c1.315,0,2.382,1.065,2.382,2.384V147.458z M95.62,138.255c0,1.316-1.066,2.383-2.38,2.383H69.178c-1.315,0-2.384-1.066-2.384-2.383
	v-0.098c0-1.315,1.068-2.382,2.384-2.382H93.24c1.313,0,2.38,1.066,2.38,2.382V138.255z M95.62,129.056
	c0,1.315-1.066,2.382-2.38,2.382H69.178c-1.315,0-2.384-1.066-2.384-2.382v-0.099c0-1.315,1.068-2.382,2.384-2.382H93.24
	c1.313,0,2.38,1.066,2.38,2.382V129.056z"/>
<path fill="#F19520" d="M81.209,171c-13.371,0-24.211,10.838-24.211,24.209c0,13.368,10.84,24.208,24.211,24.208
	c13.369,0,24.208-10.84,24.208-24.208C105.417,181.838,94.579,171,81.209,171z M95.405,191.103l-17.355,17.355l-11.326-11.327
	c-1.569-1.568-1.569-4.113,0-5.685c1.568-1.569,4.114-1.569,5.683,0.002l5.644,5.642l11.671-11.67c1.57-1.571,4.113-1.571,5.685,0
	C96.974,186.989,96.974,189.534,95.405,191.103z"/>
<path fill="#FFFFFF" d="M24.21,57C10.839,57,0,67.838,0,81.208c0,13.369,10.839,24.209,24.21,24.209
	c13.369,0,24.208-10.84,24.208-24.209C48.418,67.838,37.579,57,24.21,57z M35.151,85.115h-7.036v7.034
	c0,2.158-1.75,3.908-3.907,3.908c-2.157,0-3.906-1.75-3.906-3.908v-7.034h-7.036c-2.157,0-3.906-1.75-3.906-3.906
	c0-2.158,1.749-3.908,3.906-3.908h7.036v-7.034c0-2.158,1.749-3.908,3.906-3.908c2.157,0,3.907,1.75,3.907,3.908v7.034h7.036
	c2.156,0,3.906,1.75,3.906,3.908C39.057,83.365,37.308,85.115,35.151,85.115z"/>
<path fill="#FFFFFF" d="M24.211,114C10.839,114,0,124.838,0,138.208c0,13.373,10.839,24.211,24.211,24.211
	c13.369,0,24.207-10.838,24.207-24.211C48.418,124.838,37.581,114,24.211,114z M25.011,147.458c0,1.316-1.067,2.382-2.383,2.382
	H12.18c-1.316,0-2.383-1.065-2.383-2.382v-0.098c0-1.318,1.067-2.384,2.383-2.384h10.449c1.316,0,2.383,1.065,2.383,2.384V147.458z
	 M38.622,138.257c0,1.315-1.066,2.382-2.381,2.382H12.18c-1.316,0-2.383-1.066-2.383-2.382v-0.099c0-1.315,1.067-2.382,2.383-2.382
	h24.061c1.315,0,2.381,1.066,2.381,2.382V138.257z M38.622,129.057c0,1.315-1.066,2.382-2.381,2.382H12.18
	c-1.316,0-2.383-1.066-2.383-2.382v-0.099c0-1.315,1.067-2.382,2.383-2.382h24.061c1.315,0,2.381,1.066,2.381,2.382V129.057z"/>
<path fill="#FFFFFF" d="M24.21,171c-13.37,0-24.209,10.838-24.209,24.209s10.839,24.208,24.209,24.208
	c13.37,0,24.208-10.837,24.208-24.208S37.58,171,24.21,171z M38.406,191.102l-17.355,17.357L9.725,197.13
	c-1.57-1.568-1.57-4.113,0-5.683c1.57-1.569,4.114-1.571,5.684,0l5.643,5.644l11.671-11.672c1.57-1.571,4.114-1.571,5.684,0
	C39.975,186.988,39.975,189.533,38.406,191.102z"/>
<path d="M138.212,0c-13.371,0-24.209,10.838-24.209,24.208c0,13.369,10.838,24.209,24.209,24.209
	c13.369,0,24.207-10.84,24.207-24.209C162.419,10.838,151.581,0,138.212,0z M148.71,29.183c1.525,1.526,1.525,3.999,0,5.524
	c-0.764,0.764-1.762,1.145-2.762,1.145s-2-0.381-2.762-1.145l-4.977-4.974l-4.973,4.974c-0.764,0.764-1.764,1.145-2.764,1.145
	s-1.998-0.381-2.762-1.145c-1.525-1.525-1.525-3.998,0-5.524l4.975-4.974l-4.975-4.976c-1.525-1.526-1.525-3.999,0-5.524
	c1.525-1.526,3.998-1.526,5.525,0l4.973,4.974l4.977-4.974c1.525-1.526,3.998-1.526,5.523,0c1.525,1.525,1.525,3.998,0,5.524
	l-4.975,4.976L148.71,29.183z"/>
<path fill="#41A648" d="M195.212,0c-13.369,0-24.209,10.838-24.209,24.208c0,13.369,10.84,24.209,24.209,24.209
	c13.371,0,24.207-10.84,24.207-24.209C219.419,10.838,208.583,0,195.212,0z M205.712,29.183c1.525,1.526,1.525,3.999,0,5.524
	c-0.766,0.764-1.764,1.145-2.764,1.145s-2-0.381-2.762-1.145l-4.975-4.974l-4.975,4.974c-0.764,0.764-1.764,1.145-2.764,1.145
	c-0.998,0-1.998-0.381-2.76-1.145c-1.527-1.525-1.527-3.998,0-5.524l4.973-4.974l-4.973-4.976c-1.527-1.526-1.527-3.999,0-5.524
	c1.525-1.526,3.998-1.526,5.523,0l4.975,4.974l4.975-4.974c1.527-1.526,3.998-1.526,5.525,0c1.525,1.525,1.525,3.998,0,5.524
	l-4.977,4.976L205.712,29.183z"/>
<path fill="#41A648" d="M195.21,56.999c-13.371,0-24.209,10.838-24.209,24.208c0,13.369,10.838,24.209,24.209,24.209
	c13.369,0,24.209-10.84,24.209-24.209C219.419,67.837,208.579,56.999,195.21,56.999z M206.151,85.114h-7.035v7.034
	c0,2.158-1.75,3.908-3.906,3.908c-2.158,0-3.906-1.75-3.906-3.908v-7.034h-7.035c-2.158,0-3.906-1.75-3.906-3.906
	c0-2.158,1.748-3.908,3.906-3.908h7.035v-7.034c0-2.158,1.748-3.908,3.906-3.908c2.156,0,3.906,1.75,3.906,3.908V77.3h7.035
	c2.156,0,3.906,1.75,3.906,3.908C210.058,83.364,208.308,85.114,206.151,85.114z"/>
<path fill="#41A648" d="M195.212,113.999c-13.373,0-24.211,10.839-24.211,24.208c0,13.373,10.838,24.211,24.211,24.211
	c13.369,0,24.207-10.838,24.207-24.211C219.419,124.837,208.581,113.999,195.212,113.999z M196.011,147.458
	c0,1.316-1.066,2.382-2.381,2.382h-10.449c-1.316,0-2.385-1.065-2.385-2.382v-0.098c0-1.318,1.068-2.384,2.385-2.384h10.449
	c1.314,0,2.381,1.065,2.381,2.384V147.458z M209.622,138.255c0,1.316-1.066,2.383-2.381,2.383h-24.061
	c-1.316,0-2.385-1.066-2.385-2.383v-0.098c0-1.315,1.068-2.382,2.385-2.382h24.061c1.314,0,2.381,1.066,2.381,2.382V138.255z
	 M209.622,129.056c0,1.315-1.066,2.382-2.381,2.382h-24.061c-1.316,0-2.385-1.066-2.385-2.382v-0.099
	c0-1.315,1.068-2.382,2.385-2.382h24.061c1.314,0,2.381,1.066,2.381,2.382V129.056z"/>
<path fill="#41A648" d="M195.212,171c-13.371,0-24.211,10.838-24.211,24.209c0,13.368,10.84,24.208,24.211,24.208
	c13.369,0,24.207-10.84,24.207-24.208C219.419,181.838,208.581,171,195.212,171z M209.407,191.103l-17.355,17.355l-11.326-11.327
	c-1.57-1.568-1.57-4.113,0-5.685c1.568-1.569,4.113-1.569,5.682,0.002l5.645,5.642l11.67-11.67c1.57-1.571,4.113-1.571,5.686,0
	C210.976,186.989,210.976,189.534,209.407,191.103z"/>
<path d="M138.212,57c-13.371,0-24.211,10.838-24.211,24.208c0,13.369,10.84,24.209,24.211,24.209
	c13.369,0,24.209-10.84,24.209-24.209C162.421,67.838,151.581,57,138.212,57z M149.153,85.115h-7.035v7.034
	c0,2.158-1.75,3.908-3.908,3.908c-2.156,0-3.906-1.75-3.906-3.908v-7.034h-7.035c-2.156,0-3.906-1.75-3.906-3.906
	c0-2.158,1.75-3.908,3.906-3.908h7.035v-7.034c0-2.158,1.75-3.908,3.906-3.908c2.158,0,3.908,1.75,3.908,3.908v7.034h7.035
	c2.156,0,3.906,1.75,3.906,3.908C153.06,83.365,151.31,85.115,149.153,85.115z"/>
<path d="M138.214,114c-13.373,0-24.211,10.839-24.211,24.208c0,13.373,10.838,24.211,24.211,24.211
	c13.367,0,24.205-10.838,24.205-24.211C162.419,124.838,151.583,114,138.214,114z M139.013,147.458c0,1.316-1.066,2.382-2.383,2.382
	h-10.449c-1.314,0-2.383-1.065-2.383-2.382v-0.098c0-1.318,1.068-2.384,2.383-2.384h10.449c1.316,0,2.383,1.065,2.383,2.384V147.458
	z M152.624,138.257c0,1.315-1.066,2.382-2.381,2.382h-24.062c-1.314,0-2.383-1.066-2.383-2.382v-0.099
	c0-1.315,1.068-2.382,2.383-2.382h24.062c1.314,0,2.381,1.066,2.381,2.382V138.257z M152.624,129.057
	c0,1.315-1.066,2.382-2.381,2.382h-24.062c-1.314,0-2.383-1.066-2.383-2.382v-0.099c0-1.315,1.068-2.382,2.383-2.382h24.062
	c1.314,0,2.381,1.066,2.381,2.382V129.057z"/>
<path d="M138.212,171c-13.371,0-24.209,10.838-24.209,24.209s10.838,24.208,24.209,24.208c13.369,0,24.209-10.837,24.209-24.208
	S151.581,171,138.212,171z M152.407,191.102l-17.354,17.357l-11.328-11.329c-1.57-1.568-1.57-4.113,0-5.683s4.115-1.571,5.684,0
	l5.645,5.644l11.67-11.672c1.57-1.571,4.115-1.571,5.684,0C153.978,186.988,153.978,189.533,152.407,191.102z"/>
<path fill="#FFFFFF" d="M24.209,285.131c-13.299,0-24.078,10.78-24.078,24.079c0,13.297,10.779,24.078,24.078,24.078
	s24.078-10.781,24.078-24.078C48.288,295.912,37.508,285.131,24.209,285.131z M23.161,321.249c-0.76,0.759-1.754,1.138-2.748,1.138
	s-1.988-0.379-2.746-1.138c-1.518-1.518-1.518-3.978,0-5.494l6.543-6.544l-6.623-6.624c-1.518-1.517-1.518-3.978,0-5.494
	c1.518-1.518,3.977-1.518,5.494,0l12.117,12.118L23.161,321.249z"/>
<path fill="#F19520" d="M81.209,285.131c-13.299,0-24.078,10.78-24.078,24.079c0,13.297,10.779,24.078,24.078,24.078
	s24.078-10.781,24.078-24.078C105.288,295.912,94.508,285.131,81.209,285.131z M80.161,321.249c-0.76,0.759-1.754,1.138-2.748,1.138
	s-1.988-0.379-2.746-1.138c-1.518-1.518-1.518-3.978,0-5.494l6.543-6.544l-6.623-6.624c-1.518-1.517-1.518-3.978,0-5.494
	c1.518-1.518,3.977-1.518,5.494,0l12.117,12.118L80.161,321.249z"/>
<path fill="#221F1F" d="M138.212,285.131c-13.299,0-24.078,10.78-24.078,24.079c0,13.297,10.779,24.078,24.078,24.078
	s24.078-10.781,24.078-24.078C162.29,295.912,151.511,285.131,138.212,285.131z M137.163,321.249
	c-0.76,0.759-1.754,1.138-2.748,1.138s-1.988-0.379-2.746-1.138c-1.518-1.518-1.518-3.978,0-5.494l6.543-6.544l-6.623-6.624
	c-1.518-1.517-1.518-3.978,0-5.494c1.518-1.518,3.977-1.518,5.494,0L149.2,309.21L137.163,321.249z"/>
<path fill="#41A648" d="M195.212,285.131c-13.299,0-24.078,10.78-24.078,24.079c0,13.297,10.779,24.078,24.078,24.078
	s24.078-10.781,24.078-24.078C219.29,295.912,208.511,285.131,195.212,285.131z M194.163,321.249
	c-0.76,0.759-1.754,1.138-2.748,1.138s-1.988-0.379-2.746-1.138c-1.518-1.518-1.518-3.978,0-5.494l6.543-6.544l-6.623-6.624
	c-1.518-1.517-1.518-3.978,0-5.494c1.518-1.518,3.977-1.518,5.494,0L206.2,309.21L194.163,321.249z"/>
<path fill="#FFFFFF" d="M24.209,228.13c-13.297,0-24.078,10.779-24.078,24.078c0,13.298,10.781,24.078,24.078,24.078
	c13.299,0,24.078-10.78,24.078-24.078C48.287,238.91,37.508,228.13,24.209,228.13z M18.57,262.89c0.828,0,1.5,0.671,1.5,1.5
	c0,0.828-0.672,1.5-1.5,1.5h-8.043v-8.043c0-0.828,0.672-1.5,1.5-1.5c0.829,0,1.5,0.672,1.5,1.5v2.922l5.188-5.188
	c0.531,0.863,1.258,1.59,2.121,2.121l-5.188,5.188H18.57z M18.715,248.835l-5.188-5.188v2.921c0,0.829-0.671,1.5-1.5,1.5
	c-0.828,0-1.5-0.671-1.5-1.5v-8.042h8.043c0.828,0,1.5,0.672,1.5,1.5s-0.672,1.5-1.5,1.5h-2.922l5.188,5.188
	C19.973,247.246,19.246,247.972,18.715,248.835z M37.891,265.889h-1.496c-0.001,0-0.002,0.001-0.004,0.001s-0.004-0.001-0.006-0.001
	h-6.536c-0.829,0-1.5-0.671-1.5-1.5s0.671-1.5,1.5-1.5h2.919l-5.186-5.187c0.863-0.53,1.59-1.257,2.122-2.12l5.187,5.187v-2.922
	c0-0.828,0.672-1.5,1.5-1.5s1.5,0.672,1.5,1.5V265.889z M37.891,240.025c0,0.002,0,0.004,0,0.006v6.538c0,0.829-0.672,1.5-1.5,1.5
	s-1.5-0.671-1.5-1.5v-2.919l-5.186,5.186c-0.531-0.863-1.258-1.59-2.121-2.121l5.188-5.188h-2.924c-0.828,0-1.5-0.672-1.5-1.5
	s0.672-1.5,1.5-1.5h8.043V240.025z"/>
<path fill="#F19520" d="M81.209,228.13c-13.297,0-24.078,10.779-24.078,24.078c0,13.298,10.781,24.078,24.078,24.078
	c13.299,0,24.078-10.78,24.078-24.078C105.288,238.91,94.508,228.13,81.209,228.13z M75.571,262.89c0.828,0,1.5,0.671,1.5,1.5
	c0,0.828-0.672,1.5-1.5,1.5h-8.043v-8.043c0-0.828,0.672-1.5,1.5-1.5c0.829,0,1.5,0.672,1.5,1.5v2.922l5.188-5.188
	c0.531,0.863,1.258,1.59,2.121,2.121l-5.188,5.188H75.571z M75.715,248.835l-5.188-5.188v2.921c0,0.829-0.671,1.5-1.5,1.5
	c-0.828,0-1.5-0.671-1.5-1.5v-8.042h8.043c0.828,0,1.5,0.672,1.5,1.5s-0.672,1.5-1.5,1.5h-2.922l5.188,5.188
	C76.973,247.246,76.247,247.972,75.715,248.835z M94.891,265.889h-1.496c-0.001,0-0.002,0.001-0.004,0.001s-0.004-0.001-0.006-0.001
	h-6.536c-0.829,0-1.5-0.671-1.5-1.5s0.671-1.5,1.5-1.5h2.919l-5.186-5.187c0.863-0.53,1.59-1.257,2.122-2.12l5.187,5.187v-2.922
	c0-0.828,0.672-1.5,1.5-1.5s1.5,0.672,1.5,1.5V265.889z M94.891,240.025c0,0.002,0,0.004,0,0.006v6.538c0,0.829-0.672,1.5-1.5,1.5
	s-1.5-0.671-1.5-1.5v-2.919l-5.186,5.186c-0.531-0.863-1.258-1.59-2.121-2.121l5.188-5.188h-2.924c-0.828,0-1.5-0.672-1.5-1.5
	s0.672-1.5,1.5-1.5h8.043V240.025z"/>
<path fill="#221F1F" d="M138.212,228.13c-13.297,0-24.078,10.779-24.078,24.078c0,13.298,10.781,24.078,24.078,24.078
	c13.299,0,24.078-10.78,24.078-24.078C162.29,238.91,151.511,228.13,138.212,228.13z M132.573,262.89c0.828,0,1.5,0.671,1.5,1.5
	c0,0.828-0.672,1.5-1.5,1.5h-8.043v-8.043c0-0.828,0.672-1.5,1.5-1.5c0.83,0,1.5,0.672,1.5,1.5v2.922l5.188-5.188
	c0.531,0.863,1.258,1.59,2.121,2.121l-5.188,5.188H132.573z M132.718,248.835l-5.188-5.188v2.921c0,0.829-0.67,1.5-1.5,1.5
	c-0.828,0-1.5-0.671-1.5-1.5v-8.042h8.043c0.828,0,1.5,0.672,1.5,1.5s-0.672,1.5-1.5,1.5h-2.922l5.188,5.188
	C133.976,247.246,133.249,247.972,132.718,248.835z M151.894,265.889h-1.496c0,0-0.002,0.001-0.004,0.001s-0.004-0.001-0.006-0.001
	h-6.535c-0.83,0-1.5-0.671-1.5-1.5s0.67-1.5,1.5-1.5h2.918l-5.186-5.187c0.863-0.53,1.59-1.257,2.123-2.12l5.186,5.187v-2.922
	c0-0.828,0.672-1.5,1.5-1.5s1.5,0.672,1.5,1.5V265.889z M151.894,240.025c0,0.002,0,0.004,0,0.006v6.538c0,0.829-0.672,1.5-1.5,1.5
	s-1.5-0.671-1.5-1.5v-2.919l-5.186,5.186c-0.531-0.863-1.258-1.59-2.121-2.121l5.188-5.188h-2.924c-0.828,0-1.5-0.672-1.5-1.5
	s0.672-1.5,1.5-1.5h8.043V240.025z"/>
<path fill="#41A648" d="M195.212,228.13c-13.297,0-24.078,10.779-24.078,24.078c0,13.298,10.781,24.078,24.078,24.078
	c13.299,0,24.078-10.78,24.078-24.078C219.29,238.91,208.511,228.13,195.212,228.13z M189.573,262.89c0.828,0,1.5,0.671,1.5,1.5
	c0,0.828-0.672,1.5-1.5,1.5h-8.043v-8.043c0-0.828,0.672-1.5,1.5-1.5s1.5,0.672,1.5,1.5v2.922l5.188-5.188
	c0.531,0.863,1.258,1.59,2.121,2.121l-5.188,5.188H189.573z M189.718,248.835l-5.188-5.188v2.921c0,0.829-0.672,1.5-1.5,1.5
	s-1.5-0.671-1.5-1.5v-8.042h8.043c0.828,0,1.5,0.672,1.5,1.5s-0.672,1.5-1.5,1.5h-2.922l5.188,5.188
	C190.976,247.246,190.249,247.972,189.718,248.835z M208.894,265.889h-1.496c-0.002,0-0.002,0.001-0.004,0.001
	s-0.004-0.001-0.006-0.001h-6.537c-0.828,0-1.5-0.671-1.5-1.5s0.672-1.5,1.5-1.5h2.92l-5.186-5.187
	c0.863-0.53,1.59-1.257,2.121-2.12l5.188,5.187v-2.922c0-0.828,0.672-1.5,1.5-1.5s1.5,0.672,1.5,1.5V265.889z M208.894,240.025
	c0,0.002,0,0.004,0,0.006v6.538c0,0.829-0.672,1.5-1.5,1.5s-1.5-0.671-1.5-1.5v-2.919l-5.186,5.186
	c-0.531-0.863-1.258-1.59-2.121-2.121l5.188-5.188h-2.924c-0.828,0-1.5-0.672-1.5-1.5s0.672-1.5,1.5-1.5h8.043V240.025z"/>
<path fill="#FFFFFF" d="M14.092,372.44v3.139c0.002,0.416,0.338,0.752,0.752,0.752h3.139c0.029,0,0.055-0.014,0.082-0.016
	l-3.955-3.957C14.105,372.385,14.092,372.411,14.092,372.44z"/>
<path fill="#FFFFFF" d="M24.21,342.132c-13.299,0-24.078,10.78-24.078,24.078c0,13.299,10.779,24.079,24.078,24.079
	c13.298,0,24.078-10.78,24.078-24.079C48.288,352.913,37.508,342.132,24.21,342.132z M19.588,376.897
	c-0.197,0.287-0.525,0.475-0.9,0.475l-4.543,0.002c-0.6-0.002-1.088-0.488-1.088-1.09v-4.543c0-0.324,0.145-0.613,0.371-0.814
	c0.029-0.033,0.049-0.068,0.082-0.104l13.002-13l6.076,6.074L19.588,376.897z M34.865,361.62l-1.164,1.162l-6.074-6.074l1.164-1.162
	c0.664-0.664,1.74-0.664,2.406,0l3.668,3.668C35.529,359.877,35.529,360.956,34.865,361.62z"/>
<path fill="#F19520" d="M71.092,372.44v3.139c0.002,0.416,0.338,0.752,0.752,0.752h3.139c0.029,0,0.055-0.014,0.082-0.016
	l-3.955-3.957C71.106,372.385,71.092,372.411,71.092,372.44z"/>
<path fill="#F19520" d="M81.209,342.132c-13.299,0-24.078,10.78-24.078,24.078c0,13.299,10.779,24.079,24.078,24.079
	s24.078-10.78,24.078-24.079C105.288,352.913,94.508,342.132,81.209,342.132z M76.588,376.897c-0.197,0.287-0.525,0.475-0.9,0.475
	l-4.543,0.002c-0.6-0.002-1.088-0.488-1.088-1.09v-4.543c0-0.324,0.145-0.613,0.371-0.814c0.029-0.033,0.049-0.068,0.082-0.104
	l13.002-13l6.076,6.074L76.588,376.897z M91.866,361.62l-1.164,1.162l-6.074-6.074l1.164-1.162c0.664-0.664,1.74-0.664,2.406,0
	l3.668,3.668C92.53,359.877,92.53,360.956,91.866,361.62z"/>
<path fill="#221F1F" d="M128.095,372.44v3.139c0.002,0.416,0.338,0.752,0.752,0.752h3.139c0.029,0,0.055-0.014,0.082-0.016
	l-3.955-3.957C128.108,372.385,128.095,372.411,128.095,372.44z"/>
<path fill="#221F1F" d="M138.212,342.132c-13.299,0-24.078,10.78-24.078,24.078c0,13.299,10.779,24.079,24.078,24.079
	s24.078-10.78,24.078-24.079C162.29,352.913,151.511,342.132,138.212,342.132z M133.591,376.897c-0.197,0.287-0.525,0.475-0.9,0.475
	l-4.543,0.002c-0.6-0.002-1.088-0.488-1.088-1.09v-4.543c0-0.324,0.145-0.613,0.371-0.814c0.029-0.033,0.049-0.068,0.082-0.104
	l13.002-13l6.076,6.074L133.591,376.897z M148.868,361.62l-1.164,1.162l-6.074-6.074l1.164-1.162c0.664-0.664,1.74-0.664,2.406,0
	l3.668,3.668C149.532,359.877,149.532,360.956,148.868,361.62z"/>
<path fill="#41A648" d="M185.095,372.44v3.139c0.002,0.416,0.338,0.752,0.752,0.752h3.139c0.029,0,0.055-0.014,0.082-0.016
	l-3.955-3.957C185.108,372.385,185.095,372.411,185.095,372.44z"/>
<path fill="#41A648" d="M195.212,342.132c-13.299,0-24.078,10.78-24.078,24.078c0,13.299,10.779,24.079,24.078,24.079
	s24.078-10.78,24.078-24.079C219.29,352.913,208.511,342.132,195.212,342.132z M190.591,376.897c-0.197,0.287-0.525,0.475-0.9,0.475
	l-4.543,0.002c-0.6-0.002-1.088-0.488-1.088-1.09v-4.543c0-0.324,0.145-0.613,0.371-0.814c0.029-0.033,0.049-0.068,0.082-0.104
	l13.002-13l6.076,6.074L190.591,376.897z M205.868,361.62l-1.164,1.162l-6.074-6.074l1.164-1.162c0.664-0.664,1.74-0.664,2.406,0
	l3.668,3.668C206.532,359.877,206.532,360.956,205.868,361.62z"/>
<circle fill="#FFFFFF" cx="24.122" cy="422.163" r="1.379"/>
<path fill="#FFFFFF" d="M16.564,427.193c-0.553,0-1.076,0.179-1.511,0.505c-0.096,0.072-0.189,0.148-0.276,0.235
	c-0.985,0.985-0.985,2.589,0,3.574c0.478,0.478,1.112,0.74,1.787,0.74s1.31-0.263,1.787-0.74c0.087-0.087,0.164-0.181,0.235-0.276
	c0.739-0.989,0.663-2.399-0.235-3.298C17.874,427.456,17.239,427.193,16.564,427.193z"/>
<path fill="#FFFFFF" d="M33.204,427.76c-0.4-0.254-0.863-0.392-1.349-0.392c-0.675,0-1.31,0.263-1.787,0.74
	c-0.85,0.851-0.965,2.159-0.349,3.136c0.099,0.155,0.214,0.304,0.349,0.438c0.478,0.478,1.112,0.74,1.787,0.74
	s1.31-0.263,1.787-0.74c0.986-0.985,0.986-2.589,0-3.574C33.508,427.975,33.36,427.86,33.204,427.76z"/>
<path fill="#FFFFFF" d="M24.21,399.133c-13.299,0-24.078,10.78-24.078,24.078c0,13.299,10.779,24.079,24.078,24.079
	c13.298,0,24.079-10.78,24.079-24.079C48.289,409.914,37.509,399.133,24.21,399.133z M13.232,411.273
	c1.164-1.165,3.053-1.165,4.218,0l5.367,5.367l-4.219,4.218l-5.366-5.367C12.067,414.327,12.067,412.438,13.232,411.273z
	 M36.279,434.32c-1.182,1.182-2.753,1.832-4.424,1.832s-3.242-0.65-4.424-1.832c-1.676-1.676-2.2-4.074-1.572-6.202l-1.737-1.736
	l-1.561,1.561c0.627,2.128,0.103,4.525-1.573,6.202c-1.182,1.182-2.753,1.832-4.424,1.832s-3.241-0.65-4.423-1.832
	c-2.439-2.439-2.439-6.408,0-8.847c1.181-1.182,2.752-1.833,4.423-1.833c0.612,0,1.21,0.089,1.781,0.257l1.559-1.559l0.786-0.786
	l10.231-10.231c1.165-1.164,3.054-1.165,4.219,0c1.164,1.165,1.164,3.054,0,4.218l-6.8,6.8l1.734,1.734
	c0.57-0.168,1.169-0.257,1.78-0.257c1.671,0,3.243,0.65,4.424,1.833C38.718,427.912,38.718,431.88,36.279,434.32z"/>
<circle fill="#F19520" cx="81.121" cy="422.163" r="1.379"/>
<path fill="#F19520" d="M73.563,427.193c-0.553,0-1.076,0.179-1.511,0.505c-0.096,0.072-0.189,0.148-0.276,0.235
	c-0.985,0.985-0.985,2.589,0,3.574c0.478,0.478,1.112,0.74,1.787,0.74s1.31-0.263,1.787-0.74c0.087-0.087,0.164-0.181,0.235-0.276
	c0.739-0.989,0.663-2.399-0.235-3.298C74.873,427.456,74.238,427.193,73.563,427.193z"/>
<path fill="#F19520" d="M90.203,427.76c-0.4-0.254-0.863-0.392-1.349-0.392c-0.675,0-1.31,0.263-1.787,0.74
	c-0.85,0.851-0.965,2.159-0.349,3.136c0.099,0.155,0.214,0.304,0.349,0.438c0.478,0.478,1.112,0.74,1.787,0.74
	s1.31-0.263,1.787-0.74c0.986-0.985,0.986-2.589,0-3.574C90.507,427.975,90.359,427.86,90.203,427.76z"/>
<path fill="#F19520" d="M81.209,399.133c-13.299,0-24.078,10.78-24.078,24.078c0,13.299,10.779,24.079,24.078,24.079
	s24.078-10.78,24.078-24.079C105.288,409.914,94.508,399.133,81.209,399.133z M70.231,411.273c1.164-1.165,3.053-1.165,4.218,0
	l5.367,5.367l-4.219,4.218l-5.366-5.367C69.066,414.327,69.066,412.438,70.231,411.273z M93.278,434.32
	c-1.182,1.182-2.753,1.832-4.424,1.832s-3.242-0.65-4.424-1.832c-1.676-1.676-2.2-4.074-1.572-6.202l-1.737-1.736l-1.561,1.561
	c0.627,2.128,0.103,4.525-1.573,6.202c-1.182,1.182-2.753,1.832-4.424,1.832s-3.241-0.65-4.423-1.832
	c-2.439-2.439-2.439-6.408,0-8.847c1.181-1.182,2.752-1.833,4.423-1.833c0.612,0,1.21,0.089,1.781,0.257l1.559-1.559l0.786-0.786
	l10.231-10.231c1.165-1.164,3.054-1.165,4.219,0c1.164,1.165,1.164,3.054,0,4.218l-6.8,6.8l1.734,1.734
	c0.57-0.168,1.169-0.257,1.78-0.257c1.671,0,3.242,0.65,4.424,1.833C95.717,427.912,95.717,431.88,93.278,434.32z"/>
<circle fill="#221F1F" cx="138.124" cy="422.163" r="1.379"/>
<path fill="#221F1F" d="M130.565,427.193c-0.553,0-1.076,0.179-1.51,0.505c-0.096,0.072-0.189,0.148-0.277,0.235
	c-0.984,0.985-0.984,2.589,0,3.574c0.479,0.478,1.113,0.74,1.787,0.74c0.676,0,1.311-0.263,1.787-0.74
	c0.088-0.087,0.164-0.181,0.236-0.276c0.738-0.989,0.662-2.399-0.236-3.298C131.876,427.456,131.241,427.193,130.565,427.193z"/>
<path fill="#221F1F" d="M147.206,427.76c-0.4-0.254-0.863-0.392-1.35-0.392c-0.674,0-1.309,0.263-1.787,0.74
	c-0.85,0.851-0.965,2.159-0.348,3.136c0.098,0.155,0.213,0.304,0.348,0.438c0.479,0.478,1.113,0.74,1.787,0.74
	c0.676,0,1.311-0.263,1.787-0.74c0.986-0.985,0.986-2.589,0-3.574C147.511,427.975,147.362,427.86,147.206,427.76z"/>
<path fill="#221F1F" d="M138.212,399.133c-13.299,0-24.078,10.78-24.078,24.078c0,13.299,10.779,24.079,24.078,24.079
	s24.078-10.78,24.078-24.079C162.29,409.914,151.511,399.133,138.212,399.133z M127.233,411.273c1.164-1.165,3.053-1.165,4.219,0
	l5.367,5.367l-4.219,4.218l-5.367-5.367C126.069,414.327,126.069,412.438,127.233,411.273z M150.28,434.32
	c-1.182,1.182-2.752,1.832-4.424,1.832c-1.67,0-3.242-0.65-4.424-1.832c-1.676-1.676-2.199-4.074-1.572-6.202l-1.736-1.736
	l-1.561,1.561c0.627,2.128,0.102,4.525-1.574,6.202c-1.182,1.182-2.752,1.832-4.424,1.832c-1.67,0-3.24-0.65-4.422-1.832
	c-2.439-2.439-2.439-6.408,0-8.847c1.18-1.182,2.752-1.833,4.422-1.833c0.613,0,1.211,0.089,1.781,0.257l1.559-1.559l0.787-0.786
	l10.23-10.231c1.166-1.164,3.055-1.165,4.219,0s1.164,3.054,0,4.218l-6.799,6.8l1.734,1.734c0.57-0.168,1.168-0.257,1.779-0.257
	c1.672,0,3.242,0.65,4.424,1.833C152.72,427.912,152.72,431.88,150.28,434.32z"/>
<circle fill="#41A648" cx="195.124" cy="422.163" r="1.379"/>
<path fill="#41A648" d="M187.565,427.193c-0.553,0-1.076,0.179-1.51,0.505c-0.096,0.072-0.189,0.148-0.277,0.235
	c-0.984,0.985-0.984,2.589,0,3.574c0.479,0.478,1.113,0.74,1.787,0.74c0.676,0,1.311-0.263,1.787-0.74
	c0.088-0.087,0.164-0.181,0.236-0.276c0.738-0.989,0.662-2.399-0.236-3.298C188.876,427.456,188.241,427.193,187.565,427.193z"/>
<path fill="#41A648" d="M204.206,427.76c-0.4-0.254-0.863-0.392-1.35-0.392c-0.674,0-1.309,0.263-1.787,0.74
	c-0.85,0.851-0.965,2.159-0.348,3.136c0.098,0.155,0.213,0.304,0.348,0.438c0.479,0.478,1.113,0.74,1.787,0.74
	c0.676,0,1.311-0.263,1.787-0.74c0.986-0.985,0.986-2.589,0-3.574C204.511,427.975,204.362,427.86,204.206,427.76z"/>
<path fill="#41A648" d="M195.212,399.133c-13.299,0-24.078,10.78-24.078,24.078c0,13.299,10.779,24.079,24.078,24.079
	s24.078-10.78,24.078-24.079C219.29,409.914,208.511,399.133,195.212,399.133z M184.233,411.273c1.164-1.165,3.053-1.165,4.219,0
	l5.367,5.367l-4.219,4.218l-5.367-5.367C183.069,414.327,183.069,412.438,184.233,411.273z M207.28,434.32
	c-1.182,1.182-2.752,1.832-4.424,1.832c-1.67,0-3.242-0.65-4.424-1.832c-1.676-1.676-2.199-4.074-1.572-6.202l-1.736-1.736
	l-1.561,1.561c0.627,2.128,0.102,4.525-1.574,6.202c-1.182,1.182-2.752,1.832-4.424,1.832c-1.67,0-3.24-0.65-4.422-1.832
	c-2.439-2.439-2.439-6.408,0-8.847c1.18-1.182,2.752-1.833,4.422-1.833c0.613,0,1.211,0.089,1.781,0.257l1.559-1.559l0.787-0.786
	l10.23-10.231c1.166-1.164,3.055-1.165,4.219,0s1.164,3.054,0,4.218l-6.799,6.8l1.734,1.734c0.57-0.168,1.168-0.257,1.779-0.257
	c1.672,0,3.242,0.65,4.424,1.833C209.72,427.912,209.72,431.88,207.28,434.32z"/>
</svg>
