<?xml version="1.0" encoding="UTF-8" standalone="no"?>
<!-- Generator: Adobe Illustrator 15.1.0, SVG Export Plug-In . SVG Version: 6.00 Build 0)  -->

<svg
   xmlns:dc="http://purl.org/dc/elements/1.1/"
   xmlns:cc="http://creativecommons.org/ns#"
   xmlns:rdf="http://www.w3.org/1999/02/22-rdf-syntax-ns#"
   xmlns:svg="http://www.w3.org/2000/svg"
   xmlns="http://www.w3.org/2000/svg"
   xmlns:sodipodi="http://sodipodi.sourceforge.net/DTD/sodipodi-0.dtd"
   xmlns:inkscape="http://www.inkscape.org/namespaces/inkscape"
   version="1.1"
   id="Layer_1"
   x="0px"
   y="0px"
   width="100%"
   height="100%"
   viewBox="0 0 240.00378 720.00207"
   enable-background="new 0 0 240 600"
   xml:space="preserve"
   inkscape:version="0.48.4 r9939"
   sodipodi:docname="set-icone-editor.svg"><metadata
     id="metadata145"><rdf:RDF><cc:Work
         rdf:about=""><dc:format>image/svg+xml</dc:format><dc:type
           rdf:resource="http://purl.org/dc/dcmitype/StillImage" /></cc:Work></rdf:RDF></metadata><defs
     id="defs143" /><sodipodi:namedview
     pagecolor="#ffffff"
     bordercolor="#666666"
     borderopacity="1"
     objecttolerance="10"
     gridtolerance="10"
     guidetolerance="10"
     inkscape:pageopacity="0"
     inkscape:pageshadow="2"
     inkscape:window-width="1855"
     inkscape:window-height="1056"
     id="namedview141"
     showgrid="false"
     inkscape:snap-page="true"
     showguides="true"
     inkscape:guide-bbox="true"
     inkscape:object-paths="true"
     inkscape:snap-intersection-paths="true"
     fit-margin-top="0"
     fit-margin-left="0"
     fit-margin-right="0"
     fit-margin-bottom="0"
     inkscape:zoom="1"
     inkscape:cx="369.69849"
     inkscape:cy="705.35418"
     inkscape:window-x="65"
     inkscape:window-y="24"
     inkscape:window-maximized="1"
     inkscape:current-layer="Layer_1"><sodipodi:guide
       orientation="0,1"
       position="87.079984,120.00536"
       id="guide3143" /><sodipodi:guide
       orientation="1,0"
       position="0.003713595,137.96087"
       id="guide3145" /><sodipodi:guide
       orientation="1,0"
       position="240.00371,137.64307"
       id="guide3147" /><sodipodi:guide
       orientation="0,1"
       position="59.665848,180.00457"
       id="guide3149" /><sodipodi:guide
       orientation="1,0"
       position="60.007686,151.67578"
       id="guide3151" /><sodipodi:guide
       orientation="0,1"
       position="36.503713,60.005358"
       id="guide3153" /><sodipodi:guide
       orientation="1,0"
       position="120.00371,105.00536"
       id="guide3155" /><sodipodi:guide
       orientation="1,0"
       position="180.00658,99.631844"
       id="guide3157" /><sodipodi:guide
       orientation="1,0"
       position="64.387696,150.25528"
       id="guide3161" /><sodipodi:guide
       orientation="0,1"
       position="40.011526,115.64598"
       id="guide3163" /><sodipodi:guide
       orientation="1,0"
       position="4.3789368,104.44901"
       id="guide3165" /><sodipodi:guide
       orientation="0,1"
       position="104.25176,0.0053581095"
       id="guide3167" /><sodipodi:guide
       orientation="0,1"
       position="90.505458,124.41415"
       id="guide3169" /><sodipodi:guide
       orientation="0,1"
       position="89.625009,175.6446"
       id="guide3171" /><sodipodi:guide
       orientation="1,0"
       position="115.62469,150.05741"
       id="guide3173" /><sodipodi:guide
       orientation="1,0"
       position="124.38821,91.732135"
       id="guide3177" /><sodipodi:guide
       orientation="1,0"
       position="184.38733,85.434466"
       id="guide3179" /><sodipodi:guide
       orientation="0,1"
       position="104.75176,55.645983"
       id="guide3075" /><sodipodi:guide
       orientation="1,0"
       position="55.626762,96.630358"
       id="guide3104" /><sodipodi:guide
       orientation="1,0"
       position="175.62676,140.16161"
       id="guide3115" /><sodipodi:guide
       orientation="1,0"
       position="235.623,113.36982"
       id="guide3117" /></sodipodi:namedview><rect
     x="194.9057"
     y="435.86371"
     width="30.16"
     height="28.118999"
     id="rect3"
     style="fill:#ffffff" /><path
     d="m 30.006713,4.3767043 c -14.15,0 -25.6209994,11.4689997 -25.6209994,25.6189997 0,14.15 11.4709994,25.62 25.6209994,25.62 14.149,0 25.619,-11.472 25.619,-25.62 0,-14.15 -11.469,-25.6189997 -25.619,-25.6189997 z m 11.111,30.8839997 c 1.614,1.614 1.614,4.232 0,5.846 -0.809,0.809 -1.866,1.212 -2.924,1.212 -1.058,0 -2.115,-0.403 -2.923,-1.212 l -5.265,-5.264 -5.264,5.264 c -0.807,0.809 -1.865,1.212 -2.924,1.212 -1.058,0 -2.115,-0.403 -2.923,-1.212 -1.614,-1.613 -1.614,-4.231 0,-5.846 l 5.265,-5.265 -5.265,-5.265 c -1.614,-1.616 -1.614,-4.232 0,-5.847 1.614,-1.615 4.232,-1.614 5.846,0 l 5.264,5.265 5.265,-5.265 c 1.615,-1.614 4.233,-1.614 5.847,0 1.614,1.614 1.614,4.231 0,5.847 l -5.266,5.265 5.267,5.265 z"
     id="path5"
     inkscape:connector-curvature="0"
     style="fill:#ffffff" /><path
     d="m 90.005713,4.3767043 c -14.148,0 -25.62,11.4689997 -25.62,25.6189997 0,14.148 11.472,25.62 25.62,25.62 14.149997,0 25.617997,-11.472 25.617997,-25.62 0,-14.15 -11.467,-25.6189997 -25.617997,-25.6189997 z M 101.11771,35.260704 c 1.614,1.614 1.614,4.232 0,5.846 -0.81,0.809 -1.866997,1.212 -2.924997,1.212 -1.058,0 -2.116,-0.403 -2.922,-1.212 l -5.267,-5.264 -5.265,5.264 c -0.808,0.809 -1.865,1.212 -2.924,1.212 -1.057,0 -2.115,-0.403 -2.923,-1.212 -1.614,-1.613 -1.614,-4.231 0,-5.846 l 5.265,-5.265 -5.265,-5.265 c -1.614,-1.616 -1.614,-4.232 0,-5.847 1.614,-1.615 4.231,-1.614 5.846,0 l 5.265,5.265 5.267,-5.265 c 1.614,-1.614 4.231,-1.614 5.845997,0 1.615,1.614 1.614,4.231 0,5.847 l -5.266997,5.265 5.268997,5.265 z"
     id="path7"
     inkscape:connector-curvature="0"
     style="fill:#f09622" /><path
     d="m 150.00571,4.3767043 c -14.15,0 -25.619,11.4689997 -25.619,25.6189997 0,14.148 11.469,25.62 25.619,25.62 14.146,0 25.616,-11.472 25.616,-25.62 0,-14.15 -11.468,-25.6189997 -25.616,-25.6189997 z m 11.109,30.8839997 c 1.613,1.614 1.613,4.232 0,5.846 -0.812,0.809 -1.862,1.212 -2.922,1.212 -1.06,0 -2.116,-0.403 -2.926,-1.212 l -5.268,-5.264 -5.262,5.264 c -0.81,0.809 -1.867,1.212 -2.926,1.212 -1.06,0 -2.115,-0.403 -2.922,-1.212 -1.615,-1.613 -1.615,-4.231 0,-5.846 l 5.264,-5.265 -5.264,-5.265 c -1.615,-1.616 -1.615,-4.232 0,-5.847 1.61,-1.614 4.229,-1.614 5.846,0 l 5.264,5.265 5.268,-5.265 c 1.614,-1.614 4.23,-1.614 5.846,0 1.613,1.614 1.613,4.231 0,5.847 l -5.267,5.265 5.269,5.265 z"
     id="path9"
     inkscape:connector-curvature="0"
     style="fill:#010101" /><path
     d="m 210.00571,4.3767043 c -14.146,0 -25.619,11.4689997 -25.619,25.6189997 0,14.148 11.471,25.62 25.619,25.62 14.148,0 25.616,-11.472 25.616,-25.62 0,-14.15 -11.466,-25.6189997 -25.616,-25.6189997 z m 11.111,30.8839997 c 1.613,1.614 1.613,4.232 0,5.846 -0.812,0.809 -1.866,1.212 -2.926,1.212 -1.06,0 -2.117,-0.403 -2.924,-1.212 l -5.263,-5.264 -5.266,5.264 c -0.809,0.809 -1.866,1.212 -2.926,1.212 -1.057,0 -2.115,-0.403 -2.92,-1.212 -1.617,-1.613 -1.617,-4.231 0,-5.846 l 5.262,-5.265 -5.262,-5.265 c -1.617,-1.616 -1.617,-4.232 0,-5.847 1.611,-1.614 4.23,-1.614 5.844,0 l 5.268,5.265 5.264,-5.265 c 1.617,-1.614 4.231,-1.614 5.85,0 1.611,1.614 1.611,4.231 0,5.847 l -5.27,5.265 5.269,5.265 z"
     id="path11"
     inkscape:connector-curvature="0"
     style="fill:#43a748" /><path
     d="m 30.006713,64.373704 c -14.15,0 -25.6209994,11.469 -25.6209994,25.619 0,14.147996 11.4699994,25.619996 25.6209994,25.619996 14.148,0 25.619,-11.472 25.619,-25.619996 0,-14.15 -11.471,-25.619 -25.619,-25.619 z m 11.578,29.754 h -7.445 v 7.443996 c 0,2.284 -1.852,4.136 -4.135,4.136 -2.283,0 -4.134,-1.852 -4.134,-4.136 v -7.443996 h -7.446 c -2.283,0 -4.134,-1.852 -4.134,-4.134 0,-2.283 1.851,-4.135 4.134,-4.135 h 7.446 v -7.444 c 0,-2.284 1.851,-4.136 4.134,-4.136 2.283,0 4.135,1.852 4.135,4.136 v 7.444 h 7.445 c 2.282,0 4.134,1.852 4.134,4.135 0,2.282 -1.851,4.134 -4.134,4.134 z"
     id="path13"
     inkscape:connector-curvature="0"
     style="fill:#ffffff" /><path
     d="m 90.004713,64.373704 c -14.15,0 -25.619,11.469 -25.619,25.62 0,14.147996 11.469,25.619996 25.62,25.619996 14.146997,0 25.617997,-11.472 25.617997,-25.619996 0,-14.151 -11.471,-25.62 -25.618997,-25.62 z m 11.578997,29.753 h -7.445997 v 7.443996 c 0,2.284 -1.851,4.136 -4.132,4.136 -2.284,0 -4.133,-1.852 -4.133,-4.136 v -7.443996 h -7.446 c -2.284,0 -4.133,-1.852 -4.133,-4.134 0,-2.284 1.849,-4.136 4.133,-4.136 h 7.445 v -7.443 c 0,-2.284 1.85,-4.136 4.133,-4.136 2.282,0 4.132,1.852 4.132,4.136 v 7.443 h 7.445997 c 2.282,0 4.134,1.852 4.134,4.136 10e-4,2.283 -1.851,4.134 -4.133,4.134 z"
     id="path15"
     inkscape:connector-curvature="0"
     style="fill:#f09622" /><path
     d="m 150.00771,64.374704 c -14.148,0 -25.623,11.469 -25.623,25.619 0,14.147996 11.473,25.619996 25.623,25.619996 14.146,0 25.618,-11.472 25.618,-25.619996 0,-14.15 -11.47,-25.619 -25.618,-25.619 z m 11.577,29.753 h -7.444 v 7.443996 c 0,2.284 -1.853,4.136 -4.135,4.136 -2.279,0 -4.134,-1.852 -4.134,-4.136 v -7.443996 h -7.444 c -2.281,0 -4.133,-1.852 -4.133,-4.134 0,-2.283 1.852,-4.135 4.133,-4.135 h 7.444 v -7.444 c 0,-2.284 1.854,-4.136 4.134,-4.136 2.282,0 4.135,1.852 4.135,4.136 v 7.444 h 7.444 c 2.282,0 4.136,1.852 4.136,4.135 0.002,2.283 -1.851,4.134 -4.136,4.134 z"
     id="path17"
     inkscape:connector-curvature="0"
     style="fill:#010101" /><path
     d="m 210.00371,64.373704 c -14.15,0 -25.621,11.469 -25.621,25.619 0,14.147996 11.471,25.619996 25.621,25.619996 14.146,0 25.618,-11.472 25.618,-25.619996 0,-14.15 -11.47,-25.619 -25.618,-25.619 z m 11.577,29.754 h -7.444 v 7.443996 c 0,2.284 -1.854,4.136 -4.133,4.136 -2.285,0 -4.134,-1.852 -4.134,-4.136 v -7.443996 h -7.444 c -2.283,0 -4.134,-1.852 -4.134,-4.134 0,-2.284 1.851,-4.136 4.134,-4.136 h 7.444 v -7.443 c 0,-2.284 1.849,-4.136 4.134,-4.136 2.279,0 4.133,1.852 4.133,4.136 v 7.443 h 7.444 c 2.282,0 4.136,1.852 4.136,4.136 0.002,2.282 -1.85,4.134 -4.136,4.134 z"
     id="path19"
     inkscape:connector-curvature="0"
     style="fill:#43a748" /><path
     d="m 30.005713,484.3557 c -14.15,0 -25.6209994,11.472 -25.6209994,25.621 0,14.146 11.4709994,25.618 25.6209994,25.618 14.148,0 25.619,-11.473 25.619,-25.618 -10e-4,-14.15 -11.471,-25.621 -25.619,-25.621 z m -11.583,29.755 c -2.283,0 -4.134,-1.854 -4.134,-4.134 0,-2.282 1.851,-4.136 4.134,-4.136 h 23.16 c 2.282,0 4.134,1.854 4.134,4.136 0,2.28 -1.851,4.134 -4.134,4.134 h -23.16 z"
     id="path21"
     inkscape:connector-curvature="0"
     style="fill:#ffffff" /><path
     d="m 90.004713,484.3557 c -14.15,0 -25.619,11.47 -25.619,25.618 0,14.148 11.47,25.619 25.62,25.619 14.146997,0 25.618997,-11.471 25.618997,-25.619 0,-14.149 -11.472,-25.618 -25.619997,-25.618 z m -11.578,29.755 c -2.284,0 -4.133,-1.854 -4.133,-4.136 0,-2.283 1.849,-4.138 4.133,-4.138 h 23.157997 c 2.282,0 4.134,1.854 4.134,4.138 0,2.28 -1.852,4.136 -4.134,4.136 H 78.426713 z"
     id="path23"
     inkscape:connector-curvature="0"
     style="fill:#f09622" /><path
     d="m 150.00571,484.3557 c -14.15,0 -25.623,11.472 -25.623,25.621 0,14.146 11.473,25.618 25.623,25.618 14.146,0 25.618,-11.473 25.618,-25.618 0,-14.15 -11.47,-25.621 -25.618,-25.621 z m -11.58,29.755 c -2.281,0 -4.134,-1.854 -4.134,-4.134 0,-2.282 1.853,-4.136 4.134,-4.136 h 23.157 c 2.282,0 4.136,1.854 4.136,4.136 0.002,2.28 -1.852,4.134 -4.136,4.134 h -23.157 z"
     id="path25"
     inkscape:connector-curvature="0"
     style="fill:#010101" /><path
     d="m 210.00371,484.3557 c -14.15,0 -25.619,11.47 -25.619,25.618 0,14.148 11.469,25.62 25.619,25.62 14.146,0 25.618,-11.471 25.618,-25.619 0,-14.15 -11.47,-25.619 -25.618,-25.619 z m -11.576,29.755 c -2.285,0 -4.136,-1.854 -4.136,-4.136 0,-2.283 1.851,-4.138 4.136,-4.138 h 23.153 c 2.282,0 4.136,1.854 4.136,4.138 0.002,2.28 -1.852,4.136 -4.136,4.136 h -23.153 z"
     id="path27"
     inkscape:connector-curvature="0"
     style="fill:#43a748" /><path
     d="m 30.007713,124.3707 c -14.151,0 -25.6219994,11.47 -25.6219994,25.619 0,14.152 11.4709994,25.622 25.6219994,25.622 14.148,0 25.618,-11.469 25.618,-25.622 0,-14.15 -11.468,-25.619 -25.618,-25.619 z m 0.847,35.408 c 0,1.393 -1.129,2.521 -2.522,2.521 h -11.057 c -1.393,0 -2.522,-1.126 -2.522,-2.521 v -0.104 c 0,-1.395 1.129,-2.521 2.522,-2.521 h 11.058 c 1.393,0 2.522,1.126 2.522,2.521 l -0.001,0.104 0,0 z m 14.404,-9.738 c 0,1.393 -1.128,2.522 -2.52,2.522 h -25.463 c -1.393,0 -2.522,-1.128 -2.522,-2.522 v -0.104 c 0,-1.391 1.129,-2.521 2.522,-2.521 h 25.463 c 1.392,0 2.52,1.128 2.52,2.521 v 0.104 z m 0,-9.735 c 0,1.391 -1.128,2.521 -2.52,2.521 h -25.463 c -1.393,0 -2.522,-1.128 -2.522,-2.521 v -0.105 c 0,-1.391 1.129,-2.521 2.522,-2.521 h 25.463 c 1.392,0 2.52,1.129 2.52,2.521 v 0.105 z"
     id="path29"
     inkscape:connector-curvature="0"
     style="fill:#ffffff" /><path
     d="m 90.006713,124.3707 c -14.152,0 -25.621,11.47 -25.621,25.619 0,14.152 11.47,25.622 25.622,25.622 14.147997,0 25.616997,-11.469 25.616997,-25.622 0,-14.15 -11.468,-25.619 -25.617997,-25.619 z m 0.845,35.409 c 0,1.393 -1.128,2.521 -2.521,2.521 h -11.057 c -1.392,0 -2.523,-1.126 -2.523,-2.521 v -0.104 c 0,-1.395 1.13,-2.522 2.523,-2.522 h 11.058 c 1.392,0 2.521,1.126 2.521,2.522 l -10e-4,0.104 0,0 z m 14.404997,-9.74 c 0,1.394 -1.128,2.523 -2.519,2.523 H 77.273713 c -1.392,0 -2.523,-1.128 -2.523,-2.523 v -0.103 c 0,-1.392 1.13,-2.521 2.523,-2.521 h 25.463997 c 1.389,0 2.519,1.128 2.519,2.521 v 0.103 z m 0,-9.734 c 0,1.391 -1.128,2.521 -2.519,2.521 H 77.273713 c -1.392,0 -2.523,-1.128 -2.523,-2.521 v -0.105 c 0,-1.391 1.13,-2.521 2.523,-2.521 h 25.463997 c 1.389,0 2.519,1.129 2.519,2.521 v 0.105 z"
     id="path31"
     inkscape:connector-curvature="0"
     style="fill:#f09622" /><path
     d="m 150.00771,124.3707 c -14.152,0 -25.621,11.471 -25.621,25.619 0,14.152 11.469,25.622 25.621,25.622 14.146,0 25.616,-11.469 25.616,-25.622 0,-14.15 -11.468,-25.619 -25.616,-25.619 z m 0.848,35.408 c 0,1.393 -1.129,2.521 -2.521,2.521 h -11.057 c -1.393,0 -2.523,-1.126 -2.523,-2.521 v -0.104 c 0,-1.395 1.131,-2.521 2.523,-2.521 h 11.057 c 1.393,0 2.521,1.126 2.521,2.521 v 0.104 z m 14.402,-9.738 c 0,1.392 -1.125,2.522 -2.521,2.522 h -25.463 c -1.391,0 -2.522,-1.128 -2.522,-2.522 v -0.104 c 0,-1.391 1.132,-2.521 2.522,-2.521 h 25.463 c 1.395,0 2.521,1.128 2.521,2.521 v 0.104 z m 0,-9.735 c 0,1.391 -1.125,2.521 -2.521,2.521 h -25.463 c -1.391,0 -2.522,-1.129 -2.522,-2.521 v -0.105 c 0,-1.391 1.132,-2.521 2.522,-2.521 h 25.463 c 1.395,0 2.521,1.129 2.521,2.521 v 0.105 z"
     id="path33"
     inkscape:connector-curvature="0"
     style="fill:#010101" /><path
     d="m 30.006713,184.8347 c -14.149,0 -25.6199994,11.47 -25.6199994,25.62 0,14.15 11.4709994,25.619 25.6199994,25.619 14.149,0 25.619,-11.468 25.619,-25.619 0,-14.151 -11.47,-25.62 -25.619,-25.62 z m 15.022,21.275 -18.365,18.368 -11.986,-11.989 c -1.662,-1.659 -1.662,-4.352 0,-6.014 1.661,-1.661 4.354,-1.663 6.016,0 l 5.972,5.972 12.351,-12.352 c 1.662,-1.662 4.354,-1.662 6.016,0 1.657,1.66 1.657,4.353 -0.004,6.015 z"
     id="path35"
     inkscape:connector-curvature="0"
     style="fill:#ffffff" /><path
     d="m 90.006713,184.8557 c -14.15,0 -25.622,11.47 -25.622,25.62 0,14.147 11.472,25.619 25.622,25.619 14.147997,0 25.618997,-11.472 25.618997,-25.619 0,-14.151 -11.469,-25.62 -25.618997,-25.62 z m 15.022997,21.275 -18.365997,18.366 -11.986,-11.987 c -1.661,-1.659 -1.661,-4.352 0,-6.016 1.659,-1.661 4.354,-1.661 6.014,0.002 l 5.973,5.97 12.352,-12.35 c 1.660997,-1.662 4.352997,-1.662 6.015997,0 1.658,1.661 1.658,4.354 -0.003,6.015 z"
     id="path37"
     inkscape:connector-curvature="0"
     style="fill:#f09622" /><path
     d="m 210.00371,184.8557 c -14.15,0 -25.621,11.47 -25.621,25.62 0,14.147 11.471,25.619 25.621,25.619 14.146,0 25.618,-11.472 25.618,-25.619 0,-14.151 -11.47,-25.62 -25.618,-25.62 z m 15.023,21.275 -18.366,18.366 -11.986,-11.987 c -1.662,-1.659 -1.662,-4.352 0,-6.016 1.66,-1.661 4.354,-1.661 6.015,0.002 l 5.973,5.97 12.351,-12.35 c 1.662,-1.662 4.354,-1.662 6.021,0 1.653,1.661 1.653,4.354 -0.008,6.015 z"
     id="path39"
     inkscape:connector-curvature="0"
     style="fill:#43a748" /><path
     d="m 210.00571,124.3697 c -14.152,0 -25.621,11.471 -25.621,25.619 0,14.152 11.469,25.622 25.621,25.622 14.146,0 25.618,-11.469 25.618,-25.622 0,-14.149 -11.47,-25.619 -25.618,-25.619 z m 0.848,35.409 c 0,1.393 -1.129,2.521 -2.521,2.521 h -11.058 c -1.394,0 -2.524,-1.126 -2.524,-2.521 v -0.104 c 0,-1.395 1.131,-2.521 2.524,-2.521 h 11.058 c 1.392,0 2.521,1.126 2.521,2.521 v 0.104 z m 14.402,-9.739 c 0,1.393 -1.125,2.523 -2.521,2.523 h -25.463 c -1.393,0 -2.522,-1.128 -2.522,-2.523 v -0.103 c 0,-1.392 1.132,-2.521 2.522,-2.521 h 25.463 c 1.392,0 2.521,1.128 2.521,2.521 v 0.103 z m 0,-9.734 c 0,1.391 -1.125,2.521 -2.521,2.521 h -25.463 c -1.393,0 -2.522,-1.129 -2.522,-2.521 v -0.105 c 0,-1.391 1.132,-2.521 2.522,-2.521 h 25.463 c 1.392,0 2.521,1.129 2.521,2.521 v 0.105 z"
     id="path41"
     inkscape:connector-curvature="0"
     style="fill:#43a748" /><path
     d="m 150.00571,184.8557 c -14.15,0 -25.621,11.47 -25.621,25.62 0,14.147 11.471,25.619 25.621,25.619 14.146,0 25.618,-11.472 25.618,-25.619 0,-14.151 -11.47,-25.62 -25.618,-25.62 z m 15.023,21.275 -18.366,18.366 -11.986,-11.987 c -1.661,-1.659 -1.661,-4.352 0,-6.016 1.66,-1.661 4.354,-1.661 6.015,0.002 l 5.973,5.97 12.352,-12.35 c 1.661,-1.662 4.354,-1.662 6.021,0 1.652,1.661 1.652,4.354 -0.009,6.015 z"
     id="path43"
     inkscape:connector-curvature="0"
     style="fill:#010101" /><polygon
     points="18.355,566.132 16.49,571.581 20.254,571.581 18.397,566.132 "
     id="polygon45"
     style="fill:#ffffff"
     transform="translate(0.0037136,-0.00329577)" /><path
     d="m 30.929713,569.0007 c 0.318,-0.051 0.593,-0.142 0.821,-0.271 0.229,-0.13 0.408,-0.308 0.538,-0.529 0.13,-0.224 0.195,-0.508 0.195,-0.854 0,-0.345 -0.064,-0.622 -0.191,-0.835 -0.127,-0.211 -0.301,-0.377 -0.521,-0.494 -0.221,-0.119 -0.478,-0.199 -0.771,-0.242 -0.294,-0.042 -0.604,-0.062 -0.933,-0.062 h -1.389 v 3.365 h 1.211 c 0.374,-10e-4 0.719,-0.026 1.04,-0.078 z"
     id="path47"
     inkscape:connector-curvature="0"
     style="fill:#ffffff" /><path
     d="m 32.067713,570.9717 c -0.248,-0.133 -0.547,-0.225 -0.898,-0.273 -0.35,-0.052 -0.739,-0.076 -1.169,-0.076 h -1.321 v 3.602 h 1.406 c 0.451,0 0.85,-0.021 1.195,-0.065 0.344,-0.047 0.633,-0.137 0.863,-0.271 0.232,-0.136 0.407,-0.322 0.525,-0.562 0.119,-0.24 0.179,-0.554 0.179,-0.938 0,-0.354 -0.067,-0.646 -0.204,-0.873 -0.134,-0.232 -0.327,-0.412 -0.576,-0.544 z"
     id="path49"
     inkscape:connector-curvature="0"
     style="fill:#ffffff" /><path
     d="m 30.004713,544.3517 c -14.15,0 -25.6189994,11.47 -25.6189994,25.618 0,14.148 11.4689994,25.619 25.6189994,25.619 14.148,0 25.619,-11.471 25.619,-25.619 0,-14.149 -11.471,-25.618 -25.619,-25.618 z m -5.845,31.018 c -0.076,0.161 -0.18,0.297 -0.31,0.407 -0.13,0.107 -0.281,0.192 -0.454,0.254 -0.172,0.06 -0.354,0.089 -0.546,0.089 -0.221,0 -0.41,-0.031 -0.567,-0.093 -0.158,-0.062 -0.301,-0.161 -0.424,-0.298 -0.125,-0.137 -0.239,-0.312 -0.344,-0.529 -0.104,-0.218 -0.217,-0.484 -0.335,-0.802 l -0.407,-1.075 h -4.796 l -0.348,1.075 c -0.102,0.321 -0.204,0.595 -0.31,0.812 -0.104,0.221 -0.221,0.396 -0.348,0.53 -0.127,0.133 -0.271,0.229 -0.436,0.288 -0.165,0.059 -0.356,0.089 -0.576,0.089 -0.192,0 -0.375,-0.029 -0.547,-0.089 -0.173,-0.062 -0.324,-0.146 -0.453,-0.255 -0.131,-0.109 -0.233,-0.245 -0.31,-0.406 -0.077,-0.161 -0.114,-0.347 -0.114,-0.556 0,-0.085 0.012,-0.181 0.037,-0.283 0.025,-0.104 0.059,-0.214 0.098,-0.326 0.04,-0.113 0.082,-0.226 0.127,-0.335 0.046,-0.11 0.088,-0.217 0.128,-0.317 l 2.279,-6.161 c 0.215,-0.575 0.419,-1.086 0.614,-1.529 0.195,-0.442 0.41,-0.816 0.645,-1.122 0.234,-0.307 0.504,-0.535 0.809,-0.69 0.306,-0.155 0.676,-0.231 1.111,-0.231 0.406,0 0.754,0.062 1.042,0.183 0.288,0.122 0.548,0.322 0.779,0.602 0.231,0.28 0.452,0.648 0.661,1.106 0.209,0.457 0.441,1.02 0.695,1.687 l 2.322,6.161 c 0.039,0.104 0.082,0.207 0.127,0.317 0.045,0.109 0.088,0.222 0.127,0.335 0.039,0.113 0.072,0.222 0.098,0.326 0.026,0.104 0.037,0.198 0.037,0.283 0.002,0.207 -0.035,0.392 -0.111,0.553 z m 11.511,-1.398 c -0.17,0.41 -0.43,0.772 -0.78,1.09 -0.35,0.316 -0.795,0.571 -1.334,0.769 -0.54,0.193 -1.18,0.292 -1.92,0.292 h -3.982 c -0.322,0 -0.605,-0.025 -0.848,-0.076 -0.244,-0.051 -0.448,-0.154 -0.615,-0.311 -0.166,-0.154 -0.292,-0.375 -0.377,-0.66 -0.084,-0.285 -0.127,-0.662 -0.127,-1.131 v -8.638 c 0,-0.266 0.054,-0.492 0.161,-0.683 0.107,-0.188 0.25,-0.343 0.428,-0.462 0.179,-0.118 0.386,-0.206 0.623,-0.264 0.237,-0.057 0.489,-0.084 0.755,-0.084 h 2.627 c 0.384,0 0.779,0.008 1.186,0.021 0.407,0.016 0.806,0.055 1.195,0.119 0.391,0.063 0.758,0.161 1.102,0.288 0.345,0.127 0.646,0.305 0.907,0.533 0.26,0.229 0.466,0.518 0.618,0.864 0.152,0.348 0.229,0.771 0.229,1.268 0,0.333 -0.057,0.654 -0.17,0.962 -0.113,0.308 -0.273,0.586 -0.483,0.835 -0.209,0.248 -0.457,0.459 -0.746,0.631 -0.287,0.173 -0.607,0.29 -0.957,0.353 v 0.034 c 0.424,0.062 0.807,0.181 1.148,0.353 0.342,0.173 0.632,0.389 0.868,0.647 0.237,0.261 0.421,0.561 0.552,0.897 0.13,0.339 0.194,0.703 0.194,1.093 0,0.431 -0.085,0.85 -0.254,1.26 z m 11.587,1.068 c -0.145,0.184 -0.335,0.349 -0.572,0.495 -0.237,0.146 -0.51,0.274 -0.817,0.386 -0.309,0.11 -0.626,0.202 -0.954,0.275 -0.327,0.072 -0.653,0.129 -0.979,0.165 -0.325,0.036 -0.626,0.056 -0.902,0.056 -0.836,0 -1.616,-0.14 -2.339,-0.42 -0.724,-0.279 -1.351,-0.689 -1.882,-1.229 -0.531,-0.54 -0.949,-1.203 -1.254,-1.99 -0.305,-0.789 -0.458,-1.691 -0.458,-2.709 0,-1.027 0.151,-1.947 0.454,-2.759 0.302,-0.812 0.725,-1.495 1.267,-2.056 0.542,-0.56 1.188,-0.986 1.937,-1.283 0.748,-0.298 1.569,-0.445 2.462,-0.445 0.706,0 1.32,0.045 1.843,0.133 0.523,0.088 0.956,0.208 1.301,0.359 0.345,0.151 0.603,0.333 0.771,0.542 0.17,0.209 0.254,0.437 0.254,0.679 0,0.164 -0.033,0.307 -0.102,0.429 -0.067,0.121 -0.156,0.223 -0.267,0.302 -0.111,0.078 -0.233,0.137 -0.369,0.174 -0.135,0.036 -0.271,0.056 -0.406,0.056 -0.079,0 -0.158,-10e-4 -0.237,-0.004 -0.079,-0.004 -0.155,-0.017 -0.229,-0.038 -0.215,-0.058 -0.42,-0.112 -0.615,-0.166 -0.194,-0.054 -0.387,-0.101 -0.576,-0.141 -0.189,-0.039 -0.378,-0.072 -0.567,-0.099 -0.189,-0.025 -0.386,-0.038 -0.589,-0.038 -0.424,0 -0.823,0.062 -1.199,0.19 -0.376,0.128 -0.702,0.353 -0.979,0.675 -0.277,0.32 -0.496,0.758 -0.657,1.309 -0.161,0.552 -0.241,1.254 -0.241,2.106 0,0.654 0.064,1.243 0.194,1.767 0.13,0.524 0.323,0.967 0.581,1.331 0.257,0.364 0.579,0.645 0.966,0.84 0.387,0.193 0.838,0.292 1.352,0.292 0.209,0 0.427,-0.021 0.652,-0.067 0.227,-0.046 0.458,-0.104 0.695,-0.174 0.237,-0.07 0.479,-0.15 0.725,-0.242 0.246,-0.09 0.49,-0.181 0.733,-0.271 0.073,-0.021 0.163,-0.033 0.271,-0.033 0.142,0 0.27,0.026 0.386,0.081 0.116,0.054 0.216,0.125 0.301,0.216 0.085,0.09 0.149,0.195 0.195,0.316 0.045,0.122 0.067,0.25 0.067,0.387 -0.002,0.217 -0.074,0.419 -0.217,0.603 z"
     id="path51"
     inkscape:connector-curvature="0"
     style="fill:#ffffff" /><circle
     cx="90.001999"
     cy="569.97699"
     r="25.618999"
     id="circle53"
     sodipodi:cx="90.001999"
     sodipodi:cy="569.97699"
     sodipodi:rx="25.618999"
     sodipodi:ry="25.618999"
     style="fill:#f09622"
     transform="translate(0.0037136,-0.00329577)" /><path
     d="m 83.885713,573.5547 c 0.039,0.104 0.082,0.207 0.127,0.317 0.045,0.11 0.088,0.222 0.127,0.335 0.039,0.113 0.072,0.222 0.098,0.326 0.026,0.104 0.037,0.198 0.037,0.283 0,0.209 -0.037,0.395 -0.113,0.556 -0.076,0.161 -0.18,0.297 -0.31,0.407 -0.13,0.107 -0.281,0.192 -0.454,0.254 -0.172,0.06 -0.354,0.089 -0.546,0.089 -0.221,0 -0.41,-0.031 -0.567,-0.093 -0.158,-0.062 -0.301,-0.161 -0.424,-0.298 -0.125,-0.137 -0.239,-0.312 -0.344,-0.529 -0.104,-0.218 -0.217,-0.484 -0.335,-0.802 l -0.407,-1.075 h -4.796 l -0.348,1.075 c -0.102,0.321 -0.204,0.595 -0.31,0.812 -0.104,0.222 -0.221,0.396 -0.348,0.53 -0.127,0.133 -0.271,0.229 -0.436,0.288 -0.165,0.059 -0.356,0.089 -0.576,0.089 -0.192,0 -0.375,-0.029 -0.547,-0.089 -0.173,-0.062 -0.324,-0.146 -0.453,-0.255 -0.131,-0.109 -0.233,-0.245 -0.31,-0.406 -0.077,-0.161 -0.114,-0.347 -0.114,-0.556 0,-0.085 0.012,-0.181 0.037,-0.283 0.025,-0.104 0.059,-0.214 0.098,-0.326 0.04,-0.113 0.082,-0.226 0.127,-0.335 0.046,-0.11 0.088,-0.216 0.128,-0.317 l 2.279,-6.161 c 0.215,-0.575 0.419,-1.086 0.614,-1.528 0.195,-0.443 0.41,-0.817 0.645,-1.123 0.234,-0.306 0.504,-0.535 0.809,-0.69 0.306,-0.154 0.676,-0.231 1.111,-0.231 0.406,0 0.754,0.062 1.042,0.183 0.288,0.122 0.548,0.322 0.779,0.603 0.231,0.279 0.452,0.647 0.661,1.105 0.209,0.457 0.441,1.021 0.695,1.688 l 2.324,6.157 z m -5.526,-7.424 -1.865,5.449 h 3.764 l -1.856,-5.449 h -0.043 z"
     id="path55"
     inkscape:connector-curvature="0"
     style="fill:#f5f5f5" /><path
     d="m 85.687713,565.3087 c 0,-0.267 0.054,-0.493 0.161,-0.684 0.107,-0.188 0.25,-0.343 0.428,-0.462 0.179,-0.118 0.386,-0.206 0.623,-0.264 0.237,-0.057 0.489,-0.084 0.755,-0.084 h 2.627 c 0.384,0 0.779,0.008 1.186,0.021 0.407,0.016 0.806,0.055 1.195,0.119 0.391,0.063 0.758,0.161 1.102,0.288 0.345,0.127 0.646,0.305 0.907,0.533 0.26,0.229 0.466,0.518 0.618,0.864 0.152,0.348 0.229,0.771 0.229,1.268 0,0.333 -0.057,0.654 -0.17,0.962 -0.113,0.308 -0.273,0.586 -0.483,0.835 -0.209,0.248 -0.457,0.459 -0.746,0.631 -0.287,0.173 -0.607,0.29 -0.957,0.353 v 0.034 c 0.424,0.062 0.807,0.181 1.148,0.353 0.342,0.173 0.632,0.389 0.868,0.647 0.237,0.261 0.421,0.561 0.552,0.897 0.13,0.339 0.194,0.703 0.194,1.093 0,0.431 -0.085,0.851 -0.254,1.26 -0.17,0.409 -0.43,0.771 -0.78,1.089 -0.35,0.316 -0.795,0.571 -1.334,0.769 -0.54,0.194 -1.18,0.292 -1.92,0.292 h -3.982 c -0.322,0 -0.605,-0.024 -0.848,-0.076 -0.244,-0.051 -0.448,-0.153 -0.615,-0.31 -0.166,-0.155 -0.292,-0.376 -0.377,-0.661 -0.084,-0.285 -0.127,-0.662 -0.127,-1.131 v -8.636 z m 2.992,0.406 v 3.365 h 1.211 c 0.373,0 0.719,-0.025 1.039,-0.077 0.318,-0.051 0.593,-0.142 0.821,-0.271 0.229,-0.13 0.408,-0.308 0.538,-0.529 0.13,-0.224 0.195,-0.508 0.195,-0.854 0,-0.345 -0.064,-0.622 -0.191,-0.835 -0.127,-0.211 -0.301,-0.377 -0.521,-0.494 -0.221,-0.119 -0.478,-0.199 -0.771,-0.242 -0.294,-0.042 -0.604,-0.062 -0.933,-0.062 l -1.388,-10e-4 0,0 z m 0,8.509 h 1.406 c 0.451,0 0.85,-0.021 1.195,-0.065 0.344,-0.047 0.633,-0.137 0.863,-0.271 0.232,-0.136 0.407,-0.322 0.525,-0.562 0.119,-0.24 0.179,-0.554 0.179,-0.938 0,-0.354 -0.067,-0.646 -0.204,-0.873 -0.135,-0.226 -0.327,-0.404 -0.576,-0.538 -0.248,-0.133 -0.547,-0.225 -0.898,-0.273 -0.35,-0.052 -0.739,-0.076 -1.169,-0.076 h -1.321 v 3.596 z"
     id="path57"
     inkscape:connector-curvature="0"
     style="fill:#f5f5f5" /><path
     d="m 97.100713,570.0707 c 0,-1.028 0.151,-1.948 0.454,-2.76 0.302,-0.812 0.725,-1.495 1.267,-2.056 0.542,-0.56 1.187997,-0.987 1.936997,-1.284 0.748,-0.297 1.569,-0.443 2.462,-0.443 0.706,0 1.32,0.044 1.843,0.132 0.523,0.088 0.956,0.208 1.301,0.359 0.345,0.151 0.603,0.333 0.771,0.542 0.17,0.209 0.254,0.437 0.254,0.679 0,0.164 -0.033,0.307 -0.102,0.429 -0.067,0.121 -0.156,0.223 -0.267,0.301 -0.111,0.079 -0.233,0.139 -0.369,0.175 -0.135,0.036 -0.271,0.056 -0.406,0.056 -0.079,0 -0.158,-10e-4 -0.237,-0.004 -0.079,-0.004 -0.155,-0.018 -0.229,-0.038 -0.215,-0.058 -0.42,-0.112 -0.615,-0.166 -0.194,-0.054 -0.387,-0.101 -0.576,-0.141 -0.189,-0.039 -0.378,-0.071 -0.567,-0.099 -0.189,-0.025 -0.386,-0.038 -0.589,-0.038 -0.424,0 -0.823,0.062 -1.199,0.191 -0.376,0.127 -0.702,0.352 -0.979,0.674 -0.277,0.32 -0.496,0.758 -0.657,1.309 -0.161,0.552 -0.241,1.253 -0.241,2.106 0,0.654 0.064,1.244 0.194,1.767 0.13,0.523 0.323,0.967 0.581,1.331 0.257,0.364 0.579,0.645 0.966,0.84 0.387,0.193 0.838,0.291 1.352,0.291 0.209,0 0.427,-0.021 0.652,-0.065 0.227,-0.047 0.458,-0.104 0.695,-0.175 0.237,-0.069 0.479,-0.15 0.725,-0.241 0.246,-0.091 0.49,-0.182 0.733,-0.271 0.073,-0.021 0.163,-0.033 0.271,-0.033 0.142,0 0.27,0.026 0.386,0.081 0.116,0.054 0.216,0.125 0.301,0.216 0.085,0.091 0.149,0.195 0.195,0.316 0.045,0.122 0.067,0.25 0.067,0.387 0,0.222 -0.072,0.423 -0.216,0.605 -0.145,0.185 -0.335,0.35 -0.572,0.495 -0.237,0.146 -0.51,0.274 -0.817,0.386 -0.309,0.11 -0.626,0.202 -0.954,0.275 -0.327,0.072 -0.653,0.129 -0.979,0.165 -0.325,0.036 -0.626,0.056 -0.902,0.056 -0.836,0 -1.616,-0.14 -2.339,-0.42 -0.723997,-0.278 -1.350997,-0.688 -1.881997,-1.229 -0.531,-0.54 -0.949,-1.203 -1.254,-1.99 -0.305,-0.792 -0.459,-1.694 -0.459,-2.711 z"
     id="path59"
     inkscape:connector-curvature="0"
     style="fill:#f5f5f5" /><circle
     cx="150.002"
     cy="569.97699"
     r="25.618999"
     id="circle61"
     sodipodi:cx="150.002"
     sodipodi:cy="569.97699"
     sodipodi:rx="25.618999"
     sodipodi:ry="25.618999"
     style="fill:#010101"
     transform="translate(0.0037136,-0.00329577)" /><path
     d="m 143.88471,573.5547 c 0.039,0.104 0.082,0.207 0.127,0.317 0.045,0.11 0.088,0.222 0.127,0.335 0.039,0.113 0.071,0.222 0.1,0.326 0.024,0.104 0.035,0.198 0.035,0.283 0,0.209 -0.035,0.395 -0.111,0.556 -0.076,0.161 -0.182,0.297 -0.311,0.407 -0.131,0.107 -0.279,0.192 -0.455,0.254 -0.172,0.06 -0.354,0.089 -0.545,0.089 -0.221,0 -0.408,-0.031 -0.566,-0.093 -0.158,-0.062 -0.301,-0.161 -0.424,-0.298 -0.125,-0.137 -0.238,-0.312 -0.346,-0.529 -0.104,-0.218 -0.217,-0.484 -0.334,-0.802 l -0.408,-1.075 h -4.795 l -0.348,1.075 c -0.104,0.321 -0.205,0.595 -0.312,0.812 -0.104,0.222 -0.221,0.396 -0.348,0.53 -0.127,0.133 -0.271,0.229 -0.436,0.288 -0.166,0.059 -0.355,0.089 -0.576,0.089 -0.191,0 -0.375,-0.029 -0.547,-0.089 -0.172,-0.062 -0.324,-0.146 -0.453,-0.255 -0.131,-0.109 -0.232,-0.245 -0.309,-0.406 -0.078,-0.161 -0.115,-0.347 -0.115,-0.556 0,-0.085 0.012,-0.181 0.037,-0.283 0.023,-0.104 0.059,-0.214 0.098,-0.326 0.041,-0.113 0.082,-0.226 0.127,-0.335 0.047,-0.11 0.088,-0.216 0.129,-0.317 l 2.279,-6.161 c 0.215,-0.575 0.418,-1.086 0.613,-1.528 0.193,-0.443 0.408,-0.817 0.645,-1.123 0.234,-0.306 0.504,-0.535 0.809,-0.69 0.308,-0.154 0.676,-0.231 1.111,-0.231 0.406,0 0.754,0.062 1.043,0.183 0.287,0.122 0.547,0.322 0.779,0.603 0.229,0.279 0.451,0.647 0.66,1.105 0.209,0.457 0.439,1.021 0.693,1.688 l 2.327,6.157 z m -5.526,-7.424 -1.864,5.449 h 3.764 l -1.854,-5.449 h -0.046 z"
     id="path63"
     inkscape:connector-curvature="0"
     style="fill:#f5f5f5" /><path
     d="m 145.68771,565.3087 c 0,-0.267 0.057,-0.493 0.162,-0.684 0.106,-0.188 0.25,-0.343 0.43,-0.462 0.178,-0.118 0.385,-0.206 0.623,-0.264 0.234,-0.057 0.486,-0.084 0.754,-0.084 h 2.627 c 0.385,0 0.777,0.008 1.186,0.021 0.408,0.016 0.807,0.055 1.195,0.119 0.391,0.063 0.758,0.161 1.102,0.288 0.346,0.127 0.646,0.305 0.908,0.533 0.26,0.229 0.465,0.518 0.617,0.864 0.152,0.348 0.229,0.771 0.229,1.268 0,0.333 -0.057,0.654 -0.17,0.962 -0.111,0.308 -0.271,0.586 -0.482,0.835 -0.209,0.248 -0.457,0.459 -0.746,0.631 -0.287,0.173 -0.607,0.29 -0.957,0.353 v 0.034 c 0.424,0.062 0.807,0.181 1.146,0.353 0.344,0.173 0.635,0.389 0.869,0.647 0.235,0.26 0.42,0.561 0.551,0.897 0.133,0.338 0.195,0.703 0.195,1.093 0,0.431 -0.086,0.851 -0.254,1.26 -0.17,0.409 -0.432,0.771 -0.781,1.089 -0.35,0.316 -0.795,0.571 -1.334,0.769 -0.539,0.194 -1.18,0.292 -1.92,0.292 h -3.98 c -0.322,0 -0.605,-0.024 -0.85,-0.076 -0.244,-0.051 -0.445,-0.153 -0.613,-0.31 -0.166,-0.155 -0.291,-0.376 -0.379,-0.661 -0.084,-0.285 -0.127,-0.662 -0.127,-1.131 v -8.636 l -10e-4,0 z m 2.992,0.406 v 3.365 h 1.211 c 0.373,0 0.721,-0.025 1.039,-0.077 0.317,-0.051 0.594,-0.142 0.821,-0.271 0.229,-0.13 0.407,-0.308 0.537,-0.529 0.132,-0.224 0.194,-0.508 0.194,-0.854 0,-0.345 -0.062,-0.622 -0.19,-0.835 -0.127,-0.211 -0.302,-0.377 -0.521,-0.494 -0.221,-0.119 -0.479,-0.199 -0.771,-0.242 -0.295,-0.042 -0.604,-0.062 -0.935,-0.062 l -1.385,-10e-4 0,0 z m 0,8.509 h 1.405 c 0.451,0 0.851,-0.021 1.194,-0.065 0.345,-0.047 0.634,-0.137 0.863,-0.271 0.232,-0.136 0.408,-0.322 0.525,-0.562 0.119,-0.24 0.18,-0.554 0.18,-0.938 0,-0.354 -0.068,-0.646 -0.205,-0.873 -0.135,-0.226 -0.326,-0.404 -0.576,-0.538 -0.248,-0.133 -0.547,-0.225 -0.896,-0.273 -0.352,-0.052 -0.738,-0.076 -1.169,-0.076 h -1.321 v 3.596 l 0,0 z"
     id="path65"
     inkscape:connector-curvature="0"
     style="fill:#f5f5f5" /><path
     d="m 157.10171,570.0707 c 0,-1.028 0.149,-1.948 0.453,-2.76 0.305,-0.812 0.727,-1.495 1.27,-2.056 0.541,-0.56 1.188,-0.987 1.936,-1.284 0.748,-0.297 1.57,-0.443 2.463,-0.443 0.705,0 1.32,0.044 1.842,0.132 0.523,0.088 0.957,0.208 1.301,0.359 0.347,0.151 0.604,0.333 0.771,0.542 0.17,0.209 0.254,0.437 0.254,0.679 0,0.164 -0.033,0.307 -0.102,0.429 -0.066,0.121 -0.156,0.223 -0.268,0.301 -0.11,0.079 -0.232,0.139 -0.367,0.175 -0.137,0.036 -0.271,0.056 -0.406,0.056 -0.08,0 -0.158,-10e-4 -0.238,-0.004 -0.078,-0.004 -0.154,-0.018 -0.229,-0.038 -0.217,-0.058 -0.42,-0.112 -0.615,-0.166 -0.193,-0.054 -0.387,-0.101 -0.576,-0.141 -0.189,-0.039 -0.377,-0.071 -0.566,-0.099 -0.188,-0.027 -0.387,-0.038 -0.59,-0.038 -0.424,0 -0.822,0.062 -1.199,0.191 -0.375,0.127 -0.701,0.352 -0.979,0.674 -0.277,0.32 -0.496,0.758 -0.656,1.309 -0.162,0.552 -0.242,1.253 -0.242,2.106 0,0.654 0.064,1.244 0.195,1.767 0.129,0.522 0.322,0.967 0.58,1.331 0.258,0.364 0.58,0.645 0.967,0.84 0.387,0.193 0.838,0.291 1.352,0.291 0.209,0 0.427,-0.021 0.652,-0.065 0.228,-0.047 0.457,-0.104 0.695,-0.175 0.236,-0.069 0.479,-0.15 0.725,-0.241 0.246,-0.091 0.49,-0.182 0.732,-0.271 0.074,-0.021 0.164,-0.033 0.271,-0.033 0.142,0 0.271,0.026 0.386,0.081 0.116,0.054 0.217,0.125 0.301,0.216 0.086,0.091 0.149,0.195 0.194,0.316 0.046,0.122 0.068,0.25 0.068,0.387 0,0.222 -0.072,0.423 -0.218,0.605 -0.146,0.184 -0.334,0.35 -0.571,0.495 -0.236,0.146 -0.511,0.274 -0.815,0.386 -0.31,0.11 -0.627,0.202 -0.955,0.275 -0.326,0.072 -0.652,0.129 -0.979,0.165 -0.322,0.036 -0.625,0.056 -0.9,0.056 -0.836,0 -1.615,-0.14 -2.338,-0.42 -0.727,-0.278 -1.354,-0.688 -1.885,-1.229 -0.529,-0.54 -0.947,-1.203 -1.254,-1.99 -0.308,-0.792 -0.46,-1.694 -0.46,-2.711 z"
     id="path67"
     inkscape:connector-curvature="0"
     style="fill:#f5f5f5" /><circle
     cx="210"
     cy="569.97498"
     r="25.618999"
     id="circle69"
     sodipodi:cx="210"
     sodipodi:cy="569.97498"
     sodipodi:rx="25.618999"
     sodipodi:ry="25.618999"
     style="fill:#43a748"
     transform="translate(0.0037136,-0.00329577)" /><path
     d="m 203.88371,573.5527 c 0.039,0.104 0.082,0.207 0.127,0.317 0.045,0.109 0.089,0.222 0.127,0.335 0.039,0.113 0.072,0.222 0.099,0.326 0.025,0.104 0.037,0.198 0.037,0.283 0,0.209 -0.037,0.395 -0.113,0.556 -0.076,0.161 -0.18,0.297 -0.311,0.407 -0.13,0.107 -0.279,0.192 -0.453,0.254 -0.172,0.06 -0.354,0.089 -0.547,0.089 -0.221,0 -0.41,-0.031 -0.566,-0.093 -0.158,-0.062 -0.301,-0.161 -0.424,-0.298 -0.125,-0.137 -0.238,-0.312 -0.344,-0.529 -0.104,-0.218 -0.218,-0.484 -0.336,-0.802 l -0.406,-1.075 h -4.797 l -0.348,1.075 c -0.104,0.321 -0.204,0.595 -0.311,0.812 -0.104,0.222 -0.222,0.396 -0.349,0.53 -0.127,0.133 -0.271,0.229 -0.437,0.288 -0.164,0.059 -0.355,0.089 -0.576,0.089 -0.191,0 -0.375,-0.029 -0.547,-0.089 -0.172,-0.062 -0.323,-0.146 -0.453,-0.255 -0.131,-0.109 -0.232,-0.245 -0.311,-0.406 -0.079,-0.161 -0.113,-0.347 -0.113,-0.556 0,-0.085 0.013,-0.181 0.037,-0.283 0.024,-0.104 0.06,-0.214 0.099,-0.326 0.04,-0.113 0.081,-0.226 0.127,-0.335 0.046,-0.11 0.088,-0.217 0.128,-0.317 l 2.279,-6.161 c 0.215,-0.575 0.418,-1.086 0.613,-1.529 0.194,-0.442 0.41,-0.816 0.646,-1.122 0.233,-0.307 0.504,-0.535 0.81,-0.69 0.306,-0.154 0.676,-0.231 1.11,-0.231 0.405,0 0.754,0.062 1.042,0.183 0.288,0.122 0.549,0.322 0.779,0.602 0.23,0.28 0.451,0.648 0.66,1.106 0.209,0.457 0.44,1.021 0.695,1.688 l 2.327,6.157 z m -5.526,-7.424 -1.865,5.449 h 3.766 l -1.855,-5.449 h -0.046 z"
     id="path71"
     inkscape:connector-curvature="0"
     style="fill:#f5f5f5" /><path
     d="m 205.68771,565.3067 c 0,-0.266 0.055,-0.492 0.16,-0.683 0.106,-0.188 0.25,-0.343 0.43,-0.462 0.178,-0.118 0.385,-0.206 0.621,-0.264 0.237,-0.057 0.489,-0.084 0.756,-0.084 h 2.627 c 0.385,0 0.779,0.008 1.187,0.021 0.407,0.016 0.806,0.055 1.194,0.119 0.392,0.063 0.759,0.161 1.103,0.288 0.345,0.127 0.646,0.305 0.907,0.533 0.26,0.229 0.466,0.518 0.617,0.864 0.152,0.348 0.229,0.771 0.229,1.268 0,0.333 -0.058,0.653 -0.17,0.962 -0.111,0.308 -0.271,0.586 -0.482,0.835 -0.209,0.248 -0.457,0.459 -0.746,0.631 -0.287,0.173 -0.606,0.29 -0.957,0.353 v 0.034 c 0.424,0.062 0.808,0.181 1.148,0.353 0.342,0.173 0.633,0.389 0.867,0.647 0.237,0.261 0.422,0.561 0.553,0.897 0.131,0.339 0.193,0.703 0.193,1.093 0,0.431 -0.085,0.851 -0.254,1.26 -0.171,0.409 -0.432,0.771 -0.78,1.089 -0.349,0.316 -0.795,0.571 -1.334,0.769 -0.54,0.193 -1.18,0.292 -1.92,0.292 h -3.981 c -0.322,0 -0.604,-0.025 -0.849,-0.076 -0.243,-0.051 -0.446,-0.153 -0.614,-0.31 -0.166,-0.155 -0.293,-0.376 -0.377,-0.661 -0.084,-0.285 -0.127,-0.662 -0.127,-1.131 v -8.637 l -10e-4,0 z m 2.991,0.406 v 3.365 h 1.212 c 0.372,0 0.719,-0.025 1.038,-0.077 0.318,-0.051 0.593,-0.142 0.82,-0.271 0.229,-0.131 0.407,-0.308 0.539,-0.529 0.129,-0.224 0.194,-0.508 0.194,-0.854 0,-0.345 -0.063,-0.623 -0.19,-0.835 -0.127,-0.211 -0.302,-0.377 -0.521,-0.495 -0.222,-0.118 -0.479,-0.198 -0.771,-0.241 -0.293,-0.042 -0.604,-0.062 -0.932,-0.062 l -1.389,-10e-4 0,0 z m 0,8.509 h 1.406 c 0.451,0 0.851,-0.021 1.194,-0.065 0.345,-0.047 0.634,-0.138 0.863,-0.271 0.23,-0.136 0.406,-0.322 0.523,-0.562 0.119,-0.24 0.18,-0.555 0.18,-0.938 0,-0.354 -0.066,-0.646 -0.203,-0.873 -0.136,-0.226 -0.328,-0.404 -0.576,-0.538 -0.248,-0.133 -0.547,-0.225 -0.897,-0.273 -0.351,-0.052 -0.739,-0.076 -1.17,-0.076 h -1.32 v 3.596 l 0,0 z"
     id="path73"
     inkscape:connector-curvature="0"
     style="fill:#f5f5f5" /><path
     d="m 217.09971,570.0677 c 0,-1.027 0.151,-1.947 0.454,-2.759 0.302,-0.812 0.726,-1.495 1.269,-2.056 0.541,-0.56 1.188,-0.987 1.937,-1.284 0.748,-0.297 1.569,-0.444 2.462,-0.444 0.706,0 1.32,0.045 1.844,0.133 0.522,0.088 0.955,0.208 1.301,0.358 0.345,0.152 0.604,0.334 0.771,0.543 0.17,0.209 0.254,0.437 0.254,0.679 0,0.164 -0.033,0.307 -0.103,0.429 -0.066,0.121 -0.155,0.222 -0.267,0.301 -0.11,0.079 -0.233,0.138 -0.369,0.175 -0.135,0.035 -0.271,0.056 -0.405,0.056 -0.08,0 -0.158,-10e-4 -0.237,-0.004 -0.079,-0.004 -0.154,-0.018 -0.229,-0.038 -0.215,-0.058 -0.42,-0.112 -0.615,-0.166 -0.193,-0.054 -0.387,-0.102 -0.575,-0.142 -0.188,-0.038 -0.378,-0.071 -0.567,-0.098 -0.188,-0.025 -0.386,-0.038 -0.588,-0.038 -0.425,0 -0.824,0.062 -1.199,0.19 -0.377,0.128 -0.703,0.353 -0.979,0.675 -0.276,0.32 -0.495,0.758 -0.655,1.309 -0.162,0.552 -0.242,1.253 -0.242,2.106 0,0.654 0.063,1.243 0.194,1.767 0.13,0.523 0.322,0.967 0.581,1.331 0.258,0.364 0.579,0.645 0.967,0.839 0.387,0.194 0.838,0.292 1.352,0.292 0.209,0 0.428,-0.021 0.652,-0.066 0.227,-0.046 0.457,-0.104 0.694,-0.174 0.235,-0.069 0.479,-0.15 0.726,-0.242 0.246,-0.09 0.489,-0.182 0.731,-0.271 0.074,-0.021 0.164,-0.033 0.271,-0.033 0.144,0 0.271,0.026 0.388,0.08 0.114,0.055 0.215,0.125 0.301,0.217 0.085,0.09 0.147,0.195 0.194,0.316 0.046,0.122 0.066,0.25 0.066,0.387 0,0.221 -0.072,0.423 -0.216,0.605 -0.146,0.184 -0.335,0.349 -0.571,0.495 -0.238,0.146 -0.511,0.274 -0.817,0.386 -0.31,0.11 -0.625,0.202 -0.953,0.274 -0.327,0.073 -0.653,0.13 -0.979,0.165 -0.324,0.037 -0.625,0.057 -0.9,0.057 -0.836,0 -1.617,-0.141 -2.34,-0.42 -0.725,-0.279 -1.352,-0.689 -1.883,-1.229 -0.529,-0.54 -0.947,-1.203 -1.254,-1.991 -0.309,-0.789 -0.466,-1.692 -0.466,-2.71 z"
     id="path75"
     inkscape:connector-curvature="0"
     style="fill:#f5f5f5" /><path
     d="m 210.00371,244.3667 c -14.148,0 -25.619,11.469 -25.619,25.619 0,14.148 11.471,25.62 25.619,25.62 14.148,0 25.616,-11.472 25.616,-25.62 0,-14.15 -11.466,-25.619 -25.616,-25.619 z m 3.568,31.434 c 0.912,-0.562 1.683,-1.331 2.244,-2.245 l 5.492,5.49 v -3.092 c 0,-0.877 0.711,-1.588 1.588,-1.588 0.875,0 1.586,0.711 1.586,1.588 v 8.512 h -1.582 c -0.002,0 -0.002,0 -0.004,0 -0.004,0 -0.006,0 -0.009,0 h -6.918 c -0.875,0 -1.586,-0.711 -1.586,-1.588 0,-0.877 0.711,-1.586 1.586,-1.586 h 3.091 l -5.488,-5.491 z m 10.911,-18.708 c 0,0.002 0,0.004 0,0.006 v 6.92 c 0,0.877 -0.711,1.588 -1.586,1.588 -0.877,0 -1.588,-0.711 -1.588,-1.588 v -3.09 l -5.49,5.488 c -0.562,-0.912 -1.332,-1.683 -2.244,-2.244 l 5.492,-5.49 h -3.097 c -0.875,0 -1.586,-0.712 -1.586,-1.588 0,-0.876 0.711,-1.588 1.586,-1.588 h 8.513 v 1.586 z m -20.295,16.463 c 0.562,0.914 1.334,1.683 2.244,2.245 l -5.486,5.491 h 3.092 c 0.875,0 1.588,0.711 1.588,1.586 0,0.877 -0.713,1.588 -1.588,1.588 h -8.514 v -8.512 c 0,-0.877 0.713,-1.588 1.59,-1.588 0.875,0 1.586,0.711 1.586,1.588 v 3.092 l 5.488,-5.49 z m 0,-7.139 -5.488,-5.49 v 3.09 c 0,0.879 -0.711,1.588 -1.586,1.588 -0.877,0 -1.59,-0.709 -1.59,-1.588 v -8.51 h 8.514 c 0.875,0 1.588,0.712 1.588,1.588 0,0.876 -0.713,1.588 -1.588,1.588 h -3.092 l 5.486,5.49 c -0.91,0.562 -1.683,1.33 -2.244,2.244 z"
     id="path77"
     inkscape:connector-curvature="0"
     style="fill:#43a748" /><path
     d="m 150.00571,244.3667 c -14.146,0 -25.619,11.469 -25.619,25.619 0,14.148 11.471,25.62 25.619,25.62 14.148,0 25.616,-11.472 25.616,-25.62 0,-14.15 -11.466,-25.619 -25.616,-25.619 z m 3.568,31.434 c 0.912,-0.562 1.683,-1.331 2.244,-2.245 l 5.492,5.49 v -3.092 c 0,-0.877 0.711,-1.588 1.588,-1.588 0.875,0 1.586,0.711 1.586,1.588 v 8.512 h -1.582 c -0.002,0 -0.002,0 -0.004,0 -0.004,0 -0.006,0 -0.008,0 h -6.919 c -0.875,0 -1.586,-0.711 -1.586,-1.588 0,-0.877 0.711,-1.586 1.586,-1.586 h 3.091 l -5.488,-5.491 z m 10.91,-18.708 c 0,0.002 0,0.004 0,0.006 v 6.92 c 0,0.877 -0.711,1.588 -1.586,1.588 -0.877,0 -1.588,-0.711 -1.588,-1.588 v -3.09 l -5.49,5.488 c -0.562,-0.912 -1.332,-1.683 -2.243,-2.244 l 5.491,-5.49 h -3.097 c -0.875,0 -1.586,-0.712 -1.586,-1.588 0,-0.876 0.711,-1.588 1.586,-1.588 h 8.513 v 1.586 z m -20.294,16.463 c 0.562,0.914 1.334,1.683 2.244,2.245 l -5.486,5.491 h 3.092 c 0.875,0 1.588,0.711 1.588,1.586 0,0.877 -0.713,1.588 -1.588,1.588 h -8.512 v -8.512 c 0,-0.877 0.711,-1.588 1.588,-1.588 0.875,0 1.586,0.711 1.586,1.588 v 3.092 l 5.488,-5.49 z m 0,-7.139 -5.488,-5.49 v 3.09 c 0,0.879 -0.711,1.588 -1.586,1.588 -0.877,0 -1.588,-0.709 -1.588,-1.588 v -8.51 h 8.512 c 0.875,0 1.588,0.712 1.588,1.588 0,0.876 -0.713,1.588 -1.588,1.588 h -3.092 l 5.486,5.49 c -0.91,0.562 -1.683,1.33 -2.244,2.244 z"
     id="path79"
     inkscape:connector-curvature="0"
     style="fill:#010101" /><path
     d="m 90.005713,244.3667 c -14.148,0 -25.619,11.469 -25.619,25.619 0,14.148 11.471,25.62 25.619,25.62 14.149997,0 25.616997,-11.472 25.616997,-25.62 0,-14.15 -11.467,-25.619 -25.616997,-25.619 z m 3.568,31.434 c 0.912,-0.562 1.682,-1.331 2.244,-2.245 l 5.491997,5.49 v -3.092 c 0,-0.877 0.711,-1.588 1.588,-1.588 0.875,0 1.586,0.711 1.586,1.588 v 8.512 h -1.582 c -0.002,0 -0.002,0 -0.004,0 -0.004,0 -0.006,0 -0.008,0 h -6.917997 c -0.875,0 -1.586,-0.711 -1.586,-1.588 0,-0.877 0.711,-1.586 1.586,-1.586 h 3.09 l -5.488,-5.491 z m 10.909997,-18.708 c 0,0.002 0,0.004 0,0.006 v 6.92 c 0,0.877 -0.711,1.588 -1.586,1.588 -0.877,0 -1.588,-0.711 -1.588,-1.588 v -3.09 l -5.489997,5.488 c -0.562,-0.912 -1.332,-1.683 -2.244,-2.244 l 5.492,-5.49 h -3.096 c -0.875,0 -1.586,-0.712 -1.586,-1.588 0,-0.876 0.711,-1.588 1.586,-1.588 h 8.511997 v 1.586 z m -20.294997,16.463 c 0.562,0.914 1.334,1.683 2.244,2.245 l -5.488,5.491 h 3.092 c 0.875,0 1.588,0.711 1.588,1.586 0,0.877 -0.713,1.588 -1.588,1.588 h -8.512 v -8.512 c 0,-0.877 0.711,-1.588 1.588,-1.588 0.875,0 1.586,0.711 1.586,1.588 v 3.092 l 5.49,-5.49 z m 0,-7.139 -5.49,-5.49 v 3.09 c 0,0.879 -0.711,1.588 -1.586,1.588 -0.877,0 -1.588,-0.709 -1.588,-1.588 v -8.51 h 8.512 c 0.875,0 1.588,0.712 1.588,1.588 0,0.876 -0.713,1.588 -1.588,1.588 h -3.092 l 5.488,5.49 c -0.91,0.562 -1.681,1.33 -2.244,2.244 z"
     id="path81"
     inkscape:connector-curvature="0"
     style="fill:#f09622" /><path
     d="m 30.003713,244.3667 c -14.148,0 -25.6189994,11.469 -25.6189994,25.619 0,14.148 11.4709994,25.62 25.6189994,25.62 14.15,0 25.617,-11.472 25.617,-25.62 0,-14.15 -11.466,-25.619 -25.617,-25.619 z m 3.569,31.434 c 0.912,-0.562 1.682,-1.331 2.244,-2.245 l 5.492,5.49 v -3.092 c 0,-0.877 0.711,-1.588 1.588,-1.588 0.875,0 1.586,0.711 1.586,1.588 v 8.512 h -1.582 c -0.002,0 -0.002,0 -0.004,0 -0.004,0 -0.006,0 -0.008,0 h -6.918 c -0.875,0 -1.586,-0.711 -1.586,-1.588 0,-0.877 0.711,-1.586 1.586,-1.586 h 3.09 l -5.488,-5.491 z m 10.91,-18.708 c 0,0.002 0,0.004 0,0.006 v 6.92 c 0,0.877 -0.711,1.588 -1.586,1.588 -0.877,0 -1.588,-0.711 -1.588,-1.588 v -3.09 l -5.49,5.488 c -0.562,-0.912 -1.332,-1.683 -2.244,-2.244 l 5.492,-5.49 h -3.096 c -0.875,0 -1.586,-0.712 -1.586,-1.588 0,-0.876 0.711,-1.588 1.586,-1.588 h 8.512 v 1.586 z m -20.295,16.463 c 0.562,0.914 1.334,1.683 2.244,2.245 l -5.488,5.491 h 3.092 c 0.875,0 1.588,0.711 1.588,1.586 0,0.877 -0.713,1.588 -1.588,1.588 h -8.512 v -8.512 c 0,-0.877 0.711,-1.588 1.588,-1.588 0.875,0 1.586,0.711 1.586,1.588 v 3.092 l 5.49,-5.49 z m 0,-7.139 -5.49,-5.49 v 3.09 c 0,0.879 -0.711,1.588 -1.586,1.588 -0.877,0 -1.588,-0.709 -1.588,-1.588 v -8.51 h 8.512 c 0.875,0 1.588,0.712 1.588,1.588 0,0.876 -0.713,1.588 -1.588,1.588 h -3.092 l 5.488,5.49 c -0.91,0.562 -1.682,1.33 -2.244,2.244 z"
     id="path83"
     inkscape:connector-curvature="0"
     style="fill:#ffffff" /><path
     d="m 210.00771,304.3757 c -14.146,0 -25.619,11.469 -25.619,25.618 0,14.147 11.473,25.621 25.619,25.621 14.148,0 25.616,-11.474 25.616,-25.621 0,-14.149 -11.466,-25.618 -25.616,-25.618 z m -4.02,39.564 c -1.053,0 -2.104,-0.4 -2.905,-1.204 -1.606,-1.606 -1.606,-4.212 0,-5.813 l 6.924,-6.923 -7.01,-7.012 c -1.604,-1.604 -1.604,-4.211 0,-5.813 1.608,-1.605 4.211,-1.605 5.813,0 l 12.823,12.823 -12.737,12.738 c -0.804,0.803 -1.858,1.204 -2.908,1.204 z"
     id="path85"
     inkscape:connector-curvature="0"
     style="fill:#43a748" /><path
     d="m 150.00771,304.3757 c -14.146,0 -25.619,11.469 -25.619,25.618 0,14.147 11.473,25.621 25.619,25.621 14.148,0 25.616,-11.474 25.616,-25.621 0,-14.149 -11.466,-25.618 -25.616,-25.618 z m -4.02,39.564 c -1.053,0 -2.104,-0.4 -2.905,-1.204 -1.606,-1.606 -1.606,-4.212 0,-5.813 l 6.924,-6.923 -7.01,-7.012 c -1.604,-1.604 -1.604,-4.211 0,-5.813 1.608,-1.605 4.211,-1.605 5.813,0 l 12.823,12.823 -12.737,12.738 c -0.804,0.803 -1.858,1.204 -2.908,1.204 z"
     id="path87"
     inkscape:connector-curvature="0"
     style="fill:#010101" /><path
     d="m 90.007713,304.3757 c -14.148,0 -25.619,11.469 -25.619,25.618 0,14.147 11.471,25.621 25.619,25.621 14.149997,0 25.616997,-11.474 25.616997,-25.621 0,-14.149 -11.467,-25.618 -25.616997,-25.618 z m -4.02,39.564 c -1.053,0 -2.105,-0.4 -2.906,-1.204 -1.607,-1.606 -1.607,-4.212 0,-5.813 l 6.924,-6.923 -7.01,-7.012 c -1.605,-1.604 -1.605,-4.211 0,-5.813 1.609,-1.605 4.211,-1.605 5.814,0 l 12.823997,12.823 -12.737997,12.738 c -0.804,0.803 -1.857,1.204 -2.908,1.204 z"
     id="path89"
     inkscape:connector-curvature="0"
     style="fill:#f09622" /><path
     d="m 30.005713,304.3757 c -14.148,0 -25.6189994,11.469 -25.6189994,25.618 0,14.147 11.4709994,25.621 25.6189994,25.621 14.15,0 25.617,-11.474 25.617,-25.621 0,-14.149 -11.466,-25.618 -25.617,-25.618 z m -4.019,39.564 c -1.053,0 -2.105,-0.4 -2.906,-1.204 -1.607,-1.606 -1.607,-4.212 0,-5.813 l 6.924,-6.923 -7.01,-7.012 c -1.605,-1.604 -1.605,-4.211 0,-5.813 1.609,-1.605 4.211,-1.605 5.814,0 l 12.824,12.823 -12.738,12.738 c -0.805,0.803 -1.858,1.204 -2.908,1.204 z"
     id="path91"
     inkscape:connector-curvature="0"
     style="fill:#ffffff" /><path
     d="m 210.00671,364.3737 c -14.147,0 -25.619,11.469 -25.619,25.618 0,14.147 11.472,25.621 25.619,25.621 14.149,0 25.617,-11.474 25.617,-25.621 0,-14.149 -11.468,-25.618 -25.617,-25.618 z m -5.844,37.432 -4.808,0.002 c -0.638,-0.002 -1.151,-0.517 -1.151,-1.152 v -4.809 c 0,-0.345 0.153,-0.648 0.393,-0.861 0.029,-0.035 0.054,-0.071 0.089,-0.108 l 13.76,-13.759 6.428,6.429 -13.758,13.759 c -0.21,0.299 -0.555,0.499 -0.953,0.499 z m 17.118,-16.67 -1.23,1.229 -6.429,-6.429 1.231,-1.229 c 0.703,-0.703 1.842,-0.703 2.547,0 l 3.881,3.881 c 0.703,0.703 0.703,1.845 0,2.548 z"
     id="path93"
     inkscape:connector-curvature="0"
     style="fill:#43a748" /><path
     d="m 199.26071,396.6057 v 3.32 c 0.002,0.441 0.356,0.797 0.798,0.797 h 3.319 c 0.03,0 0.06,-0.016 0.088,-0.018 l -4.187,-4.188 c -0.005,0.032 -0.018,0.059 -0.018,0.089 z"
     id="path95"
     inkscape:connector-curvature="0"
     style="fill:#43a748" /><path
     d="m 150.00771,364.3737 c -14.146,0 -25.619,11.469 -25.619,25.618 0,14.147 11.473,25.621 25.619,25.621 14.148,0 25.616,-11.474 25.616,-25.621 0,-14.149 -11.466,-25.618 -25.616,-25.618 z m -5.845,37.432 -4.808,0.002 c -0.637,-0.002 -1.151,-0.517 -1.151,-1.152 v -4.809 c 0,-0.345 0.153,-0.648 0.394,-0.861 0.028,-0.035 0.055,-0.071 0.088,-0.108 l 13.762,-13.759 6.428,6.429 -13.758,13.759 c -0.21,0.299 -0.557,0.499 -0.955,0.499 z m 17.12,-16.67 -1.231,1.229 -6.428,-6.429 1.231,-1.229 c 0.703,-0.703 1.842,-0.703 2.547,0 l 3.881,3.881 c 0.703,0.703 0.703,1.845 0,2.548 z"
     id="path97"
     inkscape:connector-curvature="0"
     style="fill:#010101" /><path
     d="m 139.26171,396.6057 v 3.32 c 0.002,0.441 0.355,0.797 0.797,0.797 h 3.32 c 0.029,0 0.059,-0.016 0.088,-0.018 l -4.188,-4.188 c -0.005,0.032 -0.017,0.059 -0.017,0.089 z"
     id="path99"
     inkscape:connector-curvature="0"
     style="fill:#010101" /><path
     d="m 90.006713,364.3737 c -14.148,0 -25.619,11.469 -25.619,25.618 0,14.147 11.471,25.621 25.619,25.621 14.149997,0 25.616997,-11.474 25.616997,-25.621 0,-14.149 -11.467,-25.618 -25.616997,-25.618 z m -5.844,37.432 -4.807,0.002 c -0.637,-0.002 -1.152,-0.517 -1.152,-1.152 v -4.809 c 0,-0.345 0.154,-0.648 0.393,-0.861 0.029,-0.035 0.053,-0.071 0.088,-0.108 l 13.76,-13.759 6.428,6.429 -13.758,13.759 c -0.208,0.299 -0.556,0.499 -0.952,0.499 z m 17.118997,-16.67 -1.232,1.229 -6.427997,-6.429 1.232,-1.229 c 0.703,-0.703 1.842,-0.703 2.547,0 l 3.880997,3.881 c 0.703,0.703 0.703,1.845 0,2.548 z"
     id="path101"
     inkscape:connector-curvature="0"
     style="fill:#f09622" /><path
     d="m 79.260713,396.6057 v 3.32 c 0.002,0.441 0.357,0.797 0.797,0.797 h 3.32 c 0.031,0 0.059,-0.016 0.088,-0.018 l -4.186,-4.188 c -0.008,0.032 -0.019,0.059 -0.019,0.089 z"
     id="path103"
     inkscape:connector-curvature="0"
     style="fill:#f09622" /><path
     d="m 30.004713,364.3737 c -14.148,0 -25.6189994,11.469 -25.6189994,25.618 0,14.147 11.4709994,25.621 25.6189994,25.621 14.15,0 25.617,-11.474 25.617,-25.621 0,-14.149 -11.466,-25.618 -25.617,-25.618 z m -5.844,37.432 -4.807,0.002 c -0.637,-0.002 -1.152,-0.517 -1.152,-1.152 v -4.809 c 0,-0.345 0.154,-0.648 0.393,-0.861 0.029,-0.035 0.053,-0.071 0.088,-0.108 l 13.76,-13.759 6.428,6.429 -13.758,13.759 c -0.207,0.299 -0.555,0.499 -0.952,0.499 z m 17.12,-16.67 -1.232,1.229 -6.428,-6.429 1.232,-1.229 c 0.703,-0.703 1.842,-0.703 2.547,0 l 3.881,3.881 c 0.703,0.703 0.703,1.845 0,2.548 z"
     id="path105"
     inkscape:connector-curvature="0"
     style="fill:#ffffff" /><path
     d="m 19.258713,396.6057 v 3.32 c 0.002,0.441 0.357,0.797 0.797,0.797 h 3.32 c 0.031,0 0.059,-0.016 0.088,-0.018 l -4.186,-4.188 c -0.007,0.032 -0.019,0.059 -0.019,0.089 z"
     id="path107"
     inkscape:connector-curvature="0"
     style="fill:#ffffff" /><path
     d="m 210.00771,424.3717 c -14.146,0 -25.619,11.469 -25.619,25.619 0,14.146 11.473,25.62 25.619,25.62 14.148,0 25.616,-11.475 25.616,-25.62 0,-14.15 -11.466,-25.619 -25.616,-25.619 z m 12.769,37.375 c -1.25,1.252 -2.912,1.938 -4.683,1.938 -1.769,0 -3.433,-0.686 -4.683,-1.938 -1.771,-1.773 -2.328,-4.312 -1.664,-6.562 l -1.838,-1.838 -1.649,1.652 c 0.664,2.252 0.106,4.789 -1.666,6.563 -1.25,1.25 -2.911,1.938 -4.683,1.938 -1.768,0 -3.43,-0.688 -4.68,-1.938 -2.582,-2.582 -2.582,-6.782 0,-9.362 1.248,-1.252 2.912,-1.939 4.68,-1.939 0.648,0 1.281,0.095 1.886,0.271 l 1.647,-1.65 0.834,-0.83 10.826,-10.83 c 1.233,-1.229 3.231,-1.229 4.465,0 1.231,1.234 1.231,3.232 0,4.466 l -7.195,7.194 1.837,1.836 c 0.604,-0.178 1.235,-0.271 1.883,-0.271 1.771,0 3.433,0.688 4.683,1.938 2.584,2.581 2.584,6.78 0,9.362 z m -14.246,-18.711 -4.463,4.465 -5.683,-5.68 c -1.229,-1.232 -1.229,-3.23 0,-4.466 1.231,-1.231 3.231,-1.231 4.466,0 l 5.68,5.681 z"
     id="path109"
     inkscape:connector-curvature="0"
     style="fill:#43a748" /><circle
     cx="209.907"
     cy="448.88501"
     r="1.459"
     id="circle111"
     sodipodi:cx="209.907"
     sodipodi:cy="448.88501"
     sodipodi:rx="1.459"
     sodipodi:ry="1.459"
     style="fill:#43a748"
     transform="translate(0.0037136,-0.00329577)" /><path
     d="m 201.91271,454.2037 c -0.586,0 -1.14,0.19 -1.599,0.535 -0.102,0.075 -0.201,0.157 -0.293,0.248 -1.043,1.043 -1.043,2.741 0,3.782 0.506,0.506 1.178,0.782 1.892,0.782 0.716,0 1.388,-0.278 1.892,-0.782 0.094,-0.093 0.174,-0.192 0.25,-0.291 0.781,-1.05 0.701,-2.541 -0.25,-3.491 -0.504,-0.504 -1.176,-0.783 -1.892,-0.783 z"
     id="path113"
     inkscape:connector-curvature="0"
     style="fill:#43a748" /><path
     d="m 219.52371,454.8057 c -0.422,-0.268 -0.91,-0.416 -1.428,-0.416 -0.713,0 -1.385,0.279 -1.892,0.783 -0.899,0.902 -1.021,2.285 -0.369,3.318 0.104,0.166 0.228,0.321 0.369,0.465 0.506,0.504 1.179,0.783 1.892,0.783 0.715,0 1.389,-0.279 1.893,-0.783 1.045,-1.043 1.045,-2.74 0,-3.783 -0.139,-0.139 -0.299,-0.262 -0.465,-0.367 z"
     id="path115"
     inkscape:connector-curvature="0"
     style="fill:#43a748" /><path
     d="m 150.00571,424.3717 c -14.146,0 -25.619,11.469 -25.619,25.619 0,14.146 11.471,25.62 25.619,25.62 14.148,0 25.616,-11.475 25.616,-25.62 0,-14.15 -11.466,-25.619 -25.616,-25.619 z m 12.769,37.375 c -1.25,1.252 -2.912,1.938 -4.683,1.938 -1.769,0 -3.433,-0.686 -4.683,-1.938 -1.772,-1.773 -2.328,-4.312 -1.664,-6.562 l -1.838,-1.838 -1.649,1.652 c 0.664,2.252 0.106,4.789 -1.666,6.563 -1.25,1.25 -2.912,1.938 -4.683,1.938 -1.768,0 -3.43,-0.688 -4.68,-1.938 -2.582,-2.582 -2.582,-6.782 0,-9.362 1.248,-1.252 2.912,-1.939 4.68,-1.939 0.648,0 1.281,0.095 1.886,0.271 l 1.647,-1.65 0.834,-0.83 10.826,-10.83 c 1.233,-1.229 3.231,-1.229 4.465,0 1.231,1.234 1.231,3.232 0,4.466 l -7.195,7.194 1.836,1.836 c 0.604,-0.178 1.236,-0.271 1.884,-0.271 1.771,0 3.433,0.688 4.683,1.938 2.584,2.581 2.584,6.78 0,9.362 z m -14.246,-18.711 -4.463,4.465 -5.683,-5.68 c -1.229,-1.232 -1.229,-3.23 0,-4.466 1.231,-1.231 3.231,-1.231 4.466,0 l 5.68,5.681 z"
     id="path117"
     inkscape:connector-curvature="0"
     style="fill:#010101" /><circle
     cx="149.90401"
     cy="448.88501"
     r="1.459"
     id="circle119"
     sodipodi:cx="149.90401"
     sodipodi:cy="448.88501"
     sodipodi:rx="1.459"
     sodipodi:ry="1.459"
     style="fill:#010101"
     transform="translate(0.0037136,-0.00329577)" /><path
     d="m 141.91071,454.2037 c -0.587,0 -1.14,0.19 -1.599,0.535 -0.102,0.075 -0.201,0.157 -0.293,0.248 -1.043,1.043 -1.043,2.741 0,3.782 0.506,0.506 1.178,0.782 1.892,0.782 0.715,0 1.388,-0.278 1.892,-0.782 0.094,-0.093 0.174,-0.192 0.25,-0.291 0.78,-1.05 0.701,-2.541 -0.25,-3.491 -0.504,-0.504 -1.177,-0.783 -1.892,-0.783 z"
     id="path121"
     inkscape:connector-curvature="0"
     style="fill:#010101" /><path
     d="m 159.52171,454.8057 c -0.422,-0.268 -0.91,-0.416 -1.428,-0.416 -0.713,0 -1.386,0.279 -1.892,0.783 -0.899,0.902 -1.021,2.285 -0.369,3.318 0.104,0.166 0.228,0.321 0.369,0.465 0.506,0.504 1.179,0.783 1.892,0.783 0.715,0 1.387,-0.279 1.893,-0.783 1.045,-1.043 1.045,-2.74 0,-3.783 -0.139,-0.139 -0.299,-0.262 -0.465,-0.367 z"
     id="path123"
     inkscape:connector-curvature="0"
     style="fill:#010101" /><path
     d="m 90.006713,424.3717 c -14.148,0 -25.619,11.469 -25.619,25.619 0,14.146 11.471,25.62 25.619,25.62 14.149997,0 25.616997,-11.475 25.616997,-25.62 0,-14.15 -11.467,-25.619 -25.616997,-25.619 z m 12.768997,37.375 c -1.25,1.252 -2.911997,1.938 -4.681997,1.938 -1.768,0 -3.432,-0.686 -4.682,-1.938 -1.773,-1.773 -2.328,-4.312 -1.664,-6.562 l -1.838,-1.838 -1.65,1.652 c 0.664,2.252 0.107,4.789 -1.666,6.563 -1.25,1.25 -2.912,1.938 -4.682,1.938 -1.768,0 -3.43,-0.688 -4.68,-1.938 -2.582,-2.582 -2.582,-6.782 0,-9.362 1.248,-1.252 2.912,-1.939 4.68,-1.939 0.648,0 1.281,0.095 1.885,0.271 l 1.648,-1.65 0.834,-0.83 10.826,-10.83 c 1.234,-1.229 3.231997,-1.229 4.464997,0 1.232,1.234 1.232,3.232 0,4.466 l -7.194997,7.194 1.836,1.836 c 0.604,-0.178 1.236,-0.271 1.883,-0.271 1.77,0 3.431997,0.688 4.681997,1.938 2.584,2.581 2.584,6.78 0,9.362 z m -14.245997,-18.711 -4.463,4.465 -5.682,-5.68 c -1.23,-1.232 -1.23,-3.23 0,-4.466 1.232,-1.231 3.232,-1.231 4.465,0 l 5.68,5.681 z"
     id="path125"
     inkscape:connector-curvature="0"
     style="fill:#f09622" /><circle
     cx="89.906998"
     cy="448.88501"
     r="1.459"
     id="circle127"
     sodipodi:cx="89.906998"
     sodipodi:cy="448.88501"
     sodipodi:rx="1.459"
     sodipodi:ry="1.459"
     style="fill:#f09622"
     transform="translate(0.0037136,-0.00329577)" /><path
     d="m 81.912713,454.2037 c -0.586,0 -1.139,0.19 -1.598,0.535 -0.102,0.075 -0.201,0.157 -0.293,0.248 -1.043,1.043 -1.043,2.741 0,3.782 0.506,0.506 1.178,0.782 1.891,0.782 0.715,0 1.387,-0.278 1.891,-0.782 0.094,-0.093 0.174,-0.192 0.25,-0.291 0.781,-1.05 0.701,-2.541 -0.25,-3.491 -0.504,-0.504 -1.176,-0.783 -1.891,-0.783 z"
     id="path129"
     inkscape:connector-curvature="0"
     style="fill:#f09622" /><path
     d="m 99.521713,454.8057 c -0.422,-0.268 -0.912,-0.416 -1.428,-0.416 -0.713,0 -1.385,0.279 -1.891,0.783 -0.9,0.902 -1.021,2.285 -0.369,3.318 0.104,0.166 0.227,0.321 0.369,0.465 0.506,0.504 1.178,0.783 1.891,0.783 0.715,0 1.387,-0.279 1.891,-0.783 1.044997,-1.043 1.044997,-2.74 0,-3.783 -0.137,-0.139 -0.297,-0.262 -0.463,-0.367 z"
     id="path131"
     inkscape:connector-curvature="0"
     style="fill:#f09622" /><path
     d="m 30.005713,424.3717 c -14.148,0 -25.6189994,11.469 -25.6189994,25.619 0,14.146 11.4709994,25.62 25.6189994,25.62 14.15,0 25.617,-11.475 25.617,-25.62 0,-14.15 -11.466,-25.619 -25.617,-25.619 z m 12.77,37.375 c -1.25,1.252 -2.912,1.938 -4.682,1.938 -1.768,0 -3.432,-0.686 -4.682,-1.938 -1.773,-1.773 -2.328,-4.312 -1.664,-6.562 l -1.838,-1.838 -1.65,1.652 c 0.664,2.252 0.107,4.789 -1.666,6.563 -1.25,1.25 -2.912,1.938 -4.682,1.938 -1.768,0 -3.43,-0.688 -4.68,-1.938 -2.582,-2.582 -2.582,-6.782 0,-9.362 1.248,-1.252 2.912,-1.939 4.68,-1.939 0.648,0 1.281,0.095 1.885,0.271 l 1.648,-1.65 0.834,-0.83 10.826,-10.83 c 1.234,-1.229 3.232,-1.229 4.465,0 1.232,1.234 1.232,3.232 0,4.466 l -7.195,7.194 1.836,1.836 c 0.604,-0.178 1.236,-0.271 1.883,-0.271 1.77,0 3.432,0.688 4.682,1.938 2.584,2.581 2.584,6.78 0,9.362 z m -14.246,-18.711 -4.463,4.465 -5.682,-5.68 c -1.23,-1.232 -1.23,-3.23 0,-4.466 1.232,-1.231 3.232,-1.231 4.465,0 l 5.68,5.681 z"
     id="path133"
     inkscape:connector-curvature="0"
     style="fill:#ffffff" /><circle
     cx="29.906"
     cy="448.88501"
     r="1.459"
     id="circle135"
     sodipodi:cx="29.906"
     sodipodi:cy="448.88501"
     sodipodi:rx="1.459"
     sodipodi:ry="1.459"
     style="fill:#ffffff"
     transform="translate(0.0037136,-0.00329577)" /><path
     d="m 21.911713,454.2037 c -0.586,0 -1.139,0.19 -1.598,0.535 -0.102,0.075 -0.201,0.157 -0.293,0.248 -1.043,1.043 -1.043,2.741 0,3.782 0.506,0.506 1.178,0.782 1.891,0.782 0.715,0 1.387,-0.278 1.891,-0.782 0.094,-0.093 0.174,-0.192 0.25,-0.291 0.781,-1.05 0.701,-2.541 -0.25,-3.491 -0.504,-0.504 -1.176,-0.783 -1.891,-0.783 z"
     id="path137"
     inkscape:connector-curvature="0"
     style="fill:#ffffff" /><path
     d="m 39.521713,454.8057 c -0.422,-0.268 -0.912,-0.416 -1.428,-0.416 -0.713,0 -1.385,0.279 -1.891,0.783 -0.9,0.902 -1.021,2.285 -0.369,3.318 0.104,0.166 0.227,0.321 0.369,0.465 0.506,0.504 1.178,0.783 1.891,0.783 0.715,0 1.387,-0.279 1.891,-0.783 1.045,-1.043 1.045,-2.74 0,-3.783 -0.137,-0.139 -0.297,-0.262 -0.463,-0.367 z"
     id="path139"
     inkscape:connector-curvature="0"
     style="fill:#ffffff" /><rect
     style="fill:none"
     y="706.79761"
     x="-4.8479829"
     width="60"
     height="60"
     id="rect6" /><rect
     style="fill:none"
     y="706.79761"
     x="55.15202"
     width="60"
     height="60"
     id="rect8" /><rect
     style="fill:none"
     y="706.79761"
     x="115.15202"
     width="60"
     height="60"
     id="rect10" /><rect
     style="fill:none"
     y="706.79761"
     x="175.15201"
     width="60"
     height="60"
     id="rect12" /><path
     style="fill:#43a748"
     inkscape:connector-curvature="0"
     d="m 210.00137,604.3553 c -14.14911,0 -25.61948,11.47035 -25.61948,25.61948 0,14.14913 11.47037,25.61948 25.61948,25.61948 14.14912,0 25.61947,-11.47035 25.61947,-25.61948 0,-14.14913 -11.47035,-25.61948 -25.61947,-25.61948 z m 7.53212,35.7361 c 0,2.46665 -2.00447,4.47213 -4.46905,4.47213 h -12.51666 c -2.46459,0 -4.47213,-2.00548 -4.47213,-4.47213 v -20.23427 c 0,-2.46562 2.00754,-4.4711 4.47213,-4.4711 h 12.51666 c 2.46458,0 4.46905,2.00548 4.46905,4.4711 v 2.98621 c 0,1.44494 -1.17235,2.61728 -2.61625,2.61728 -1.44597,0 -2.61729,-1.17234 -2.61729,-2.61728 v -2.22377 h -10.99076 v 18.71042 h 10.99178 v -2.22377 c 0,-1.44494 1.17133,-2.61728 2.61729,-2.61728 1.44391,0 2.61626,1.17234 2.61626,2.61728 v 2.98518 z m 11.87207,-8.49747 -6.58626,6.58523 c -0.44782,0.44885 -1.03399,0.67124 -1.61915,0.67124 -0.58617,0 -1.17235,-0.22341 -1.61915,-0.67124 -0.89361,-0.89361 -0.89361,-2.34366 0,-3.23727 l 2.67775,-2.67775 h -12.88557 c -1.26356,0 -2.28731,-1.02478 -2.28731,-2.28833 0,-1.26459 1.02375,-2.29039 2.28731,-2.29039 h 12.88557 L 219.581,625.0087 c -0.89258,-0.89361 -0.89258,-2.34367 0,-3.23728 0.89464,-0.89361 2.34367,-0.89361 3.2383,0 l 6.58626,6.58626 c 0.89361,0.89156 0.89361,2.34264 0,3.23625 z"
     id="path14" /><path
     style="fill:#f09622"
     inkscape:connector-curvature="0"
     d="m 90.004147,604.35513 c -14.14786,0 -25.617187,11.46933 -25.617187,25.61719 0,14.14786 11.469327,25.61719 25.617187,25.61719 14.147863,0 25.617193,-11.46933 25.617193,-25.61719 0,-14.14786 -11.46933,-25.61719 -25.617193,-25.61719 z m 7.531454,35.7329 c 0,2.46643 -2.004289,4.47174 -4.468663,4.47174 H 80.551405 c -2.464373,0 -4.471736,-2.00531 -4.471736,-4.47174 v -20.23245 c 0,-2.4654 2.007363,-4.47071 4.471736,-4.47071 h 12.515533 c 2.464374,0 4.468663,2.00531 4.468663,4.47071 v 2.98594 c 0,1.44481 -1.172243,2.61705 -2.616028,2.61705 -1.445834,0 -2.617052,-1.17224 -2.617052,-2.61705 v -2.22357 H 81.312748 v 18.70874 h 10.990798 v -2.22357 c 0,-1.44481 1.171218,-2.61705 2.617052,-2.61705 1.443784,0 2.616027,1.17224 2.616027,2.61705 v 2.98491 z m 11.871009,-8.4967 -6.58567,6.58463 c -0.44779,0.44882 -1.03391,0.67118 -1.61901,0.67118 -0.58613,0 -1.17225,-0.22338 -1.619009,-0.67118 -0.893522,-0.89352 -0.893522,-2.34345 0,-3.23698 l 2.677509,-2.67751 H 89.376014 c -1.26344,0 -2.287103,-1.02469 -2.287103,-2.28813 0,-1.26446 1.023663,-2.29017 2.287103,-2.29017 h 12.884416 l -2.677509,-2.67648 c -0.892498,-0.89353 -0.892498,-2.34346 0,-3.23699 0.894559,-0.89353 2.343469,-0.89353 3.238019,0 l 6.58567,6.58567 c 0.89353,0.89147 0.89353,2.34243 0,3.23596 z"
     id="path16" /><path
     style="fill:#010101"
     inkscape:connector-curvature="0"
     d="m 150.01115,604.35835 c -14.14458,0 -25.60939,11.46584 -25.60939,25.60939 0,14.14355 11.46481,25.60939 25.60939,25.60939 14.14355,0 25.60836,-11.46584 25.60836,-25.60939 0,-14.14355 -11.46481,-25.60939 -25.60836,-25.60939 z m 7.52916,35.72202 c 0,2.46568 -2.00368,4.47038 -4.4673,4.47038 h -12.51173 c -2.46362,0 -4.47037,-2.0047 -4.47037,-4.47038 v -20.22629 c 0,-2.46465 2.00675,-4.46935 4.47037,-4.46935 h 12.51173 c 2.46362,0 4.4673,2.0047 4.4673,4.46935 v 2.98503 c 0,1.44437 -1.17189,2.61626 -2.61523,2.61626 -1.4454,0 -2.61626,-1.17189 -2.61626,-2.61626 v -2.22289 h -10.98745 v 18.70304 h 10.98745 v -2.22289 c 0,-1.44437 1.17086,-2.61626 2.61626,-2.61626 1.44334,0 2.61523,1.17189 2.61523,2.61626 v 2.984 z m 11.86739,-8.49412 -6.58366,6.58264 c -0.44766,0.44868 -1.0336,0.67097 -1.61852,0.67097 -0.58594,0 -1.17188,-0.22332 -1.61851,-0.67097 -0.89326,-0.89326 -0.89326,-2.34275 0,-3.236 l 2.67669,-2.6767 h -12.88049 c -1.26306,0 -2.28641,-1.02437 -2.28641,-2.28743 0,-1.26407 1.02335,-2.28947 2.28641,-2.28947 h 12.88049 l -2.67669,-2.67567 c -0.89223,-0.89326 -0.89223,-2.34275 0,-3.23601 0.89428,-0.89325 2.34275,-0.89325 3.23703,0 l 6.58366,6.58367 c 0.89325,0.8912 0.89325,2.34172 0,3.23497 z"
     id="path18" /><path
     style="fill:#ffffff"
     inkscape:connector-curvature="0"
     d="m 30.006415,604.35609 c -14.152565,0 -25.6238492,11.47231 -25.6238492,25.62385 0,14.15155 11.4712842,25.62386 25.6238492,25.62386 14.151539,0 25.622824,-11.47231 25.622824,-25.62386 0,-14.15154 -11.471285,-25.62385 -25.622824,-25.62385 z m 7.533411,35.74219 c 0,2.46707 -2.00481,4.47291 -4.469825,4.47291 H 20.551214 c -2.465014,0 -4.472899,-2.00584 -4.472899,-4.47291 v -20.2377 c 0,-2.46604 2.007885,-4.47189 4.472899,-4.47189 h 12.518787 c 2.465015,0 4.469825,2.00585 4.469825,4.47189 v 2.9867 c 0,1.44519 -1.172547,2.61774 -2.616708,2.61774 -1.44621,0 -2.617732,-1.17255 -2.617732,-2.61774 v -2.22415 H 21.31173 v 18.71362 h 10.993656 v -2.22415 c 0,-1.44519 1.171522,-2.61773 2.617732,-2.61773 1.444161,0 2.616708,1.17254 2.616708,2.61773 v 2.98568 z m 5.286713,-1.91256 c -0.447906,0.44894 -1.034179,0.67135 -1.619428,0.67135 -0.586273,0 -1.172547,-0.22344 -1.619427,-0.67135 -0.89376,-0.89376 -0.89376,-2.34407 0,-3.23782 l 2.678205,-2.67821 H 29.378118 c -1.263769,0 -2.287698,-1.02496 -2.287698,-2.28872 0,-1.26479 1.023929,-2.29078 2.287698,-2.29078 h 12.887771 l -2.678205,-2.67718 c -0.892735,-0.89376 -0.892735,-2.34406 0,-3.23782 0.894785,-0.89376 2.34407,-0.89376 3.238855,0 l 6.587379,6.58738 c 0.89376,0.89375 0.89376,2.34509 0,3.23885 l -6.587379,6.5843 z"
     id="path20" /><g
     id="g3111"
     transform="matrix(1.0246875,0,0,1.0246875,-182.50177,193.37521)"><circle
       transform="translate(353.05444,454.63826)"
       id="circle11"
       r="25"
       cy="30"
       cx="30"
       sodipodi:cx="30"
       sodipodi:cy="30"
       sodipodi:rx="25"
       sodipodi:ry="25"
       style="fill:#43a748"
       d="M 55,30 C 55,43.807119 43.807119,55 30,55 16.192881,55 5,43.807119 5,30 5,16.192881 16.192881,5 30,5 43.807119,5 55,16.192881 55,30 z" /><path
       id="path17-7"
       d="m 394.82244,497.67226 c -1.79,1.871 -4.202,2.934 -6.792,2.991 -0.073,0.001 -0.146,0.002 -0.22,0.002 -2.509,0 -4.88,-0.95 -6.699,-2.69 l -11.848,-11.335 c -0.698,-0.668 -0.723,-1.777 -0.055,-2.475 0.669,-0.699 1.777,-0.722 2.475,-0.055 l 11.848,11.335 c 1.196,1.145 2.775,1.76 4.422,1.719 1.654,-0.037 3.196,-0.715 4.34,-1.912 1.146,-1.195 1.755,-2.766 1.719,-4.42 -0.037,-1.654 -0.716,-3.197 -1.913,-4.343 l -14.007,-13.398 c -1.411,-1.352 -3.662,-1.304 -5.017,0.111 -1.352,1.412 -1.302,3.662 0.111,5.015 l 10.793,10.327 c 0.174,0.166 0.396,0.291 0.639,0.248 0.239,-0.006 0.462,-0.104 0.627,-0.277 0.167,-0.174 0.255,-0.4 0.25,-0.639 -0.006,-0.238 -0.104,-0.46 -0.276,-0.626 -0.036,-0.033 -0.071,-0.07 -0.104,-0.107 l -8.527,-8.159 c -0.698,-0.669 -0.723,-1.776 -0.055,-2.475 0.668,-0.699 1.777,-0.722 2.475,-0.055 l 8.634,8.262 c 0.045,0.044 0.088,0.089 0.128,0.137 0.767,0.795 1.199,1.834 1.225,2.945 0.026,1.174 -0.407,2.289 -1.221,3.137 -0.811,0.848 -1.903,1.33 -3.077,1.357 -1.165,0.006 -2.288,-0.406 -3.137,-1.219 l -10.793,-10.327 c -2.808,-2.688 -2.906,-7.157 -0.22,-9.965 2.69,-2.807 7.159,-2.904 9.965,-0.22 l 14.006,13.399 c 1.872,1.792 2.935,4.204 2.992,6.793 0.057,2.589 -0.897,5.048 -2.688,6.919 z"
       inkscape:connector-curvature="0"
       style="fill:#ffffff" /></g><g
     id="g3107"
     transform="matrix(1.0247487,0,0,1.0247487,-2.7124938,-17.528526)"><circle
       transform="translate(0.47831651,660.41896)"
       id="circle13"
       r="25"
       cy="30"
       cx="90"
       sodipodi:cx="90"
       sodipodi:cy="30"
       sodipodi:rx="25"
       sodipodi:ry="25"
       style="fill:#f09622"
       d="M 115,30 C 115,43.807119 103.80712,55 90,55 76.192881,55 65,43.807119 65,30 65,16.192881 76.192881,5 90,5 c 13.80712,0 25,11.192881 25,25 z" /><path
       id="path19-5"
       d="m 102.24632,703.45296 c -1.79,1.871 -4.202003,2.934 -6.792003,2.991 -0.073,0.001 -0.146,0.002 -0.22,0.002 -2.509,0 -4.88,-0.95 -6.699,-2.69 l -11.848,-11.335 c -0.698,-0.668 -0.723,-1.777 -0.055,-2.475 0.669,-0.699 1.777,-0.722 2.475,-0.055 l 11.848,11.335 c 1.196,1.145 2.775,1.76 4.422,1.719 1.654,-0.037 3.196,-0.715 4.34,-1.912 1.146003,-1.195 1.755003,-2.766 1.719003,-4.42 -0.037,-1.654 -0.716,-3.197 -1.913003,-4.343 l -14.006,-13.398 c -1.411,-1.352 -3.662,-1.304 -5.017,0.111 -1.352,1.412 -1.302,3.662 0.111,5.015 l 10.793,10.327 c 0.174,0.166 0.396,0.291 0.639,0.248 0.239,-0.006 0.462,-0.104 0.627,-0.277 0.167,-0.174 0.255,-0.4 0.25,-0.639 -0.006,-0.238 -0.104,-0.46 -0.276,-0.626 -0.036,-0.033 -0.071,-0.07 -0.104,-0.107 l -8.527,-8.159 c -0.698,-0.669 -0.723,-1.776 -0.055,-2.475 0.668,-0.699 1.777,-0.722 2.475,-0.055 l 8.634,8.262 c 0.045,0.044 0.088,0.089 0.128,0.137 0.767,0.795 1.199,1.834 1.225,2.945 0.026,1.174 -0.407,2.289 -1.221,3.137 -0.811,0.848 -1.903,1.33 -3.077,1.357 -1.165,0.006 -2.288,-0.406 -3.137,-1.219 l -10.794,-10.327 c -2.808,-2.688 -2.906,-7.157 -0.22,-9.965 2.69,-2.807 7.159,-2.904 9.965,-0.22 l 14.006003,13.399 c 1.872,1.792 2.935,4.204 2.992,6.793 0.057,2.589 -0.897,5.048 -2.688,6.919 z"
       inkscape:connector-curvature="0"
       style="fill:#ffffff" /></g><g
     id="g3119"
     transform="matrix(1.0246875,0,0,1.0246875,-305.32531,211.47797)"><circle
       transform="translate(294.36457,436.96059)"
       id="circle15"
       r="25"
       cy="30"
       cx="150"
       sodipodi:cx="150"
       sodipodi:cy="30"
       sodipodi:rx="25"
       sodipodi:ry="25"
       style="fill:#010101"
       d="m 175,30 c 0,13.807119 -11.19288,25 -25,25 -13.80712,0 -25,-11.192881 -25,-25 0,-13.807119 11.19288,-25 25,-25 13.80712,0 25,11.192881 25,25 z" /><path
       id="path21-8"
       d="m 456.13257,479.99459 c -1.789,1.871 -4.201,2.934 -6.791,2.991 -0.074,10e-4 -0.146,0.002 -0.221,0.002 -2.508,0 -4.879,-0.95 -6.699,-2.69 l -11.848,-11.335 c -0.697,-0.668 -0.723,-1.777 -0.055,-2.475 0.67,-0.699 1.777,-0.722 2.475,-0.055 l 11.848,11.335 c 1.197,1.145 2.775,1.76 4.422,1.719 1.654,-0.037 3.197,-0.715 4.34,-1.912 1.146,-1.195 1.756,-2.766 1.719,-4.42 -0.037,-1.654 -0.715,-3.197 -1.912,-4.343 l -14.006,-13.399 c -1.412,-1.352 -3.662,-1.304 -5.018,0.111 -1.352,1.412 -1.301,3.662 0.111,5.015 l 10.793,10.327 c 0.174,0.166 0.396,0.291 0.639,0.248 0.24,-0.006 0.463,-0.104 0.627,-0.277 0.168,-0.174 0.256,-0.4 0.25,-0.639 -0.006,-0.239 -0.104,-0.46 -0.275,-0.626 -0.037,-0.033 -0.072,-0.07 -0.104,-0.107 l -8.527,-8.159 c -0.699,-0.669 -0.723,-1.776 -0.055,-2.475 0.668,-0.699 1.777,-0.722 2.475,-0.055 l 8.633,8.262 c 0.045,0.044 0.088,0.089 0.129,0.137 0.766,0.795 1.199,1.834 1.225,2.945 0.025,1.174 -0.408,2.289 -1.221,3.137 -0.811,0.848 -1.904,1.33 -3.078,1.357 -1.164,0.006 -2.287,-0.406 -3.137,-1.219 l -10.793,-10.327 c -2.807,-2.688 -2.906,-7.157 -0.219,-9.965 2.689,-2.807 7.158,-2.904 9.965,-0.22 l 14.006,13.399 c 1.871,1.792 2.934,4.204 2.992,6.793 0.056,2.592 -0.899,5.049 -2.69,6.92 z"
       inkscape:connector-curvature="0"
       style="fill:#ffffff" /></g><path
     style="fill:#ffffff"
     d="m 29.988101,664.35338 c -14.153153,0 -25.607434,11.45633 -25.607434,25.60743 0,14.15111 11.454281,25.63866 25.607434,25.63866 14.151103,0 25.63866,-11.48755 25.63866,-25.63866 0,-14.1511 -11.487557,-25.60743 -25.63866,-25.60743 z m -7.744687,9.1812 c 1.849216,-0.0406 3.714237,0.62318 5.152714,1.99863 l 14.365146,13.74058 c 1.91763,1.83666 3.000956,4.31045 3.060401,6.96397 0.0574,2.65659 -0.943708,5.17126 -2.779344,7.08887 -1.833586,1.91764 -4.278195,3.002 -6.932744,3.06041 -0.07585,0.001 -0.172958,0 -0.249829,0 -2.570505,0 -5.004927,-0.96475 -6.870286,-2.74811 L 15.872784,692.0219 c -0.71437,-0.68466 -0.747104,-1.81414 -0.06245,-2.52952 0.686697,-0.71642 1.814119,-0.74608 2.529514,-0.0625 l 12.147916,11.61702 c 1.226833,1.17354 2.840097,1.79083 4.528144,1.74881 1.695221,-0.038 3.262971,-0.74058 4.434458,-1.9674 1.174561,-1.2248 1.81795,-2.83292 1.780028,-4.52814 -0.03792,-1.69523 -0.740567,-3.25991 -1.9674,-4.43447 L 24.897845,678.12513 c -1.44719,-1.38569 -3.731691,-1.32535 -5.121486,0.12492 -1.385695,1.44719 -1.353506,3.73476 0.09369,5.12148 l 11.086145,10.58648 c 0.178336,0.17015 0.406744,0.29391 0.6558,0.24983 0.245981,-0.006 0.456484,-0.10374 0.624571,-0.28105 0.172188,-0.17835 0.255979,-0.41085 0.249828,-0.6558 -0.0062,-0.24495 -0.105795,-0.45443 -0.281056,-0.62458 -0.03792,-0.0339 -0.06088,-0.0869 -0.09369,-0.12491 l -8.744002,-8.36925 c -0.716421,-0.68569 -0.747105,-1.81311 -0.06245,-2.52952 0.684648,-0.71642 1.814119,-0.74608 2.529514,-0.0625 l 8.868915,8.49417 c 0.04612,0.0451 0.08289,0.0757 0.124915,0.12492 0.785091,0.81479 1.222496,1.89047 1.249144,3.02917 0.02563,1.20324 -0.415882,2.34741 -1.249144,3.21653 -0.831211,0.86913 -1.950826,1.34639 -3.154086,1.37407 -1.193009,0.006 -2.345359,-0.41589 -3.216544,-1.24915 l -11.05492,-10.58638 c -2.876958,-2.75499 -2.972567,-7.33375 -0.218601,-10.21174 1.378008,-1.43847 3.209814,-2.17662 5.05903,-2.21723 z"
     id="path23-7"
     inkscape:connector-curvature="0" /></svg>