<?xml version="1.0" encoding="UTF-8" standalone="no"?>
<!-- Generator: Adobe Illustrator 15.1.0, SVG Export Plug-In . SVG Version: 6.00 Build 0)  -->

<svg
   xmlns:dc="http://purl.org/dc/elements/1.1/"
   xmlns:cc="http://creativecommons.org/ns#"
   xmlns:rdf="http://www.w3.org/1999/02/22-rdf-syntax-ns#"
   xmlns:svg="http://www.w3.org/2000/svg"
   xmlns="http://www.w3.org/2000/svg"
   xmlns:sodipodi="http://sodipodi.sourceforge.net/DTD/sodipodi-0.dtd"
   xmlns:inkscape="http://www.inkscape.org/namespaces/inkscape"
   version="1.1"
   id="Layer_1"
   x="0px"
   y="0px"
   width="100%"
   height="100%"
   viewBox="0 0 240.00586 660.00074"
   enable-background="new 0 0 240 600"
   xml:space="preserve"
   inkscape:version="0.48.4 r9939"
   sodipodi:docname="set-icone-editor.svg"><metadata
     id="metadata145"><rdf:RDF><cc:Work
         rdf:about=""><dc:format>image/svg+xml</dc:format><dc:type
           rdf:resource="http://purl.org/dc/dcmitype/StillImage" /></cc:Work></rdf:RDF></metadata><defs
     id="defs143" /><sodipodi:namedview
     pagecolor="#ffffff"
     bordercolor="#666666"
     borderopacity="1"
     objecttolerance="10"
     gridtolerance="10"
     guidetolerance="10"
     inkscape:pageopacity="0"
     inkscape:pageshadow="2"
     inkscape:window-width="1855"
     inkscape:window-height="1056"
     id="namedview141"
     showgrid="false"
     inkscape:snap-page="true"
     showguides="true"
     inkscape:guide-bbox="true"
     inkscape:object-paths="true"
     inkscape:snap-intersection-paths="true"
     fit-margin-top="0"
     fit-margin-left="0"
     fit-margin-right="0"
     fit-margin-bottom="0"
     inkscape:zoom="1"
     inkscape:cx="595.21929"
     inkscape:cy="386.35738"
     inkscape:window-x="65"
     inkscape:window-y="24"
     inkscape:window-maximized="1"
     inkscape:current-layer="Layer_1"><sodipodi:guide
       orientation="0,1"
       position="87.078222,60"
       id="guide3143" /><sodipodi:guide
       orientation="1,0"
       position="0.0019516482,77.955509"
       id="guide3145" /><sodipodi:guide
       orientation="1,0"
       position="240.00195,77.637712"
       id="guide3147" /><sodipodi:guide
       orientation="0,1"
       position="59.664086,119.99921"
       id="guide3149" /><sodipodi:guide
       orientation="1,0"
       position="60.005924,91.670419"
       id="guide3151" /><sodipodi:guide
       orientation="0,1"
       position="36.501951,8.281441e-08"
       id="guide3153" /><sodipodi:guide
       orientation="1,0"
       position="120.00195,45"
       id="guide3155" /><sodipodi:guide
       orientation="1,0"
       position="180.00482,39.626486"
       id="guide3157" /><sodipodi:guide
       orientation="1,0"
       position="64.385934,90.249922"
       id="guide3161" /><sodipodi:guide
       orientation="0,1"
       position="40.009764,55.640625"
       id="guide3163" /><sodipodi:guide
       orientation="1,0"
       position="4.3771749,44.443651"
       id="guide3165" /><sodipodi:guide
       orientation="0,1"
       position="36.064397,-11.241008"
       id="guide3167" /><sodipodi:guide
       orientation="0,1"
       position="90.503696,64.408788"
       id="guide3169" /><sodipodi:guide
       orientation="0,1"
       position="89.623247,115.63924"
       id="guide3171" /><sodipodi:guide
       orientation="1,0"
       position="115.62293,90.052048"
       id="guide3173" /><sodipodi:guide
       orientation="1,0"
       position="124.38645,31.726777"
       id="guide3177" /><sodipodi:guide
       orientation="1,0"
       position="184.38557,25.429108"
       id="guide3179" /></sodipodi:namedview><rect
     x="194.90395"
     y="435.86774"
     width="30.16"
     height="28.118999"
     id="rect3"
     style="fill:#ffffff" /><path
     d="m 30.004951,4.3807323 c -14.15,0 -25.6209993,11.4689997 -25.6209993,25.6189997 0,14.15 11.4709993,25.62 25.6209993,25.62 14.149,0 25.619,-11.472 25.619,-25.62 0,-14.15 -11.469,-25.6189997 -25.619,-25.6189997 z m 11.111,30.8839997 c 1.614,1.614 1.614,4.232 0,5.846 -0.809,0.809 -1.866,1.212 -2.924,1.212 -1.058,0 -2.115,-0.403 -2.923,-1.212 l -5.265,-5.264 -5.264,5.264 c -0.807,0.809 -1.865,1.212 -2.924,1.212 -1.058,0 -2.115,-0.403 -2.923,-1.212 -1.614,-1.613 -1.614,-4.231 0,-5.846 l 5.265,-5.265 -5.265,-5.265 c -1.614,-1.616 -1.614,-4.232 0,-5.847 1.614,-1.615 4.232,-1.614 5.846,0 l 5.264,5.265 5.265,-5.265 c 1.615,-1.614 4.233,-1.614 5.847,0 1.614,1.614 1.614,4.231 0,5.847 l -5.266,5.265 5.267,5.265 z"
     id="path5"
     inkscape:connector-curvature="0"
     style="fill:#ffffff" /><path
     d="m 90.003951,4.3807323 c -14.148,0 -25.62,11.4689997 -25.62,25.6189997 0,14.148 11.472,25.62 25.62,25.62 14.149999,0 25.617999,-11.472 25.617999,-25.62 0,-14.15 -11.467,-25.6189997 -25.617999,-25.6189997 z M 101.11595,35.264732 c 1.614,1.614 1.614,4.232 0,5.846 -0.81,0.809 -1.866999,1.212 -2.924999,1.212 -1.058,0 -2.116,-0.403 -2.922,-1.212 l -5.267,-5.264 -5.265,5.264 c -0.808,0.809 -1.865,1.212 -2.924,1.212 -1.057,0 -2.115,-0.403 -2.923,-1.212 -1.614,-1.613 -1.614,-4.231 0,-5.846 l 5.265,-5.265 -5.265,-5.265 c -1.614,-1.616 -1.614,-4.232 0,-5.847 1.614,-1.615 4.231,-1.614 5.846,0 l 5.265,5.265 5.267,-5.265 c 1.614,-1.614 4.231,-1.614 5.845999,0 1.615,1.614 1.614,4.231 0,5.847 l -5.266999,5.265 5.268999,5.265 z"
     id="path7"
     inkscape:connector-curvature="0"
     style="fill:#f09622" /><path
     d="m 150.00395,4.3807323 c -14.15,0 -25.619,11.4689997 -25.619,25.6189997 0,14.148 11.469,25.62 25.619,25.62 14.146,0 25.616,-11.472 25.616,-25.62 0,-14.15 -11.468,-25.6189997 -25.616,-25.6189997 z m 11.109,30.8839997 c 1.613,1.614 1.613,4.232 0,5.846 -0.812,0.809 -1.862,1.212 -2.922,1.212 -1.06,0 -2.116,-0.403 -2.926,-1.212 l -5.268,-5.264 -5.262,5.264 c -0.81,0.809 -1.867,1.212 -2.926,1.212 -1.06,0 -2.115,-0.403 -2.922,-1.212 -1.615,-1.613 -1.615,-4.231 0,-5.846 l 5.264,-5.265 -5.264,-5.265 c -1.615,-1.616 -1.615,-4.232 0,-5.847 1.61,-1.614 4.229,-1.614 5.846,0 l 5.264,5.265 5.268,-5.265 c 1.614,-1.614 4.23,-1.614 5.846,0 1.613,1.614 1.613,4.231 0,5.847 l -5.267,5.265 5.269,5.265 z"
     id="path9"
     inkscape:connector-curvature="0"
     style="fill:#010101" /><path
     d="m 210.00395,4.3807323 c -14.146,0 -25.619,11.4689997 -25.619,25.6189997 0,14.148 11.471,25.62 25.619,25.62 14.148,0 25.616,-11.472 25.616,-25.62 0,-14.15 -11.466,-25.6189997 -25.616,-25.6189997 z m 11.111,30.8839997 c 1.613,1.614 1.613,4.232 0,5.846 -0.812,0.809 -1.866,1.212 -2.926,1.212 -1.06,0 -2.117,-0.403 -2.924,-1.212 l -5.263,-5.264 -5.266,5.264 c -0.809,0.809 -1.866,1.212 -2.926,1.212 -1.057,0 -2.115,-0.403 -2.92,-1.212 -1.617,-1.613 -1.617,-4.231 0,-5.846 l 5.262,-5.265 -5.262,-5.265 c -1.617,-1.616 -1.617,-4.232 0,-5.847 1.611,-1.614 4.23,-1.614 5.844,0 l 5.268,5.265 5.264,-5.265 c 1.617,-1.614 4.231,-1.614 5.85,0 1.611,1.614 1.611,4.231 0,5.847 l -5.27,5.265 5.269,5.265 z"
     id="path11"
     inkscape:connector-curvature="0"
     style="fill:#43a748" /><path
     d="m 30.004951,64.377732 c -14.15,0 -25.6209993,11.469 -25.6209993,25.619 0,14.147998 11.4699993,25.619998 25.6209993,25.619998 14.148,0 25.619,-11.472 25.619,-25.619998 0,-14.15 -11.471,-25.619 -25.619,-25.619 z m 11.578,29.754 h -7.445 v 7.443998 c 0,2.284 -1.852,4.136 -4.135,4.136 -2.283,0 -4.134,-1.852 -4.134,-4.136 v -7.443998 h -7.446 c -2.283,0 -4.134,-1.852 -4.134,-4.134 0,-2.283 1.851,-4.135 4.134,-4.135 h 7.446 v -7.444 c 0,-2.284 1.851,-4.136 4.134,-4.136 2.283,0 4.135,1.852 4.135,4.136 v 7.444 h 7.445 c 2.282,0 4.134,1.852 4.134,4.135 0,2.282 -1.851,4.134 -4.134,4.134 z"
     id="path13"
     inkscape:connector-curvature="0"
     style="fill:#ffffff" /><path
     d="m 90.002951,64.377732 c -14.15,0 -25.619,11.469 -25.619,25.62 0,14.147998 11.469,25.619998 25.62,25.619998 14.146999,0 25.617999,-11.472 25.617999,-25.619998 0,-14.151 -11.471,-25.62 -25.618999,-25.62 z m 11.578999,29.753 h -7.445999 v 7.443998 c 0,2.284 -1.851,4.136 -4.132,4.136 -2.284,0 -4.133,-1.852 -4.133,-4.136 v -7.443998 h -7.446 c -2.284,0 -4.133,-1.852 -4.133,-4.134 0,-2.284 1.849,-4.136 4.133,-4.136 h 7.445 v -7.443 c 0,-2.284 1.85,-4.136 4.133,-4.136 2.282,0 4.132,1.852 4.132,4.136 v 7.443 h 7.445999 c 2.282,0 4.134,1.852 4.134,4.136 0.001,2.283 -1.851,4.134 -4.133,4.134 z"
     id="path15"
     inkscape:connector-curvature="0"
     style="fill:#f09622" /><path
     d="m 150.00595,64.378732 c -14.148,0 -25.623,11.469 -25.623,25.619 0,14.147998 11.473,25.619998 25.623,25.619998 14.146,0 25.618,-11.472 25.618,-25.619998 0,-14.15 -11.47,-25.619 -25.618,-25.619 z m 11.577,29.753 h -7.444 v 7.443998 c 0,2.284 -1.853,4.136 -4.135,4.136 -2.279,0 -4.134,-1.852 -4.134,-4.136 v -7.443998 h -7.444 c -2.281,0 -4.133,-1.852 -4.133,-4.134 0,-2.283 1.852,-4.135 4.133,-4.135 h 7.444 v -7.444 c 0,-2.284 1.854,-4.136 4.134,-4.136 2.282,0 4.135,1.852 4.135,4.136 v 7.444 h 7.444 c 2.282,0 4.136,1.852 4.136,4.135 0.002,2.283 -1.851,4.134 -4.136,4.134 z"
     id="path17"
     inkscape:connector-curvature="0"
     style="fill:#010101" /><path
     d="m 210.00195,64.377732 c -14.15,0 -25.621,11.469 -25.621,25.619 0,14.147998 11.471,25.619998 25.621,25.619998 14.146,0 25.618,-11.472 25.618,-25.619998 0,-14.15 -11.47,-25.619 -25.618,-25.619 z m 11.577,29.754 h -7.444 v 7.443998 c 0,2.284 -1.854,4.136 -4.133,4.136 -2.285,0 -4.134,-1.852 -4.134,-4.136 v -7.443998 h -7.444 c -2.283,0 -4.134,-1.852 -4.134,-4.134 0,-2.284 1.851,-4.136 4.134,-4.136 h 7.444 v -7.443 c 0,-2.284 1.849,-4.136 4.134,-4.136 2.279,0 4.133,1.852 4.133,4.136 v 7.443 h 7.444 c 2.282,0 4.136,1.852 4.136,4.136 0.002,2.282 -1.85,4.134 -4.136,4.134 z"
     id="path19"
     inkscape:connector-curvature="0"
     style="fill:#43a748" /><path
     d="m 30.003951,484.35973 c -14.15,0 -25.6209993,11.472 -25.6209993,25.621 0,14.146 11.4709993,25.618 25.6209993,25.618 14.148,0 25.619,-11.473 25.619,-25.618 -10e-4,-14.15 -11.471,-25.621 -25.619,-25.621 z m -11.583,29.755 c -2.283,0 -4.134,-1.854 -4.134,-4.134 0,-2.282 1.851,-4.136 4.134,-4.136 h 23.16 c 2.282,0 4.134,1.854 4.134,4.136 0,2.28 -1.851,4.134 -4.134,4.134 h -23.16 z"
     id="path21"
     inkscape:connector-curvature="0"
     style="fill:#ffffff" /><path
     d="m 90.002951,484.35973 c -14.15,0 -25.619,11.47 -25.619,25.618 0,14.148 11.47,25.619 25.62,25.619 14.146999,0 25.618999,-11.471 25.618999,-25.619 0,-14.149 -11.472,-25.618 -25.619999,-25.618 z m -11.578,29.755 c -2.284,0 -4.133,-1.854 -4.133,-4.136 0,-2.283 1.849,-4.138 4.133,-4.138 h 23.157999 c 2.282,0 4.134,1.854 4.134,4.138 0,2.28 -1.852,4.136 -4.134,4.136 H 78.424951 z"
     id="path23"
     inkscape:connector-curvature="0"
     style="fill:#f09622" /><path
     d="m 150.00395,484.35973 c -14.15,0 -25.623,11.472 -25.623,25.621 0,14.146 11.473,25.618 25.623,25.618 14.146,0 25.618,-11.473 25.618,-25.618 0,-14.15 -11.47,-25.621 -25.618,-25.621 z m -11.58,29.755 c -2.281,0 -4.134,-1.854 -4.134,-4.134 0,-2.282 1.853,-4.136 4.134,-4.136 h 23.157 c 2.282,0 4.136,1.854 4.136,4.136 0.002,2.28 -1.852,4.134 -4.136,4.134 h -23.157 z"
     id="path25"
     inkscape:connector-curvature="0"
     style="fill:#010101" /><path
     d="m 210.00195,484.35973 c -14.15,0 -25.619,11.47 -25.619,25.618 0,14.148 11.469,25.62 25.619,25.62 14.146,0 25.618,-11.471 25.618,-25.619 0,-14.15 -11.47,-25.619 -25.618,-25.619 z m -11.576,29.755 c -2.285,0 -4.136,-1.854 -4.136,-4.136 0,-2.283 1.851,-4.138 4.136,-4.138 h 23.153 c 2.282,0 4.136,1.854 4.136,4.138 0.002,2.28 -1.852,4.136 -4.136,4.136 h -23.153 z"
     id="path27"
     inkscape:connector-curvature="0"
     style="fill:#43a748" /><path
     d="m 30.005951,124.37473 c -14.151,0 -25.6219993,11.47 -25.6219993,25.619 0,14.152 11.4709993,25.622 25.6219993,25.622 14.148,0 25.618,-11.469 25.618,-25.622 0,-14.15 -11.468,-25.619 -25.618,-25.619 z m 0.847,35.408 c 0,1.393 -1.129,2.521 -2.522,2.521 h -11.057 c -1.393,0 -2.522,-1.126 -2.522,-2.521 v -0.104 c 0,-1.395 1.129,-2.521 2.522,-2.521 h 11.058 c 1.393,0 2.522,1.126 2.522,2.521 l -10e-4,0.104 0,0 z m 14.404,-9.738 c 0,1.393 -1.128,2.522 -2.52,2.522 h -25.463 c -1.393,0 -2.522,-1.128 -2.522,-2.522 v -0.104 c 0,-1.391 1.129,-2.521 2.522,-2.521 h 25.463 c 1.392,0 2.52,1.128 2.52,2.521 v 0.104 z m 0,-9.735 c 0,1.391 -1.128,2.521 -2.52,2.521 h -25.463 c -1.393,0 -2.522,-1.128 -2.522,-2.521 v -0.105 c 0,-1.391 1.129,-2.521 2.522,-2.521 h 25.463 c 1.392,0 2.52,1.129 2.52,2.521 v 0.105 z"
     id="path29"
     inkscape:connector-curvature="0"
     style="fill:#ffffff" /><path
     d="m 90.004951,124.37473 c -14.152,0 -25.621,11.47 -25.621,25.619 0,14.152 11.47,25.622 25.622,25.622 14.147999,0 25.616999,-11.469 25.616999,-25.622 0,-14.15 -11.468,-25.619 -25.617999,-25.619 z m 0.845,35.409 c 0,1.393 -1.128,2.521 -2.521,2.521 h -11.057 c -1.392,0 -2.523,-1.126 -2.523,-2.521 v -0.104 c 0,-1.395 1.13,-2.522 2.523,-2.522 h 11.058 c 1.392,0 2.521,1.126 2.521,2.522 l -10e-4,0.104 0,0 z m 14.404999,-9.74 c 0,1.394 -1.128,2.523 -2.519,2.523 H 77.271951 c -1.392,0 -2.523,-1.128 -2.523,-2.523 v -0.103 c 0,-1.392 1.13,-2.521 2.523,-2.521 h 25.463999 c 1.389,0 2.519,1.128 2.519,2.521 v 0.103 z m 0,-9.734 c 0,1.391 -1.128,2.521 -2.519,2.521 H 77.271951 c -1.392,0 -2.523,-1.128 -2.523,-2.521 v -0.105 c 0,-1.391 1.13,-2.521 2.523,-2.521 h 25.463999 c 1.389,0 2.519,1.129 2.519,2.521 v 0.105 z"
     id="path31"
     inkscape:connector-curvature="0"
     style="fill:#f09622" /><path
     d="m 150.00595,124.37473 c -14.152,0 -25.621,11.471 -25.621,25.619 0,14.152 11.469,25.622 25.621,25.622 14.146,0 25.616,-11.469 25.616,-25.622 0,-14.15 -11.468,-25.619 -25.616,-25.619 z m 0.848,35.408 c 0,1.393 -1.129,2.521 -2.521,2.521 h -11.057 c -1.393,0 -2.523,-1.126 -2.523,-2.521 v -0.104 c 0,-1.395 1.131,-2.521 2.523,-2.521 h 11.057 c 1.393,0 2.521,1.126 2.521,2.521 v 0.104 z m 14.402,-9.738 c 0,1.392 -1.125,2.522 -2.521,2.522 h -25.463 c -1.391,0 -2.522,-1.128 -2.522,-2.522 v -0.104 c 0,-1.391 1.132,-2.521 2.522,-2.521 h 25.463 c 1.395,0 2.521,1.128 2.521,2.521 v 0.104 z m 0,-9.735 c 0,1.391 -1.125,2.521 -2.521,2.521 h -25.463 c -1.391,0 -2.522,-1.129 -2.522,-2.521 v -0.105 c 0,-1.391 1.132,-2.521 2.522,-2.521 h 25.463 c 1.395,0 2.521,1.129 2.521,2.521 v 0.105 z"
     id="path33"
     inkscape:connector-curvature="0"
     style="fill:#010101" /><path
     d="m 30.004951,184.83873 c -14.149,0 -25.6199993,11.47 -25.6199993,25.62 0,14.15 11.4709993,25.619 25.6199993,25.619 14.149,0 25.619,-11.468 25.619,-25.619 0,-14.151 -11.47,-25.62 -25.619,-25.62 z m 15.022,21.275 -18.365,18.368 -11.986,-11.989 c -1.662,-1.659 -1.662,-4.352 0,-6.014 1.661,-1.661 4.354,-1.663 6.016,0 l 5.972,5.972 12.351,-12.352 c 1.662,-1.662 4.354,-1.662 6.016,0 1.657,1.66 1.657,4.353 -0.004,6.015 z"
     id="path35"
     inkscape:connector-curvature="0"
     style="fill:#ffffff" /><path
     d="m 90.004951,184.85973 c -14.15,0 -25.622,11.47 -25.622,25.62 0,14.147 11.472,25.619 25.622,25.619 14.147999,0 25.618999,-11.472 25.618999,-25.619 0,-14.151 -11.469,-25.62 -25.618999,-25.62 z m 15.022999,21.275 -18.365999,18.366 -11.986,-11.987 c -1.661,-1.659 -1.661,-4.352 0,-6.016 1.659,-1.661 4.354,-1.661 6.014,0.002 l 5.973,5.97 12.352,-12.35 c 1.660999,-1.662 4.352999,-1.662 6.015999,0 1.658,1.661 1.658,4.354 -0.003,6.015 z"
     id="path37"
     inkscape:connector-curvature="0"
     style="fill:#f09622" /><path
     d="m 210.00195,184.85973 c -14.15,0 -25.621,11.47 -25.621,25.62 0,14.147 11.471,25.619 25.621,25.619 14.146,0 25.618,-11.472 25.618,-25.619 0,-14.151 -11.47,-25.62 -25.618,-25.62 z m 15.023,21.275 -18.366,18.366 -11.986,-11.987 c -1.662,-1.659 -1.662,-4.352 0,-6.016 1.66,-1.661 4.354,-1.661 6.015,0.002 l 5.973,5.97 12.351,-12.35 c 1.662,-1.662 4.354,-1.662 6.021,0 1.653,1.661 1.653,4.354 -0.008,6.015 z"
     id="path39"
     inkscape:connector-curvature="0"
     style="fill:#43a748" /><path
     d="m 210.00395,124.37373 c -14.152,0 -25.621,11.471 -25.621,25.619 0,14.152 11.469,25.622 25.621,25.622 14.146,0 25.618,-11.469 25.618,-25.622 0,-14.149 -11.47,-25.619 -25.618,-25.619 z m 0.848,35.409 c 0,1.393 -1.129,2.521 -2.521,2.521 h -11.058 c -1.394,0 -2.524,-1.126 -2.524,-2.521 v -0.104 c 0,-1.395 1.131,-2.521 2.524,-2.521 h 11.058 c 1.392,0 2.521,1.126 2.521,2.521 v 0.104 z m 14.402,-9.739 c 0,1.393 -1.125,2.523 -2.521,2.523 h -25.463 c -1.393,0 -2.522,-1.128 -2.522,-2.523 v -0.103 c 0,-1.392 1.132,-2.521 2.522,-2.521 h 25.463 c 1.392,0 2.521,1.128 2.521,2.521 v 0.103 z m 0,-9.734 c 0,1.391 -1.125,2.521 -2.521,2.521 h -25.463 c -1.393,0 -2.522,-1.129 -2.522,-2.521 v -0.105 c 0,-1.391 1.132,-2.521 2.522,-2.521 h 25.463 c 1.392,0 2.521,1.129 2.521,2.521 v 0.105 z"
     id="path41"
     inkscape:connector-curvature="0"
     style="fill:#43a748" /><path
     d="m 150.00395,184.85973 c -14.15,0 -25.621,11.47 -25.621,25.62 0,14.147 11.471,25.619 25.621,25.619 14.146,0 25.618,-11.472 25.618,-25.619 0,-14.151 -11.47,-25.62 -25.618,-25.62 z m 15.023,21.275 -18.366,18.366 -11.986,-11.987 c -1.661,-1.659 -1.661,-4.352 0,-6.016 1.66,-1.661 4.354,-1.661 6.015,0.002 l 5.973,5.97 12.352,-12.35 c 1.661,-1.662 4.354,-1.662 6.021,0 1.652,1.661 1.652,4.354 -0.009,6.015 z"
     id="path43"
     inkscape:connector-curvature="0"
     style="fill:#010101" /><polygon
     points="16.49,571.581 20.254,571.581 18.397,566.132 18.355,566.132 "
     id="polygon45"
     style="fill:#ffffff"
     transform="translate(0.00195165,7.3225385e-4)" /><path
     d="m 30.927951,569.00473 c 0.318,-0.051 0.593,-0.142 0.821,-0.271 0.229,-0.13 0.408,-0.308 0.538,-0.529 0.13,-0.224 0.195,-0.508 0.195,-0.854 0,-0.345 -0.064,-0.622 -0.191,-0.835 -0.127,-0.211 -0.301,-0.377 -0.521,-0.494 -0.221,-0.119 -0.478,-0.199 -0.771,-0.242 -0.294,-0.042 -0.604,-0.062 -0.933,-0.062 h -1.389 v 3.365 h 1.211 c 0.374,-10e-4 0.719,-0.026 1.04,-0.078 z"
     id="path47"
     inkscape:connector-curvature="0"
     style="fill:#ffffff" /><path
     d="m 32.065951,570.97573 c -0.248,-0.133 -0.547,-0.225 -0.898,-0.273 -0.35,-0.052 -0.739,-0.076 -1.169,-0.076 h -1.321 v 3.602 h 1.406 c 0.451,0 0.85,-0.021 1.195,-0.065 0.344,-0.047 0.633,-0.137 0.863,-0.271 0.232,-0.136 0.407,-0.322 0.525,-0.562 0.119,-0.24 0.179,-0.554 0.179,-0.938 0,-0.354 -0.067,-0.646 -0.204,-0.873 -0.134,-0.232 -0.327,-0.412 -0.576,-0.544 z"
     id="path49"
     inkscape:connector-curvature="0"
     style="fill:#ffffff" /><path
     d="m 30.002951,544.35573 c -14.15,0 -25.6189993,11.47 -25.6189993,25.618 0,14.148 11.4689993,25.619 25.6189993,25.619 14.148,0 25.619,-11.471 25.619,-25.619 0,-14.149 -11.471,-25.618 -25.619,-25.618 z m -5.845,31.018 c -0.076,0.161 -0.18,0.297 -0.31,0.407 -0.13,0.107 -0.281,0.192 -0.454,0.254 -0.172,0.06 -0.354,0.089 -0.546,0.089 -0.221,0 -0.41,-0.031 -0.567,-0.093 -0.158,-0.062 -0.301,-0.161 -0.424,-0.298 -0.125,-0.137 -0.239,-0.312 -0.344,-0.529 -0.104,-0.218 -0.217,-0.484 -0.335,-0.802 l -0.407,-1.075 h -4.796 l -0.348,1.075 c -0.102,0.321 -0.204,0.595 -0.31,0.812 -0.104,0.221 -0.221,0.396 -0.348,0.53 -0.127,0.133 -0.271,0.229 -0.436,0.288 -0.165,0.059 -0.356,0.089 -0.576,0.089 -0.192,0 -0.375,-0.029 -0.547,-0.089 -0.173,-0.062 -0.324,-0.146 -0.453,-0.255 -0.131,-0.109 -0.233,-0.245 -0.31,-0.406 -0.077,-0.161 -0.114,-0.347 -0.114,-0.556 0,-0.085 0.012,-0.181 0.037,-0.283 0.025,-0.104 0.059,-0.214 0.098,-0.326 0.04,-0.113 0.082,-0.226 0.127,-0.335 0.046,-0.11 0.088,-0.217 0.128,-0.317 l 2.279,-6.161 c 0.215,-0.575 0.419,-1.086 0.614,-1.529 0.195,-0.442 0.41,-0.816 0.645,-1.122 0.234,-0.307 0.504,-0.535 0.809,-0.69 0.306,-0.155 0.676,-0.231 1.111,-0.231 0.406,0 0.754,0.062 1.042,0.183 0.288,0.122 0.548,0.322 0.779,0.602 0.231,0.28 0.452,0.648 0.661,1.106 0.209,0.457 0.441,1.02 0.695,1.687 l 2.322,6.161 c 0.039,0.104 0.082,0.207 0.127,0.317 0.045,0.109 0.088,0.222 0.127,0.335 0.039,0.113 0.072,0.222 0.098,0.326 0.026,0.104 0.037,0.198 0.037,0.283 0.002,0.207 -0.035,0.392 -0.111,0.553 z m 11.511,-1.398 c -0.17,0.41 -0.43,0.772 -0.78,1.09 -0.35,0.316 -0.795,0.571 -1.334,0.769 -0.54,0.193 -1.18,0.292 -1.92,0.292 h -3.982 c -0.322,0 -0.605,-0.025 -0.848,-0.076 -0.244,-0.051 -0.448,-0.154 -0.615,-0.311 -0.166,-0.154 -0.292,-0.375 -0.377,-0.66 -0.084,-0.285 -0.127,-0.662 -0.127,-1.131 v -8.638 c 0,-0.266 0.054,-0.492 0.161,-0.683 0.107,-0.188 0.25,-0.343 0.428,-0.462 0.179,-0.118 0.386,-0.206 0.623,-0.264 0.237,-0.057 0.489,-0.084 0.755,-0.084 h 2.627 c 0.384,0 0.779,0.008 1.186,0.021 0.407,0.016 0.806,0.055 1.195,0.119 0.391,0.063 0.758,0.161 1.102,0.288 0.345,0.127 0.646,0.305 0.907,0.533 0.26,0.229 0.466,0.518 0.618,0.864 0.152,0.348 0.229,0.771 0.229,1.268 0,0.333 -0.057,0.654 -0.17,0.962 -0.113,0.308 -0.273,0.586 -0.483,0.835 -0.209,0.248 -0.457,0.459 -0.746,0.631 -0.287,0.173 -0.607,0.29 -0.957,0.353 v 0.034 c 0.424,0.062 0.807,0.181 1.148,0.353 0.342,0.173 0.632,0.389 0.868,0.647 0.237,0.261 0.421,0.561 0.552,0.897 0.13,0.339 0.194,0.703 0.194,1.093 0,0.431 -0.085,0.85 -0.254,1.26 z m 11.587,1.068 c -0.145,0.184 -0.335,0.349 -0.572,0.495 -0.237,0.146 -0.51,0.274 -0.817,0.386 -0.309,0.11 -0.626,0.202 -0.954,0.275 -0.327,0.072 -0.653,0.129 -0.979,0.165 -0.325,0.036 -0.626,0.056 -0.902,0.056 -0.836,0 -1.616,-0.14 -2.339,-0.42 -0.724,-0.279 -1.351,-0.689 -1.882,-1.229 -0.531,-0.54 -0.949,-1.203 -1.254,-1.99 -0.305,-0.789 -0.458,-1.691 -0.458,-2.709 0,-1.027 0.151,-1.947 0.454,-2.759 0.302,-0.812 0.725,-1.495 1.267,-2.056 0.542,-0.56 1.188,-0.986 1.937,-1.283 0.748,-0.298 1.569,-0.445 2.462,-0.445 0.706,0 1.32,0.045 1.843,0.133 0.523,0.088 0.956,0.208 1.301,0.359 0.345,0.151 0.603,0.333 0.771,0.542 0.17,0.209 0.254,0.437 0.254,0.679 0,0.164 -0.033,0.307 -0.102,0.429 -0.067,0.121 -0.156,0.223 -0.267,0.302 -0.111,0.078 -0.233,0.137 -0.369,0.174 -0.135,0.036 -0.271,0.056 -0.406,0.056 -0.079,0 -0.158,-10e-4 -0.237,-0.004 -0.079,-0.004 -0.155,-0.017 -0.229,-0.038 -0.215,-0.058 -0.42,-0.112 -0.615,-0.166 -0.194,-0.054 -0.387,-0.101 -0.576,-0.141 -0.189,-0.039 -0.378,-0.072 -0.567,-0.099 -0.189,-0.025 -0.386,-0.038 -0.589,-0.038 -0.424,0 -0.823,0.062 -1.199,0.19 -0.376,0.128 -0.702,0.353 -0.979,0.675 -0.277,0.32 -0.496,0.758 -0.657,1.309 -0.161,0.552 -0.241,1.254 -0.241,2.106 0,0.654 0.064,1.243 0.194,1.767 0.13,0.524 0.323,0.967 0.581,1.331 0.257,0.364 0.579,0.645 0.966,0.84 0.387,0.193 0.838,0.292 1.352,0.292 0.209,0 0.427,-0.021 0.652,-0.067 0.227,-0.046 0.458,-0.104 0.695,-0.174 0.237,-0.07 0.479,-0.15 0.725,-0.242 0.246,-0.09 0.49,-0.181 0.733,-0.271 0.073,-0.021 0.163,-0.033 0.271,-0.033 0.142,0 0.27,0.026 0.386,0.081 0.116,0.054 0.216,0.125 0.301,0.216 0.085,0.09 0.149,0.195 0.195,0.316 0.045,0.122 0.067,0.25 0.067,0.387 -0.002,0.217 -0.074,0.419 -0.217,0.603 z"
     id="path51"
     inkscape:connector-curvature="0"
     style="fill:#ffffff" /><circle
     cx="90.001999"
     cy="569.97699"
     r="25.618999"
     id="circle53"
     sodipodi:cx="90.001999"
     sodipodi:cy="569.97699"
     sodipodi:rx="25.618999"
     sodipodi:ry="25.618999"
     style="fill:#f09622"
     transform="translate(0.00195165,7.3225385e-4)" /><path
     d="m 83.883951,573.55873 c 0.039,0.104 0.082,0.207 0.127,0.317 0.045,0.11 0.088,0.222 0.127,0.335 0.039,0.113 0.072,0.222 0.098,0.326 0.026,0.104 0.037,0.198 0.037,0.283 0,0.209 -0.037,0.395 -0.113,0.556 -0.076,0.161 -0.18,0.297 -0.31,0.407 -0.13,0.107 -0.281,0.192 -0.454,0.254 -0.172,0.06 -0.354,0.089 -0.546,0.089 -0.221,0 -0.41,-0.031 -0.567,-0.093 -0.158,-0.062 -0.301,-0.161 -0.424,-0.298 -0.125,-0.137 -0.239,-0.312 -0.344,-0.529 -0.104,-0.218 -0.217,-0.484 -0.335,-0.802 l -0.407,-1.075 h -4.796 l -0.348,1.075 c -0.102,0.321 -0.204,0.595 -0.31,0.812 -0.104,0.222 -0.221,0.396 -0.348,0.53 -0.127,0.133 -0.271,0.229 -0.436,0.288 -0.165,0.059 -0.356,0.089 -0.576,0.089 -0.192,0 -0.375,-0.029 -0.547,-0.089 -0.173,-0.062 -0.324,-0.146 -0.453,-0.255 -0.131,-0.109 -0.233,-0.245 -0.31,-0.406 -0.077,-0.161 -0.114,-0.347 -0.114,-0.556 0,-0.085 0.012,-0.181 0.037,-0.283 0.025,-0.104 0.059,-0.214 0.098,-0.326 0.04,-0.113 0.082,-0.226 0.127,-0.335 0.046,-0.11 0.088,-0.216 0.128,-0.317 l 2.279,-6.161 c 0.215,-0.575 0.419,-1.086 0.614,-1.528 0.195,-0.443 0.41,-0.817 0.645,-1.123 0.234,-0.306 0.504,-0.535 0.809,-0.69 0.306,-0.154 0.676,-0.231 1.111,-0.231 0.406,0 0.754,0.062 1.042,0.183 0.288,0.122 0.548,0.322 0.779,0.603 0.231,0.279 0.452,0.647 0.661,1.105 0.209,0.457 0.441,1.021 0.695,1.688 l 2.324,6.157 z m -5.526,-7.424 -1.865,5.449 h 3.764 l -1.856,-5.449 h -0.043 z"
     id="path55"
     inkscape:connector-curvature="0"
     style="fill:#f5f5f5" /><path
     d="m 85.685951,565.31273 c 0,-0.267 0.054,-0.493 0.161,-0.684 0.107,-0.188 0.25,-0.343 0.428,-0.462 0.179,-0.118 0.386,-0.206 0.623,-0.264 0.237,-0.057 0.489,-0.084 0.755,-0.084 h 2.627 c 0.384,0 0.779,0.008 1.186,0.021 0.407,0.016 0.806,0.055 1.195,0.119 0.391,0.063 0.758,0.161 1.102,0.288 0.345,0.127 0.646,0.305 0.907,0.533 0.26,0.229 0.466,0.518 0.618,0.864 0.152,0.348 0.229,0.771 0.229,1.268 0,0.333 -0.057,0.654 -0.17,0.962 -0.113,0.308 -0.273,0.586 -0.483,0.835 -0.209,0.248 -0.457,0.459 -0.746,0.631 -0.287,0.173 -0.607,0.29 -0.957,0.353 v 0.034 c 0.424,0.062 0.807,0.181 1.148,0.353 0.342,0.173 0.632,0.389 0.868,0.647 0.237,0.261 0.421,0.561 0.552,0.897 0.13,0.339 0.194,0.703 0.194,1.093 0,0.431 -0.085,0.851 -0.254,1.26 -0.17,0.409 -0.43,0.771 -0.78,1.089 -0.35,0.316 -0.795,0.571 -1.334,0.769 -0.54,0.194 -1.18,0.292 -1.92,0.292 h -3.982 c -0.322,0 -0.605,-0.024 -0.848,-0.076 -0.244,-0.051 -0.448,-0.153 -0.615,-0.31 -0.166,-0.155 -0.292,-0.376 -0.377,-0.661 -0.084,-0.285 -0.127,-0.662 -0.127,-1.131 v -8.636 z m 2.992,0.406 v 3.365 h 1.211 c 0.373,0 0.719,-0.025 1.039,-0.077 0.318,-0.051 0.593,-0.142 0.821,-0.271 0.229,-0.13 0.408,-0.308 0.538,-0.529 0.13,-0.224 0.195,-0.508 0.195,-0.854 0,-0.345 -0.064,-0.622 -0.191,-0.835 -0.127,-0.211 -0.301,-0.377 -0.521,-0.494 -0.221,-0.119 -0.478,-0.199 -0.771,-0.242 -0.294,-0.042 -0.604,-0.062 -0.933,-0.062 l -1.388,-10e-4 0,0 z m 0,8.509 h 1.406 c 0.451,0 0.85,-0.021 1.195,-0.065 0.344,-0.047 0.633,-0.137 0.863,-0.271 0.232,-0.136 0.407,-0.322 0.525,-0.562 0.119,-0.24 0.179,-0.554 0.179,-0.938 0,-0.354 -0.067,-0.646 -0.204,-0.873 -0.135,-0.226 -0.327,-0.404 -0.576,-0.538 -0.248,-0.133 -0.547,-0.225 -0.898,-0.273 -0.35,-0.052 -0.739,-0.076 -1.169,-0.076 h -1.321 v 3.596 z"
     id="path57"
     inkscape:connector-curvature="0"
     style="fill:#f5f5f5" /><path
     d="m 97.098951,570.07473 c 0,-1.028 0.151,-1.948 0.454,-2.76 0.302,-0.812 0.725,-1.495 1.267,-2.056 0.542,-0.56 1.187999,-0.987 1.936999,-1.284 0.748,-0.297 1.569,-0.443 2.462,-0.443 0.706,0 1.32,0.044 1.843,0.132 0.523,0.088 0.956,0.208 1.301,0.359 0.345,0.151 0.603,0.333 0.771,0.542 0.17,0.209 0.254,0.437 0.254,0.679 0,0.164 -0.033,0.307 -0.102,0.429 -0.067,0.121 -0.156,0.223 -0.267,0.301 -0.111,0.079 -0.233,0.139 -0.369,0.175 -0.135,0.036 -0.271,0.056 -0.406,0.056 -0.079,0 -0.158,-0.001 -0.237,-0.004 -0.079,-0.004 -0.155,-0.018 -0.229,-0.038 -0.215,-0.058 -0.42,-0.112 -0.615,-0.166 -0.194,-0.054 -0.387,-0.101 -0.576,-0.141 -0.189,-0.039 -0.378,-0.071 -0.567,-0.099 -0.189,-0.025 -0.386,-0.038 -0.589,-0.038 -0.424,0 -0.823,0.062 -1.199,0.191 -0.376,0.127 -0.702,0.352 -0.979,0.674 -0.277,0.32 -0.496,0.758 -0.657,1.309 -0.161,0.552 -0.241,1.253 -0.241,2.106 0,0.654 0.064,1.244 0.194,1.767 0.13,0.523 0.323,0.967 0.581,1.331 0.257,0.364 0.579,0.645 0.966,0.84 0.387,0.193 0.838,0.291 1.352,0.291 0.209,0 0.427,-0.021 0.652,-0.065 0.227,-0.047 0.458,-0.104 0.695,-0.175 0.237,-0.069 0.479,-0.15 0.725,-0.241 0.246,-0.091 0.49,-0.182 0.733,-0.271 0.073,-0.021 0.163,-0.033 0.271,-0.033 0.142,0 0.27,0.026 0.386,0.081 0.116,0.054 0.216,0.125 0.301,0.216 0.085,0.091 0.149,0.195 0.195,0.316 0.045,0.122 0.067,0.25 0.067,0.387 0,0.222 -0.072,0.423 -0.216,0.605 -0.145,0.185 -0.335,0.35 -0.572,0.495 -0.237,0.146 -0.51,0.274 -0.817,0.386 -0.309,0.11 -0.626,0.202 -0.954,0.275 -0.327,0.072 -0.653,0.129 -0.979,0.165 -0.325,0.036 -0.626,0.056 -0.902,0.056 -0.836,0 -1.616,-0.14 -2.339,-0.42 -0.723999,-0.278 -1.350999,-0.688 -1.881999,-1.229 -0.531,-0.54 -0.949,-1.203 -1.254,-1.99 -0.305,-0.792 -0.459,-1.694 -0.459,-2.711 z"
     id="path59"
     inkscape:connector-curvature="0"
     style="fill:#f5f5f5" /><circle
     cx="150.002"
     cy="569.97699"
     r="25.618999"
     id="circle61"
     sodipodi:cx="150.002"
     sodipodi:cy="569.97699"
     sodipodi:rx="25.618999"
     sodipodi:ry="25.618999"
     style="fill:#010101"
     transform="translate(0.00195165,7.3225385e-4)" /><path
     d="m 143.88295,573.55873 c 0.039,0.104 0.082,0.207 0.127,0.317 0.045,0.11 0.088,0.222 0.127,0.335 0.039,0.113 0.071,0.222 0.1,0.326 0.024,0.104 0.035,0.198 0.035,0.283 0,0.209 -0.035,0.395 -0.111,0.556 -0.076,0.161 -0.182,0.297 -0.311,0.407 -0.131,0.107 -0.279,0.192 -0.455,0.254 -0.172,0.06 -0.354,0.089 -0.545,0.089 -0.221,0 -0.408,-0.031 -0.566,-0.093 -0.158,-0.062 -0.301,-0.161 -0.424,-0.298 -0.125,-0.137 -0.238,-0.312 -0.346,-0.529 -0.104,-0.218 -0.217,-0.484 -0.334,-0.802 l -0.408,-1.075 h -4.795 l -0.348,1.075 c -0.104,0.321 -0.205,0.595 -0.312,0.812 -0.104,0.222 -0.221,0.396 -0.348,0.53 -0.127,0.133 -0.271,0.229 -0.436,0.288 -0.166,0.059 -0.355,0.089 -0.576,0.089 -0.191,0 -0.375,-0.029 -0.547,-0.089 -0.172,-0.062 -0.324,-0.146 -0.453,-0.255 -0.131,-0.109 -0.232,-0.245 -0.309,-0.406 -0.078,-0.161 -0.115,-0.347 -0.115,-0.556 0,-0.085 0.012,-0.181 0.037,-0.283 0.023,-0.104 0.059,-0.214 0.098,-0.326 0.041,-0.113 0.082,-0.226 0.127,-0.335 0.047,-0.11 0.088,-0.216 0.129,-0.317 l 2.279,-6.161 c 0.215,-0.575 0.418,-1.086 0.613,-1.528 0.193,-0.443 0.408,-0.817 0.645,-1.123 0.234,-0.306 0.504,-0.535 0.809,-0.69 0.308,-0.154 0.676,-0.231 1.111,-0.231 0.406,0 0.754,0.062 1.043,0.183 0.287,0.122 0.547,0.322 0.779,0.603 0.229,0.279 0.451,0.647 0.66,1.105 0.209,0.457 0.439,1.021 0.693,1.688 l 2.327,6.157 z m -5.526,-7.424 -1.864,5.449 h 3.764 l -1.854,-5.449 h -0.046 z"
     id="path63"
     inkscape:connector-curvature="0"
     style="fill:#f5f5f5" /><path
     d="m 145.68595,565.31273 c 0,-0.267 0.057,-0.493 0.162,-0.684 0.106,-0.188 0.25,-0.343 0.43,-0.462 0.178,-0.118 0.385,-0.206 0.623,-0.264 0.234,-0.057 0.486,-0.084 0.754,-0.084 h 2.627 c 0.385,0 0.777,0.008 1.186,0.021 0.408,0.016 0.807,0.055 1.195,0.119 0.391,0.063 0.758,0.161 1.102,0.288 0.346,0.127 0.646,0.305 0.908,0.533 0.26,0.229 0.465,0.518 0.617,0.864 0.152,0.348 0.229,0.771 0.229,1.268 0,0.333 -0.057,0.654 -0.17,0.962 -0.111,0.308 -0.271,0.586 -0.482,0.835 -0.209,0.248 -0.457,0.459 -0.746,0.631 -0.287,0.173 -0.607,0.29 -0.957,0.353 v 0.034 c 0.424,0.062 0.807,0.181 1.146,0.353 0.344,0.173 0.635,0.389 0.869,0.647 0.235,0.26 0.42,0.561 0.551,0.897 0.133,0.338 0.195,0.703 0.195,1.093 0,0.431 -0.086,0.851 -0.254,1.26 -0.17,0.409 -0.432,0.771 -0.781,1.089 -0.35,0.316 -0.795,0.571 -1.334,0.769 -0.539,0.194 -1.18,0.292 -1.92,0.292 h -3.98 c -0.322,0 -0.605,-0.024 -0.85,-0.076 -0.244,-0.051 -0.445,-0.153 -0.613,-0.31 -0.166,-0.155 -0.291,-0.376 -0.379,-0.661 -0.084,-0.285 -0.127,-0.662 -0.127,-1.131 v -8.636 l -0.001,0 z m 2.992,0.406 v 3.365 h 1.211 c 0.373,0 0.721,-0.025 1.039,-0.077 0.317,-0.051 0.594,-0.142 0.821,-0.271 0.229,-0.13 0.407,-0.308 0.537,-0.529 0.132,-0.224 0.194,-0.508 0.194,-0.854 0,-0.345 -0.062,-0.622 -0.19,-0.835 -0.127,-0.211 -0.302,-0.377 -0.521,-0.494 -0.221,-0.119 -0.479,-0.199 -0.771,-0.242 -0.295,-0.042 -0.604,-0.062 -0.935,-0.062 l -1.385,-10e-4 0,0 z m 0,8.509 h 1.405 c 0.451,0 0.851,-0.021 1.194,-0.065 0.345,-0.047 0.634,-0.137 0.863,-0.271 0.232,-0.136 0.408,-0.322 0.525,-0.562 0.119,-0.24 0.18,-0.554 0.18,-0.938 0,-0.354 -0.068,-0.646 -0.205,-0.873 -0.135,-0.226 -0.326,-0.404 -0.576,-0.538 -0.248,-0.133 -0.547,-0.225 -0.896,-0.273 -0.352,-0.052 -0.738,-0.076 -1.169,-0.076 h -1.321 v 3.596 l 0,0 z"
     id="path65"
     inkscape:connector-curvature="0"
     style="fill:#f5f5f5" /><path
     d="m 157.09995,570.07473 c 0,-1.028 0.149,-1.948 0.453,-2.76 0.305,-0.812 0.727,-1.495 1.27,-2.056 0.541,-0.56 1.188,-0.987 1.936,-1.284 0.748,-0.297 1.57,-0.443 2.463,-0.443 0.705,0 1.32,0.044 1.842,0.132 0.523,0.088 0.957,0.208 1.301,0.359 0.347,0.151 0.604,0.333 0.771,0.542 0.17,0.209 0.254,0.437 0.254,0.679 0,0.164 -0.033,0.307 -0.102,0.429 -0.066,0.121 -0.156,0.223 -0.268,0.301 -0.11,0.079 -0.232,0.139 -0.367,0.175 -0.137,0.036 -0.271,0.056 -0.406,0.056 -0.08,0 -0.158,-0.001 -0.238,-0.004 -0.078,-0.004 -0.154,-0.018 -0.229,-0.038 -0.217,-0.058 -0.42,-0.112 -0.615,-0.166 -0.193,-0.054 -0.387,-0.101 -0.576,-0.141 -0.189,-0.039 -0.377,-0.071 -0.566,-0.099 -0.188,-0.027 -0.387,-0.038 -0.59,-0.038 -0.424,0 -0.822,0.062 -1.199,0.191 -0.375,0.127 -0.701,0.352 -0.979,0.674 -0.277,0.32 -0.496,0.758 -0.656,1.309 -0.162,0.552 -0.242,1.253 -0.242,2.106 0,0.654 0.064,1.244 0.195,1.767 0.129,0.522 0.322,0.967 0.58,1.331 0.258,0.364 0.58,0.645 0.967,0.84 0.387,0.193 0.838,0.291 1.352,0.291 0.209,0 0.427,-0.021 0.652,-0.065 0.228,-0.047 0.457,-0.104 0.695,-0.175 0.236,-0.069 0.479,-0.15 0.725,-0.241 0.246,-0.091 0.49,-0.182 0.732,-0.271 0.074,-0.021 0.164,-0.033 0.271,-0.033 0.142,0 0.271,0.026 0.386,0.081 0.116,0.054 0.217,0.125 0.301,0.216 0.086,0.091 0.149,0.195 0.194,0.316 0.046,0.122 0.068,0.25 0.068,0.387 0,0.222 -0.072,0.423 -0.218,0.605 -0.146,0.184 -0.334,0.35 -0.571,0.495 -0.236,0.146 -0.511,0.274 -0.815,0.386 -0.31,0.11 -0.627,0.202 -0.955,0.275 -0.326,0.072 -0.652,0.129 -0.979,0.165 -0.322,0.036 -0.625,0.056 -0.9,0.056 -0.836,0 -1.615,-0.14 -2.338,-0.42 -0.727,-0.278 -1.354,-0.688 -1.885,-1.229 -0.529,-0.54 -0.947,-1.203 -1.254,-1.99 -0.308,-0.792 -0.46,-1.694 -0.46,-2.711 z"
     id="path67"
     inkscape:connector-curvature="0"
     style="fill:#f5f5f5" /><circle
     cx="210"
     cy="569.97498"
     r="25.618999"
     id="circle69"
     sodipodi:cx="210"
     sodipodi:cy="569.97498"
     sodipodi:rx="25.618999"
     sodipodi:ry="25.618999"
     style="fill:#43a748"
     transform="translate(0.00195165,7.3225385e-4)" /><path
     d="m 203.88195,573.55673 c 0.039,0.104 0.082,0.207 0.127,0.317 0.045,0.109 0.089,0.222 0.127,0.335 0.039,0.113 0.072,0.222 0.099,0.326 0.025,0.104 0.037,0.198 0.037,0.283 0,0.209 -0.037,0.395 -0.113,0.556 -0.076,0.161 -0.18,0.297 -0.311,0.407 -0.13,0.107 -0.279,0.192 -0.453,0.254 -0.172,0.06 -0.354,0.089 -0.547,0.089 -0.221,0 -0.41,-0.031 -0.566,-0.093 -0.158,-0.062 -0.301,-0.161 -0.424,-0.298 -0.125,-0.137 -0.238,-0.312 -0.344,-0.529 -0.104,-0.218 -0.218,-0.484 -0.336,-0.802 l -0.406,-1.075 h -4.797 l -0.348,1.075 c -0.104,0.321 -0.204,0.595 -0.311,0.812 -0.104,0.222 -0.222,0.396 -0.349,0.53 -0.127,0.133 -0.271,0.229 -0.437,0.288 -0.164,0.059 -0.355,0.089 -0.576,0.089 -0.191,0 -0.375,-0.029 -0.547,-0.089 -0.172,-0.062 -0.323,-0.146 -0.453,-0.255 -0.131,-0.109 -0.232,-0.245 -0.311,-0.406 -0.079,-0.161 -0.113,-0.347 -0.113,-0.556 0,-0.085 0.013,-0.181 0.037,-0.283 0.024,-0.104 0.06,-0.214 0.099,-0.326 0.04,-0.113 0.081,-0.226 0.127,-0.335 0.046,-0.11 0.088,-0.217 0.128,-0.317 l 2.279,-6.161 c 0.215,-0.575 0.418,-1.086 0.613,-1.529 0.194,-0.442 0.41,-0.816 0.646,-1.122 0.233,-0.307 0.504,-0.535 0.81,-0.69 0.306,-0.154 0.676,-0.231 1.11,-0.231 0.405,0 0.754,0.062 1.042,0.183 0.288,0.122 0.549,0.322 0.779,0.602 0.23,0.28 0.451,0.648 0.66,1.106 0.209,0.457 0.44,1.021 0.695,1.688 l 2.327,6.157 z m -5.526,-7.424 -1.865,5.449 h 3.766 l -1.855,-5.449 h -0.046 z"
     id="path71"
     inkscape:connector-curvature="0"
     style="fill:#f5f5f5" /><path
     d="m 205.68595,565.31073 c 0,-0.266 0.055,-0.492 0.16,-0.683 0.106,-0.188 0.25,-0.343 0.43,-0.462 0.178,-0.118 0.385,-0.206 0.621,-0.264 0.237,-0.057 0.489,-0.084 0.756,-0.084 h 2.627 c 0.385,0 0.779,0.008 1.187,0.021 0.407,0.016 0.806,0.055 1.194,0.119 0.392,0.063 0.759,0.161 1.103,0.288 0.345,0.127 0.646,0.305 0.907,0.533 0.26,0.229 0.466,0.518 0.617,0.864 0.152,0.348 0.229,0.771 0.229,1.268 0,0.333 -0.058,0.653 -0.17,0.962 -0.111,0.308 -0.271,0.586 -0.482,0.835 -0.209,0.248 -0.457,0.459 -0.746,0.631 -0.287,0.173 -0.606,0.29 -0.957,0.353 v 0.034 c 0.424,0.062 0.808,0.181 1.148,0.353 0.342,0.173 0.633,0.389 0.867,0.647 0.237,0.261 0.422,0.561 0.553,0.897 0.131,0.339 0.193,0.703 0.193,1.093 0,0.431 -0.085,0.851 -0.254,1.26 -0.171,0.409 -0.432,0.771 -0.78,1.089 -0.349,0.316 -0.795,0.571 -1.334,0.769 -0.54,0.193 -1.18,0.292 -1.92,0.292 h -3.981 c -0.322,0 -0.604,-0.025 -0.849,-0.076 -0.243,-0.051 -0.446,-0.153 -0.614,-0.31 -0.166,-0.155 -0.293,-0.376 -0.377,-0.661 -0.084,-0.285 -0.127,-0.662 -0.127,-1.131 v -8.637 l -0.001,0 z m 2.991,0.406 v 3.365 h 1.212 c 0.372,0 0.719,-0.025 1.038,-0.077 0.318,-0.051 0.593,-0.142 0.82,-0.271 0.229,-0.131 0.407,-0.308 0.539,-0.529 0.129,-0.224 0.194,-0.508 0.194,-0.854 0,-0.345 -0.063,-0.623 -0.19,-0.835 -0.127,-0.211 -0.302,-0.377 -0.521,-0.495 -0.222,-0.118 -0.479,-0.198 -0.771,-0.241 -0.293,-0.042 -0.604,-0.062 -0.932,-0.062 l -1.389,-10e-4 0,0 z m 0,8.509 h 1.406 c 0.451,0 0.851,-0.021 1.194,-0.065 0.345,-0.047 0.634,-0.138 0.863,-0.271 0.23,-0.136 0.406,-0.322 0.523,-0.562 0.119,-0.24 0.18,-0.555 0.18,-0.938 0,-0.354 -0.066,-0.646 -0.203,-0.873 -0.136,-0.226 -0.328,-0.404 -0.576,-0.538 -0.248,-0.133 -0.547,-0.225 -0.897,-0.273 -0.351,-0.052 -0.739,-0.076 -1.17,-0.076 h -1.32 v 3.596 l 0,0 z"
     id="path73"
     inkscape:connector-curvature="0"
     style="fill:#f5f5f5" /><path
     d="m 217.09795,570.07173 c 0,-1.027 0.151,-1.947 0.454,-2.759 0.302,-0.812 0.726,-1.495 1.269,-2.056 0.541,-0.56 1.188,-0.987 1.937,-1.284 0.748,-0.297 1.569,-0.444 2.462,-0.444 0.706,0 1.32,0.045 1.844,0.133 0.522,0.088 0.955,0.208 1.301,0.358 0.345,0.152 0.604,0.334 0.771,0.543 0.17,0.209 0.254,0.437 0.254,0.679 0,0.164 -0.033,0.307 -0.103,0.429 -0.066,0.121 -0.155,0.222 -0.267,0.301 -0.11,0.079 -0.233,0.138 -0.369,0.175 -0.135,0.035 -0.271,0.056 -0.405,0.056 -0.08,0 -0.158,-10e-4 -0.237,-0.004 -0.079,-0.004 -0.154,-0.018 -0.229,-0.038 -0.215,-0.058 -0.42,-0.112 -0.615,-0.166 -0.193,-0.054 -0.387,-0.102 -0.575,-0.142 -0.188,-0.038 -0.378,-0.071 -0.567,-0.098 -0.188,-0.025 -0.386,-0.038 -0.588,-0.038 -0.425,0 -0.824,0.062 -1.199,0.19 -0.377,0.128 -0.703,0.353 -0.979,0.675 -0.276,0.32 -0.495,0.758 -0.655,1.309 -0.162,0.552 -0.242,1.253 -0.242,2.106 0,0.654 0.063,1.243 0.194,1.767 0.13,0.523 0.322,0.967 0.581,1.331 0.258,0.364 0.579,0.645 0.967,0.839 0.387,0.194 0.838,0.292 1.352,0.292 0.209,0 0.428,-0.021 0.652,-0.066 0.227,-0.046 0.457,-0.104 0.694,-0.174 0.235,-0.069 0.479,-0.15 0.726,-0.242 0.246,-0.09 0.489,-0.182 0.731,-0.271 0.074,-0.021 0.164,-0.033 0.271,-0.033 0.144,0 0.271,0.026 0.388,0.08 0.114,0.055 0.215,0.125 0.301,0.217 0.085,0.09 0.147,0.195 0.194,0.316 0.046,0.122 0.066,0.25 0.066,0.387 0,0.221 -0.072,0.423 -0.216,0.605 -0.146,0.184 -0.335,0.349 -0.571,0.495 -0.238,0.146 -0.511,0.274 -0.817,0.386 -0.31,0.11 -0.625,0.202 -0.953,0.274 -0.327,0.073 -0.653,0.13 -0.979,0.165 -0.324,0.037 -0.625,0.057 -0.9,0.057 -0.836,0 -1.617,-0.141 -2.34,-0.42 -0.725,-0.279 -1.352,-0.689 -1.883,-1.229 -0.529,-0.54 -0.947,-1.203 -1.254,-1.991 -0.309,-0.789 -0.466,-1.692 -0.466,-2.71 z"
     id="path75"
     inkscape:connector-curvature="0"
     style="fill:#f5f5f5" /><path
     d="m 210.00195,244.37073 c -14.148,0 -25.619,11.469 -25.619,25.619 0,14.148 11.471,25.62 25.619,25.62 14.148,0 25.616,-11.472 25.616,-25.62 0,-14.15 -11.466,-25.619 -25.616,-25.619 z m 3.568,31.434 c 0.912,-0.562 1.683,-1.331 2.244,-2.245 l 5.492,5.49 v -3.092 c 0,-0.877 0.711,-1.588 1.588,-1.588 0.875,0 1.586,0.711 1.586,1.588 v 8.512 h -1.582 c -0.002,0 -0.002,0 -0.004,0 -0.004,0 -0.006,0 -0.009,0 h -6.918 c -0.875,0 -1.586,-0.711 -1.586,-1.588 0,-0.877 0.711,-1.586 1.586,-1.586 h 3.091 l -5.488,-5.491 z m 10.911,-18.708 c 0,0.002 0,0.004 0,0.006 v 6.92 c 0,0.877 -0.711,1.588 -1.586,1.588 -0.877,0 -1.588,-0.711 -1.588,-1.588 v -3.09 l -5.49,5.488 c -0.562,-0.912 -1.332,-1.683 -2.244,-2.244 l 5.492,-5.49 h -3.097 c -0.875,0 -1.586,-0.712 -1.586,-1.588 0,-0.876 0.711,-1.588 1.586,-1.588 h 8.513 v 1.586 z m -20.295,16.463 c 0.562,0.914 1.334,1.683 2.244,2.245 l -5.486,5.491 h 3.092 c 0.875,0 1.588,0.711 1.588,1.586 0,0.877 -0.713,1.588 -1.588,1.588 h -8.514 v -8.512 c 0,-0.877 0.713,-1.588 1.59,-1.588 0.875,0 1.586,0.711 1.586,1.588 v 3.092 l 5.488,-5.49 z m 0,-7.139 -5.488,-5.49 v 3.09 c 0,0.879 -0.711,1.588 -1.586,1.588 -0.877,0 -1.59,-0.709 -1.59,-1.588 v -8.51 h 8.514 c 0.875,0 1.588,0.712 1.588,1.588 0,0.876 -0.713,1.588 -1.588,1.588 h -3.092 l 5.486,5.49 c -0.91,0.562 -1.683,1.33 -2.244,2.244 z"
     id="path77"
     inkscape:connector-curvature="0"
     style="fill:#43a748" /><path
     d="m 150.00395,244.37073 c -14.146,0 -25.619,11.469 -25.619,25.619 0,14.148 11.471,25.62 25.619,25.62 14.148,0 25.616,-11.472 25.616,-25.62 0,-14.15 -11.466,-25.619 -25.616,-25.619 z m 3.568,31.434 c 0.912,-0.562 1.683,-1.331 2.244,-2.245 l 5.492,5.49 v -3.092 c 0,-0.877 0.711,-1.588 1.588,-1.588 0.875,0 1.586,0.711 1.586,1.588 v 8.512 h -1.582 c -0.002,0 -0.002,0 -0.004,0 -0.004,0 -0.006,0 -0.008,0 h -6.919 c -0.875,0 -1.586,-0.711 -1.586,-1.588 0,-0.877 0.711,-1.586 1.586,-1.586 h 3.091 l -5.488,-5.491 z m 10.91,-18.708 c 0,0.002 0,0.004 0,0.006 v 6.92 c 0,0.877 -0.711,1.588 -1.586,1.588 -0.877,0 -1.588,-0.711 -1.588,-1.588 v -3.09 l -5.49,5.488 c -0.562,-0.912 -1.332,-1.683 -2.243,-2.244 l 5.491,-5.49 h -3.097 c -0.875,0 -1.586,-0.712 -1.586,-1.588 0,-0.876 0.711,-1.588 1.586,-1.588 h 8.513 v 1.586 z m -20.294,16.463 c 0.562,0.914 1.334,1.683 2.244,2.245 l -5.486,5.491 h 3.092 c 0.875,0 1.588,0.711 1.588,1.586 0,0.877 -0.713,1.588 -1.588,1.588 h -8.512 v -8.512 c 0,-0.877 0.711,-1.588 1.588,-1.588 0.875,0 1.586,0.711 1.586,1.588 v 3.092 l 5.488,-5.49 z m 0,-7.139 -5.488,-5.49 v 3.09 c 0,0.879 -0.711,1.588 -1.586,1.588 -0.877,0 -1.588,-0.709 -1.588,-1.588 v -8.51 h 8.512 c 0.875,0 1.588,0.712 1.588,1.588 0,0.876 -0.713,1.588 -1.588,1.588 h -3.092 l 5.486,5.49 c -0.91,0.562 -1.683,1.33 -2.244,2.244 z"
     id="path79"
     inkscape:connector-curvature="0"
     style="fill:#010101" /><path
     d="m 90.003951,244.37073 c -14.148,0 -25.619,11.469 -25.619,25.619 0,14.148 11.471,25.62 25.619,25.62 14.149999,0 25.616999,-11.472 25.616999,-25.62 0,-14.15 -11.467,-25.619 -25.616999,-25.619 z m 3.568,31.434 c 0.912,-0.562 1.682,-1.331 2.244,-2.245 l 5.491999,5.49 v -3.092 c 0,-0.877 0.711,-1.588 1.588,-1.588 0.875,0 1.586,0.711 1.586,1.588 v 8.512 h -1.582 c -0.002,0 -0.002,0 -0.004,0 -0.004,0 -0.006,0 -0.008,0 h -6.917999 c -0.875,0 -1.586,-0.711 -1.586,-1.588 0,-0.877 0.711,-1.586 1.586,-1.586 h 3.09 l -5.488,-5.491 z m 10.909999,-18.708 c 0,0.002 0,0.004 0,0.006 v 6.92 c 0,0.877 -0.711,1.588 -1.586,1.588 -0.877,0 -1.588,-0.711 -1.588,-1.588 v -3.09 l -5.489999,5.488 c -0.562,-0.912 -1.332,-1.683 -2.244,-2.244 l 5.492,-5.49 h -3.096 c -0.875,0 -1.586,-0.712 -1.586,-1.588 0,-0.876 0.711,-1.588 1.586,-1.588 h 8.511999 v 1.586 z m -20.294999,16.463 c 0.562,0.914 1.334,1.683 2.244,2.245 l -5.488,5.491 h 3.092 c 0.875,0 1.588,0.711 1.588,1.586 0,0.877 -0.713,1.588 -1.588,1.588 h -8.512 v -8.512 c 0,-0.877 0.711,-1.588 1.588,-1.588 0.875,0 1.586,0.711 1.586,1.588 v 3.092 l 5.49,-5.49 z m 0,-7.139 -5.49,-5.49 v 3.09 c 0,0.879 -0.711,1.588 -1.586,1.588 -0.877,0 -1.588,-0.709 -1.588,-1.588 v -8.51 h 8.512 c 0.875,0 1.588,0.712 1.588,1.588 0,0.876 -0.713,1.588 -1.588,1.588 h -3.092 l 5.488,5.49 c -0.91,0.562 -1.681,1.33 -2.244,2.244 z"
     id="path81"
     inkscape:connector-curvature="0"
     style="fill:#f09622" /><path
     d="m 30.001951,244.37073 c -14.148,0 -25.6189993,11.469 -25.6189993,25.619 0,14.148 11.4709993,25.62 25.6189993,25.62 14.15,0 25.617,-11.472 25.617,-25.62 0,-14.15 -11.466,-25.619 -25.617,-25.619 z m 3.569,31.434 c 0.912,-0.562 1.682,-1.331 2.244,-2.245 l 5.492,5.49 v -3.092 c 0,-0.877 0.711,-1.588 1.588,-1.588 0.875,0 1.586,0.711 1.586,1.588 v 8.512 h -1.582 c -0.002,0 -0.002,0 -0.004,0 -0.004,0 -0.006,0 -0.008,0 h -6.918 c -0.875,0 -1.586,-0.711 -1.586,-1.588 0,-0.877 0.711,-1.586 1.586,-1.586 h 3.09 l -5.488,-5.491 z m 10.91,-18.708 c 0,0.002 0,0.004 0,0.006 v 6.92 c 0,0.877 -0.711,1.588 -1.586,1.588 -0.877,0 -1.588,-0.711 -1.588,-1.588 v -3.09 l -5.49,5.488 c -0.562,-0.912 -1.332,-1.683 -2.244,-2.244 l 5.492,-5.49 h -3.096 c -0.875,0 -1.586,-0.712 -1.586,-1.588 0,-0.876 0.711,-1.588 1.586,-1.588 h 8.512 v 1.586 z m -20.295,16.463 c 0.562,0.914 1.334,1.683 2.244,2.245 l -5.488,5.491 h 3.092 c 0.875,0 1.588,0.711 1.588,1.586 0,0.877 -0.713,1.588 -1.588,1.588 h -8.512 v -8.512 c 0,-0.877 0.711,-1.588 1.588,-1.588 0.875,0 1.586,0.711 1.586,1.588 v 3.092 l 5.49,-5.49 z m 0,-7.139 -5.49,-5.49 v 3.09 c 0,0.879 -0.711,1.588 -1.586,1.588 -0.877,0 -1.588,-0.709 -1.588,-1.588 v -8.51 h 8.512 c 0.875,0 1.588,0.712 1.588,1.588 0,0.876 -0.713,1.588 -1.588,1.588 h -3.092 l 5.488,5.49 c -0.91,0.562 -1.682,1.33 -2.244,2.244 z"
     id="path83"
     inkscape:connector-curvature="0"
     style="fill:#ffffff" /><path
     d="m 210.00595,304.37973 c -14.146,0 -25.619,11.469 -25.619,25.618 0,14.147 11.473,25.621 25.619,25.621 14.148,0 25.616,-11.474 25.616,-25.621 0,-14.149 -11.466,-25.618 -25.616,-25.618 z m -4.02,39.564 c -1.053,0 -2.104,-0.4 -2.905,-1.204 -1.606,-1.606 -1.606,-4.212 0,-5.813 l 6.924,-6.923 -7.01,-7.012 c -1.604,-1.604 -1.604,-4.211 0,-5.813 1.608,-1.605 4.211,-1.605 5.813,0 l 12.823,12.823 -12.737,12.738 c -0.804,0.803 -1.858,1.204 -2.908,1.204 z"
     id="path85"
     inkscape:connector-curvature="0"
     style="fill:#43a748" /><path
     d="m 150.00595,304.37973 c -14.146,0 -25.619,11.469 -25.619,25.618 0,14.147 11.473,25.621 25.619,25.621 14.148,0 25.616,-11.474 25.616,-25.621 0,-14.149 -11.466,-25.618 -25.616,-25.618 z m -4.02,39.564 c -1.053,0 -2.104,-0.4 -2.905,-1.204 -1.606,-1.606 -1.606,-4.212 0,-5.813 l 6.924,-6.923 -7.01,-7.012 c -1.604,-1.604 -1.604,-4.211 0,-5.813 1.608,-1.605 4.211,-1.605 5.813,0 l 12.823,12.823 -12.737,12.738 c -0.804,0.803 -1.858,1.204 -2.908,1.204 z"
     id="path87"
     inkscape:connector-curvature="0"
     style="fill:#010101" /><path
     d="m 90.005951,304.37973 c -14.148,0 -25.619,11.469 -25.619,25.618 0,14.147 11.471,25.621 25.619,25.621 14.149999,0 25.616999,-11.474 25.616999,-25.621 0,-14.149 -11.467,-25.618 -25.616999,-25.618 z m -4.02,39.564 c -1.053,0 -2.105,-0.4 -2.906,-1.204 -1.607,-1.606 -1.607,-4.212 0,-5.813 l 6.924,-6.923 -7.01,-7.012 c -1.605,-1.604 -1.605,-4.211 0,-5.813 1.609,-1.605 4.211,-1.605 5.814,0 l 12.823999,12.823 -12.737999,12.738 c -0.804,0.803 -1.857,1.204 -2.908,1.204 z"
     id="path89"
     inkscape:connector-curvature="0"
     style="fill:#f09622" /><path
     d="m 30.003951,304.37973 c -14.148,0 -25.6189993,11.469 -25.6189993,25.618 0,14.147 11.4709993,25.621 25.6189993,25.621 14.15,0 25.617,-11.474 25.617,-25.621 0,-14.149 -11.466,-25.618 -25.617,-25.618 z m -4.019,39.564 c -1.053,0 -2.105,-0.4 -2.906,-1.204 -1.607,-1.606 -1.607,-4.212 0,-5.813 l 6.924,-6.923 -7.01,-7.012 c -1.605,-1.604 -1.605,-4.211 0,-5.813 1.609,-1.605 4.211,-1.605 5.814,0 l 12.824,12.823 -12.738,12.738 c -0.805,0.803 -1.858,1.204 -2.908,1.204 z"
     id="path91"
     inkscape:connector-curvature="0"
     style="fill:#ffffff" /><path
     d="m 210.00495,364.37773 c -14.147,0 -25.619,11.469 -25.619,25.618 0,14.147 11.472,25.621 25.619,25.621 14.149,0 25.617,-11.474 25.617,-25.621 0,-14.149 -11.468,-25.618 -25.617,-25.618 z m -5.844,37.432 -4.808,0.002 c -0.638,-0.002 -1.151,-0.517 -1.151,-1.152 v -4.809 c 0,-0.345 0.153,-0.648 0.393,-0.861 0.029,-0.035 0.054,-0.071 0.089,-0.108 l 13.76,-13.759 6.428,6.429 -13.758,13.759 c -0.21,0.299 -0.555,0.499 -0.953,0.499 z m 17.118,-16.67 -1.23,1.229 -6.429,-6.429 1.231,-1.229 c 0.703,-0.703 1.842,-0.703 2.547,0 l 3.881,3.881 c 0.703,0.703 0.703,1.845 0,2.548 z"
     id="path93"
     inkscape:connector-curvature="0"
     style="fill:#43a748" /><path
     d="m 199.25895,396.60973 v 3.32 c 0.002,0.441 0.356,0.797 0.798,0.797 h 3.319 c 0.03,0 0.06,-0.016 0.088,-0.018 l -4.187,-4.188 c -0.005,0.032 -0.018,0.059 -0.018,0.089 z"
     id="path95"
     inkscape:connector-curvature="0"
     style="fill:#43a748" /><path
     d="m 150.00595,364.37773 c -14.146,0 -25.619,11.469 -25.619,25.618 0,14.147 11.473,25.621 25.619,25.621 14.148,0 25.616,-11.474 25.616,-25.621 0,-14.149 -11.466,-25.618 -25.616,-25.618 z m -5.845,37.432 -4.808,0.002 c -0.637,-0.002 -1.151,-0.517 -1.151,-1.152 v -4.809 c 0,-0.345 0.153,-0.648 0.394,-0.861 0.028,-0.035 0.055,-0.071 0.088,-0.108 l 13.762,-13.759 6.428,6.429 -13.758,13.759 c -0.21,0.299 -0.557,0.499 -0.955,0.499 z m 17.12,-16.67 -1.231,1.229 -6.428,-6.429 1.231,-1.229 c 0.703,-0.703 1.842,-0.703 2.547,0 l 3.881,3.881 c 0.703,0.703 0.703,1.845 0,2.548 z"
     id="path97"
     inkscape:connector-curvature="0"
     style="fill:#010101" /><path
     d="m 139.25995,396.60973 v 3.32 c 0.002,0.441 0.355,0.797 0.797,0.797 h 3.32 c 0.029,0 0.059,-0.016 0.088,-0.018 l -4.188,-4.188 c -0.005,0.032 -0.017,0.059 -0.017,0.089 z"
     id="path99"
     inkscape:connector-curvature="0"
     style="fill:#010101" /><path
     d="m 90.004951,364.37773 c -14.148,0 -25.619,11.469 -25.619,25.618 0,14.147 11.471,25.621 25.619,25.621 14.149999,0 25.616999,-11.474 25.616999,-25.621 0,-14.149 -11.467,-25.618 -25.616999,-25.618 z m -5.844,37.432 -4.807,0.002 c -0.637,-0.002 -1.152,-0.517 -1.152,-1.152 v -4.809 c 0,-0.345 0.154,-0.648 0.393,-0.861 0.029,-0.035 0.053,-0.071 0.088,-0.108 l 13.76,-13.759 6.428,6.429 -13.758,13.759 c -0.208,0.299 -0.556,0.499 -0.952,0.499 z m 17.118999,-16.67 -1.232,1.229 -6.427999,-6.429 1.232,-1.229 c 0.703,-0.703 1.842,-0.703 2.547,0 l 3.880999,3.881 c 0.703,0.703 0.703,1.845 0,2.548 z"
     id="path101"
     inkscape:connector-curvature="0"
     style="fill:#f09622" /><path
     d="m 79.258951,396.60973 v 3.32 c 0.002,0.441 0.357,0.797 0.797,0.797 h 3.32 c 0.031,0 0.059,-0.016 0.088,-0.018 l -4.186,-4.188 c -0.008,0.032 -0.019,0.059 -0.019,0.089 z"
     id="path103"
     inkscape:connector-curvature="0"
     style="fill:#f09622" /><path
     d="m 30.002951,364.37773 c -14.148,0 -25.6189993,11.469 -25.6189993,25.618 0,14.147 11.4709993,25.621 25.6189993,25.621 14.15,0 25.617,-11.474 25.617,-25.621 0,-14.149 -11.466,-25.618 -25.617,-25.618 z m -5.844,37.432 -4.807,0.002 c -0.637,-0.002 -1.152,-0.517 -1.152,-1.152 v -4.809 c 0,-0.345 0.154,-0.648 0.393,-0.861 0.029,-0.035 0.053,-0.071 0.088,-0.108 l 13.76,-13.759 6.428,6.429 -13.758,13.759 c -0.207,0.299 -0.555,0.499 -0.952,0.499 z m 17.12,-16.67 -1.232,1.229 -6.428,-6.429 1.232,-1.229 c 0.703,-0.703 1.842,-0.703 2.547,0 l 3.881,3.881 c 0.703,0.703 0.703,1.845 0,2.548 z"
     id="path105"
     inkscape:connector-curvature="0"
     style="fill:#ffffff" /><path
     d="m 19.256951,396.60973 v 3.32 c 0.002,0.441 0.357,0.797 0.797,0.797 h 3.32 c 0.031,0 0.059,-0.016 0.088,-0.018 l -4.186,-4.188 c -0.007,0.032 -0.019,0.059 -0.019,0.089 z"
     id="path107"
     inkscape:connector-curvature="0"
     style="fill:#ffffff" /><path
     d="m 210.00595,424.37573 c -14.146,0 -25.619,11.469 -25.619,25.619 0,14.146 11.473,25.62 25.619,25.62 14.148,0 25.616,-11.475 25.616,-25.62 0,-14.15 -11.466,-25.619 -25.616,-25.619 z m 12.769,37.375 c -1.25,1.252 -2.912,1.938 -4.683,1.938 -1.769,0 -3.433,-0.686 -4.683,-1.938 -1.771,-1.773 -2.328,-4.312 -1.664,-6.562 l -1.838,-1.838 -1.649,1.652 c 0.664,2.252 0.106,4.789 -1.666,6.563 -1.25,1.25 -2.911,1.938 -4.683,1.938 -1.768,0 -3.43,-0.688 -4.68,-1.938 -2.582,-2.582 -2.582,-6.782 0,-9.362 1.248,-1.252 2.912,-1.939 4.68,-1.939 0.648,0 1.281,0.095 1.886,0.271 l 1.647,-1.65 0.834,-0.83 10.826,-10.83 c 1.233,-1.229 3.231,-1.229 4.465,0 1.231,1.234 1.231,3.232 0,4.466 l -7.195,7.194 1.837,1.836 c 0.604,-0.178 1.235,-0.271 1.883,-0.271 1.771,0 3.433,0.688 4.683,1.938 2.584,2.581 2.584,6.78 0,9.362 z m -14.246,-18.711 -4.463,4.465 -5.683,-5.68 c -1.229,-1.232 -1.229,-3.23 0,-4.466 1.231,-1.231 3.231,-1.231 4.466,0 l 5.68,5.681 z"
     id="path109"
     inkscape:connector-curvature="0"
     style="fill:#43a748" /><circle
     cx="209.907"
     cy="448.88501"
     r="1.459"
     id="circle111"
     sodipodi:cx="209.907"
     sodipodi:cy="448.88501"
     sodipodi:rx="1.459"
     sodipodi:ry="1.459"
     style="fill:#43a748"
     transform="translate(0.00195165,7.3225385e-4)" /><path
     d="m 201.91095,454.20773 c -0.586,0 -1.14,0.19 -1.599,0.535 -0.102,0.075 -0.201,0.157 -0.293,0.248 -1.043,1.043 -1.043,2.741 0,3.782 0.506,0.506 1.178,0.782 1.892,0.782 0.716,0 1.388,-0.278 1.892,-0.782 0.094,-0.093 0.174,-0.192 0.25,-0.291 0.781,-1.05 0.701,-2.541 -0.25,-3.491 -0.504,-0.504 -1.176,-0.783 -1.892,-0.783 z"
     id="path113"
     inkscape:connector-curvature="0"
     style="fill:#43a748" /><path
     d="m 219.52195,454.80973 c -0.422,-0.268 -0.91,-0.416 -1.428,-0.416 -0.713,0 -1.385,0.279 -1.892,0.783 -0.899,0.902 -1.021,2.285 -0.369,3.318 0.104,0.166 0.228,0.321 0.369,0.465 0.506,0.504 1.179,0.783 1.892,0.783 0.715,0 1.389,-0.279 1.893,-0.783 1.045,-1.043 1.045,-2.74 0,-3.783 -0.139,-0.139 -0.299,-0.262 -0.465,-0.367 z"
     id="path115"
     inkscape:connector-curvature="0"
     style="fill:#43a748" /><path
     d="m 150.00395,424.37573 c -14.146,0 -25.619,11.469 -25.619,25.619 0,14.146 11.471,25.62 25.619,25.62 14.148,0 25.616,-11.475 25.616,-25.62 0,-14.15 -11.466,-25.619 -25.616,-25.619 z m 12.769,37.375 c -1.25,1.252 -2.912,1.938 -4.683,1.938 -1.769,0 -3.433,-0.686 -4.683,-1.938 -1.772,-1.773 -2.328,-4.312 -1.664,-6.562 l -1.838,-1.838 -1.649,1.652 c 0.664,2.252 0.106,4.789 -1.666,6.563 -1.25,1.25 -2.912,1.938 -4.683,1.938 -1.768,0 -3.43,-0.688 -4.68,-1.938 -2.582,-2.582 -2.582,-6.782 0,-9.362 1.248,-1.252 2.912,-1.939 4.68,-1.939 0.648,0 1.281,0.095 1.886,0.271 l 1.647,-1.65 0.834,-0.83 10.826,-10.83 c 1.233,-1.229 3.231,-1.229 4.465,0 1.231,1.234 1.231,3.232 0,4.466 l -7.195,7.194 1.836,1.836 c 0.604,-0.178 1.236,-0.271 1.884,-0.271 1.771,0 3.433,0.688 4.683,1.938 2.584,2.581 2.584,6.78 0,9.362 z m -14.246,-18.711 -4.463,4.465 -5.683,-5.68 c -1.229,-1.232 -1.229,-3.23 0,-4.466 1.231,-1.231 3.231,-1.231 4.466,0 l 5.68,5.681 z"
     id="path117"
     inkscape:connector-curvature="0"
     style="fill:#010101" /><circle
     cx="149.90401"
     cy="448.88501"
     r="1.459"
     id="circle119"
     sodipodi:cx="149.90401"
     sodipodi:cy="448.88501"
     sodipodi:rx="1.459"
     sodipodi:ry="1.459"
     style="fill:#010101"
     transform="translate(0.00195165,7.3225385e-4)" /><path
     d="m 141.90895,454.20773 c -0.587,0 -1.14,0.19 -1.599,0.535 -0.102,0.075 -0.201,0.157 -0.293,0.248 -1.043,1.043 -1.043,2.741 0,3.782 0.506,0.506 1.178,0.782 1.892,0.782 0.715,0 1.388,-0.278 1.892,-0.782 0.094,-0.093 0.174,-0.192 0.25,-0.291 0.78,-1.05 0.701,-2.541 -0.25,-3.491 -0.504,-0.504 -1.177,-0.783 -1.892,-0.783 z"
     id="path121"
     inkscape:connector-curvature="0"
     style="fill:#010101" /><path
     d="m 159.51995,454.80973 c -0.422,-0.268 -0.91,-0.416 -1.428,-0.416 -0.713,0 -1.386,0.279 -1.892,0.783 -0.899,0.902 -1.021,2.285 -0.369,3.318 0.104,0.166 0.228,0.321 0.369,0.465 0.506,0.504 1.179,0.783 1.892,0.783 0.715,0 1.387,-0.279 1.893,-0.783 1.045,-1.043 1.045,-2.74 0,-3.783 -0.139,-0.139 -0.299,-0.262 -0.465,-0.367 z"
     id="path123"
     inkscape:connector-curvature="0"
     style="fill:#010101" /><path
     d="m 90.004951,424.37573 c -14.148,0 -25.619,11.469 -25.619,25.619 0,14.146 11.471,25.62 25.619,25.62 14.149999,0 25.616999,-11.475 25.616999,-25.62 0,-14.15 -11.467,-25.619 -25.616999,-25.619 z m 12.768999,37.375 c -1.25,1.252 -2.911999,1.938 -4.681999,1.938 -1.768,0 -3.432,-0.686 -4.682,-1.938 -1.773,-1.773 -2.328,-4.312 -1.664,-6.562 l -1.838,-1.838 -1.65,1.652 c 0.664,2.252 0.107,4.789 -1.666,6.563 -1.25,1.25 -2.912,1.938 -4.682,1.938 -1.768,0 -3.43,-0.688 -4.68,-1.938 -2.582,-2.582 -2.582,-6.782 0,-9.362 1.248,-1.252 2.912,-1.939 4.68,-1.939 0.648,0 1.281,0.095 1.885,0.271 l 1.648,-1.65 0.834,-0.83 10.826,-10.83 c 1.234,-1.229 3.231999,-1.229 4.464999,0 1.232,1.234 1.232,3.232 0,4.466 l -7.194999,7.194 1.836,1.836 c 0.604,-0.178 1.236,-0.271 1.883,-0.271 1.77,0 3.431999,0.688 4.681999,1.938 2.584,2.581 2.584,6.78 0,9.362 z m -14.245999,-18.711 -4.463,4.465 -5.682,-5.68 c -1.23,-1.232 -1.23,-3.23 0,-4.466 1.232,-1.231 3.232,-1.231 4.465,0 l 5.68,5.681 z"
     id="path125"
     inkscape:connector-curvature="0"
     style="fill:#f09622" /><circle
     cx="89.906998"
     cy="448.88501"
     r="1.459"
     id="circle127"
     sodipodi:cx="89.906998"
     sodipodi:cy="448.88501"
     sodipodi:rx="1.459"
     sodipodi:ry="1.459"
     style="fill:#f09622"
     transform="translate(0.00195165,7.3225385e-4)" /><path
     d="m 81.910951,454.20773 c -0.586,0 -1.139,0.19 -1.598,0.535 -0.102,0.075 -0.201,0.157 -0.293,0.248 -1.043,1.043 -1.043,2.741 0,3.782 0.506,0.506 1.178,0.782 1.891,0.782 0.715,0 1.387,-0.278 1.891,-0.782 0.094,-0.093 0.174,-0.192 0.25,-0.291 0.781,-1.05 0.701,-2.541 -0.25,-3.491 -0.504,-0.504 -1.176,-0.783 -1.891,-0.783 z"
     id="path129"
     inkscape:connector-curvature="0"
     style="fill:#f09622" /><path
     d="m 99.519951,454.80973 c -0.422,-0.268 -0.912,-0.416 -1.428,-0.416 -0.713,0 -1.385,0.279 -1.891,0.783 -0.9,0.902 -1.021,2.285 -0.369,3.318 0.104,0.166 0.227,0.321 0.369,0.465 0.506,0.504 1.178,0.783 1.891,0.783 0.715,0 1.387,-0.279 1.891,-0.783 1.044999,-1.043 1.044999,-2.74 0,-3.783 -0.137,-0.139 -0.297,-0.262 -0.463,-0.367 z"
     id="path131"
     inkscape:connector-curvature="0"
     style="fill:#f09622" /><path
     d="m 30.003951,424.37573 c -14.148,0 -25.6189993,11.469 -25.6189993,25.619 0,14.146 11.4709993,25.62 25.6189993,25.62 14.15,0 25.617,-11.475 25.617,-25.62 0,-14.15 -11.466,-25.619 -25.617,-25.619 z m 12.77,37.375 c -1.25,1.252 -2.912,1.938 -4.682,1.938 -1.768,0 -3.432,-0.686 -4.682,-1.938 -1.773,-1.773 -2.328,-4.312 -1.664,-6.562 l -1.838,-1.838 -1.65,1.652 c 0.664,2.252 0.107,4.789 -1.666,6.563 -1.25,1.25 -2.912,1.938 -4.682,1.938 -1.768,0 -3.43,-0.688 -4.68,-1.938 -2.582,-2.582 -2.582,-6.782 0,-9.362 1.248,-1.252 2.912,-1.939 4.68,-1.939 0.648,0 1.281,0.095 1.885,0.271 l 1.648,-1.65 0.834,-0.83 10.826,-10.83 c 1.234,-1.229 3.232,-1.229 4.465,0 1.232,1.234 1.232,3.232 0,4.466 l -7.195,7.194 1.836,1.836 c 0.604,-0.178 1.236,-0.271 1.883,-0.271 1.77,0 3.432,0.688 4.682,1.938 2.584,2.581 2.584,6.78 0,9.362 z m -14.246,-18.711 -4.463,4.465 -5.682,-5.68 c -1.23,-1.232 -1.23,-3.23 0,-4.466 1.232,-1.231 3.232,-1.231 4.465,0 l 5.68,5.681 z"
     id="path133"
     inkscape:connector-curvature="0"
     style="fill:#ffffff" /><circle
     cx="29.906"
     cy="448.88501"
     r="1.459"
     id="circle135"
     sodipodi:cx="29.906"
     sodipodi:cy="448.88501"
     sodipodi:rx="1.459"
     sodipodi:ry="1.459"
     style="fill:#ffffff"
     transform="translate(0.00195165,7.3225385e-4)" /><path
     d="m 21.909951,454.20773 c -0.586,0 -1.139,0.19 -1.598,0.535 -0.102,0.075 -0.201,0.157 -0.293,0.248 -1.043,1.043 -1.043,2.741 0,3.782 0.506,0.506 1.178,0.782 1.891,0.782 0.715,0 1.387,-0.278 1.891,-0.782 0.094,-0.093 0.174,-0.192 0.25,-0.291 0.781,-1.05 0.701,-2.541 -0.25,-3.491 -0.504,-0.504 -1.176,-0.783 -1.891,-0.783 z"
     id="path137"
     inkscape:connector-curvature="0"
     style="fill:#ffffff" /><path
     d="m 39.519951,454.80973 c -0.422,-0.268 -0.912,-0.416 -1.428,-0.416 -0.713,0 -1.385,0.279 -1.891,0.783 -0.9,0.902 -1.021,2.285 -0.369,3.318 0.104,0.166 0.227,0.321 0.369,0.465 0.506,0.504 1.178,0.783 1.891,0.783 0.715,0 1.387,-0.279 1.891,-0.783 1.045,-1.043 1.045,-2.74 0,-3.783 -0.137,-0.139 -0.297,-0.262 -0.463,-0.367 z"
     id="path139"
     inkscape:connector-curvature="0"
     style="fill:#ffffff" /><rect
     style="fill:none"
     y="706.80164"
     x="-4.8497448"
     width="60"
     height="60"
     id="rect6" /><rect
     style="fill:none"
     y="706.80164"
     x="55.150257"
     width="60"
     height="60"
     id="rect8" /><rect
     style="fill:none"
     y="706.80164"
     x="115.15025"
     width="60"
     height="60"
     id="rect10" /><rect
     style="fill:none"
     y="706.80164"
     x="175.15025"
     width="60"
     height="60"
     id="rect12" /><path
     style="fill:#43a748"
     inkscape:connector-curvature="0"
     d="m 209.38013,604.36162 c -13.80699,0 -25,11.193 -25,25 0,13.807 11.19301,25 25,25 13.807,0 25,-11.193 25,-25 0,-13.807 -11.193,-25 -25,-25 z m 7.35,34.872 c 0,2.407 -1.956,4.364 -4.361,4.364 h -12.214 c -2.405,0 -4.364,-1.957 -4.364,-4.364 v -19.745 c 0,-2.406 1.959,-4.363 4.364,-4.363 h 12.214 c 2.405,0 4.361,1.957 4.361,4.363 v 2.914 c 0,1.41 -1.144,2.554 -2.553,2.554 -1.411,0 -2.554,-1.144 -2.554,-2.554 v -2.17 h -10.725 v 18.258 h 10.726 v -2.17 c 0,-1.41 1.143,-2.554 2.554,-2.554 1.409,0 2.553,1.144 2.553,2.554 v 2.913 z m 11.585,-8.292 -6.427,6.426 c -0.437,0.438 -1.00899,0.655 -1.58,0.655 -0.572,0 -1.144,-0.218 -1.58,-0.655 -0.872,-0.872 -0.872,-2.287 0,-3.159 l 2.613,-2.613 h -12.574 c -1.233,0 -2.232,-1 -2.232,-2.233 0,-1.234 0.999,-2.235 2.232,-2.235 h 12.574 l -2.613,-2.612 c -0.871,-0.872 -0.871,-2.287 0,-3.159 0.873,-0.872 2.287,-0.872 3.16,0 l 6.427,6.427 c 0.872,0.87 0.872,2.286 0,3.158 z"
     id="path14" /><path
     style="fill:#f09622"
     inkscape:connector-curvature="0"
     d="m 89.385198,604.35916 c -13.807,0 -25,11.193 -25,25 0,13.807 11.193,25 25,25 13.807002,0 25.000002,-11.193 25.000002,-25 0,-13.807 -11.193,-25 -25.000002,-25 z m 7.35,34.872 c 0,2.407 -1.956,4.364 -4.361,4.364 h -12.214 c -2.405,0 -4.364,-1.957 -4.364,-4.364 v -19.745 c 0,-2.406 1.959,-4.363 4.364,-4.363 h 12.214 c 2.405,0 4.361,1.957 4.361,4.363 v 2.914 c 0,1.41 -1.144,2.554 -2.553,2.554 -1.411,0 -2.554,-1.144 -2.554,-2.554 v -2.17 h -10.725 v 18.258 h 10.726 v -2.17 c 0,-1.41 1.143,-2.554 2.554,-2.554 1.409,0 2.553,1.144 2.553,2.554 v 2.913 z m 11.585002,-8.292 -6.427,6.426 c -0.437,0.438 -1.009,0.655 -1.58,0.655 -0.572007,0 -1.144007,-0.218 -1.580007,-0.655 -0.871995,-0.872 -0.871995,-2.287 0,-3.159 l 2.613007,-2.613 H 88.772198 c -1.233,0 -2.232,-1 -2.232,-2.233 0,-1.234 0.999,-2.235 2.232,-2.235 H 101.3462 l -2.613007,-2.612 c -0.870995,-0.872 -0.870995,-2.287 0,-3.159 0.873,-0.872 2.287007,-0.872 3.160007,0 l 6.427,6.427 c 0.872,0.87 0.872,2.286 0,3.158 z"
     id="path16" /><path
     style="fill:#010101"
     inkscape:connector-curvature="0"
     d="m 149.4,604.36239 c -13.808,0 -25,11.193 -25,25 0,13.807 11.192,25 25,25 13.807,0 24.999,-11.193 24.999,-25 0,-13.807 -11.192,-25 -24.999,-25 z m 7.35,34.872 c 0,2.407 -1.956,4.364 -4.361,4.364 h -12.214 c -2.405,0 -4.364,-1.957 -4.364,-4.364 v -19.745 c 0,-2.406 1.959,-4.363 4.364,-4.363 h 12.214 c 2.405,0 4.361,1.957 4.361,4.363 v 2.914 c 0,1.41 -1.144,2.554 -2.553,2.554 -1.411,0 -2.554,-1.144 -2.554,-2.554 v -2.17 h -10.726 v 18.258 h 10.726 v -2.17 c 0,-1.41 1.143,-2.554 2.554,-2.554 1.409,0 2.553,1.144 2.553,2.554 v 2.913 z m 11.585,-8.292 -6.427,6.426 c -0.437,0.438 -1.009,0.655 -1.58,0.655 -0.572,0 -1.144,-0.218 -1.58,-0.655 -0.872,-0.872 -0.872,-2.287 0,-3.159 l 2.613,-2.613 h -12.574 c -1.233,0 -2.232,-1 -2.232,-2.233 0,-1.234 0.999,-2.235 2.232,-2.235 h 12.574 l -2.613,-2.612 c -0.871,-0.872 -0.871,-2.287 0,-3.159 0.873,-0.872 2.287,-0.872 3.16,0 l 6.427,6.427 c 0.872,0.87 0.872,2.286 0,3.158 z"
     id="path18" /><path
     style="fill:#ffffff"
     inkscape:connector-curvature="0"
     d="m 29.380803,604.35517 c -13.808,0 -24.9999991,11.193 -24.9999991,25 0,13.807 11.1919991,25 24.9999991,25 13.807,0 24.999,-11.193 24.999,-25 0,-13.807 -11.192,-25 -24.999,-25 z m 7.35,34.872 c 0,2.407 -1.956,4.364 -4.361,4.364 h -12.214 c -2.405,0 -4.364,-1.957 -4.364,-4.364 v -19.745 c 0,-2.406 1.959,-4.363 4.364,-4.363 h 12.214 c 2.405,0 4.361,1.957 4.361,4.363 v 2.914 c 0,1.41 -1.144,2.554 -2.553,2.554 -1.411,0 -2.554,-1.144 -2.554,-2.554 v -2.17 h -10.726 v 18.258 h 10.726 v -2.17 c 0,-1.41 1.143,-2.554 2.554,-2.554 1.409,0 2.553,1.144 2.553,2.554 v 2.913 z m 5.158,-1.866 c -0.437,0.438 -1.009,0.655 -1.58,0.655 -0.572,0 -1.144,-0.218 -1.58,-0.655 -0.872,-0.872 -0.872,-2.287 0,-3.159 l 2.613,-2.613 h -12.574 c -1.233,0 -2.232,-1 -2.232,-2.233 0,-1.234 0.999,-2.235 2.232,-2.235 h 12.574 l -2.613,-2.612 c -0.871,-0.872 -0.871,-2.287 0,-3.159 0.873,-0.872 2.287,-0.872 3.16,0 l 6.427,6.427 c 0.872,0.872 0.872,2.288 0,3.16 l -6.427,6.424 z"
     id="path20" /></svg>