<?xml version="1.0" encoding="utf-8"?>
<!-- Generator: Adobe Illustrator 15.1.0, SVG Export Plug-In . SVG Version: 6.00 Build 0)  -->
<!DOCTYPE svg PUBLIC "-//W3C//DTD SVG 1.1//EN" "http://www.w3.org/Graphics/SVG/1.1/DTD/svg11.dtd">
<svg version="1.1" id="Layer_1" xmlns="http://www.w3.org/2000/svg" xmlns:xlink="http://www.w3.org/1999/xlink" x="0px" y="0px"
	 width="24em" height="60em" viewBox="0 0 240 600" enable-background="new 0 0 240 600" xml:space="preserve">
<rect x="194.903" y="435.867" fill="#FFFFFF" width="30.16" height="28.119"/>
<path fill="#FFFFFF" d="M30.003,4.38c-14.15,0-25.621,11.469-25.621,25.619c0,14.15,11.471,25.62,25.621,25.62
	c14.149,0,25.619-11.472,25.619-25.62C55.622,15.849,44.153,4.38,30.003,4.38z M41.114,35.264c1.614,1.614,1.614,4.232,0,5.846
	c-0.809,0.809-1.866,1.212-2.924,1.212c-1.058,0-2.115-0.403-2.923-1.212l-5.265-5.264l-5.264,5.264
	c-0.807,0.809-1.865,1.212-2.924,1.212c-1.058,0-2.115-0.403-2.923-1.212c-1.614-1.613-1.614-4.231,0-5.846l5.265-5.265
	l-5.265-5.265c-1.614-1.616-1.614-4.232,0-5.847c1.614-1.615,4.232-1.614,5.846,0l5.264,5.265l5.265-5.265
	c1.615-1.614,4.233-1.614,5.847,0c1.614,1.614,1.614,4.231,0,5.847l-5.266,5.265L41.114,35.264z"/>
<rect x="0.002" fill="none" stroke="#FFFFFF" stroke-width="1.064" stroke-miterlimit="10" width="60" height="59.998"/>
<path fill="#F09622" d="M90.002,4.38c-14.148,0-25.62,11.469-25.62,25.619c0,14.148,11.472,25.62,25.62,25.62
	c14.15,0,25.618-11.472,25.618-25.62C115.62,15.849,104.153,4.38,90.002,4.38z M101.114,35.264c1.614,1.614,1.614,4.232,0,5.846
	c-0.81,0.809-1.867,1.212-2.925,1.212c-1.058,0-2.116-0.403-2.922-1.212L90,35.846l-5.265,5.264
	c-0.808,0.809-1.865,1.212-2.924,1.212c-1.057,0-2.115-0.403-2.923-1.212c-1.614-1.613-1.614-4.231,0-5.846l5.265-5.265
	l-5.265-5.265c-1.614-1.616-1.614-4.232,0-5.847c1.614-1.615,4.231-1.614,5.846,0l5.265,5.265l5.267-5.265
	c1.614-1.614,4.231-1.614,5.846,0c1.615,1.614,1.614,4.231,0,5.847l-5.267,5.265L101.114,35.264z"/>
<rect x="60.002" fill="none" stroke="#FFFFFF" stroke-width="1.064" stroke-miterlimit="10" width="59.999" height="59.998"/>
<path fill="#010101" d="M150.002,4.38c-14.15,0-25.619,11.469-25.619,25.619c0,14.148,11.469,25.62,25.619,25.62
	c14.147,0,25.616-11.472,25.616-25.62C175.618,15.849,164.151,4.38,150.002,4.38z M161.112,35.264c1.612,1.614,1.612,4.232,0,5.846
	c-0.812,0.809-1.863,1.212-2.922,1.212c-1.06,0-2.117-0.403-2.927-1.212l-5.267-5.264l-5.262,5.264
	c-0.809,0.809-1.867,1.212-2.926,1.212s-2.115-0.403-2.922-1.212c-1.615-1.613-1.615-4.231,0-5.846l5.264-5.265l-5.264-5.265
	c-1.615-1.616-1.615-4.232,0-5.847c1.611-1.614,4.23-1.614,5.846,0l5.264,5.265l5.267-5.265c1.615-1.614,4.231-1.614,5.847,0
	c1.613,1.614,1.612,4.231,0,5.847l-5.267,5.265L161.112,35.264z"/>
<rect x="120.002" fill="none" stroke="#FFFFFF" stroke-width="1.064" stroke-miterlimit="10" width="60" height="59.998"/>
<path fill="#43A748" d="M210.002,4.38c-14.147,0-25.619,11.469-25.619,25.619c0,14.148,11.471,25.62,25.619,25.62
	c14.149,0,25.616-11.472,25.616-25.62C235.618,15.849,224.153,4.38,210.002,4.38z M221.114,35.264c1.612,1.614,1.612,4.232,0,5.846
	c-0.812,0.809-1.867,1.212-2.926,1.212c-1.06,0-2.117-0.403-2.925-1.212L210,35.846l-5.265,5.264
	c-0.809,0.809-1.867,1.212-2.926,1.212c-1.057,0-2.115-0.403-2.92-1.212c-1.617-1.613-1.617-4.231,0-5.846l5.262-5.265l-5.262-5.265
	c-1.617-1.616-1.617-4.232,0-5.847c1.611-1.614,4.23-1.614,5.844,0L210,24.152l5.264-5.265c1.617-1.614,4.231-1.614,5.849,0
	c1.612,1.614,1.612,4.231,0,5.847l-5.269,5.265L221.114,35.264z"/>
<rect x="180" fill="none" stroke="#FFFFFF" stroke-width="1.064" stroke-miterlimit="10" width="60" height="59.998"/>
<path fill="#FFFFFF" d="M30.003,64.377c-14.15,0-25.621,11.469-25.621,25.619c0,14.148,11.47,25.62,25.621,25.62
	c14.148,0,25.619-11.472,25.619-25.62C55.622,75.846,44.151,64.377,30.003,64.377z M41.581,94.131h-7.445v7.444
	c0,2.284-1.852,4.136-4.135,4.136c-2.283,0-4.134-1.852-4.134-4.136v-7.444h-7.446c-2.283,0-4.134-1.852-4.134-4.134
	c0-2.283,1.851-4.135,4.134-4.135h7.446v-7.444c0-2.284,1.851-4.136,4.134-4.136c2.283,0,4.135,1.852,4.135,4.136v7.444h7.445
	c2.282,0,4.134,1.852,4.134,4.135C45.715,92.279,43.864,94.131,41.581,94.131z"/>
<rect x="0.002" y="59.998" fill="none" stroke="#FFFFFF" stroke-width="1.064" stroke-miterlimit="10" width="60" height="59.997"/>
<path fill="#F09622" d="M90.001,64.377c-14.15,0-25.619,11.469-25.619,25.62c0,14.148,11.469,25.62,25.62,25.62
	c14.147,0,25.618-11.472,25.618-25.62C115.62,75.846,104.149,64.377,90.001,64.377z M101.58,94.13h-7.446v7.444
	c0,2.284-1.851,4.136-4.132,4.136c-2.284,0-4.133-1.852-4.133-4.136V94.13h-7.446c-2.284,0-4.133-1.852-4.133-4.134
	c0-2.284,1.849-4.136,4.133-4.136h7.445v-7.443c0-2.284,1.85-4.136,4.133-4.136c2.282,0,4.132,1.852,4.132,4.136v7.443h7.446
	c2.282,0,4.134,1.852,4.134,4.136C105.714,92.279,103.862,94.13,101.58,94.13z"/>
<rect x="60.002" y="59.998" fill="none" stroke="#FFFFFF" stroke-width="1.064" stroke-miterlimit="10" width="59.999" height="59.997"/>
<path fill="#010101" d="M150.004,64.378c-14.149,0-25.623,11.469-25.623,25.619c0,14.148,11.473,25.62,25.623,25.62
	c14.147,0,25.618-11.472,25.618-25.62C175.622,75.847,164.153,64.378,150.004,64.378z M161.581,94.131h-7.444v7.444
	c0,2.284-1.853,4.136-4.135,4.136c-2.279,0-4.134-1.852-4.134-4.136v-7.444h-7.444c-2.281,0-4.133-1.852-4.133-4.134
	c0-2.283,1.852-4.135,4.133-4.135h7.444v-7.444c0-2.284,1.854-4.136,4.134-4.136c2.282,0,4.135,1.852,4.135,4.136v7.444h7.444
	c2.283,0,4.136,1.852,4.136,4.135C165.719,92.28,163.866,94.131,161.581,94.131z"/>
<rect x="120.002" y="59.998" fill="none" stroke="#FFFFFF" stroke-width="1.064" stroke-miterlimit="10" width="60" height="59.997"/>
<path fill="#43A748" d="M210,64.377c-14.15,0-25.621,11.469-25.621,25.619c0,14.148,11.471,25.62,25.621,25.62
	c14.147,0,25.618-11.472,25.618-25.62C235.618,75.846,224.149,64.377,210,64.377z M221.577,94.131h-7.444v7.444
	c0,2.284-1.853,4.136-4.133,4.136c-2.285,0-4.134-1.852-4.134-4.136v-7.444h-7.444c-2.283,0-4.134-1.852-4.134-4.134
	c0-2.284,1.851-4.136,4.134-4.136h7.444v-7.443c0-2.284,1.849-4.136,4.134-4.136c2.28,0,4.133,1.852,4.133,4.136v7.443h7.444
	c2.283,0,4.136,1.852,4.136,4.136C225.715,92.279,223.864,94.131,221.577,94.131z"/>
<rect x="180" y="59.998" fill="none" stroke="#FFFFFF" stroke-width="1.064" stroke-miterlimit="10" width="60" height="59.997"/>
<path fill="#FFFFFF" d="M30.002,484.359c-14.15,0-25.621,11.472-25.621,25.621c0,14.146,11.471,25.619,25.621,25.619
	c14.148,0,25.619-11.473,25.619-25.619C55.62,495.83,44.15,484.359,30.002,484.359z M18.419,514.114
	c-2.283,0-4.134-1.853-4.134-4.134c0-2.282,1.851-4.135,4.134-4.135h23.16c2.282,0,4.134,1.853,4.134,4.135
	c0,2.281-1.851,4.134-4.134,4.134H18.419z"/>
<rect x="0.001" y="479.98" fill="none" stroke="#FFFFFF" stroke-width="1.064" stroke-miterlimit="10" width="60" height="59.998"/>
<path fill="#F09622" d="M90.001,484.359c-14.15,0-25.619,11.47-25.619,25.619c0,14.148,11.47,25.619,25.62,25.619
	c14.147,0,25.619-11.471,25.619-25.619C115.621,495.828,104.149,484.359,90.001,484.359z M78.423,514.114
	c-2.284,0-4.133-1.854-4.133-4.136c0-2.283,1.849-4.137,4.133-4.137h23.158c2.282,0,4.134,1.854,4.134,4.137
	c0,2.281-1.852,4.136-4.134,4.136H78.423z"/>
<rect x="60.002" y="479.98" fill="none" stroke="#FFFFFF" stroke-width="1.064" stroke-miterlimit="10" width="59.999" height="59.996"/>
<path fill="#010101" d="M150.002,484.359c-14.15,0-25.623,11.472-25.623,25.621c0,14.146,11.473,25.619,25.623,25.619
	c14.147,0,25.618-11.473,25.618-25.619C175.62,495.83,164.151,484.359,150.002,484.359z M138.422,514.114
	c-2.281,0-4.134-1.853-4.134-4.134c0-2.282,1.853-4.135,4.134-4.135h23.157c2.283,0,4.136,1.853,4.136,4.135
	c0.002,2.281-1.851,4.134-4.136,4.134H138.422z"/>
<rect x="120.001" y="479.98" fill="none" stroke="#FFFFFF" stroke-width="1.064" stroke-miterlimit="10" width="60.001" height="59.998"/>
<path fill="#43A748" d="M210,484.359c-14.15,0-25.619,11.47-25.619,25.619c0,14.148,11.469,25.619,25.619,25.619
	c14.147,0,25.618-11.471,25.618-25.619C235.618,495.828,224.149,484.359,210,484.359z M198.424,514.114
	c-2.285,0-4.136-1.854-4.136-4.136c0-2.283,1.851-4.137,4.136-4.137h23.153c2.283,0,4.136,1.854,4.136,4.137
	c0.002,2.281-1.851,4.136-4.136,4.136H198.424z"/>
<rect x="180" y="479.98" fill="none" stroke="#FFFFFF" stroke-width="1.064" stroke-miterlimit="10" width="60" height="59.996"/>
<path fill="#FFFFFF" d="M30.004,124.374c-14.151,0-25.622,11.47-25.622,25.619c0,14.152,11.471,25.622,25.622,25.622
	c14.148,0,25.618-11.469,25.618-25.622C55.622,135.843,44.154,124.374,30.004,124.374z M30.851,159.782
	c0,1.393-1.129,2.521-2.522,2.521H17.272c-1.393,0-2.522-1.126-2.522-2.521v-0.104c0-1.395,1.129-2.522,2.522-2.522H28.33
	c1.393,0,2.522,1.126,2.522,2.522L30.851,159.782L30.851,159.782z M45.255,150.044c0,1.393-1.128,2.522-2.52,2.522H17.272
	c-1.393,0-2.522-1.128-2.522-2.522v-0.104c0-1.391,1.129-2.521,2.522-2.521h25.463c1.392,0,2.52,1.128,2.52,2.521V150.044z
	 M45.255,140.309c0,1.391-1.128,2.521-2.52,2.521H17.272c-1.393,0-2.522-1.128-2.522-2.521v-0.105c0-1.391,1.129-2.521,2.522-2.521
	h25.463c1.392,0,2.52,1.129,2.52,2.521V140.309z"/>
<rect x="0.002" y="119.995" fill="none" stroke="#FFFFFF" stroke-width="1.064" stroke-miterlimit="10" width="60" height="59.998"/>
<path fill="#F09622" d="M90.003,124.374c-14.152,0-25.621,11.47-25.621,25.619c0,14.152,11.47,25.622,25.622,25.622
	c14.148,0,25.617-11.469,25.617-25.622C115.621,135.843,104.153,124.374,90.003,124.374z M90.848,159.783
	c0,1.393-1.128,2.521-2.521,2.521H77.27c-1.392,0-2.523-1.126-2.523-2.521v-0.104c0-1.395,1.13-2.522,2.523-2.522h11.058
	c1.392,0,2.521,1.126,2.521,2.522L90.848,159.783L90.848,159.783z M105.253,150.043c0,1.394-1.128,2.523-2.519,2.523H77.27
	c-1.392,0-2.523-1.128-2.523-2.523v-0.103c0-1.392,1.13-2.521,2.523-2.521h25.464c1.389,0,2.519,1.128,2.519,2.521V150.043z
	 M105.253,140.309c0,1.391-1.128,2.521-2.519,2.521H77.27c-1.392,0-2.523-1.128-2.523-2.521v-0.105c0-1.391,1.13-2.521,2.523-2.521
	h25.464c1.389,0,2.519,1.129,2.519,2.521V140.309z"/>
<rect x="60.002" y="119.995" fill="none" stroke="#FFFFFF" stroke-width="1.064" stroke-miterlimit="10" width="59.999" height="59.998"/>
<path fill="#010101" d="M150.004,124.374c-14.152,0-25.621,11.471-25.621,25.619c0,14.152,11.469,25.622,25.621,25.622
	c14.146,0,25.616-11.469,25.616-25.622C175.62,135.843,164.153,124.374,150.004,124.374z M150.852,159.782
	c0,1.393-1.129,2.521-2.522,2.521h-11.057c-1.392,0-2.523-1.126-2.523-2.521v-0.104c0-1.395,1.131-2.522,2.523-2.522h11.057
	c1.393,0,2.522,1.126,2.522,2.522V159.782z M165.254,150.044c0,1.392-1.125,2.522-2.521,2.522h-25.463
	c-1.391,0-2.523-1.128-2.523-2.522v-0.104c0-1.391,1.132-2.521,2.523-2.521h25.463c1.394,0,2.521,1.128,2.521,2.521V150.044z
	 M165.254,140.309c0,1.391-1.125,2.521-2.521,2.521h-25.463c-1.391,0-2.523-1.129-2.523-2.521v-0.105
	c0-1.391,1.132-2.521,2.523-2.521h25.463c1.394,0,2.521,1.129,2.521,2.521V140.309z"/>
<rect x="120.002" y="119.995" fill="none" stroke="#FFFFFF" stroke-width="1.064" stroke-miterlimit="10" width="59.999" height="59.998"/>
<rect x="180" y="119.995" fill="none" stroke="#FFFFFF" stroke-width="1.064" stroke-miterlimit="10" width="60" height="59.998"/>
<path fill="#FFFFFF" d="M30.003,184.838c-14.149,0-25.62,11.47-25.62,25.62c0,14.15,11.471,25.619,25.62,25.619
	s25.619-11.468,25.619-25.619C55.622,196.307,44.152,184.838,30.003,184.838z M45.025,206.113L26.66,224.481l-11.986-11.989
	c-1.662-1.659-1.662-4.352,0-6.014c1.661-1.661,4.354-1.663,6.016,0l5.972,5.972l12.351-12.352c1.662-1.662,4.354-1.662,6.016,0
	C46.686,201.758,46.686,204.451,45.025,206.113z"/>
<rect x="0.003" y="179.993" fill="none" stroke="#FFFFFF" stroke-width="1.064" stroke-miterlimit="10" width="59.999" height="59.998"/>
<path fill="#F09622" d="M90.003,184.859c-14.15,0-25.622,11.47-25.622,25.62c0,14.147,11.472,25.619,25.622,25.619
	c14.148,0,25.619-11.472,25.619-25.619C115.622,196.328,104.153,184.859,90.003,184.859z M105.026,206.134L86.66,224.5
	l-11.986-11.987c-1.661-1.659-1.661-4.352,0-6.016c1.659-1.661,4.354-1.661,6.014,0.002l5.973,5.97l12.352-12.35
	c1.661-1.662,4.353-1.662,6.016,0C106.687,201.78,106.687,204.473,105.026,206.134z"/>
<rect x="60.002" y="179.993" fill="none" stroke="#FFFFFF" stroke-width="1.064" stroke-miterlimit="10" width="59.999" height="59.998"/>
<path fill="#43A748" d="M210,184.859c-14.15,0-25.621,11.47-25.621,25.62c0,14.147,11.471,25.619,25.621,25.619
	c14.147,0,25.618-11.472,25.618-25.619C235.618,196.328,224.149,184.859,210,184.859z M225.024,206.134L206.657,224.5
	l-11.986-11.987c-1.662-1.659-1.662-4.352,0-6.016c1.66-1.661,4.354-1.661,6.014,0.002l5.973,5.97l12.351-12.35
	c1.662-1.662,4.354-1.662,6.021,0C226.684,201.78,226.684,204.473,225.024,206.134z"/>
<path fill="#43A748" d="M210.002,124.373c-14.152,0-25.621,11.471-25.621,25.619c0,14.152,11.469,25.622,25.621,25.622
	c14.147,0,25.618-11.469,25.618-25.622C235.62,135.843,224.151,124.373,210.002,124.373z M210.85,159.782
	c0,1.393-1.129,2.521-2.521,2.521h-11.057c-1.394,0-2.525-1.126-2.525-2.521v-0.104c0-1.395,1.131-2.522,2.525-2.522h11.057
	c1.391,0,2.521,1.126,2.521,2.522V159.782z M225.252,150.043c0,1.393-1.125,2.523-2.521,2.523h-25.463
	c-1.393,0-2.523-1.128-2.523-2.523v-0.103c0-1.392,1.132-2.521,2.523-2.521h25.463c1.391,0,2.521,1.128,2.521,2.521V150.043z
	 M225.252,140.309c0,1.391-1.125,2.521-2.521,2.521h-25.463c-1.393,0-2.523-1.129-2.523-2.521v-0.105
	c0-1.391,1.132-2.521,2.523-2.521h25.463c1.391,0,2.521,1.129,2.521,2.521V140.309z"/>
<rect x="180" y="179.993" fill="none" stroke="#FFFFFF" stroke-width="1.064" stroke-miterlimit="10" width="60" height="59.998"/>
<path fill="#010101" d="M150.002,184.859c-14.15,0-25.621,11.47-25.621,25.62c0,14.147,11.471,25.619,25.621,25.619
	c14.147,0,25.618-11.472,25.618-25.619C175.62,196.328,164.151,184.859,150.002,184.859z M165.026,206.134L146.659,224.5
	l-11.986-11.987c-1.662-1.659-1.662-4.352,0-6.016c1.66-1.661,4.354-1.661,6.014,0.002l5.973,5.97l12.351-12.35
	c1.662-1.662,4.354-1.662,6.021,0C166.686,201.78,166.686,204.473,165.026,206.134z"/>
<rect x="120.002" y="179.993" fill="none" stroke="#FFFFFF" stroke-width="1.064" stroke-miterlimit="10" width="60" height="59.998"/>
<rect x="0.001" y="539.977" fill="none" stroke="#FFFFFF" stroke-width="1.064" stroke-miterlimit="10" width="60" height="59.996"/>
<polygon fill="#FFFFFF" points="18.355,566.132 16.49,571.581 20.254,571.581 18.397,566.132 "/>
<path fill="#FFFFFF" d="M30.926,569.004c0.318-0.051,0.593-0.142,0.821-0.271c0.229-0.13,0.408-0.307,0.538-0.529
	c0.13-0.224,0.195-0.508,0.195-0.853s-0.064-0.623-0.191-0.835c-0.127-0.211-0.301-0.377-0.521-0.495
	c-0.221-0.119-0.478-0.199-0.771-0.242c-0.294-0.042-0.604-0.062-0.933-0.062h-1.389v3.365h1.211
	C30.26,569.081,30.605,569.056,30.926,569.004z"/>
<path fill="#FFFFFF" d="M32.064,570.975c-0.248-0.133-0.547-0.225-0.898-0.274c-0.35-0.052-0.739-0.076-1.169-0.076h-1.321v3.602
	h1.406c0.451,0,0.85-0.021,1.195-0.066c0.344-0.047,0.633-0.137,0.863-0.271c0.232-0.136,0.407-0.323,0.525-0.562
	c0.119-0.24,0.179-0.554,0.179-0.938c0-0.354-0.067-0.646-0.204-0.873C32.506,571.287,32.313,571.107,32.064,570.975z"/>
<path fill="#FFFFFF" d="M30.001,544.355c-14.15,0-25.619,11.47-25.619,25.619c0,14.148,11.469,25.619,25.619,25.619
	c14.148,0,25.619-11.471,25.619-25.619C55.62,555.824,44.149,544.355,30.001,544.355z M24.156,575.373
	c-0.076,0.161-0.18,0.297-0.31,0.407c-0.13,0.108-0.281,0.193-0.454,0.254c-0.172,0.06-0.354,0.089-0.546,0.089
	c-0.221,0-0.41-0.031-0.567-0.093c-0.158-0.062-0.301-0.161-0.424-0.298c-0.125-0.136-0.239-0.312-0.344-0.529
	c-0.104-0.218-0.217-0.484-0.335-0.802l-0.407-1.075h-4.796l-0.348,1.075c-0.102,0.322-0.204,0.595-0.31,0.813
	c-0.104,0.221-0.221,0.396-0.348,0.53c-0.127,0.133-0.271,0.229-0.436,0.288c-0.165,0.059-0.356,0.089-0.576,0.089
	c-0.192,0-0.375-0.029-0.547-0.089c-0.173-0.061-0.324-0.146-0.453-0.255c-0.131-0.109-0.233-0.245-0.31-0.406
	c-0.077-0.161-0.114-0.347-0.114-0.556c0-0.085,0.012-0.18,0.037-0.283c0.025-0.104,0.059-0.214,0.098-0.326
	c0.04-0.113,0.082-0.226,0.127-0.335c0.046-0.11,0.088-0.217,0.128-0.317l2.279-6.161c0.215-0.576,0.419-1.086,0.614-1.53
	c0.195-0.442,0.41-0.816,0.645-1.122c0.234-0.306,0.504-0.535,0.809-0.69c0.306-0.155,0.676-0.232,1.111-0.232
	c0.406,0,0.754,0.062,1.042,0.183c0.288,0.122,0.548,0.322,0.779,0.602c0.231,0.28,0.452,0.648,0.661,1.106
	c0.209,0.457,0.441,1.02,0.695,1.687l2.322,6.161c0.039,0.103,0.082,0.207,0.127,0.317c0.045,0.109,0.088,0.222,0.127,0.335
	s0.072,0.222,0.098,0.326c0.026,0.104,0.037,0.198,0.037,0.283C24.269,575.027,24.232,575.212,24.156,575.373z M35.667,573.975
	c-0.17,0.41-0.43,0.772-0.78,1.089s-0.795,0.572-1.334,0.769c-0.54,0.193-1.18,0.292-1.92,0.292h-3.982
	c-0.322,0-0.605-0.025-0.848-0.076c-0.244-0.051-0.448-0.154-0.615-0.311c-0.166-0.154-0.292-0.375-0.377-0.66
	c-0.084-0.285-0.127-0.662-0.127-1.131v-8.637c0-0.266,0.054-0.493,0.161-0.683c0.107-0.188,0.25-0.343,0.428-0.462
	c0.179-0.118,0.386-0.206,0.623-0.264c0.237-0.056,0.489-0.084,0.755-0.084h2.627c0.384,0,0.779,0.008,1.186,0.021
	c0.407,0.015,0.806,0.054,1.195,0.119c0.391,0.063,0.758,0.161,1.102,0.288c0.345,0.127,0.646,0.305,0.907,0.533
	c0.26,0.229,0.466,0.518,0.618,0.864c0.152,0.348,0.229,0.771,0.229,1.268c0,0.333-0.057,0.654-0.17,0.962
	c-0.113,0.308-0.273,0.586-0.483,0.835c-0.209,0.248-0.457,0.459-0.746,0.631c-0.287,0.173-0.607,0.29-0.957,0.352v0.034
	c0.424,0.062,0.807,0.181,1.148,0.353c0.342,0.173,0.632,0.389,0.868,0.647c0.237,0.261,0.421,0.561,0.552,0.898
	c0.13,0.339,0.194,0.703,0.194,1.093C35.921,573.146,35.836,573.565,35.667,573.975z M47.254,575.043
	c-0.145,0.184-0.335,0.349-0.572,0.495c-0.237,0.146-0.51,0.274-0.817,0.386c-0.309,0.11-0.626,0.202-0.954,0.275
	c-0.327,0.072-0.653,0.129-0.979,0.165c-0.325,0.036-0.626,0.056-0.902,0.056c-0.836,0-1.616-0.14-2.339-0.42
	c-0.724-0.279-1.351-0.689-1.882-1.229c-0.531-0.54-0.949-1.203-1.254-1.99c-0.305-0.789-0.458-1.691-0.458-2.709
	c0-1.027,0.151-1.947,0.454-2.759c0.302-0.811,0.725-1.495,1.267-2.055s1.188-0.987,1.937-1.284
	c0.748-0.297,1.569-0.445,2.462-0.445c0.706,0,1.32,0.045,1.843,0.133c0.523,0.088,0.956,0.208,1.301,0.359
	c0.345,0.152,0.603,0.333,0.771,0.542c0.17,0.209,0.254,0.437,0.254,0.679c0,0.164-0.033,0.307-0.102,0.429
	c-0.067,0.121-0.156,0.222-0.267,0.301c-0.111,0.079-0.233,0.137-0.369,0.174c-0.135,0.036-0.271,0.056-0.406,0.056
	c-0.079,0-0.158-0.001-0.237-0.004c-0.079-0.004-0.155-0.017-0.229-0.038c-0.215-0.058-0.42-0.112-0.615-0.166
	c-0.194-0.054-0.387-0.101-0.576-0.141c-0.189-0.039-0.378-0.072-0.567-0.098c-0.189-0.026-0.386-0.038-0.589-0.038
	c-0.424,0-0.823,0.062-1.199,0.19c-0.376,0.128-0.702,0.353-0.979,0.675c-0.277,0.32-0.496,0.758-0.657,1.309
	s-0.241,1.253-0.241,2.106c0,0.654,0.064,1.243,0.194,1.767s0.323,0.966,0.581,1.331c0.257,0.364,0.579,0.644,0.966,0.839
	c0.387,0.194,0.838,0.292,1.352,0.292c0.209,0,0.427-0.021,0.652-0.067c0.227-0.046,0.458-0.104,0.695-0.174
	c0.237-0.069,0.479-0.15,0.725-0.242c0.246-0.09,0.49-0.181,0.733-0.271c0.073-0.022,0.163-0.034,0.271-0.034
	c0.142,0,0.27,0.027,0.386,0.081c0.116,0.054,0.216,0.125,0.301,0.216c0.085,0.09,0.149,0.196,0.195,0.317
	c0.045,0.122,0.067,0.25,0.067,0.386C47.469,574.657,47.397,574.859,47.254,575.043z"/>
<rect x="60.002" y="539.979" fill="none" stroke="#FFFFFF" stroke-width="1.064" stroke-miterlimit="10" width="60" height="59.996"/>
<circle fill="#F09622" cx="90.002" cy="569.977" r="25.619"/>
<path fill="#F5F5F5" d="M83.882,573.558c0.039,0.103,0.082,0.207,0.127,0.317s0.088,0.222,0.127,0.335s0.072,0.222,0.098,0.326
	c0.026,0.104,0.037,0.198,0.037,0.283c0,0.209-0.037,0.395-0.113,0.556s-0.18,0.297-0.31,0.407c-0.13,0.108-0.281,0.193-0.454,0.254
	c-0.172,0.06-0.354,0.089-0.546,0.089c-0.221,0-0.41-0.031-0.567-0.093c-0.158-0.062-0.301-0.161-0.424-0.298
	c-0.125-0.136-0.239-0.312-0.344-0.529c-0.104-0.218-0.217-0.484-0.335-0.802l-0.407-1.075h-4.796l-0.348,1.075
	c-0.102,0.322-0.204,0.595-0.31,0.813c-0.104,0.221-0.221,0.396-0.348,0.53c-0.127,0.133-0.271,0.229-0.436,0.288
	c-0.165,0.059-0.356,0.089-0.576,0.089c-0.192,0-0.375-0.029-0.547-0.089c-0.173-0.061-0.324-0.146-0.453-0.255
	c-0.131-0.109-0.233-0.245-0.31-0.406c-0.077-0.161-0.114-0.347-0.114-0.556c0-0.085,0.012-0.18,0.037-0.283
	c0.025-0.104,0.059-0.214,0.098-0.326c0.04-0.113,0.082-0.226,0.127-0.335c0.046-0.11,0.088-0.216,0.128-0.317l2.279-6.161
	c0.215-0.576,0.419-1.086,0.614-1.529c0.195-0.443,0.41-0.817,0.645-1.123c0.234-0.306,0.504-0.535,0.809-0.69
	c0.306-0.155,0.676-0.232,1.111-0.232c0.406,0,0.754,0.062,1.042,0.183c0.288,0.122,0.548,0.322,0.779,0.602
	c0.231,0.28,0.452,0.648,0.661,1.106c0.209,0.457,0.441,1.02,0.695,1.687L83.882,573.558z M78.356,566.134l-1.865,5.449h3.764
	l-1.856-5.449H78.356z"/>
<path fill="#F5F5F5" d="M85.684,565.312c0-0.266,0.054-0.493,0.161-0.683c0.107-0.188,0.25-0.343,0.428-0.462
	c0.179-0.118,0.386-0.206,0.623-0.264c0.237-0.056,0.489-0.084,0.755-0.084h2.627c0.384,0,0.779,0.008,1.186,0.021
	c0.407,0.015,0.806,0.054,1.195,0.119c0.391,0.063,0.758,0.161,1.102,0.288c0.345,0.127,0.646,0.305,0.907,0.533
	c0.26,0.229,0.466,0.518,0.618,0.864c0.152,0.348,0.229,0.771,0.229,1.268c0,0.333-0.057,0.654-0.17,0.962
	c-0.113,0.308-0.273,0.586-0.483,0.835c-0.209,0.248-0.457,0.459-0.746,0.631c-0.287,0.173-0.607,0.29-0.957,0.352v0.034
	c0.424,0.062,0.807,0.181,1.148,0.353c0.342,0.173,0.632,0.389,0.868,0.647c0.237,0.261,0.421,0.561,0.552,0.898
	c0.13,0.339,0.194,0.703,0.194,1.093c0,0.43-0.085,0.85-0.254,1.259c-0.17,0.41-0.43,0.772-0.78,1.089s-0.795,0.572-1.334,0.769
	c-0.54,0.194-1.18,0.292-1.92,0.292h-3.982c-0.322,0-0.605-0.025-0.848-0.076c-0.244-0.051-0.448-0.154-0.615-0.31
	c-0.166-0.155-0.292-0.376-0.377-0.661c-0.084-0.285-0.127-0.662-0.127-1.131V565.312z M88.676,565.718v3.365h1.211
	c0.373,0,0.719-0.025,1.039-0.077c0.318-0.051,0.593-0.142,0.821-0.271c0.229-0.13,0.408-0.307,0.538-0.529
	c0.13-0.224,0.195-0.508,0.195-0.853s-0.064-0.623-0.191-0.835c-0.127-0.211-0.301-0.377-0.521-0.495
	c-0.221-0.119-0.478-0.199-0.771-0.242c-0.294-0.042-0.604-0.062-0.933-0.062H88.676L88.676,565.718z M88.676,574.227h1.406
	c0.451,0,0.85-0.021,1.195-0.066c0.344-0.047,0.633-0.137,0.863-0.271c0.232-0.136,0.407-0.323,0.525-0.562
	c0.119-0.24,0.179-0.554,0.179-0.938c0-0.354-0.067-0.646-0.204-0.873c-0.135-0.226-0.327-0.405-0.576-0.538
	c-0.248-0.133-0.547-0.225-0.898-0.274c-0.35-0.052-0.739-0.076-1.169-0.076h-1.321V574.227z"/>
<path fill="#F5F5F5" d="M97.097,570.074c0-1.028,0.151-1.948,0.454-2.76c0.302-0.811,0.725-1.495,1.267-2.055
	s1.188-0.987,1.937-1.284c0.748-0.297,1.569-0.444,2.462-0.444c0.706,0,1.32,0.044,1.843,0.132c0.523,0.088,0.956,0.208,1.301,0.359
	c0.345,0.152,0.603,0.333,0.771,0.542c0.17,0.209,0.254,0.437,0.254,0.679c0,0.164-0.033,0.307-0.102,0.429
	c-0.067,0.121-0.156,0.222-0.267,0.301c-0.111,0.079-0.233,0.138-0.369,0.174c-0.135,0.036-0.271,0.056-0.406,0.056
	c-0.079,0-0.158-0.001-0.237-0.004c-0.079-0.004-0.155-0.017-0.229-0.038c-0.215-0.058-0.42-0.112-0.615-0.166
	c-0.194-0.054-0.387-0.101-0.576-0.141c-0.189-0.039-0.378-0.071-0.567-0.098c-0.189-0.026-0.386-0.038-0.589-0.038
	c-0.424,0-0.823,0.062-1.199,0.191c-0.376,0.127-0.702,0.352-0.979,0.674c-0.277,0.32-0.496,0.758-0.657,1.309
	s-0.241,1.253-0.241,2.106c0,0.654,0.064,1.244,0.194,1.767c0.13,0.523,0.323,0.966,0.581,1.331
	c0.257,0.364,0.579,0.644,0.966,0.839c0.387,0.194,0.838,0.292,1.352,0.292c0.209,0,0.427-0.021,0.652-0.066
	c0.227-0.047,0.458-0.104,0.695-0.175c0.237-0.069,0.479-0.15,0.725-0.241c0.246-0.091,0.49-0.182,0.733-0.271
	c0.073-0.021,0.163-0.034,0.271-0.034c0.142,0,0.27,0.027,0.386,0.081c0.116,0.054,0.216,0.125,0.301,0.216s0.149,0.196,0.195,0.317
	c0.045,0.122,0.067,0.25,0.067,0.386c0,0.222-0.072,0.423-0.216,0.606c-0.145,0.184-0.335,0.349-0.572,0.495
	c-0.237,0.146-0.51,0.274-0.817,0.386c-0.309,0.11-0.626,0.202-0.954,0.275c-0.327,0.072-0.653,0.129-0.979,0.165
	c-0.325,0.036-0.626,0.056-0.902,0.056c-0.836,0-1.616-0.14-2.339-0.42c-0.724-0.279-1.351-0.689-1.882-1.229
	c-0.531-0.54-0.949-1.203-1.254-1.99C97.251,571.993,97.097,571.091,97.097,570.074z"/>
<rect x="120.002" y="539.979" fill="none" stroke="#FFFFFF" stroke-width="1.064" stroke-miterlimit="10" width="60" height="59.996"/>
<circle fill="#010101" cx="150.002" cy="569.977" r="25.619"/>
<path fill="#F5F5F5" d="M143.881,573.558c0.039,0.103,0.082,0.207,0.127,0.317s0.088,0.222,0.127,0.335s0.071,0.222,0.099,0.326
	c0.025,0.104,0.036,0.198,0.036,0.283c0,0.209-0.036,0.395-0.112,0.556s-0.181,0.297-0.31,0.407
	c-0.131,0.108-0.28,0.193-0.455,0.254c-0.172,0.06-0.354,0.089-0.545,0.089c-0.221,0-0.409-0.031-0.567-0.093
	c-0.158-0.062-0.301-0.161-0.424-0.298c-0.125-0.136-0.238-0.312-0.345-0.529c-0.104-0.218-0.217-0.484-0.334-0.802l-0.408-1.075
	h-4.795l-0.348,1.075c-0.103,0.322-0.205,0.595-0.312,0.813c-0.104,0.221-0.221,0.396-0.348,0.53
	c-0.127,0.133-0.271,0.229-0.436,0.288c-0.166,0.059-0.355,0.089-0.576,0.089c-0.191,0-0.375-0.029-0.547-0.089
	c-0.172-0.061-0.324-0.146-0.453-0.255c-0.131-0.109-0.232-0.245-0.309-0.406c-0.078-0.161-0.115-0.347-0.115-0.556
	c0-0.085,0.012-0.18,0.037-0.283c0.024-0.104,0.059-0.214,0.098-0.326c0.041-0.113,0.082-0.226,0.127-0.335
	c0.047-0.11,0.088-0.216,0.129-0.317l2.279-6.161c0.215-0.576,0.418-1.086,0.613-1.529c0.194-0.443,0.409-0.817,0.645-1.123
	c0.234-0.306,0.504-0.535,0.809-0.69c0.307-0.155,0.676-0.232,1.111-0.232c0.406,0,0.754,0.062,1.043,0.183
	c0.287,0.122,0.547,0.322,0.779,0.602c0.229,0.28,0.451,0.648,0.66,1.106c0.209,0.457,0.44,1.02,0.694,1.687L143.881,573.558z
	 M138.356,566.134l-1.865,5.449h3.764l-1.855-5.449H138.356z"/>
<path fill="#F5F5F5" d="M145.684,565.312c0-0.266,0.056-0.493,0.162-0.683c0.106-0.188,0.25-0.343,0.429-0.462
	c0.178-0.118,0.385-0.206,0.623-0.264c0.235-0.056,0.487-0.084,0.754-0.084h2.627c0.385,0,0.778,0.008,1.186,0.021
	c0.408,0.015,0.807,0.054,1.195,0.119c0.391,0.063,0.758,0.161,1.102,0.288c0.346,0.127,0.646,0.305,0.908,0.533
	c0.26,0.229,0.465,0.518,0.617,0.864c0.152,0.348,0.229,0.771,0.229,1.268c0,0.333-0.057,0.654-0.17,0.962
	c-0.112,0.308-0.272,0.586-0.483,0.835c-0.209,0.248-0.457,0.459-0.746,0.631c-0.287,0.173-0.607,0.29-0.957,0.352v0.034
	c0.424,0.062,0.807,0.181,1.147,0.353c0.343,0.173,0.634,0.389,0.869,0.647c0.235,0.26,0.42,0.561,0.551,0.898
	c0.132,0.338,0.195,0.703,0.195,1.093c0,0.43-0.086,0.85-0.254,1.259c-0.17,0.41-0.431,0.772-0.781,1.089s-0.795,0.572-1.334,0.769
	c-0.539,0.194-1.18,0.292-1.92,0.292h-3.981c-0.322,0-0.605-0.025-0.849-0.076c-0.244-0.051-0.446-0.154-0.614-0.31
	c-0.166-0.155-0.291-0.376-0.378-0.661c-0.084-0.285-0.127-0.662-0.127-1.131V565.312L145.684,565.312z M148.676,565.718v3.365
	h1.211c0.373,0,0.72-0.025,1.039-0.077c0.317-0.051,0.594-0.142,0.821-0.271c0.229-0.13,0.408-0.307,0.537-0.529
	c0.132-0.224,0.195-0.508,0.195-0.853s-0.063-0.623-0.191-0.835c-0.127-0.211-0.301-0.377-0.52-0.495
	c-0.221-0.119-0.479-0.199-0.771-0.242c-0.295-0.042-0.604-0.062-0.934-0.062H148.676L148.676,565.718z M148.676,574.227h1.405
	c0.451,0,0.851-0.021,1.195-0.066c0.344-0.047,0.633-0.137,0.863-0.271c0.232-0.136,0.408-0.323,0.525-0.562
	c0.119-0.24,0.18-0.554,0.18-0.938c0-0.354-0.068-0.646-0.205-0.873c-0.135-0.226-0.326-0.405-0.576-0.538
	c-0.248-0.133-0.547-0.225-0.897-0.274c-0.351-0.052-0.738-0.076-1.169-0.076h-1.321V574.227z"/>
<path fill="#F5F5F5" d="M157.098,570.074c0-1.028,0.149-1.948,0.453-2.76c0.304-0.811,0.726-1.495,1.269-2.055
	c0.541-0.56,1.188-0.987,1.936-1.284s1.57-0.444,2.463-0.444c0.705,0,1.32,0.044,1.842,0.132c0.523,0.088,0.957,0.208,1.301,0.359
	c0.346,0.152,0.604,0.333,0.771,0.542c0.17,0.209,0.254,0.437,0.254,0.679c0,0.164-0.033,0.307-0.102,0.429
	c-0.066,0.121-0.156,0.222-0.267,0.301s-0.233,0.138-0.368,0.174c-0.136,0.036-0.271,0.056-0.406,0.056
	c-0.08,0-0.158-0.001-0.238-0.004c-0.078-0.004-0.154-0.017-0.229-0.038c-0.216-0.058-0.42-0.112-0.615-0.166
	c-0.193-0.054-0.387-0.101-0.576-0.141c-0.189-0.039-0.377-0.071-0.566-0.098s-0.387-0.038-0.59-0.038
	c-0.424,0-0.822,0.062-1.199,0.191c-0.375,0.127-0.701,0.352-0.979,0.674c-0.277,0.32-0.496,0.758-0.656,1.309
	c-0.162,0.551-0.242,1.253-0.242,2.106c0,0.654,0.064,1.244,0.195,1.767c0.129,0.522,0.322,0.966,0.58,1.331
	c0.258,0.364,0.58,0.644,0.967,0.839c0.387,0.194,0.838,0.292,1.352,0.292c0.209,0,0.426-0.021,0.652-0.066
	c0.227-0.047,0.457-0.104,0.695-0.175c0.236-0.069,0.479-0.15,0.725-0.241s0.49-0.182,0.732-0.271
	c0.074-0.021,0.164-0.034,0.271-0.034c0.142,0,0.271,0.027,0.386,0.081c0.117,0.054,0.217,0.125,0.301,0.216
	c0.086,0.091,0.15,0.196,0.195,0.317c0.045,0.122,0.067,0.25,0.067,0.386c0,0.222-0.071,0.423-0.217,0.606
	c-0.146,0.183-0.334,0.349-0.572,0.495c-0.235,0.146-0.51,0.274-0.815,0.386c-0.31,0.11-0.627,0.202-0.955,0.275
	c-0.326,0.072-0.652,0.129-0.979,0.165c-0.323,0.036-0.625,0.056-0.901,0.056c-0.836,0-1.615-0.14-2.338-0.42
	c-0.726-0.279-1.353-0.689-1.884-1.229c-0.53-0.54-0.948-1.203-1.254-1.99C157.25,571.993,157.098,571.091,157.098,570.074z"/>
<rect x="180" y="539.977" fill="none" stroke="#FFFFFF" stroke-width="1.064" stroke-miterlimit="10" width="60" height="59.996"/>
<circle fill="#43A748" cx="210" cy="569.975" r="25.619"/>
<path fill="#F5F5F5" d="M203.88,573.556c0.039,0.103,0.082,0.207,0.127,0.317c0.045,0.109,0.088,0.222,0.127,0.335
	s0.072,0.222,0.098,0.326c0.026,0.104,0.037,0.198,0.037,0.283c0,0.209-0.037,0.395-0.113,0.556s-0.18,0.297-0.31,0.407
	c-0.13,0.108-0.28,0.193-0.454,0.254c-0.172,0.06-0.354,0.089-0.546,0.089c-0.221,0-0.41-0.031-0.567-0.093
	c-0.158-0.062-0.301-0.161-0.424-0.298c-0.125-0.136-0.238-0.312-0.344-0.529c-0.104-0.218-0.217-0.484-0.335-0.802l-0.407-1.075
	h-4.796l-0.348,1.075c-0.103,0.322-0.204,0.595-0.31,0.813c-0.104,0.221-0.222,0.396-0.349,0.53
	c-0.127,0.133-0.271,0.229-0.437,0.288c-0.164,0.059-0.355,0.089-0.576,0.089c-0.191,0-0.375-0.029-0.547-0.089
	c-0.172-0.061-0.323-0.146-0.453-0.255c-0.131-0.109-0.232-0.245-0.31-0.406s-0.114-0.347-0.114-0.556
	c0-0.085,0.013-0.18,0.037-0.283c0.025-0.104,0.06-0.214,0.099-0.326c0.04-0.113,0.081-0.226,0.127-0.335
	c0.046-0.11,0.088-0.217,0.128-0.317l2.279-6.161c0.215-0.576,0.418-1.086,0.613-1.53c0.195-0.442,0.41-0.816,0.646-1.122
	c0.233-0.306,0.504-0.535,0.809-0.69c0.306-0.155,0.677-0.232,1.111-0.232c0.405,0,0.754,0.062,1.042,0.183
	c0.288,0.122,0.548,0.322,0.779,0.602c0.23,0.28,0.451,0.648,0.66,1.106c0.209,0.457,0.441,1.02,0.695,1.687L203.88,573.556z
	 M198.354,566.132l-1.865,5.449h3.765l-1.856-5.449H198.354z"/>
<path fill="#F5F5F5" d="M205.683,565.31c0-0.266,0.055-0.493,0.161-0.683c0.106-0.188,0.25-0.343,0.429-0.462
	c0.178-0.118,0.385-0.206,0.622-0.264c0.237-0.056,0.489-0.084,0.755-0.084h2.627c0.385,0,0.779,0.008,1.187,0.021
	c0.407,0.015,0.806,0.054,1.194,0.119c0.392,0.063,0.759,0.161,1.103,0.288c0.345,0.127,0.646,0.305,0.907,0.533
	c0.26,0.229,0.466,0.518,0.617,0.864c0.152,0.348,0.229,0.771,0.229,1.268c0,0.333-0.058,0.653-0.17,0.962
	c-0.112,0.308-0.272,0.586-0.483,0.835c-0.209,0.248-0.457,0.459-0.746,0.631c-0.287,0.173-0.606,0.29-0.957,0.352v0.034
	c0.424,0.062,0.808,0.181,1.148,0.353c0.342,0.173,0.633,0.389,0.868,0.647c0.237,0.261,0.421,0.561,0.552,0.898
	c0.131,0.339,0.194,0.703,0.194,1.093c0,0.43-0.085,0.85-0.254,1.259c-0.171,0.41-0.431,0.772-0.78,1.089s-0.795,0.572-1.334,0.769
	c-0.54,0.193-1.18,0.292-1.92,0.292h-3.982c-0.322,0-0.604-0.025-0.848-0.076c-0.244-0.051-0.447-0.154-0.615-0.31
	c-0.166-0.155-0.292-0.376-0.377-0.661c-0.084-0.285-0.127-0.662-0.127-1.131V565.31z M208.675,565.716v3.365h1.211
	c0.373,0,0.719-0.025,1.039-0.077c0.318-0.051,0.593-0.142,0.82-0.271c0.229-0.13,0.408-0.307,0.539-0.529
	c0.129-0.224,0.195-0.508,0.195-0.853s-0.064-0.623-0.191-0.835c-0.127-0.211-0.301-0.377-0.521-0.495
	c-0.221-0.119-0.479-0.199-0.771-0.242c-0.293-0.042-0.604-0.062-0.932-0.062H208.675L208.675,565.716z M208.675,574.225h1.406
	c0.451,0,0.85-0.021,1.195-0.066c0.344-0.047,0.633-0.137,0.862-0.271c0.231-0.136,0.407-0.323,0.524-0.562
	c0.119-0.24,0.18-0.554,0.18-0.938c0-0.354-0.066-0.646-0.204-0.873c-0.135-0.226-0.327-0.405-0.575-0.538s-0.548-0.225-0.898-0.274
	c-0.35-0.052-0.739-0.076-1.17-0.076h-1.32V574.225L208.675,574.225z"/>
<path fill="#F5F5F5" d="M217.096,570.071c0-1.027,0.151-1.947,0.454-2.759c0.302-0.811,0.725-1.495,1.268-2.055
	c0.541-0.56,1.188-0.987,1.937-1.284c0.748-0.297,1.569-0.445,2.462-0.445c0.706,0,1.32,0.045,1.843,0.133s0.956,0.208,1.302,0.359
	c0.344,0.152,0.603,0.333,0.771,0.542c0.17,0.209,0.254,0.437,0.254,0.679c0,0.164-0.033,0.307-0.103,0.429
	c-0.066,0.121-0.155,0.222-0.267,0.301c-0.11,0.079-0.233,0.137-0.368,0.174c-0.136,0.036-0.271,0.056-0.406,0.056
	c-0.08,0-0.158-0.001-0.237-0.004c-0.079-0.004-0.155-0.017-0.229-0.038c-0.215-0.058-0.42-0.112-0.615-0.166
	c-0.193-0.054-0.387-0.101-0.575-0.141c-0.189-0.039-0.378-0.072-0.567-0.098c-0.189-0.026-0.386-0.038-0.589-0.038
	c-0.424,0-0.823,0.062-1.199,0.19s-0.702,0.353-0.979,0.675c-0.276,0.32-0.495,0.758-0.656,1.309s-0.241,1.253-0.241,2.106
	c0,0.654,0.063,1.243,0.194,1.767c0.13,0.523,0.322,0.966,0.581,1.331c0.257,0.364,0.579,0.644,0.966,0.839
	c0.387,0.194,0.838,0.292,1.352,0.292c0.209,0,0.428-0.021,0.652-0.067c0.227-0.046,0.458-0.104,0.695-0.174
	c0.236-0.069,0.479-0.15,0.725-0.242c0.246-0.09,0.49-0.181,0.732-0.271c0.074-0.022,0.164-0.034,0.271-0.034
	c0.143,0,0.27,0.027,0.387,0.081c0.115,0.054,0.215,0.125,0.301,0.216c0.085,0.09,0.148,0.196,0.195,0.317
	c0.045,0.122,0.066,0.25,0.066,0.386c0,0.221-0.072,0.423-0.216,0.606c-0.146,0.184-0.335,0.349-0.572,0.495
	s-0.51,0.274-0.817,0.386c-0.309,0.11-0.625,0.202-0.953,0.274c-0.327,0.073-0.653,0.13-0.979,0.165
	c-0.325,0.037-0.626,0.057-0.901,0.057c-0.836,0-1.617-0.141-2.34-0.42c-0.724-0.279-1.351-0.689-1.882-1.229
	c-0.53-0.54-0.948-1.203-1.254-1.991S217.096,571.089,217.096,570.071z"/>
<rect x="180" y="239.99" fill="none" stroke="#FFFFFF" stroke-width="1.064" stroke-miterlimit="10" width="60" height="59.998"/>
<path fill="#43A748" d="M210,244.37c-14.148,0-25.619,11.469-25.619,25.619c0,14.148,11.471,25.62,25.619,25.62
	c14.149,0,25.616-11.472,25.616-25.62C235.616,255.839,224.151,244.37,210,244.37z M213.569,275.804
	c0.912-0.562,1.682-1.331,2.244-2.245l5.491,5.49v-3.092c0-0.877,0.711-1.588,1.588-1.588c0.875,0,1.587,0.711,1.587,1.588v8.512
	h-1.582c-0.003,0-0.003,0-0.005,0c-0.004,0-0.006,0-0.008,0h-6.918c-0.875,0-1.586-0.711-1.586-1.588s0.711-1.586,1.586-1.586h3.09
	L213.569,275.804z M224.479,257.096c0,0.002,0,0.004,0,0.006v6.92c0,0.877-0.712,1.588-1.587,1.588
	c-0.877,0-1.588-0.711-1.588-1.588v-3.09l-5.489,5.488c-0.562-0.912-1.332-1.683-2.244-2.244l5.492-5.49h-3.097
	c-0.875,0-1.586-0.712-1.586-1.588s0.711-1.588,1.586-1.588h8.513V257.096z M204.184,273.559c0.562,0.914,1.334,1.683,2.244,2.245
	l-5.487,5.491h3.092c0.875,0,1.588,0.711,1.588,1.586c0,0.877-0.713,1.588-1.588,1.588h-8.513v-8.512
	c0-0.877,0.712-1.588,1.589-1.588c0.875,0,1.586,0.711,1.586,1.588v3.092L204.184,273.559z M204.184,266.42l-5.489-5.49v3.09
	c0,0.879-0.711,1.588-1.586,1.588c-0.877,0-1.589-0.709-1.589-1.588v-8.51h8.513c0.875,0,1.588,0.712,1.588,1.588
	s-0.713,1.588-1.588,1.588h-3.092l5.487,5.49C205.518,264.738,204.745,265.506,204.184,266.42z"/>
<rect x="120.002" y="239.99" fill="none" stroke="#FFFFFF" stroke-width="1.064" stroke-miterlimit="10" width="60" height="59.998"/>
<path fill="#010101" d="M150.002,244.37c-14.147,0-25.619,11.469-25.619,25.619c0,14.148,11.471,25.62,25.619,25.62
	c14.149,0,25.616-11.472,25.616-25.62C175.618,255.839,164.153,244.37,150.002,244.37z M153.571,275.804
	c0.912-0.562,1.682-1.331,2.244-2.245l5.491,5.49v-3.092c0-0.877,0.711-1.588,1.588-1.588c0.875,0,1.587,0.711,1.587,1.588v8.512
	h-1.582c-0.002,0-0.002,0-0.005,0c-0.004,0-0.006,0-0.008,0h-6.918c-0.875,0-1.586-0.711-1.586-1.588s0.711-1.586,1.586-1.586h3.09
	L153.571,275.804z M164.481,257.096c0,0.002,0,0.004,0,0.006v6.92c0,0.877-0.712,1.588-1.587,1.588
	c-0.877,0-1.588-0.711-1.588-1.588v-3.09l-5.489,5.488c-0.562-0.912-1.332-1.683-2.244-2.244l5.492-5.49h-3.097
	c-0.875,0-1.586-0.712-1.586-1.588s0.711-1.588,1.586-1.588h8.513V257.096z M144.186,273.559c0.562,0.914,1.334,1.683,2.244,2.245
	l-5.487,5.491h3.092c0.875,0,1.588,0.711,1.588,1.586c0,0.877-0.713,1.588-1.588,1.588h-8.512v-8.512
	c0-0.877,0.711-1.588,1.588-1.588c0.875,0,1.586,0.711,1.586,1.588v3.092L144.186,273.559z M144.186,266.42l-5.489-5.49v3.09
	c0,0.879-0.711,1.588-1.586,1.588c-0.877,0-1.588-0.709-1.588-1.588v-8.51h8.512c0.875,0,1.588,0.712,1.588,1.588
	s-0.713,1.588-1.588,1.588h-3.092l5.487,5.49C145.52,264.738,144.747,265.506,144.186,266.42z"/>
<rect x="60.002" y="239.99" fill="none" stroke="#FFFFFF" stroke-width="1.064" stroke-miterlimit="10" width="60" height="59.998"/>
<path fill="#F09622" d="M90.002,244.37c-14.148,0-25.619,11.469-25.619,25.619c0,14.148,11.471,25.62,25.619,25.62
	c14.15,0,25.617-11.472,25.617-25.62C115.619,255.839,104.152,244.37,90.002,244.37z M93.57,275.804
	c0.912-0.562,1.682-1.331,2.244-2.245l5.492,5.49v-3.092c0-0.877,0.711-1.588,1.588-1.588c0.875,0,1.586,0.711,1.586,1.588v8.512
	h-1.582c-0.002,0-0.002,0-0.004,0c-0.004,0-0.006,0-0.008,0h-6.918c-0.875,0-1.586-0.711-1.586-1.588s0.711-1.586,1.586-1.586h3.09
	L93.57,275.804z M104.48,257.096c0,0.002,0,0.004,0,0.006v6.92c0,0.877-0.711,1.588-1.586,1.588c-0.877,0-1.588-0.711-1.588-1.588
	v-3.09l-5.49,5.488c-0.562-0.912-1.332-1.683-2.244-2.244l5.492-5.49h-3.096c-0.875,0-1.586-0.712-1.586-1.588
	s0.711-1.588,1.586-1.588h8.512V257.096z M84.185,273.559c0.562,0.914,1.334,1.683,2.244,2.245l-5.488,5.491h3.092
	c0.875,0,1.588,0.711,1.588,1.586c0,0.877-0.713,1.588-1.588,1.588h-8.512v-8.512c0-0.877,0.711-1.588,1.588-1.588
	c0.875,0,1.586,0.711,1.586,1.588v3.092L84.185,273.559z M84.185,266.42l-5.49-5.49v3.09c0,0.879-0.711,1.588-1.586,1.588
	c-0.877,0-1.588-0.709-1.588-1.588v-8.51h8.512c0.875,0,1.588,0.712,1.588,1.588s-0.713,1.588-1.588,1.588h-3.092l5.488,5.49
	C85.519,264.738,84.748,265.506,84.185,266.42z"/>
<rect y="239.99" fill="none" stroke="#FFFFFF" stroke-width="1.064" stroke-miterlimit="10" width="60" height="59.998"/>
<path fill="#FFFFFF" d="M30,244.37c-14.148,0-25.619,11.469-25.619,25.619c0,14.148,11.471,25.62,25.619,25.62
	c14.15,0,25.617-11.472,25.617-25.62C55.617,255.839,44.151,244.37,30,244.37z M33.569,275.804c0.912-0.562,1.682-1.331,2.244-2.245
	l5.492,5.49v-3.092c0-0.877,0.711-1.588,1.588-1.588c0.875,0,1.586,0.711,1.586,1.588v8.512h-1.582c-0.002,0-0.002,0-0.004,0
	c-0.004,0-0.006,0-0.008,0h-6.918c-0.875,0-1.586-0.711-1.586-1.588s0.711-1.586,1.586-1.586h3.09L33.569,275.804z M44.479,257.096
	c0,0.002,0,0.004,0,0.006v6.92c0,0.877-0.711,1.588-1.586,1.588c-0.877,0-1.588-0.711-1.588-1.588v-3.09l-5.49,5.488
	c-0.562-0.912-1.332-1.683-2.244-2.244l5.492-5.49h-3.096c-0.875,0-1.586-0.712-1.586-1.588s0.711-1.588,1.586-1.588h8.512V257.096z
	 M24.184,273.559c0.562,0.914,1.334,1.683,2.244,2.245l-5.488,5.491h3.092c0.875,0,1.588,0.711,1.588,1.586
	c0,0.877-0.713,1.588-1.588,1.588H15.52v-8.512c0-0.877,0.711-1.588,1.588-1.588c0.875,0,1.586,0.711,1.586,1.588v3.092
	L24.184,273.559z M24.184,266.42l-5.49-5.49v3.09c0,0.879-0.711,1.588-1.586,1.588c-0.877,0-1.588-0.709-1.588-1.588v-8.51h8.512
	c0.875,0,1.588,0.712,1.588,1.588s-0.713,1.588-1.588,1.588H20.94l5.488,5.49C25.518,264.738,24.746,265.506,24.184,266.42z"/>
<rect x="180.002" y="300" fill="none" stroke="#FFFFFF" stroke-width="1.064" stroke-miterlimit="10" width="60" height="59.998"/>
<path fill="#43A748" d="M210.004,304.379c-14.147,0-25.619,11.469-25.619,25.618c0,14.147,11.472,25.621,25.619,25.621
	c14.149,0,25.616-11.474,25.616-25.621C235.62,315.848,224.155,304.379,210.004,304.379z M205.985,343.944
	c-1.054,0-2.105-0.401-2.906-1.205c-1.607-1.606-1.607-4.211,0-5.813l6.924-6.923l-7.01-7.012c-1.605-1.605-1.605-4.211,0-5.814
	c1.608-1.605,4.211-1.605,5.813,0l12.824,12.824l-12.738,12.738C208.088,343.542,207.034,343.944,205.985,343.944z"/>
<rect x="120.002" y="300" fill="none" stroke="#FFFFFF" stroke-width="1.064" stroke-miterlimit="10" width="60" height="59.998"/>
<path fill="#010101" d="M150.004,304.379c-14.147,0-25.619,11.469-25.619,25.618c0,14.147,11.472,25.621,25.619,25.621
	c14.149,0,25.616-11.474,25.616-25.621C175.62,315.848,164.155,304.379,150.004,304.379z M145.985,343.944
	c-1.054,0-2.105-0.401-2.906-1.205c-1.607-1.606-1.607-4.211,0-5.813l6.924-6.923l-7.01-7.012c-1.605-1.605-1.605-4.211,0-5.814
	c1.608-1.605,4.211-1.605,5.813,0l12.824,12.824l-12.738,12.738C148.088,343.542,147.034,343.944,145.985,343.944z"/>
<rect x="60.002" y="300" fill="none" stroke="#FFFFFF" stroke-width="1.064" stroke-miterlimit="10" width="60" height="59.998"/>
<path fill="#F09622" d="M90.004,304.379c-14.148,0-25.619,11.469-25.619,25.618c0,14.147,11.471,25.621,25.619,25.621
	c14.15,0,25.617-11.474,25.617-25.621C115.621,315.848,104.154,304.379,90.004,304.379z M85.984,343.944
	c-1.053,0-2.105-0.401-2.906-1.205c-1.607-1.606-1.607-4.211,0-5.813l6.924-6.923l-7.01-7.012c-1.605-1.605-1.605-4.211,0-5.814
	c1.609-1.605,4.211-1.605,5.814,0l12.824,12.824l-12.738,12.738C88.088,343.542,87.035,343.944,85.984,343.944z"/>
<rect y="300" fill="none" stroke="#FFFFFF" stroke-width="1.064" stroke-miterlimit="10" width="60" height="59.998"/>
<path fill="#FFFFFF" d="M30.002,304.379c-14.148,0-25.619,11.469-25.619,25.618c0,14.147,11.471,25.621,25.619,25.621
	c14.15,0,25.617-11.474,25.617-25.621C55.619,315.848,44.153,304.379,30.002,304.379z M25.983,343.944
	c-1.053,0-2.105-0.401-2.906-1.205c-1.607-1.606-1.607-4.211,0-5.813l6.924-6.923l-7.01-7.012c-1.605-1.605-1.605-4.211,0-5.814
	c1.609-1.605,4.211-1.605,5.814,0l12.824,12.824l-12.738,12.738C28.086,343.542,27.033,343.944,25.983,343.944z"/>
<rect x="180.002" y="359.997" fill="none" stroke="#FFFFFF" stroke-width="1.064" stroke-miterlimit="10" width="60" height="59.998"/>
<path fill="#43A748" d="M210.003,364.377c-14.148,0-25.619,11.469-25.619,25.618c0,14.147,11.471,25.621,25.619,25.621
	c14.15,0,25.617-11.474,25.617-25.621C235.62,375.846,224.153,364.377,210.003,364.377z M204.159,401.808l-4.808,0.002
	c-0.637-0.002-1.151-0.516-1.151-1.152v-4.809c0-0.344,0.154-0.648,0.393-0.861c0.029-0.035,0.053-0.071,0.088-0.108l13.76-13.759
	l6.428,6.429l-13.758,13.758C204.903,401.61,204.556,401.808,204.159,401.808z M221.278,385.138l-1.231,1.23l-6.429-6.428
	l1.232-1.23c0.703-0.703,1.842-0.703,2.547,0l3.881,3.881C221.981,383.294,221.981,384.435,221.278,385.138z"/>
<path fill="#43A748" d="M199.257,396.61v3.32c0.002,0.441,0.357,0.797,0.797,0.797h3.32c0.031,0,0.059-0.016,0.088-0.018
	l-4.186-4.188C199.269,396.552,199.257,396.579,199.257,396.61z"/>
<rect x="120.003" y="359.997" fill="none" stroke="#FFFFFF" stroke-width="1.064" stroke-miterlimit="10" width="60" height="59.998"/>
<path fill="#010101" d="M150.004,364.377c-14.147,0-25.619,11.469-25.619,25.618c0,14.147,11.472,25.621,25.619,25.621
	c14.149,0,25.616-11.474,25.616-25.621C175.62,375.846,164.155,364.377,150.004,364.377z M144.159,401.808l-4.807,0.002
	c-0.637-0.002-1.152-0.516-1.152-1.152v-4.809c0-0.344,0.154-0.648,0.394-0.861c0.028-0.035,0.054-0.071,0.088-0.108l13.761-13.759
	l6.428,6.429l-13.758,13.758C144.905,401.61,144.557,401.808,144.159,401.808z M161.28,385.138l-1.232,1.23l-6.428-6.428l1.231-1.23
	c0.703-0.703,1.843-0.703,2.548,0l3.881,3.881C161.983,383.294,161.983,384.435,161.28,385.138z"/>
<path fill="#010101" d="M139.258,396.61v3.32c0.002,0.441,0.356,0.797,0.797,0.797h3.32c0.03,0,0.059-0.016,0.088-0.018
	l-4.187-4.188C139.27,396.552,139.258,396.579,139.258,396.61z"/>
<rect x="60.002" y="359.997" fill="none" stroke="#FFFFFF" stroke-width="1.064" stroke-miterlimit="10" width="60" height="59.998"/>
<path fill="#F09622" d="M90.003,364.377c-14.148,0-25.619,11.469-25.619,25.618c0,14.147,11.471,25.621,25.619,25.621
	c14.15,0,25.617-11.474,25.617-25.621C115.62,375.846,104.153,364.377,90.003,364.377z M84.159,401.808l-4.807,0.002
	c-0.637-0.002-1.152-0.516-1.152-1.152v-4.809c0-0.344,0.154-0.648,0.393-0.861c0.029-0.035,0.053-0.071,0.088-0.108l13.76-13.759
	l6.428,6.429l-13.758,13.758C84.903,401.61,84.555,401.808,84.159,401.808z M101.278,385.138l-1.232,1.23l-6.428-6.428l1.232-1.23
	c0.703-0.703,1.842-0.703,2.547,0l3.881,3.881C101.981,383.294,101.981,384.435,101.278,385.138z"/>
<path fill="#F09622" d="M79.257,396.61v3.32c0.002,0.441,0.357,0.797,0.797,0.797h3.32c0.031,0,0.059-0.016,0.088-0.018
	l-4.186-4.188C79.268,396.552,79.257,396.579,79.257,396.61z"/>
<rect y="359.997" fill="none" stroke="#FFFFFF" stroke-width="1.064" stroke-miterlimit="10" width="60" height="59.998"/>
<path fill="#FFFFFF" d="M30.001,364.377c-14.148,0-25.619,11.469-25.619,25.618c0,14.147,11.471,25.621,25.619,25.621
	c14.15,0,25.617-11.474,25.617-25.621C55.618,375.846,44.152,364.377,30.001,364.377z M24.157,401.808l-4.807,0.002
	c-0.637-0.002-1.152-0.516-1.152-1.152v-4.809c0-0.344,0.154-0.648,0.393-0.861c0.029-0.035,0.053-0.071,0.088-0.108l13.76-13.759
	l6.428,6.429l-13.758,13.758C24.902,401.61,24.554,401.808,24.157,401.808z M41.277,385.138l-1.232,1.23l-6.428-6.428l1.232-1.23
	c0.703-0.703,1.842-0.703,2.547,0l3.881,3.881C41.98,383.294,41.98,384.435,41.277,385.138z"/>
<path fill="#FFFFFF" d="M19.255,396.61v3.32c0.002,0.441,0.357,0.797,0.797,0.797h3.32c0.031,0,0.059-0.016,0.088-0.018
	l-4.186-4.188C19.267,396.552,19.255,396.579,19.255,396.61z"/>
<rect x="180.002" y="419.995" fill="none" stroke="#FFFFFF" stroke-width="1.064" stroke-miterlimit="10" width="60" height="59.998"/>
<path fill="#43A748" d="M210.004,424.375c-14.147,0-25.619,11.469-25.619,25.619c0,14.146,11.472,25.62,25.619,25.62
	c14.149,0,25.616-11.474,25.616-25.62C235.62,435.844,224.155,424.375,210.004,424.375z M222.774,461.75
	c-1.25,1.252-2.912,1.938-4.683,1.938c-1.769,0-3.433-0.686-4.683-1.938c-1.772-1.773-2.328-4.312-1.664-6.562l-1.838-1.838
	l-1.649,1.652c0.664,2.252,0.106,4.789-1.666,6.563c-1.25,1.25-2.912,1.938-4.683,1.938c-1.768,0-3.43-0.688-4.68-1.938
	c-2.582-2.582-2.582-6.782,0-9.362c1.248-1.252,2.912-1.939,4.68-1.939c0.648,0,1.281,0.094,1.886,0.271l1.647-1.65l0.834-0.83
	l10.826-10.83c1.234-1.229,3.232-1.229,4.465,0c1.232,1.234,1.232,3.232,0,4.465l-7.195,7.195l1.837,1.836
	c0.604-0.178,1.235-0.271,1.883-0.271c1.771,0,3.433,0.688,4.683,1.938C225.358,454.969,225.358,459.168,222.774,461.75z
	 M208.528,443.039l-4.463,4.465l-5.683-5.68c-1.229-1.232-1.229-3.23,0-4.466c1.231-1.231,3.231-1.231,4.465,0L208.528,443.039z"/>
<circle fill="#43A748" cx="209.907" cy="448.885" r="1.459"/>
<path fill="#43A748" d="M201.909,454.207c-0.586,0-1.139,0.19-1.598,0.535c-0.102,0.075-0.201,0.157-0.293,0.248
	c-1.043,1.043-1.043,2.741,0,3.782c0.506,0.506,1.178,0.783,1.891,0.783c0.716,0,1.388-0.279,1.892-0.783
	c0.094-0.092,0.174-0.192,0.25-0.291c0.781-1.049,0.701-2.541-0.25-3.491C203.297,454.486,202.625,454.207,201.909,454.207z"/>
<path fill="#43A748" d="M219.52,454.809c-0.422-0.268-0.911-0.416-1.428-0.416c-0.713,0-1.385,0.279-1.892,0.783
	c-0.899,0.902-1.021,2.285-0.369,3.318c0.104,0.166,0.228,0.321,0.369,0.465c0.506,0.504,1.179,0.783,1.892,0.783
	c0.715,0,1.388-0.279,1.892-0.783c1.045-1.043,1.045-2.74,0-3.783C219.846,455.037,219.686,454.914,219.52,454.809z"/>
<rect x="120" y="419.995" fill="none" stroke="#FFFFFF" stroke-width="1.064" stroke-miterlimit="10" width="60" height="59.998"/>
<path fill="#010101" d="M150.002,424.375c-14.147,0-25.619,11.469-25.619,25.619c0,14.146,11.471,25.62,25.619,25.62
	c14.149,0,25.616-11.474,25.616-25.62C175.618,435.844,164.153,424.375,150.002,424.375z M162.772,461.75
	c-1.25,1.252-2.912,1.938-4.683,1.938c-1.769,0-3.433-0.686-4.683-1.938c-1.772-1.773-2.328-4.312-1.664-6.562l-1.838-1.838
	l-1.649,1.652c0.664,2.252,0.106,4.789-1.666,6.563c-1.25,1.25-2.912,1.938-4.683,1.938c-1.768,0-3.43-0.688-4.68-1.938
	c-2.582-2.582-2.582-6.782,0-9.362c1.248-1.252,2.912-1.939,4.68-1.939c0.648,0,1.281,0.094,1.886,0.271l1.647-1.65l0.834-0.83
	l10.826-10.83c1.234-1.229,3.232-1.229,4.465,0c1.232,1.234,1.232,3.232,0,4.465l-7.195,7.195l1.836,1.836
	c0.604-0.178,1.236-0.271,1.884-0.271c1.771,0,3.433,0.688,4.683,1.938C165.356,454.969,165.356,459.168,162.772,461.75z
	 M148.526,443.039l-4.463,4.465l-5.683-5.68c-1.229-1.232-1.229-3.23,0-4.466c1.231-1.231,3.231-1.231,4.465,0L148.526,443.039z"/>
<circle fill="#010101" cx="149.905" cy="448.885" r="1.459"/>
<path fill="#010101" d="M141.907,454.207c-0.586,0-1.139,0.19-1.598,0.535c-0.102,0.075-0.201,0.157-0.293,0.248
	c-1.043,1.043-1.043,2.741,0,3.782c0.506,0.506,1.178,0.783,1.891,0.783c0.715,0,1.388-0.279,1.892-0.783
	c0.094-0.092,0.174-0.192,0.25-0.291c0.78-1.049,0.701-2.541-0.25-3.491C143.295,454.486,142.622,454.207,141.907,454.207z"/>
<path fill="#010101" d="M159.518,454.809c-0.422-0.268-0.911-0.416-1.428-0.416c-0.713,0-1.386,0.279-1.892,0.783
	c-0.899,0.902-1.021,2.285-0.369,3.318c0.104,0.166,0.228,0.321,0.369,0.465c0.506,0.504,1.179,0.783,1.892,0.783
	c0.715,0,1.387-0.279,1.892-0.783c1.045-1.043,1.045-2.74,0-3.783C159.844,455.037,159.684,454.914,159.518,454.809z"/>
<rect x="60.001" y="419.995" fill="none" stroke="#FFFFFF" stroke-width="1.064" stroke-miterlimit="10" width="60" height="59.998"/>
<path fill="#F09622" d="M90.003,424.375c-14.148,0-25.619,11.469-25.619,25.619c0,14.146,11.471,25.62,25.619,25.62
	c14.15,0,25.617-11.474,25.617-25.62C115.62,435.844,104.153,424.375,90.003,424.375z M102.772,461.75
	c-1.25,1.252-2.912,1.938-4.682,1.938c-1.768,0-3.432-0.686-4.682-1.938c-1.773-1.773-2.328-4.312-1.664-6.562l-1.838-1.838
	l-1.65,1.652c0.664,2.252,0.107,4.789-1.666,6.563c-1.25,1.25-2.912,1.938-4.682,1.938c-1.768,0-3.43-0.688-4.68-1.938
	c-2.582-2.582-2.582-6.782,0-9.362c1.248-1.252,2.912-1.939,4.68-1.939c0.648,0,1.281,0.094,1.885,0.271l1.648-1.65l0.834-0.83
	l10.826-10.83c1.234-1.229,3.232-1.229,4.465,0c1.232,1.234,1.232,3.232,0,4.465l-7.195,7.195l1.836,1.836
	c0.604-0.178,1.236-0.271,1.883-0.271c1.77,0,3.432,0.688,4.682,1.938C105.356,454.969,105.356,459.168,102.772,461.75z
	 M88.526,443.039l-4.463,4.465l-5.682-5.68c-1.23-1.232-1.23-3.23,0-4.466c1.232-1.231,3.232-1.231,4.465,0L88.526,443.039z"/>
<circle fill="#F09622" cx="89.907" cy="448.885" r="1.459"/>
<path fill="#F09622" d="M81.909,454.207c-0.586,0-1.139,0.19-1.598,0.535c-0.102,0.075-0.201,0.157-0.293,0.248
	c-1.043,1.043-1.043,2.741,0,3.782c0.506,0.506,1.178,0.783,1.891,0.783c0.715,0,1.387-0.279,1.891-0.783
	c0.094-0.092,0.174-0.192,0.25-0.291c0.781-1.049,0.701-2.541-0.25-3.491C83.296,454.486,82.624,454.207,81.909,454.207z"/>
<path fill="#F09622" d="M99.518,454.809c-0.422-0.268-0.912-0.416-1.428-0.416c-0.713,0-1.385,0.279-1.891,0.783
	c-0.9,0.902-1.021,2.285-0.369,3.318c0.104,0.166,0.227,0.321,0.369,0.465c0.506,0.504,1.178,0.783,1.891,0.783
	c0.715,0,1.387-0.279,1.891-0.783c1.045-1.043,1.045-2.74,0-3.783C99.844,455.037,99.684,454.914,99.518,454.809z"/>
<rect y="419.995" fill="none" stroke="#FFFFFF" stroke-width="1.064" stroke-miterlimit="10" width="60" height="59.998"/>
<path fill="#FFFFFF" d="M30.002,424.375c-14.148,0-25.619,11.469-25.619,25.619c0,14.146,11.471,25.62,25.619,25.62
	c14.15,0,25.617-11.474,25.617-25.62C55.619,435.844,44.153,424.375,30.002,424.375z M42.772,461.75
	c-1.25,1.252-2.912,1.938-4.682,1.938c-1.768,0-3.432-0.686-4.682-1.938c-1.773-1.773-2.328-4.312-1.664-6.562l-1.838-1.838
	l-1.65,1.652c0.664,2.252,0.107,4.789-1.666,6.563c-1.25,1.25-2.912,1.938-4.682,1.938c-1.768,0-3.43-0.688-4.68-1.938
	c-2.582-2.582-2.582-6.782,0-9.362c1.248-1.252,2.912-1.939,4.68-1.939c0.648,0,1.281,0.094,1.885,0.271l1.648-1.65l0.834-0.83
	l10.826-10.83c1.234-1.229,3.232-1.229,4.465,0c1.232,1.234,1.232,3.232,0,4.465l-7.195,7.195l1.836,1.836
	c0.604-0.178,1.236-0.271,1.883-0.271c1.77,0,3.432,0.688,4.682,1.938C45.356,454.969,45.356,459.168,42.772,461.75z
	 M28.526,443.039l-4.463,4.465l-5.682-5.68c-1.23-1.232-1.23-3.23,0-4.466c1.232-1.231,3.232-1.231,4.465,0L28.526,443.039z"/>
<circle fill="#FFFFFF" cx="29.906" cy="448.885" r="1.459"/>
<path fill="#FFFFFF" d="M21.908,454.207c-0.586,0-1.139,0.19-1.598,0.535c-0.102,0.075-0.201,0.157-0.293,0.248
	c-1.043,1.043-1.043,2.741,0,3.782c0.506,0.506,1.178,0.783,1.891,0.783c0.715,0,1.387-0.279,1.891-0.783
	c0.094-0.092,0.174-0.192,0.25-0.291c0.781-1.049,0.701-2.541-0.25-3.491C23.295,454.486,22.623,454.207,21.908,454.207z"/>
<path fill="#FFFFFF" d="M39.518,454.809c-0.422-0.268-0.912-0.416-1.428-0.416c-0.713,0-1.385,0.279-1.891,0.783
	c-0.9,0.902-1.021,2.285-0.369,3.318c0.104,0.166,0.227,0.321,0.369,0.465c0.506,0.504,1.178,0.783,1.891,0.783
	c0.715,0,1.387-0.279,1.891-0.783c1.045-1.043,1.045-2.74,0-3.783C39.844,455.037,39.684,454.914,39.518,454.809z"/>
</svg>
