<?xml version="1.0" encoding="utf-8"?>
<!-- Generator: Adobe Illustrator 15.1.0, SVG Export Plug-In  -->
<!DOCTYPE svg PUBLIC "-//W3C//DTD SVG 1.1//EN" "http://www.w3.org/Graphics/SVG/1.1/DTD/svg11.dtd" [
	<!ENTITY ns_flows "http://ns.adobe.com/Flows/1.0/">
]>
<svg version="1.1"
	 xmlns="http://www.w3.org/2000/svg" xmlns:xlink="http://www.w3.org/1999/xlink" xmlns:a="http://ns.adobe.com/AdobeSVGViewerExtensions/3.0/"
	 x="0px" y="0px" width="21em" height="28em" viewBox="0 0 210 280" overflow="visible" enable-background="new 0 0 210 280"
	 xml:space="preserve">
<defs>
</defs>
<rect fill="none" width="70" height="70"/>
<rect x="70" fill="none" width="70" height="70"/>
<rect x="140" fill="none" width="70" height="70"/>
<rect y="70" fill="none" width="70" height="70"/>
<rect x="70" y="70" fill="none" width="70" height="70"/>
<rect x="140" y="70" fill="none" width="70" height="70"/>
<rect y="140" fill="none" width="70" height="70"/>
<rect x="70" y="140" fill="none" width="70" height="70"/>
<rect x="140" y="140" fill="none" width="70" height="70"/>
<rect y="210" fill="none" width="70" height="70"/>
<rect x="70" y="210" fill="none" width="70" height="70"/>
<rect x="140" y="210" fill="none" width="70" height="70"/>
<circle fill="#43A748" cx="35" cy="105.001" r="25"/>
<path fill="#FFFFFF" d="M46.326,94.724c0-0.042-0.005-0.08-0.006-0.12c0.009-0.156,0.006-0.313-0.016-0.473
	c-0.185-1.449-1.508-2.476-2.957-2.292L28.53,93.715c-1.305,0.165-2.262,1.255-2.309,2.526c-0.001,0.033-0.005,0.065-0.005,0.098
	v8.514c-0.31-0.06-0.629-0.093-0.957-0.093c-2.719,0-4.923,2.206-4.923,4.924c0,2.72,2.204,4.924,4.923,4.924
	c2.721,0,4.925-2.205,4.925-4.924V98.839l12.175-1.542v11.133c-0.31-0.062-0.63-0.093-0.955-0.093c-2.72,0-4.925,2.204-4.925,4.923
	c0,2.72,2.205,4.924,4.925,4.924c2.719,0,4.925-2.204,4.925-4.924c0-0.041-0.003-0.082-0.005-0.124
	c0.002-0.021,0.005-0.041,0.005-0.063L46.326,94.724L46.326,94.724z"/>
<circle fill="#43A748" cx="35" cy="175" r="25"/>
<path fill="#FFFFFF" d="M48.186,165.917h-6.778v-0.344c0-1.332-1.079-2.412-2.413-2.412h-7.433c-1.331,0-2.411,1.08-2.411,2.412
	v0.344H22.37c-1.331,0-2.41,1.08-2.41,2.414v16.09c0,1.334,1.079,2.414,2.41,2.414h25.817c1.334,0,2.413-1.08,2.413-2.414v-16.09
	C50.6,167.001,49.52,165.917,48.186,165.917z M35.28,182.505c-3.386,0-6.129-2.744-6.129-6.127c0-3.387,2.743-6.129,6.129-6.129
	c3.385,0,6.128,2.742,6.128,6.129C41.408,179.761,38.664,182.505,35.28,182.505z"/>
<circle fill="#43A748" cx="35" cy="245" r="25"/>
<path fill="#FFFFFF" d="M43.125,233.975h-16.25c-1.603,0-2.901,1.297-2.901,2.902c0,1.602,1.299,2.902,2.901,2.902h5.226v13.346
	c0,1.604,1.298,2.902,2.9,2.902s2.901-1.299,2.901-2.902V239.78h5.225c1.603,0,2.901-1.299,2.901-2.902
	C46.027,235.272,44.728,233.975,43.125,233.975z"/>
<circle fill="#43A748" cx="35" cy="35" r="25"/>
<path fill="#FFFFFF" d="M51.895,26.521c-0.084-0.035-0.17-0.052-0.258-0.052c-0.176,0-0.348,0.068-0.478,0.198l-6.541,6.542v-3.71
	v-2.557c0-1.123-0.911-2.032-2.034-2.032H41.39H20.833c-1.123,0-2.034,0.91-2.034,2.032v2.557v11v2.557
	c0,1.124,0.911,2.034,2.034,2.034h20.558h1.194c1.122,0,2.033-0.91,2.033-2.034v-2.557V36.79l6.542,6.542
	c0.129,0.128,0.301,0.198,0.477,0.198c0.088,0,0.174-0.019,0.258-0.052c0.251-0.105,0.417-0.351,0.417-0.624V27.144
	C52.311,26.871,52.146,26.625,51.895,26.521z"/>
<path fill="#FFFFFF" d="M105,220c-13.809,0-25,11.193-25,25.002C80,258.807,91.191,270,105,270c13.805,0,25-11.193,25-24.998
	C130,231.194,118.807,220,105,220z M113.126,240.758h-5.229v13.348c0,1.6-1.295,2.9-2.898,2.9c-1.602,0-2.901-1.297-2.901-2.9
	v-13.348h-5.225c-1.602,0-2.902-1.299-2.902-2.902c0-1.602,1.3-2.902,2.902-2.902h16.25c1.6,0,2.902,1.299,2.902,2.902
	C116.026,239.458,114.728,240.758,113.126,240.758z"/>
<circle fill="#FFFFFF" cx="105.279" cy="174.998" r="6.129"/>
<path fill="#FFFFFF" d="M104.999,149.999c-13.808,0-25,11.193-25,24.997c0,13.808,11.192,25.003,25,25.003
	c13.806,0,25.001-11.195,25.001-25.003C130,161.192,118.807,149.999,104.999,149.999z M120.602,183.689
	c0,1.332-1.08,2.414-2.414,2.414H92.372c-1.334,0-2.414-1.08-2.414-2.414v-16.09c0-1.332,1.08-2.414,2.414-2.414h6.777v-0.342
	c0-1.334,1.081-2.412,2.415-2.412h7.432c1.334,0,2.414,1.078,2.414,2.412v0.342h6.777c1.334,0,2.414,1.08,2.414,2.414V183.689
	L120.602,183.689z"/>
<path fill="#FFFFFF" d="M105,80c-13.808,0-25,11.193-25,25c0,13.807,11.192,25,25,25c13.807,0,25-11.193,25-25
	C130,91.193,118.809,80,105,80z M116.326,113.798c0,0.022-0.004,0.043-0.004,0.062c0,0.043,0.004,0.084,0.004,0.125
	c0,2.72-2.207,4.924-4.926,4.924c-2.717,0-4.922-2.205-4.922-4.924s2.205-4.924,4.922-4.924c0.326,0,0.646,0.031,0.957,0.094V98.022
	l-12.175,1.542v10.845c0,2.72-2.206,4.924-4.924,4.924c-2.72,0-4.925-2.205-4.925-4.924c0-2.72,2.205-4.924,4.925-4.924
	c0.328,0,0.646,0.032,0.955,0.093v-8.514c0-0.032,0.005-0.065,0.006-0.098c0.046-1.272,1.005-2.361,2.309-2.526l14.818-1.877
	c1.447-0.184,2.771,0.843,2.955,2.292c0.023,0.16,0.023,0.317,0.02,0.473c0.002,0.041,0.004,0.079,0.004,0.12v18.35H116.326z"/>
<path fill="#FFFFFF" d="M104.999,10C91.193,10,80,21.192,80,35c0,13.806,11.193,25,24.999,25c13.809,0,25-11.194,25-25
	C129.999,21.192,118.809,10,104.999,10z M122.312,42.854c0,0.273-0.163,0.519-0.418,0.624c-0.083,0.033-0.168,0.052-0.257,0.052
	c-0.175,0-0.349-0.068-0.476-0.198l-6.544-6.542V40.5v2.557c0,1.124-0.909,2.034-2.033,2.034h-1.194H90.833
	c-1.121,0-2.033-0.91-2.033-2.034V40.5V29.501v-2.557c0-1.123,0.912-2.032,2.033-2.032h20.557h1.197c1.121,0,2.035,0.91,2.035,2.032
	v2.557v3.71l6.541-6.542c0.128-0.129,0.301-0.198,0.475-0.198c0.091,0,0.176,0.018,0.261,0.053c0.25,0.104,0.414,0.35,0.414,0.623
	L122.312,42.854L122.312,42.854z"/>
<path fill="#010101" d="M175,220c-13.809,0-25,11.193-25,25.002C150,258.807,161.191,270,175,270s25-11.193,25-24.998
	C200,231.194,188.809,220,175,220z M183.126,240.758h-5.225v13.348c0,1.6-1.298,2.9-2.902,2.9s-2.901-1.297-2.901-2.9v-13.348
	h-5.225c-1.601,0-2.902-1.299-2.902-2.902c0-1.602,1.3-2.902,2.902-2.902h16.25c1.6,0,2.901,1.299,2.901,2.902
	C186.025,239.458,184.726,240.758,183.126,240.758z"/>
<circle fill="#010101" cx="175.281" cy="175" r="6.129"/>
<path fill="#010101" d="M175,150c-13.806,0-25,11.193-25,24.997C150,188.805,161.194,200,175,200c13.809,0,25-11.195,25-25.003
	C200,161.194,188.809,150,175,150z M190.602,183.691c0,1.332-1.079,2.414-2.412,2.414H162.37c-1.333,0-2.413-1.08-2.413-2.414
	v-16.09c0-1.332,1.079-2.414,2.413-2.414h6.778v-0.342c0-1.334,1.08-2.412,2.414-2.412h7.431c1.333,0,2.413,1.078,2.413,2.412v0.342
	h6.779c1.333,0,2.413,1.08,2.413,2.414L190.602,183.691L190.602,183.691z"/>
<path fill="#010101" d="M175,80c-13.809,0-25,11.193-25,25c0,13.807,11.191,25,25,25c13.807,0,25-11.193,25-25
	C200,91.193,188.807,80,175,80z M186.327,113.798c0,0.022-0.002,0.043-0.005,0.062c0.003,0.043,0.005,0.084,0.005,0.125
	c0,2.72-2.204,4.924-4.923,4.924s-4.926-2.205-4.926-4.924s2.207-4.924,4.926-4.924c0.327,0,0.644,0.031,0.954,0.094V98.022
	l-12.176,1.542v10.845c0,2.72-2.204,4.924-4.923,4.924s-4.926-2.205-4.926-4.924c0-2.72,2.207-4.924,4.926-4.924
	c0.329,0,0.646,0.032,0.955,0.093v-8.514c0-0.032,0.004-0.065,0.006-0.098c0.046-1.272,1.005-2.361,2.309-2.526l14.817-1.877
	c1.45-0.184,2.773,0.843,2.957,2.292c0.021,0.16,0.021,0.317,0.015,0.473c0.003,0.041,0.007,0.079,0.007,0.12v18.349
	L186.327,113.798L186.327,113.798z"/>
<path fill="#010101" d="M175,10c-13.806,0-25,11.192-25,25c0,13.806,11.194,25,25,25c13.809,0,25-11.194,25-25
	C200,21.192,188.809,10,175,10z M192.311,42.854c0,0.273-0.163,0.519-0.416,0.624c-0.085,0.033-0.171,0.052-0.26,0.052
	c-0.174,0-0.347-0.068-0.475-0.198l-6.543-6.542V40.5v2.557c0,1.124-0.912,2.034-2.032,2.034h-1.197h-20.556
	c-1.121,0-2.035-0.91-2.035-2.034V40.5V29.501v-2.557c0-1.123,0.912-2.032,2.035-2.032h20.559h1.194c1.12,0,2.034,0.91,2.034,2.032
	v2.557v3.71l6.542-6.542c0.128-0.129,0.3-0.198,0.475-0.198c0.09,0,0.175,0.018,0.259,0.053c0.25,0.104,0.417,0.35,0.417,0.623
	L192.311,42.854L192.311,42.854z"/>
</svg>
