<?xml version="1.0" encoding="utf-8"?>
<!-- Generator: Adobe Illustrator 15.1.0, SVG Export Plug-In . SVG Version: 6.00 Build 0)  -->
<!DOCTYPE svg PUBLIC "-//W3C//DTD SVG 1.1//EN" "http://www.w3.org/Graphics/SVG/1.1/DTD/svg11.dtd">
<svg version="1.1" id="Layer_1" xmlns="http://www.w3.org/2000/svg" xmlns:xlink="http://www.w3.org/1999/xlink" x="0px" y="0px"
	 width="24em" height="54em" viewBox="0 0 288 648" enable-background="new 0 0 288 648" xml:space="preserve">
<path fill="#FFFFFF" d="M36.642,5.895c-16.98,0-30.745,13.763-30.745,30.743s13.765,30.744,30.745,30.744
	c16.979,0,30.743-13.767,30.743-30.744C67.385,19.657,53.622,5.895,36.642,5.895z M49.975,42.955c1.937,1.937,1.937,5.079,0,7.015
	c-0.971,0.971-2.239,1.455-3.509,1.455s-2.538-0.483-3.507-1.455l-6.318-6.316l-6.316,6.316c-0.969,0.971-2.238,1.455-3.509,1.455
	c-1.27,0-2.538-0.483-3.508-1.455c-1.937-1.936-1.937-5.077,0-7.015l6.318-6.318l-6.318-6.318c-1.937-1.939-1.937-5.079,0-7.017
	s5.079-1.937,7.015,0l6.317,6.318l6.318-6.318c1.938-1.937,5.08-1.937,7.017,0c1.937,1.937,1.937,5.077,0,7.017l-6.319,6.318
	L49.975,42.955z"/>
<path fill="#F09622" d="M108.641,5.895c-16.978,0-30.744,13.763-30.744,30.743c0,16.978,13.766,30.744,30.744,30.744
	c16.98,0,30.742-13.767,30.742-30.744C139.382,19.657,125.622,5.895,108.641,5.895z M121.975,42.955
	c1.937,1.937,1.937,5.079,0,7.015c-0.972,0.971-2.24,1.455-3.51,1.455s-2.54-0.483-3.506-1.455l-6.321-6.316l-6.318,6.316
	c-0.97,0.971-2.238,1.455-3.509,1.455c-1.269,0-2.538-0.483-3.507-1.455c-1.937-1.936-1.937-5.077,0-7.015l6.318-6.318l-6.318-6.318
	c-1.937-1.939-1.937-5.079,0-7.017c1.937-1.938,5.077-1.937,7.015,0l6.318,6.318l6.32-6.318c1.937-1.937,5.077-1.937,7.015,0
	c1.938,1.937,1.937,5.077,0,7.017l-6.32,6.318L121.975,42.955z"/>
<path fill="#010101" d="M180.641,5.895c-16.98,0-30.742,13.763-30.742,30.743c0,16.978,13.762,30.744,30.742,30.744
	c16.977,0,30.739-13.767,30.739-30.744C211.38,19.657,197.621,5.895,180.641,5.895z M193.975,42.955
	c1.934,1.937,1.934,5.079,0,7.015c-0.975,0.971-2.236,1.455-3.507,1.455c-1.272,0-2.54-0.483-3.513-1.455l-6.32-6.316l-6.314,6.316
	c-0.971,0.971-2.24,1.455-3.512,1.455c-1.27,0-2.537-0.483-3.506-1.455c-1.938-1.936-1.938-5.077,0-7.015l6.316-6.318l-6.316-6.318
	c-1.938-1.939-1.938-5.079,0-7.017c1.934-1.937,5.076-1.937,7.016,0l6.316,6.318l6.32-6.318c1.938-1.937,5.077-1.937,7.017,0
	c1.936,1.937,1.935,5.077,0,7.017l-6.32,6.318L193.975,42.955z"/>
<path fill="#43A748" d="M252.641,5.895c-16.977,0-30.742,13.763-30.742,30.743c0,16.978,13.765,30.744,30.742,30.744
	c16.979,0,30.739-13.767,30.739-30.744C283.38,19.657,269.623,5.895,252.641,5.895z M265.975,42.955
	c1.936,1.937,1.936,5.079,0,7.015c-0.974,0.971-2.24,1.455-3.511,1.455c-1.272,0-2.54-0.483-3.51-1.455l-6.317-6.316l-6.317,6.316
	c-0.971,0.971-2.241,1.455-3.511,1.455s-2.539-0.483-3.504-1.455c-1.941-1.936-1.941-5.077,0-7.015l6.314-6.318l-6.314-6.318
	c-1.941-1.939-1.941-5.079,0-7.017c1.933-1.937,5.075-1.937,7.012,0l6.32,6.318l6.317-6.318c1.94-1.937,5.077-1.937,7.019,0
	c1.935,1.937,1.935,5.077,0,7.017l-6.322,6.318L265.975,42.955z"/>
<path fill="#FFFFFF" d="M36.642,77.891c-16.98,0-30.745,13.763-30.745,30.743c0,16.978,13.764,30.744,30.745,30.744
	c16.978,0,30.743-13.766,30.743-30.744C67.385,91.654,53.62,77.891,36.642,77.891z M50.536,113.596h-8.934v8.933
	c0,2.741-2.222,4.963-4.962,4.963s-4.961-2.223-4.961-4.963v-8.933h-8.935c-2.74,0-4.961-2.223-4.961-4.961
	c0-2.74,2.221-4.962,4.961-4.962h8.935V94.74c0-2.741,2.221-4.963,4.961-4.963s4.962,2.222,4.962,4.963v8.933h8.934
	c2.738,0,4.961,2.222,4.961,4.962C55.497,111.373,53.275,113.596,50.536,113.596z"/>
<path fill="#F09622" d="M108.64,77.891c-16.98,0-30.743,13.763-30.743,30.744c0,16.978,13.763,30.744,30.744,30.744
	c16.977,0,30.742-13.767,30.742-30.744C139.382,91.654,125.617,77.891,108.64,77.891z M122.534,113.594h-8.935v8.933
	c0,2.741-2.221,4.963-4.958,4.963c-2.741,0-4.959-2.222-4.959-4.963v-8.933h-8.935c-2.741,0-4.959-2.222-4.959-4.96
	c0-2.741,2.219-4.963,4.959-4.963h8.934v-8.932c0-2.741,2.22-4.963,4.959-4.963c2.738,0,4.958,2.223,4.958,4.963v8.932h8.935
	c2.738,0,4.961,2.222,4.961,4.963C127.495,111.373,125.273,113.594,122.534,113.594z"/>
<path fill="#010101" d="M180.643,77.892c-16.979,0-30.747,13.763-30.747,30.743c0,16.978,13.768,30.744,30.747,30.744
	c16.977,0,30.742-13.767,30.742-30.744C211.385,91.655,197.623,77.892,180.643,77.892z M194.535,113.596h-8.932v8.933
	c0,2.741-2.225,4.963-4.963,4.963c-2.734,0-4.961-2.223-4.961-4.963v-8.933h-8.933c-2.737,0-4.96-2.223-4.96-4.961
	c0-2.74,2.223-4.962,4.96-4.962h8.933V94.74c0-2.741,2.225-4.963,4.961-4.963c2.738,0,4.963,2.222,4.963,4.963v8.933h8.932
	c2.74,0,4.964,2.222,4.964,4.962C199.501,111.375,197.277,113.596,194.535,113.596z"/>
<path fill="#43A748" d="M252.639,77.891c-16.98,0-30.746,13.763-30.746,30.743c0,16.978,13.766,30.744,30.746,30.744
	c16.977,0,30.741-13.766,30.741-30.744C283.38,91.654,269.618,77.891,252.639,77.891z M266.531,113.596h-8.934v8.933
	c0,2.741-2.223,4.963-4.959,4.963c-2.742,0-4.961-2.223-4.961-4.963v-8.933h-8.934c-2.738,0-4.96-2.223-4.96-4.961
	c0-2.741,2.222-4.963,4.96-4.963h8.934V94.74c0-2.741,2.219-4.963,4.961-4.963c2.736,0,4.959,2.222,4.959,4.963v8.931h8.934
	c2.739,0,4.963,2.223,4.963,4.963C271.496,111.373,269.275,113.596,266.531,113.596z"/>
<path fill="#FFFFFF" d="M36.64,581.87c-16.98,0-30.745,13.767-30.745,30.745c0,16.976,13.765,30.743,30.745,30.743
	c16.978,0,30.743-13.768,30.743-30.743C67.382,595.635,53.617,581.87,36.64,581.87z M22.741,617.575
	c-2.74,0-4.961-2.224-4.961-4.961c0-2.738,2.221-4.962,4.961-4.962h27.792c2.738,0,4.961,2.224,4.961,4.962
	c0,2.737-2.221,4.961-4.961,4.961H22.741z"/>
<path fill="#F09622" d="M108.64,581.87c-16.98,0-30.743,13.765-30.743,30.743c0,16.978,13.764,30.743,30.744,30.743
	c16.977,0,30.743-13.766,30.743-30.743C139.384,595.632,125.617,581.87,108.64,581.87z M94.746,617.575
	c-2.741,0-4.959-2.225-4.959-4.963c0-2.74,2.219-4.965,4.959-4.965h27.79c2.738,0,4.961,2.225,4.961,4.965
	c0,2.737-2.223,4.963-4.961,4.963H94.746z"/>
<path fill="#010101" d="M180.641,581.87c-16.98,0-30.748,13.767-30.748,30.745c0,16.976,13.768,30.743,30.748,30.743
	c16.977,0,30.742-13.768,30.742-30.743C211.383,595.635,197.621,581.87,180.641,581.87z M166.744,617.575
	c-2.736,0-4.96-2.224-4.96-4.961c0-2.738,2.224-4.962,4.96-4.962h27.789c2.74,0,4.963,2.224,4.963,4.962
	c0.003,2.737-2.221,4.961-4.963,4.961H166.744z"/>
<path fill="#43A748" d="M252.639,581.87c-16.98,0-30.743,13.765-30.743,30.743c0,16.978,13.763,30.743,30.743,30.743
	c16.977,0,30.741-13.766,30.741-30.743C283.38,595.632,269.618,581.87,252.639,581.87z M238.747,617.575
	c-2.741,0-4.963-2.225-4.963-4.963c0-2.74,2.222-4.965,4.963-4.965h27.784c2.739,0,4.963,2.225,4.963,4.965
	c0.002,2.737-2.221,4.963-4.963,4.963H238.747z"/>
<path fill="#FFFFFF" d="M36.643,149.887c-16.981,0-30.746,13.764-30.746,30.743c0,16.982,13.765,30.747,30.746,30.747
	c16.978,0,30.742-13.763,30.742-30.747C67.385,163.65,53.623,149.887,36.643,149.887z M37.66,192.377
	c0,1.671-1.355,3.025-3.026,3.025H21.365c-1.671,0-3.026-1.351-3.026-3.025v-0.125c0-1.674,1.355-3.026,3.026-3.026h13.27
	c1.672,0,3.026,1.351,3.026,3.026L37.66,192.377L37.66,192.377z M54.944,180.691c0,1.671-1.354,3.026-3.024,3.026H21.365
	c-1.671,0-3.026-1.354-3.026-3.026v-0.125c0-1.669,1.355-3.025,3.026-3.025H51.92c1.67,0,3.024,1.354,3.024,3.025V180.691z
	 M54.944,169.009c0,1.669-1.354,3.025-3.024,3.025H21.365c-1.671,0-3.026-1.354-3.026-3.025v-0.126c0-1.669,1.355-3.025,3.026-3.025
	H51.92c1.67,0,3.024,1.355,3.024,3.025V169.009z"/>
<path fill="#F09622" d="M108.642,149.887c-16.982,0-30.745,13.764-30.745,30.743c0,16.982,13.764,30.747,30.746,30.747
	c16.978,0,30.741-13.763,30.741-30.747C139.384,163.65,125.622,149.887,108.642,149.887z M109.656,192.378
	c0,1.672-1.354,3.025-3.025,3.025H93.362c-1.67,0-3.027-1.352-3.027-3.025v-0.125c0-1.674,1.356-3.027,3.027-3.027h13.27
	c1.67,0,3.025,1.352,3.025,3.027L109.656,192.378L109.656,192.378z M126.942,180.69c0,1.673-1.354,3.028-3.022,3.028H93.362
	c-1.67,0-3.027-1.354-3.027-3.028v-0.124c0-1.67,1.356-3.025,3.027-3.025h30.557c1.667,0,3.022,1.354,3.022,3.025V180.69z
	 M126.942,169.009c0,1.669-1.354,3.025-3.022,3.025H93.362c-1.67,0-3.027-1.354-3.027-3.025v-0.126c0-1.669,1.356-3.025,3.027-3.025
	h30.557c1.667,0,3.022,1.355,3.022,3.025V169.009z"/>
<path fill="#010101" d="M180.643,149.887c-16.982,0-30.744,13.765-30.744,30.743c0,16.982,13.762,30.747,30.744,30.747
	c16.976,0,30.74-13.763,30.74-30.747C211.383,163.65,197.623,149.887,180.643,149.887z M181.66,192.377
	c0,1.671-1.354,3.025-3.025,3.025h-13.269c-1.671,0-3.028-1.351-3.028-3.025v-0.125c0-1.674,1.357-3.026,3.028-3.026h13.269
	c1.672,0,3.025,1.351,3.025,3.026V192.377z M198.943,180.691c0,1.67-1.35,3.026-3.025,3.026h-30.556
	c-1.669,0-3.027-1.354-3.027-3.026v-0.125c0-1.669,1.358-3.025,3.027-3.025h30.556c1.673,0,3.025,1.354,3.025,3.025V180.691z
	 M198.943,169.009c0,1.669-1.35,3.025-3.025,3.025h-30.556c-1.669,0-3.027-1.354-3.027-3.025v-0.126
	c0-1.669,1.358-3.025,3.027-3.025h30.556c1.673,0,3.025,1.355,3.025,3.025V169.009z"/>
<path fill="#43A748" d="M252.641,149.886c-16.982,0-30.745,13.766-30.745,30.743c0,16.982,13.763,30.746,30.745,30.746
	c16.977,0,30.742-13.763,30.742-30.746C283.383,163.65,269.621,149.886,252.641,149.886z M253.658,192.377
	c0,1.671-1.354,3.025-3.025,3.025h-13.268c-1.674,0-3.03-1.351-3.03-3.025v-0.125c0-1.674,1.356-3.026,3.03-3.026h13.268
	c1.67,0,3.025,1.351,3.025,3.026V192.377z M270.941,180.69c0,1.672-1.351,3.028-3.025,3.028h-30.557
	c-1.671,0-3.027-1.354-3.027-3.028v-0.124c0-1.67,1.359-3.025,3.027-3.025h30.557c1.669,0,3.025,1.354,3.025,3.025V180.69z
	 M270.941,169.009c0,1.669-1.351,3.025-3.025,3.025h-30.557c-1.671,0-3.027-1.354-3.027-3.025v-0.126
	c0-1.669,1.359-3.025,3.027-3.025h30.557c1.669,0,3.025,1.355,3.025,3.025V169.009z"/>
<path fill="#FFFFFF" d="M36.642,222.479c-16.979,0-30.744,13.764-30.744,30.744s13.765,30.743,30.744,30.743
	c16.979,0,30.743-13.762,30.743-30.743C67.385,236.241,53.621,222.479,36.642,222.479z M54.668,248.009L32.63,270.05l-14.383-14.387
	c-1.994-1.991-1.994-5.223,0-7.217c1.993-1.994,5.225-1.996,7.219,0l7.167,7.166l14.821-14.822c1.994-1.995,5.225-1.995,7.219,0
	C56.662,242.783,56.662,246.016,54.668,248.009z"/>
<path fill="#F09622" d="M108.642,222.469c-16.98,0-30.747,13.764-30.747,30.744c0,16.976,13.767,30.743,30.747,30.743
	c16.978,0,30.743-13.767,30.743-30.743C139.385,236.232,125.622,222.469,108.642,222.469z M126.669,247.999l-22.039,22.04
	l-14.383-14.385c-1.993-1.991-1.993-5.222,0-7.219c1.991-1.993,5.225-1.993,7.217,0.002l7.168,7.164l14.822-14.82
	c1.993-1.995,5.224-1.995,7.219,0C128.663,242.774,128.663,246.006,126.669,247.999z"/>
<path fill="#43A748" d="M252.639,222.469c-16.98,0-30.746,13.764-30.746,30.744c0,16.976,13.766,30.743,30.746,30.743
	c16.977,0,30.741-13.767,30.741-30.743C283.38,236.232,269.618,222.469,252.639,222.469z M270.668,247.999l-22.04,22.04
	l-14.384-14.385c-1.994-1.991-1.994-5.222,0-7.219c1.992-1.993,5.226-1.993,7.217,0.002l7.168,7.164l14.821-14.82
	c1.995-1.995,5.226-1.995,7.226,0C272.659,242.774,272.659,246.006,270.668,247.999z"/>
<path fill="#010101" d="M180.641,222.469c-16.98,0-30.745,13.764-30.745,30.744c0,16.976,13.765,30.743,30.745,30.743
	c16.977,0,30.742-13.767,30.742-30.743C211.383,236.232,197.621,222.469,180.641,222.469z M198.671,247.999l-22.04,22.04
	l-14.384-14.385c-1.994-1.991-1.994-5.222,0-7.219c1.992-1.993,5.226-1.993,7.217,0.002l7.168,7.164l14.821-14.82
	c1.994-1.995,5.225-1.995,7.225,0C200.662,242.774,200.662,246.006,198.671,247.999z"/>
<path fill="#FFFFFF" d="M36.641,294.048c-16.886,0-30.577,13.688-30.577,30.577c0,16.887,13.692,30.576,30.577,30.576
	c16.889,0,30.577-13.689,30.577-30.576C67.219,307.736,53.53,294.048,36.641,294.048z M29.479,338.192
	c1.051,0,1.905,0.853,1.905,1.903c0,1.053-0.854,1.905-1.905,1.905H19.265v-10.214c0-1.054,0.854-1.907,1.905-1.907
	c1.052,0,1.904,0.854,1.904,1.907v3.71l6.588-6.588c0.674,1.097,1.598,2.02,2.694,2.694l-6.588,6.589H29.479L29.479,338.192z
	 M29.664,320.342l-6.588-6.588v3.708c0,1.055-0.852,1.906-1.905,1.906c-1.051,0-1.904-0.851-1.904-1.906V307.25h10.214
	c1.051,0,1.905,0.854,1.905,1.906c0,1.051-0.854,1.905-1.905,1.905h-3.71l6.588,6.588C31.261,318.324,30.338,319.246,29.664,320.342
	z M54.017,342.001h-1.9c-0.001,0-0.002,0-0.005,0s-0.005,0-0.008,0h-8.301c-1.052,0-1.904-0.853-1.904-1.905
	s0.852-1.903,1.904-1.903h3.707l-6.585-6.589c1.095-0.675,2.02-1.598,2.695-2.694l6.587,6.588v-3.712
	c0-1.052,0.853-1.905,1.904-1.905s1.905,0.854,1.905,1.905v10.216H54.017z M54.017,309.154c0,0.002,0,0.004,0,0.007v8.304
	c0,1.052-0.853,1.906-1.904,1.906s-1.904-0.854-1.904-1.906v-3.708l-6.585,6.585c-0.674-1.094-1.599-2.02-2.694-2.693l6.588-6.588
	h-3.713c-1.051,0-1.904-0.854-1.904-1.905c0-1.051,0.853-1.906,1.904-1.906h10.214L54.017,309.154L54.017,309.154z"/>
<path fill="#F09622" d="M108.641,294.048c-16.886,0-30.577,13.688-30.577,30.577c0,16.887,13.691,30.576,30.577,30.576
	c16.888,0,30.577-13.689,30.577-30.576C139.219,307.736,125.528,294.048,108.641,294.048z M101.479,338.192
	c1.051,0,1.906,0.853,1.906,1.903c0,1.053-0.854,1.905-1.906,1.905H91.265v-10.214c0-1.054,0.854-1.907,1.906-1.907
	c1.052,0,1.904,0.854,1.904,1.907v3.71l6.589-6.588c0.674,1.097,1.597,2.02,2.693,2.694l-6.588,6.589H101.479L101.479,338.192z
	 M101.663,320.342l-6.589-6.588v3.708c0,1.055-0.852,1.906-1.904,1.906c-1.051,0-1.906-0.851-1.906-1.906V307.25h10.214
	c1.051,0,1.906,0.854,1.906,1.906c0,1.051-0.854,1.905-1.906,1.905h-3.71l6.588,6.588
	C103.26,318.324,102.338,319.246,101.663,320.342z M126.015,342.001h-1.9c-0.001,0-0.002,0-0.005,0c-0.003,0-0.006,0-0.008,0h-8.3
	c-1.052,0-1.904-0.853-1.904-1.905s0.852-1.903,1.904-1.903h3.707l-6.584-6.589c1.094-0.675,2.02-1.598,2.695-2.694l6.586,6.588
	v-3.712c0-1.052,0.853-1.905,1.905-1.905c1.051,0,1.904,0.854,1.904,1.905C126.014,331.785,126.014,342.001,126.015,342.001z
	 M126.015,309.154c0,0.002,0,0.004,0,0.007v8.304c0,1.052-0.854,1.906-1.905,1.906c-1.052,0-1.905-0.854-1.905-1.906v-3.708
	l-6.584,6.585c-0.674-1.094-1.6-2.02-2.694-2.693l6.588-6.588H115.8c-1.051,0-1.904-0.854-1.904-1.905
	c0-1.051,0.854-1.906,1.904-1.906h10.215V309.154z"/>
<path fill="#221F1F" d="M180.639,294.048c-16.885,0-30.576,13.688-30.576,30.577c0,16.887,13.691,30.576,30.576,30.576
	c16.89,0,30.577-13.689,30.577-30.576C211.219,307.736,197.528,294.048,180.639,294.048z M173.477,338.192
	c1.053,0,1.906,0.853,1.906,1.903c0,1.053-0.854,1.905-1.906,1.905h-10.215v-10.214c0-1.054,0.854-1.907,1.906-1.907
	c1.055,0,1.906,0.854,1.906,1.907v3.71l6.585-6.588c0.675,1.097,1.601,2.02,2.695,2.694l-6.588,6.589H173.477L173.477,338.192z
	 M173.662,320.342l-6.585-6.588v3.708c0,1.055-0.851,1.906-1.905,1.906c-1.053,0-1.906-0.851-1.906-1.906V307.25h10.215
	c1.053,0,1.906,0.854,1.906,1.906c0,1.051-0.854,1.905-1.906,1.905h-3.711l6.588,6.588
	C175.262,318.324,174.335,319.246,173.662,320.342z M198.02,342.001h-1.9c0,0-0.003,0-0.007,0c-0.003,0-0.005,0-0.007,0h-8.299
	c-1.056,0-1.906-0.853-1.906-1.905s0.851-1.903,1.906-1.903h3.705l-6.587-6.589c1.097-0.675,2.019-1.598,2.695-2.694l6.587,6.588
	v-3.712c0-1.052,0.854-1.905,1.905-1.905c1.054,0,1.907,0.854,1.907,1.905V342.001z M198.02,309.154c0,0.002,0,0.004,0,0.007v8.304
	c0,1.052-0.854,1.906-1.907,1.906c-1.052,0-1.905-0.854-1.905-1.906v-3.708l-6.587,6.585c-0.675-1.094-1.597-2.02-2.692-2.693
	l6.59-6.588h-3.714c-1.053,0-1.905-0.854-1.905-1.905c0-1.051,0.853-1.906,1.905-1.906h10.216V309.154z"/>
<path fill="#43A748" d="M252.639,294.048c-16.887,0-30.576,13.688-30.576,30.577c0,16.887,13.689,30.576,30.576,30.576
	c16.89,0,30.574-13.689,30.574-30.576C283.217,307.736,269.528,294.048,252.639,294.048z M245.477,338.192
	c1.051,0,1.906,0.853,1.906,1.903c0,1.053-0.855,1.905-1.906,1.905h-10.215v-10.214c0-1.054,0.854-1.907,1.906-1.907
	c1.05,0,1.903,0.854,1.903,1.907v3.71l6.588-6.588c0.675,1.097,1.601,2.02,2.692,2.694l-6.585,6.589H245.477L245.477,338.192z
	 M245.662,320.342l-6.588-6.588v3.708c0,1.055-0.853,1.906-1.902,1.906c-1.053,0-1.906-0.851-1.906-1.906V307.25h10.215
	c1.05,0,1.906,0.854,1.906,1.906c0,1.051-0.856,1.905-1.906,1.905h-3.711l6.585,6.588
	C247.262,318.324,246.335,319.246,245.662,320.342z M270.017,342.001h-1.898c-0.002,0-0.002,0-0.006,0c-0.005,0-0.007,0-0.009,0
	h-8.303c-1.05,0-1.902-0.853-1.902-1.905s0.853-1.903,1.902-1.903h3.709l-6.585-6.589c1.095-0.675,2.019-1.598,2.692-2.694
	l6.59,6.588v-3.712c0-1.052,0.854-1.905,1.905-1.905c1.05,0,1.904,0.854,1.904,1.905V342.001z M270.017,309.154
	c0,0.002,0,0.004,0,0.007v8.304c0,1.052-0.854,1.906-1.904,1.906c-1.052,0-1.905-0.854-1.905-1.906v-3.708l-6.587,6.585
	c-0.675-1.094-1.599-2.02-2.692-2.693l6.59-6.588h-3.717c-1.05,0-1.902-0.854-1.902-1.905c0-1.051,0.853-1.906,1.902-1.906h10.216
	V309.154z"/>
<path fill="#FFFFFF" d="M36.641,366.043c-16.889,0-30.577,13.691-30.577,30.58c0,16.884,13.688,30.576,30.577,30.576
	c16.889,0,30.577-13.692,30.577-30.576C67.22,379.734,53.53,366.043,36.641,366.043z M35.31,411.913
	c-0.966,0.965-2.227,1.446-3.49,1.446c-1.262,0-2.525-0.481-3.487-1.446c-1.927-1.927-1.927-5.054,0-6.976l8.309-8.309l-8.411-8.416
	c-1.927-1.924-1.927-5.053,0-6.975c1.928-1.927,5.051-1.927,6.977,0l15.388,15.391L35.31,411.913z"/>
<path fill="#F09622" d="M108.641,366.043c-16.889,0-30.577,13.691-30.577,30.58c0,16.884,13.688,30.576,30.577,30.576
	c16.888,0,30.577-13.692,30.577-30.576C139.219,379.734,125.528,366.043,108.641,366.043z M107.309,411.913
	c-0.966,0.965-2.227,1.446-3.489,1.446c-1.263,0-2.525-0.481-3.487-1.446c-1.927-1.927-1.927-5.054,0-6.976l8.31-8.309l-8.412-8.416
	c-1.927-1.924-1.927-5.053,0-6.975c1.927-1.927,5.051-1.927,6.977,0l15.386,15.391L107.309,411.913z"/>
<path fill="#221F1F" d="M180.639,366.043c-16.889,0-30.576,13.691-30.576,30.58c0,16.884,13.688,30.576,30.576,30.576
	c16.89,0,30.577-13.692,30.577-30.576C211.219,379.734,197.528,366.043,180.639,366.043z M179.308,411.913
	c-0.966,0.965-2.225,1.446-3.488,1.446c-1.265,0-2.524-0.481-3.487-1.446c-1.926-1.927-1.926-5.054,0-6.976l8.309-8.309
	l-8.409-8.416c-1.929-1.924-1.929-5.053,0-6.975c1.927-1.927,5.051-1.927,6.976,0l15.387,15.389L179.308,411.913z"/>
<path fill="#43A748" d="M252.639,366.043c-16.889,0-30.576,13.691-30.576,30.58c0,16.884,13.688,30.576,30.576,30.576
	c16.89,0,30.574-13.692,30.574-30.576C283.217,379.734,269.528,366.043,252.639,366.043z M251.308,411.913
	c-0.966,0.965-2.228,1.446-3.488,1.446c-1.265,0-2.526-0.481-3.487-1.446c-1.928-1.927-1.928-5.054,0-6.976l8.309-8.309
	l-8.412-8.416c-1.926-1.924-1.926-5.053,0-6.975c1.93-1.927,5.054-1.927,6.977,0l15.389,15.389L251.308,411.913z"/>
<path fill="#FFFFFF" d="M23.775,476.582v3.986c0.002,0.527,0.43,0.954,0.956,0.954h3.986c0.037,0,0.071-0.017,0.104-0.019
	l-5.023-5.025C23.792,476.518,23.775,476.547,23.775,476.582z"/>
<path fill="#FFFFFF" d="M36.641,438.041c-16.889,0-30.577,13.686-30.577,30.574c0,16.89,13.688,30.579,30.577,30.579
	c16.888,0,30.577-13.689,30.577-30.579C67.219,451.729,53.528,438.041,36.641,438.041z M30.771,482.19
	c-0.25,0.365-0.667,0.602-1.142,0.602l-5.77,0.003c-0.762-0.003-1.381-0.62-1.381-1.381v-5.772c0-0.414,0.184-0.776,0.472-1.033
	c0.036-0.041,0.062-0.085,0.103-0.13l16.512-16.509l7.716,7.713L30.771,482.19z M50.172,462.788l-1.477,1.476l-7.713-7.714
	l1.477-1.477c0.843-0.843,2.209-0.843,3.055,0l4.658,4.657C51.016,460.574,51.016,461.944,50.172,462.788z"/>
<path fill="#F09622" d="M95.729,476.582v3.986c0.002,0.527,0.429,0.954,0.955,0.954h3.986c0.036,0,0.07-0.017,0.103-0.019
	l-5.023-5.025C95.747,476.518,95.729,476.547,95.729,476.582z"/>
<path fill="#F09622" d="M108.641,438.041c-16.889,0-30.577,13.686-30.577,30.574c0,16.89,13.688,30.579,30.577,30.579
	c16.888,0,30.577-13.689,30.577-30.579C139.219,451.729,125.528,438.041,108.641,438.041z M102.771,482.19
	c-0.25,0.365-0.668,0.602-1.144,0.602l-5.77,0.003c-0.762-0.003-1.381-0.62-1.381-1.381v-5.772c0-0.414,0.185-0.776,0.472-1.033
	c0.037-0.041,0.062-0.085,0.104-0.13l16.512-16.509l7.717,7.713L102.771,482.19z M122.174,462.788l-1.479,1.476l-7.713-7.714
	l1.477-1.477c0.844-0.843,2.21-0.843,3.055,0l4.66,4.657C123.016,460.574,123.016,461.944,122.174,462.788z"/>
<path fill="#221F1F" d="M167.732,476.556v3.984c0.002,0.528,0.428,0.956,0.955,0.956h3.985c0.037,0,0.071-0.021,0.105-0.022
	l-5.022-5.025C167.748,476.484,167.732,476.521,167.732,476.556z"/>
<path fill="#221F1F" d="M180.639,438.041c-16.889,0-30.576,13.686-30.576,30.574c0,16.89,13.688,30.579,30.576,30.579
	c16.89,0,30.577-13.689,30.577-30.579C211.219,451.729,197.528,438.041,180.639,438.041z M174.771,482.19
	c-0.246,0.365-0.664,0.602-1.139,0.602l-5.771,0.003c-0.766-0.003-1.379-0.62-1.379-1.381v-5.772c0-0.414,0.181-0.776,0.471-1.033
	c0.033-0.041,0.062-0.085,0.104-0.13l16.512-16.509l7.714,7.713L174.771,482.19z M194.174,462.788l-1.477,1.476l-7.716-7.714
	l1.478-1.477c0.844-0.843,2.211-0.843,3.057,0l4.658,4.657C195.017,460.574,195.017,461.944,194.174,462.788z"/>
<path fill="#43A748" d="M239.746,476.556v3.984c0.002,0.528,0.427,0.956,0.956,0.956h3.982c0.038,0,0.072-0.021,0.106-0.022
	l-5.023-5.025C239.76,476.484,239.746,476.521,239.746,476.556z"/>
<path fill="#43A748" d="M252.639,438.041c-16.889,0-30.576,13.686-30.576,30.574c0,16.89,13.688,30.579,30.576,30.579
	c16.89,0,30.574-13.689,30.574-30.579C283.217,451.729,269.528,438.041,252.639,438.041z M246.771,482.19
	c-0.248,0.365-0.667,0.602-1.141,0.602l-5.77,0.003c-0.766-0.003-1.382-0.62-1.382-1.381v-5.772c0-0.414,0.185-0.776,0.472-1.033
	c0.035-0.041,0.063-0.085,0.105-0.13l16.512-16.509l7.714,7.713L246.771,482.19z M266.174,462.788l-1.479,1.476l-7.714-7.714
	l1.478-1.477c0.844-0.843,2.211-0.843,3.057,0l4.658,4.657C267.017,460.574,267.017,461.944,266.174,462.788z"/>
<circle fill="#FFFFFF" cx="36.54" cy="539.284" r="1.75"/>
<path fill="#FFFFFF" d="M26.942,545.671c-0.702,0-1.367,0.229-1.919,0.643c-0.124,0.091-0.241,0.189-0.35,0.297
	c-1.252,1.252-1.252,3.291,0,4.54c0.606,0.607,1.412,0.939,2.269,0.939s1.663-0.335,2.271-0.939c0.11-0.11,0.208-0.231,0.297-0.35
	c0.938-1.259,0.843-3.049-0.297-4.19C28.605,546.006,27.8,545.671,26.942,545.671z"/>
<path fill="#FFFFFF" d="M48.074,546.393c-0.506-0.323-1.097-0.499-1.712-0.499c-0.856,0-1.664,0.334-2.269,0.939
	c-1.08,1.081-1.225,2.74-0.443,3.98c0.125,0.199,0.272,0.386,0.443,0.558c0.606,0.606,1.413,0.939,2.269,0.939
	c0.857,0,1.664-0.333,2.271-0.939c1.25-1.251,1.25-3.287,0-4.538C48.459,546.667,48.272,546.52,48.074,546.393z"/>
<path fill="#FFFFFF" d="M36.64,510.038c-16.889,0-30.577,13.689-30.577,30.575c0,16.889,13.688,30.578,30.577,30.578
	c16.888,0,30.578-13.689,30.578-30.578C67.219,523.728,53.528,510.038,36.64,510.038z M22.699,525.454
	c1.479-1.478,3.877-1.478,5.357,0l6.816,6.815l-5.357,5.359l-6.815-6.817C21.22,529.332,21.22,526.935,22.699,525.454z
	 M51.967,554.723c-1.5,1.504-3.496,2.326-5.619,2.326c-2.122,0-4.117-0.823-5.618-2.326c-2.129-2.126-2.793-5.174-1.997-7.874
	l-2.206-2.206l-1.981,1.982c0.797,2.702,0.129,5.746-1.998,7.876c-1.5,1.5-3.497,2.325-5.619,2.325s-4.116-0.825-5.617-2.325
	c-3.098-3.099-3.098-8.14,0-11.235c1.5-1.503,3.496-2.326,5.617-2.326c0.777,0,1.536,0.113,2.262,0.325l1.979-1.979l0.998-0.996
	l12.993-12.996c1.479-1.476,3.878-1.476,5.358,0c1.479,1.48,1.479,3.877,0,5.358l-8.636,8.634l2.203,2.203
	c0.725-0.214,1.484-0.325,2.261-0.325c2.122,0,4.118,0.825,5.618,2.327C55.063,546.584,55.063,551.626,51.967,554.723z"/>
<circle fill="#F09622" cx="108.528" cy="539.284" r="1.75"/>
<path fill="#F09622" d="M98.929,545.671c-0.702,0-1.367,0.229-1.919,0.643c-0.122,0.091-0.24,0.189-0.35,0.297
	c-1.25,1.252-1.25,3.291,0,4.54c0.607,0.607,1.412,0.939,2.269,0.939c0.858,0,1.665-0.335,2.271-0.939
	c0.11-0.11,0.208-0.231,0.299-0.35c0.938-1.259,0.842-3.049-0.299-4.19C100.594,546.006,99.787,545.671,98.929,545.671z"/>
<path fill="#F09622" d="M120.061,546.393c-0.509-0.323-1.095-0.499-1.713-0.499c-0.857,0-1.663,0.334-2.271,0.939
	c-1.079,1.081-1.225,2.74-0.443,3.98c0.125,0.199,0.272,0.386,0.443,0.558c0.608,0.606,1.414,0.939,2.271,0.939
	s1.665-0.333,2.269-0.939c1.253-1.251,1.253-3.287,0-4.538C120.448,546.667,120.259,546.52,120.061,546.393z"/>
<path fill="#F09622" d="M108.641,510.038c-16.889,0-30.577,13.689-30.577,30.575c0,16.889,13.688,30.578,30.577,30.578
	c16.888,0,30.577-13.689,30.577-30.578C139.219,523.728,125.528,510.038,108.641,510.038z M94.698,525.454
	c1.478-1.478,3.878-1.478,5.358,0l6.814,6.815l-5.356,5.359l-6.816-6.817C93.218,529.332,93.218,526.935,94.698,525.454z
	 M123.966,554.723c-1.501,1.504-3.497,2.326-5.618,2.326c-2.123,0-4.119-0.823-5.619-2.326c-2.127-2.126-2.794-5.174-1.997-7.874
	l-2.206-2.206l-1.982,1.982c0.797,2.702,0.131,5.746-1.998,7.876c-1.5,1.5-3.496,2.325-5.618,2.325
	c-2.122,0-4.116-0.825-5.617-2.325c-3.096-3.099-3.096-8.14,0-11.235c1.5-1.503,3.496-2.326,5.617-2.326
	c0.777,0,1.536,0.113,2.263,0.325l1.979-1.979l0.997-0.996l12.994-12.996c1.48-1.476,3.877-1.476,5.358,0
	c1.477,1.48,1.477,3.877,0,5.358l-8.635,8.634l2.203,2.203c0.724-0.214,1.483-0.325,2.259-0.325c2.122,0,4.118,0.825,5.619,2.327
	C127.063,546.584,127.063,551.626,123.966,554.723z"/>
<circle fill="#221F1F" cx="180.527" cy="539.284" r="1.75"/>
<path fill="#221F1F" d="M170.927,545.671c-0.7,0-1.366,0.229-1.917,0.643c-0.123,0.091-0.242,0.189-0.352,0.297
	c-1.252,1.252-1.252,3.291,0,4.54c0.606,0.607,1.413,0.939,2.269,0.939c0.858,0,1.665-0.335,2.271-0.939
	c0.113-0.11,0.209-0.231,0.3-0.35c0.94-1.259,0.841-3.049-0.3-4.19C172.592,546.006,171.785,545.671,170.927,545.671z"/>
<path fill="#221F1F" d="M192.062,546.393c-0.506-0.323-1.096-0.499-1.717-0.499c-0.855,0-1.662,0.334-2.27,0.939
	c-1.076,1.081-1.226,2.74-0.44,3.98c0.124,0.199,0.271,0.386,0.44,0.558c0.607,0.606,1.414,0.939,2.27,0.939
	c0.861,0,1.665-0.333,2.273-0.939c1.252-1.251,1.252-3.287,0-4.538C192.451,546.667,192.26,546.52,192.062,546.393z"/>
<path fill="#221F1F" d="M180.639,510.038c-16.889,0-30.576,13.689-30.576,30.575c0,16.889,13.688,30.578,30.576,30.578
	c16.89,0,30.577-13.689,30.577-30.578C211.219,523.728,197.528,510.038,180.639,510.038z M166.698,525.454
	c1.475-1.478,3.874-1.478,5.358,0l6.816,6.815l-5.357,5.359l-6.817-6.817C165.221,529.332,165.221,526.935,166.698,525.454z
	 M195.966,554.723c-1.5,1.504-3.494,2.326-5.62,2.326c-2.119,0-4.117-0.823-5.619-2.326c-2.126-2.126-2.791-5.174-1.996-7.874
	l-2.203-2.206l-1.982,1.982c0.797,2.702,0.128,5.746-1.998,7.876c-1.5,1.5-3.495,2.325-5.62,2.325c-2.122,0-4.116-0.825-5.616-2.325
	c-3.098-3.099-3.098-8.14,0-11.235c1.498-1.503,3.494-2.326,5.616-2.326c0.778,0,1.537,0.113,2.263,0.325l1.979-1.979l0.998-0.996
	l12.993-12.996c1.479-1.476,3.879-1.476,5.356,0c1.478,1.48,1.478,3.877,0,5.358l-8.632,8.634l2.201,2.203
	c0.725-0.214,1.482-0.325,2.26-0.325c2.126,0,4.12,0.825,5.62,2.327C199.066,546.584,199.066,551.626,195.966,554.723z"/>
<circle fill="#43A748" cx="252.525" cy="539.284" r="1.75"/>
<path fill="#43A748" d="M242.927,545.671c-0.703,0-1.366,0.229-1.917,0.643c-0.123,0.091-0.242,0.189-0.352,0.297
	c-1.252,1.252-1.252,3.291,0,4.54c0.606,0.607,1.413,0.939,2.269,0.939c0.858,0,1.665-0.335,2.271-0.939
	c0.113-0.11,0.209-0.231,0.3-0.35c0.937-1.259,0.841-3.049-0.3-4.19C244.592,546.006,243.785,545.671,242.927,545.671z"/>
<path fill="#43A748" d="M264.061,546.393c-0.507-0.323-1.094-0.499-1.714-0.499c-0.856,0-1.663,0.334-2.271,0.939
	c-1.079,1.081-1.226,2.74-0.443,3.98c0.125,0.199,0.273,0.386,0.443,0.558c0.607,0.606,1.414,0.939,2.271,0.939
	c0.858,0,1.664-0.333,2.271-0.939c1.254-1.251,1.254-3.287,0-4.538C264.451,546.667,264.26,546.52,264.061,546.393z"/>
<path fill="#43A748" d="M252.639,510.038c-16.889,0-30.576,13.689-30.576,30.575c0,16.889,13.688,30.578,30.576,30.578
	c16.89,0,30.574-13.689,30.574-30.578C283.217,523.728,269.528,510.038,252.639,510.038z M238.695,525.454
	c1.478-1.478,3.877-1.478,5.358,0l6.817,6.815l-5.355,5.359l-6.82-6.817C237.221,529.332,237.221,526.935,238.695,525.454z
	 M267.966,554.723c-1.5,1.504-3.494,2.326-5.62,2.326c-2.122,0-4.119-0.823-5.619-2.326c-2.126-2.126-2.793-5.174-1.996-7.874
	l-2.206-2.206l-1.979,1.982c0.797,2.702,0.128,5.746-1.998,7.876c-1.5,1.5-3.495,2.325-5.62,2.325c-2.122,0-4.116-0.825-5.616-2.325
	c-3.098-3.099-3.098-8.14,0-11.235c1.498-1.503,3.494-2.326,5.616-2.326c0.778,0,1.537,0.113,2.263,0.325l1.977-1.979l1.001-0.996
	l12.991-12.996c1.48-1.476,3.879-1.476,5.358,0c1.478,1.48,1.478,3.877,0,5.358l-8.634,8.634l2.203,2.203
	c0.725-0.214,1.482-0.325,2.26-0.325c2.126,0,4.12,0.825,5.62,2.327C271.066,546.584,271.066,551.626,267.966,554.723z"/>
</svg>
