<?xml version="1.0" encoding="utf-8"?>
<!-- Generator: Adobe Illustrator 15.1.0, SVG Export Plug-In . SVG Version: 6.00 Build 0)  -->
<!DOCTYPE svg PUBLIC "-//W3C//DTD SVG 1.1//EN" "http://www.w3.org/Graphics/SVG/1.1/DTD/svg11.dtd">
<svg version="1.1" id="Layer_1" xmlns="http://www.w3.org/2000/svg" xmlns:xlink="http://www.w3.org/1999/xlink" x="0px" y="0px"
	 width="24em" height="54em" viewBox="0 0 345.6 777.6" enable-background="new 0 0 345.6 777.6" xml:space="preserve">
<path fill="#F19520" d="M129.688,266.573c-20.376,0-36.896,16.517-36.896,36.893c0,20.371,16.521,36.89,36.896,36.89
	c20.374,0,36.892-16.521,36.892-36.89C166.579,283.09,150.062,266.573,129.688,266.573z M151.321,297.209l-26.448,26.448
	l-17.259-17.262c-2.392-2.389-2.392-6.268,0-8.663c2.389-2.393,6.27-2.393,8.66,0.002l8.602,8.597l17.787-17.784
	c2.392-2.393,6.269-2.393,8.663,0C153.713,290.939,153.713,294.816,151.321,297.209z"/>
<path fill="#41A648" d="M302.637,266.573c-20.375,0-36.895,16.517-36.895,36.893c0,20.371,16.52,36.89,36.895,36.89
	c20.373,0,36.892-16.521,36.892-36.89C339.528,283.09,323.01,266.573,302.637,266.573z M324.271,297.209l-26.449,26.448
	l-17.26-17.262c-2.394-2.389-2.394-6.268,0-8.663c2.39-2.393,6.271-2.393,8.66,0.002l8.602,8.597l17.786-17.784
	c2.394-2.393,6.271-2.393,8.669,0C326.661,290.939,326.661,294.816,324.271,297.209z"/>
<path fill="#FFFFFF" d="M43.201,6.683c-20.376,0-36.894,16.516-36.894,36.892c0,20.375,16.518,36.893,36.894,36.893
	c20.375,0,36.892-16.521,36.892-36.893C80.093,23.198,63.577,6.683,43.201,6.683z M59.201,51.156c2.325,2.325,2.325,6.095,0,8.419
	c-1.165,1.165-2.687,1.745-4.21,1.745c-1.524,0-3.046-0.58-4.208-1.745L43.2,51.995l-7.58,7.58c-1.163,1.165-2.686,1.745-4.21,1.745
	c-1.524,0-3.046-0.58-4.21-1.745c-2.324-2.323-2.324-6.093,0-8.419l7.582-7.581L27.2,35.993c-2.324-2.327-2.324-6.093,0-8.42
	c2.325-2.326,6.095-2.324,8.418,0l7.581,7.582l7.582-7.582c2.326-2.324,6.096-2.324,8.42,0c2.325,2.326,2.325,6.093,0,8.42
	l-7.583,7.582L59.201,51.156z"/>
<path fill="#F19520" d="M129.687,6.683c-20.374,0-36.893,16.516-36.893,36.892c0,20.374,16.52,36.893,36.893,36.893
	c20.376,0,36.89-16.521,36.89-36.893C166.577,23.198,150.065,6.683,129.687,6.683z M145.688,51.156c2.324,2.325,2.324,6.095,0,8.419
	c-1.165,1.165-2.688,1.745-4.212,1.745c-1.523,0-3.047-0.58-4.208-1.745l-7.583-7.579l-7.582,7.579
	c-1.164,1.165-2.687,1.745-4.211,1.745c-1.523,0-3.048-0.58-4.209-1.745c-2.325-2.323-2.325-6.092,0-8.419l7.582-7.581l-7.582-7.582
	c-2.325-2.327-2.325-6.094,0-8.42c2.324-2.326,6.092-2.325,8.418,0l7.58,7.582l7.584-7.582c2.325-2.325,6.093-2.325,8.418,0
	c2.326,2.326,2.325,6.092,0,8.42l-7.584,7.582L145.688,51.156z"/>
<path d="M216.103,6.683c-20.374,0-36.89,16.516-36.89,36.892c0,20.374,16.516,36.893,36.89,36.893
	c20.375,0,36.891-16.521,36.891-36.893C252.993,23.198,236.477,6.683,216.103,6.683z M232.101,51.156
	c2.324,2.325,2.324,6.095,0,8.419c-1.169,1.165-2.682,1.745-4.209,1.745c-1.525,0-3.047-0.58-4.213-1.745l-7.584-7.579l-7.578,7.579
	c-1.165,1.165-2.687,1.745-4.215,1.745c-1.523,0-3.041-0.58-4.207-1.745c-2.325-2.323-2.325-6.092,0-8.419l7.58-7.581l-7.58-7.582
	c-2.325-2.327-2.325-6.094,0-8.42c2.321-2.325,6.092-2.325,8.42,0l7.58,7.582l7.584-7.582c2.324-2.325,6.092-2.325,8.418,0
	c2.324,2.326,2.324,6.092,0,8.42l-7.584,7.582L232.101,51.156z"/>
<path fill="#41A648" d="M302.638,6.683c-20.373,0-36.893,16.516-36.893,36.892c0,20.374,16.521,36.893,36.893,36.893
	c20.376,0,36.888-16.521,36.888-36.893C339.525,23.198,323.015,6.683,302.638,6.683z M318.639,51.156
	c2.323,2.325,2.323,6.095,0,8.419c-1.17,1.165-2.69,1.745-4.215,1.745c-1.525,0-3.048-0.58-4.211-1.745l-7.578-7.579l-7.583,7.579
	c-1.164,1.165-2.684,1.745-4.21,1.745c-1.524,0-3.046-0.58-4.205-1.745c-2.328-2.323-2.328-6.092,0-8.419l7.577-7.581l-7.577-7.582
	c-2.328-2.327-2.328-6.094,0-8.42c2.318-2.325,6.089-2.325,8.412,0l7.586,7.582l7.58-7.582c2.329-2.325,6.093-2.325,8.421,0
	c2.323,2.326,2.323,6.092,0,8.42l-7.585,7.582L318.639,51.156z"/>
<path fill="#F19520" d="M129.684,93.078c-20.376,0-36.892,16.517-36.892,36.893c0,20.374,16.516,36.893,36.893,36.893
	c20.371,0,36.892-16.521,36.892-36.893C166.577,109.595,150.058,93.078,129.684,93.078z M146.358,135.923h-10.723v10.72
	c0,3.289-2.665,5.956-5.95,5.956c-3.289,0-5.952-2.667-5.952-5.956v-10.72h-10.722c-3.289,0-5.951-2.667-5.951-5.953
	c0-3.29,2.663-5.956,5.951-5.956h10.722v-10.719c0-3.289,2.664-5.957,5.952-5.957c3.286,0,5.95,2.667,5.95,5.957v10.719h10.723
	c3.286,0,5.952,2.666,5.952,5.956C152.311,133.258,149.645,135.923,146.358,135.923z"/>
<path fill="#FFFFFF" d="M43.201,93.081c-20.376,0-36.894,16.516-36.894,36.89c0,20.374,16.517,36.893,36.894,36.893
	c20.374,0,36.892-16.521,36.892-36.893C80.093,109.596,63.575,93.081,43.201,93.081z M59.874,135.924H49.153v10.72
	c0,3.289-2.667,5.957-5.955,5.957s-5.953-2.668-5.953-5.957v-10.72H26.523c-3.288,0-5.953-2.667-5.953-5.953
	c0-3.287,2.665-5.954,5.953-5.954h10.722v-10.72c0-3.289,2.665-5.956,5.953-5.956s5.955,2.667,5.955,5.956v10.72h10.721
	c3.286,0,5.953,2.667,5.953,5.954C65.827,133.26,63.162,135.924,59.874,135.924z"/>
<path fill="#41A648" d="M302.637,93.078c-20.376,0-36.895,16.517-36.895,36.892c0,20.374,16.519,36.893,36.895,36.893
	c20.373,0,36.89-16.521,36.89-36.893C339.526,109.596,323.011,93.078,302.637,93.078z M319.31,135.924h-10.723v10.72
	c0,3.289-2.666,5.957-5.95,5.957c-3.291,0-5.951-2.668-5.951-5.957v-10.72h-10.722c-3.287,0-5.952-2.667-5.952-5.953
	c0-3.288,2.665-5.956,5.952-5.956h10.722v-10.718c0-3.289,2.66-5.956,5.951-5.956c3.284,0,5.95,2.667,5.95,5.956v10.718h10.723
	c3.284,0,5.954,2.667,5.954,5.956C325.266,133.258,322.601,135.924,319.31,135.924z"/>
<path d="M216.105,93.081c-20.374,0-36.896,16.516-36.896,36.89c0,20.374,16.522,36.893,36.896,36.893s36.892-16.521,36.892-36.893
	C252.997,109.596,236.478,93.081,216.105,93.081z M232.778,135.924h-10.723v10.72c0,3.289-2.667,5.957-5.955,5.957
	c-3.281,0-5.949-2.668-5.949-5.957v-10.72h-10.723c-3.285,0-5.953-2.667-5.953-5.953c0-3.287,2.668-5.954,5.953-5.954h10.723v-10.72
	c0-3.289,2.668-5.956,5.949-5.956c3.288,0,5.956,2.667,5.956,5.956v10.72h10.722c3.285,0,5.953,2.667,5.953,5.954
	C238.735,133.26,236.069,135.924,232.778,135.924z"/>
<path fill="#FFFFFF" d="M43.201,697.855c-20.376,0-36.894,16.517-36.894,36.893c0,20.37,16.518,36.891,36.894,36.891
	c20.374,0,36.892-16.521,36.892-36.891C80.093,714.371,63.575,697.855,43.201,697.855z M26.523,740.7
	c-3.288,0-5.953-2.668-5.953-5.952c0-3.287,2.665-5.954,5.953-5.954h33.351c3.286,0,5.953,2.667,5.953,5.954
	c0,3.284-2.665,5.952-5.953,5.952H26.523z"/>
<g>
	<path fill="#F19520" d="M129.684,697.855c-20.376,0-36.892,16.517-36.892,36.893c0,20.37,16.517,36.891,36.893,36.891
		c20.373,0,36.892-16.521,36.892-36.891C166.577,714.371,150.058,697.855,129.684,697.855z M113.012,740.7
		c-3.289,0-5.951-2.668-5.951-5.952c0-3.289,2.663-5.958,5.951-5.958h33.348c3.286,0,5.953,2.669,5.953,5.958
		c0,3.284-2.667,5.952-5.953,5.952H113.012z"/>
</g>
<g>
	<path d="M216.105,697.855c-20.374,0-36.896,16.517-36.896,36.893c0,20.37,16.522,36.891,36.896,36.891
		c20.371,0,36.892-16.521,36.892-36.891C252.997,714.371,236.476,697.855,216.105,697.855z M199.431,740.7
		c-3.285,0-5.952-2.668-5.952-5.952c0-3.287,2.667-5.954,5.952-5.954h33.348c3.283,0,5.953,2.667,5.953,5.954
		c0.004,3.284-2.666,5.952-5.953,5.952H199.431z"/>
</g>
<path fill="#41A648" d="M302.637,697.855c-20.376,0-36.894,16.517-36.894,36.893c0,20.37,16.518,36.891,36.894,36.891
	c20.373,0,36.89-16.521,36.89-36.891C339.526,714.371,323.01,697.855,302.637,697.855z M285.966,740.7
	c-3.288,0-5.953-2.668-5.953-5.952c0-3.289,2.665-5.958,5.953-5.958h33.344c3.286,0,5.954,2.669,5.954,5.958
	c0.002,3.284-2.664,5.952-5.954,5.952H285.966z"/>
<g>
	<path fill="#FFFFFF" d="M43.202,179.475c-20.377,0-36.895,16.517-36.895,36.89c0,20.378,16.518,36.896,36.895,36.896
		c20.374,0,36.891-16.516,36.891-36.896C80.093,195.991,63.579,179.475,43.202,179.475z M44.423,230.462
		c0,2.006-1.626,3.63-3.631,3.63H24.869c-2.005,0-3.631-1.623-3.631-3.63v-0.15c0-2.009,1.626-3.631,3.631-3.631h15.924
		c2.006,0,3.631,1.623,3.631,3.631L44.423,230.462L44.423,230.462z M65.165,216.439c0,2.007-1.625,3.631-3.629,3.631H24.869
		c-2.005,0-3.631-1.625-3.631-3.631v-0.15c0-2.003,1.626-3.63,3.631-3.63h36.667c2.004,0,3.629,1.625,3.629,3.63V216.439z
		 M65.165,202.422c0,2.003-1.625,3.63-3.629,3.63H24.869c-2.005,0-3.631-1.625-3.631-3.63v-0.151c0-2.003,1.626-3.63,3.631-3.63
		h36.667c2.004,0,3.629,1.625,3.629,3.63V202.422z"/>
</g>
<g>
	<path fill="#F19520" d="M129.688,179.475c-20.378,0-36.894,16.517-36.894,36.89c0,20.378,16.517,36.896,36.896,36.896
		c20.374,0,36.889-16.516,36.889-36.896C166.577,195.991,150.063,179.475,129.688,179.475z M130.906,230.462
		c0,2.006-1.625,3.63-3.63,3.63h-15.922c-2.004,0-3.634-1.621-3.634-3.63v-0.149c0-2.01,1.627-3.631,3.634-3.631h15.924
		c2.004,0,3.63,1.621,3.63,3.631L130.906,230.462L130.906,230.462z M151.647,216.438c0,2.008-1.625,3.632-3.626,3.632h-36.668
		c-2.004,0-3.634-1.625-3.634-3.632v-0.149c0-2.004,1.627-3.63,3.634-3.63h36.668c2,0,3.628,1.625,3.628,3.63L151.647,216.438
		L151.647,216.438z M151.647,202.422c0,2.003-1.625,3.63-3.626,3.63h-36.668c-2.004,0-3.634-1.625-3.634-3.63v-0.151
		c0-2.003,1.627-3.63,3.634-3.63h36.668c2,0,3.628,1.625,3.628,3.63L151.647,202.422L151.647,202.422z"/>
</g>
<g>
	<path d="M216.109,179.475c-20.378,0-36.897,16.518-36.897,36.89c0,20.378,16.52,36.896,36.897,36.896
		c20.371,0,36.886-16.516,36.886-36.896C252.995,195.99,236.48,179.475,216.109,179.475z M217.327,230.462
		c0,2.006-1.627,3.63-3.635,3.63h-15.92c-2.004,0-3.635-1.623-3.635-3.63v-0.15c0-2.009,1.629-3.631,3.635-3.631h15.921
		c2.009,0,3.636,1.623,3.636,3.631v0.15H217.327z M238.07,216.439c0,2.005-1.624,3.631-3.63,3.631h-36.668
		c-2.004,0-3.635-1.625-3.635-3.631v-0.15c0-2.003,1.629-3.63,3.635-3.63h36.668c2.004,0,3.63,1.625,3.63,3.63V216.439z
		 M238.07,202.421c0,2.003-1.624,3.63-3.63,3.63h-36.668c-2.004,0-3.635-1.626-3.635-3.63v-0.151c0-2.004,1.629-3.63,3.635-3.63
		h36.668c2.004,0,3.63,1.625,3.63,3.63V202.421z"/>
</g>
<path fill="#41A648" d="M302.639,179.475c-20.378,0-36.896,16.518-36.896,36.89c0,20.378,16.518,36.896,36.896,36.896
	c20.372,0,36.888-16.516,36.888-36.896C339.526,195.99,323.011,179.475,302.639,179.475z M303.858,230.462
	c0,2.006-1.625,3.63-3.631,3.63h-15.922c-2.006,0-3.637-1.621-3.637-3.63v-0.149c0-2.01,1.629-3.631,3.637-3.631h15.922
	c2.005,0,3.631,1.621,3.631,3.631V230.462z M324.598,216.438c0,2.006-1.62,3.632-3.628,3.632h-36.667
	c-2.005,0-3.634-1.625-3.634-3.632v-0.149c0-2.004,1.629-3.63,3.634-3.63h36.667c2.003,0,3.628,1.625,3.628,3.63V216.438z
	 M324.598,202.421c0,2.003-1.62,3.63-3.628,3.63h-36.667c-2.005,0-3.634-1.626-3.634-3.63v-0.151c0-2.004,1.629-3.63,3.634-3.63
	h36.667c2.003,0,3.628,1.625,3.628,3.63V202.421z"/>
<g>
	<path fill="#FFFFFF" d="M43.201,265.873c-20.375,0-36.893,16.517-36.893,36.892c0,20.376,16.518,36.892,36.893,36.892
		s36.892-16.514,36.892-36.892C80.093,282.389,63.577,265.873,43.201,265.873z M64.833,296.508l-26.447,26.451l-17.26-17.265
		c-2.393-2.389-2.393-6.268,0-8.66c2.394-2.392,6.27-2.396,8.663,0l8.601,8.599l17.785-17.787c2.393-2.393,6.27-2.393,8.663,0
		C67.227,290.237,67.227,294.115,64.833,296.508z"/>
</g>
<g>
	<path d="M216.103,265.873c-20.377,0-36.891,16.517-36.891,36.892c0,20.376,16.514,36.891,36.891,36.891
		c20.373,0,36.893-16.515,36.893-36.892C252.995,282.386,236.475,265.873,216.103,265.873z M237.734,296.508l-26.444,26.451
		l-17.265-17.265c-2.393-2.389-2.393-6.268,0-8.66c2.394-2.394,6.272-2.396,8.664,0l8.605,8.599l17.784-17.787
		c2.391-2.393,6.27-2.393,8.665,0C240.132,290.237,240.132,294.115,237.734,296.508z"/>
</g>
<g>
	<path fill="#FFFFFF" d="M43.2,352.466c-20.263,0-36.692,16.428-36.692,36.694c0,20.263,16.43,36.691,36.692,36.691
		c20.267,0,36.693-16.429,36.693-36.691C79.895,368.896,63.467,352.466,43.2,352.466z M34.608,405.438
		c1.261,0,2.285,1.025,2.285,2.288s-1.023,2.286-2.285,2.286H22.35v-12.26c0-1.262,1.023-2.285,2.285-2.285
		c1.262,0,2.285,1.024,2.285,2.285v4.455l7.906-7.906c0.809,1.316,1.917,2.424,3.233,3.23l-7.906,7.906H34.608L34.608,405.438z
		 M34.828,384.021l-7.906-7.906v4.45c0,1.266-1.022,2.286-2.285,2.286c-1.261,0-2.286-1.021-2.286-2.286v-12.253h12.257
		c1.261,0,2.286,1.025,2.286,2.285c0,1.263-1.025,2.288-2.286,2.288h-4.452l7.905,7.905
		C36.747,381.599,35.638,382.705,34.828,384.021z M64.051,410.013h-2.28c-0.001,0-0.002,0-0.006,0s-0.006,0-0.01,0h-9.96
		c-1.262,0-2.285-1.025-2.285-2.287c0-1.267,1.022-2.287,2.285-2.287h4.449l-7.902-7.904c1.315-0.811,2.424-1.916,3.234-3.23
		l7.904,7.905v-4.454c0-1.264,1.023-2.287,2.285-2.287s2.285,1.024,2.285,2.287L64.051,410.013L64.051,410.013z M64.051,370.595
		c0,0.002,0,0.006,0,0.008v9.964c0,1.264-1.025,2.287-2.286,2.287s-2.285-1.025-2.285-2.287v-4.45l-7.902,7.903
		c-0.809-1.314-1.919-2.424-3.233-3.23l7.905-7.907h-4.456c-1.261,0-2.285-1.024-2.285-2.286c0-1.261,1.023-2.285,2.285-2.285
		h12.257L64.051,370.595L64.051,370.595z"/>
</g>
<g>
	<path fill="#F19520" d="M129.685,352.466c-20.263,0-36.692,16.428-36.692,36.694c0,20.263,16.431,36.691,36.692,36.691
		c20.267,0,36.694-16.429,36.694-36.691C166.379,368.896,149.952,352.466,129.685,352.466z M121.093,405.438
		c1.261,0,2.285,1.025,2.285,2.288s-1.023,2.286-2.285,2.286h-12.258v-12.26c0-1.262,1.025-2.285,2.285-2.285
		c1.262,0,2.285,1.024,2.285,2.285v4.455l7.907-7.906c0.809,1.316,1.917,2.424,3.233,3.23l-7.907,7.906H121.093L121.093,405.438z
		 M121.313,384.021l-7.907-7.906v4.45c0,1.266-1.022,2.286-2.285,2.286c-1.26,0-2.285-1.021-2.285-2.286v-12.253h12.257
		c1.261,0,2.285,1.025,2.285,2.285c0,1.263-1.023,2.288-2.285,2.288h-4.456l7.907,7.905
		C123.229,381.599,122.124,382.705,121.313,384.021z M150.535,410.013h-2.279c-0.001,0-0.002,0-0.006,0c-0.004,0-0.006,0-0.008,0
		h-9.96c-1.263,0-2.285-1.025-2.285-2.287c0-1.267,1.022-2.287,2.285-2.287h4.448l-7.902-7.904c1.315-0.811,2.424-1.916,3.234-3.23
		l7.904,7.905v-4.454c0-1.264,1.023-2.287,2.285-2.287s2.285,1.024,2.285,2.287L150.535,410.013L150.535,410.013z M150.535,370.595
		c0,0.002,0,0.006,0,0.008v9.964c0,1.264-1.023,2.287-2.285,2.287s-2.285-1.025-2.285-2.287v-4.45l-7.903,7.903
		c-0.809-1.314-1.92-2.424-3.233-3.23l7.906-7.907h-4.456c-1.261,0-2.285-1.024-2.285-2.286c0-1.261,1.025-2.285,2.285-2.285h12.258
		L150.535,370.595L150.535,370.595z"/>
</g>
<g>
	<path fill="#221F1F" d="M216.103,352.466c-20.26,0-36.69,16.428-36.69,36.694c0,20.263,16.431,36.691,36.69,36.691
		c20.27,0,36.691-16.429,36.691-36.691C252.794,368.896,236.372,352.466,216.103,352.466z M207.511,405.438
		c1.262,0,2.287,1.025,2.287,2.288s-1.025,2.286-2.287,2.286h-12.258v-12.26c0-1.262,1.025-2.285,2.287-2.285
		c1.263,0,2.283,1.024,2.283,2.285v4.455l7.905-7.906c0.81,1.316,1.923,2.424,3.231,3.23l-7.903,7.906H207.511L207.511,405.438z
		 M207.731,384.021l-7.904-7.906v4.45c0,1.266-1.021,2.286-2.285,2.286s-2.287-1.021-2.287-2.286v-12.253h12.259
		c1.261,0,2.287,1.025,2.287,2.285c0,1.263-1.026,2.288-2.287,2.288h-4.453l7.905,7.905
		C209.651,381.599,208.54,382.705,207.731,384.021z M236.954,410.013h-2.277c0,0-0.004,0-0.006,0s-0.008,0-0.012,0H224.7
		c-1.266,0-2.285-1.025-2.285-2.287c0-1.267,1.021-2.287,2.285-2.287h4.445l-7.901-7.904c1.313-0.811,2.423-1.916,3.232-3.23
		l7.907,7.905v-4.454c0-1.264,1.023-2.287,2.285-2.287s2.284,1.024,2.284,2.287L236.954,410.013L236.954,410.013z M236.954,370.595
		c0,0.002,0,0.006,0,0.008v9.964c0,1.264-1.023,2.287-2.283,2.287c-1.264,0-2.286-1.025-2.286-2.287v-4.45l-7.907,7.903
		c-0.809-1.314-1.917-2.424-3.229-3.23l7.908-7.907h-4.459c-1.262,0-2.284-1.024-2.284-2.286c0-1.261,1.023-2.285,2.284-2.285
		h12.258v2.282H236.954z"/>
</g>
<path fill="#41A648" d="M302.635,352.466c-20.265,0-36.69,16.428-36.69,36.694c0,20.263,16.426,36.691,36.69,36.691
	c20.27,0,36.691-16.429,36.691-36.691C339.326,368.896,322.904,352.466,302.635,352.466z M294.043,405.438
	c1.261,0,2.285,1.025,2.285,2.288s-1.024,2.286-2.285,2.286h-12.258v-12.26c0-1.262,1.024-2.285,2.284-2.285
	c1.264,0,2.285,1.024,2.285,2.285v4.455l7.906-7.906c0.81,1.316,1.92,2.424,3.231,3.23l-7.905,7.906H294.043L294.043,405.438z
	 M294.265,384.021l-7.906-7.906v4.45c0,1.266-1.025,2.286-2.283,2.286c-1.264,0-2.287-1.021-2.287-2.286v-12.253h12.259
	c1.261,0,2.284,1.025,2.284,2.285c0,1.263-1.024,2.288-2.284,2.288h-4.453l7.901,7.905
	C296.185,381.599,295.073,382.705,294.265,384.021z M323.486,410.013h-2.281c-0.002,0-0.002,0-0.005,0c-0.002,0-0.006,0-0.01,0
	h-9.963c-1.262,0-2.285-1.025-2.285-2.287c0-1.267,1.024-2.287,2.285-2.287h4.45l-7.905-7.904c1.317-0.811,2.425-1.916,3.234-3.23
	l7.909,7.905v-4.454c0-1.264,1.023-2.287,2.283-2.287c1.264,0,2.286,1.024,2.286,2.287L323.486,410.013L323.486,410.013z
	 M323.486,370.595c0,0.002,0,0.006,0,0.008v9.964c0,1.264-1.023,2.287-2.286,2.287c-1.261,0-2.283-1.025-2.283-2.287v-4.45
	l-7.907,7.903c-0.809-1.314-1.917-2.424-3.232-3.23l7.909-7.907h-4.458c-1.262,0-2.285-1.024-2.285-2.286
	c0-1.261,1.025-2.285,2.285-2.285h12.259L323.486,370.595L323.486,370.595z"/>
<g>
	<path fill="#FFFFFF" d="M43.2,438.861c-20.267,0-36.692,16.43-36.692,36.696c0,20.261,16.425,36.691,36.692,36.691
		c20.267,0,36.693-16.431,36.693-36.691C79.896,455.292,63.467,438.861,43.2,438.861z M41.604,493.904
		c-1.159,1.158-2.672,1.734-4.187,1.734c-1.516,0-3.03-0.576-4.184-1.734c-2.312-2.312-2.312-6.062,0-8.372l9.971-9.971
		L33.11,465.465c-2.312-2.312-2.312-6.064,0-8.374c2.313-2.31,6.061-2.31,8.373,0l18.464,18.471L41.604,493.904z"/>
</g>
<g>
	<path fill="#F19520" d="M129.685,438.861c-20.267,0-36.692,16.43-36.692,36.696c0,20.261,16.426,36.691,36.692,36.691
		c20.267,0,36.694-16.431,36.694-36.691C166.379,455.292,149.952,438.861,129.685,438.861z M128.088,493.904
		c-1.159,1.158-2.672,1.734-4.188,1.734c-1.514,0-3.029-0.576-4.184-1.734c-2.315-2.312-2.315-6.062,0-8.372l9.971-9.971
		l-10.093-10.097c-2.315-2.312-2.315-6.064,0-8.374c2.312-2.31,6.059-2.31,8.373,0l18.463,18.471L128.088,493.904z"/>
</g>
<g>
	<path fill="#221F1F" d="M216.103,438.861c-20.266,0-36.69,16.43-36.69,36.696c0,20.261,16.425,36.691,36.69,36.691
		c20.27,0,36.691-16.431,36.691-36.691C252.794,455.292,236.372,438.861,216.103,438.861z M214.507,493.904
		c-1.16,1.158-2.672,1.734-4.188,1.734s-3.03-0.576-4.184-1.734c-2.309-2.312-2.309-6.062,0-8.372l9.971-9.971l-10.092-10.097
		c-2.313-2.312-2.313-6.064,0-8.374c2.314-2.31,6.062-2.31,8.373,0l18.464,18.468L214.507,493.904z"/>
</g>
<path fill="#41A648" d="M302.635,438.861c-20.267,0-36.69,16.43-36.69,36.696c0,20.261,16.426,36.691,36.69,36.691
	c20.27,0,36.691-16.431,36.691-36.691C339.326,455.292,322.904,438.861,302.635,438.861z M301.039,493.904
	c-1.16,1.158-2.675,1.734-4.188,1.734c-1.516,0-3.029-0.576-4.183-1.734c-2.312-2.312-2.312-6.062,0-8.372l9.971-9.971
	l-10.095-10.097c-2.309-2.312-2.309-6.064,0-8.374c2.316-2.31,6.065-2.31,8.373,0l18.467,18.468L301.039,493.904z"/>
<g>
	<path fill="#FFFFFF" d="M27.762,571.512v4.782c0.002,0.634,0.515,1.146,1.146,1.146h4.783c0.044,0,0.085-0.021,0.125-0.025
		l-6.027-6.03C27.782,571.428,27.762,571.467,27.762,571.512z"/>
	<g>
		<path fill="#FFFFFF" d="M43.2,525.258c-20.267,0-36.692,16.426-36.692,36.692c0,20.266,16.425,36.692,36.692,36.692
			c20.266,0,36.693-16.427,36.693-36.692C79.895,541.688,63.466,525.258,43.2,525.258z M36.157,578.239
			c-0.3,0.437-0.8,0.724-1.371,0.724l-6.924,0.004c-0.915-0.004-1.657-0.747-1.657-1.662v-6.923c0-0.497,0.221-0.936,0.566-1.243
			c0.043-0.049,0.074-0.103,0.124-0.155l19.814-19.812l9.259,9.258L36.157,578.239z M59.437,554.957l-1.772,1.77l-9.256-9.257
			l1.772-1.771c1.013-1.011,2.651-1.011,3.666,0l5.589,5.59C60.45,552.303,60.45,553.945,59.437,554.957z"/>
	</g>
</g>
<g>
	<path fill="#F19520" d="M114.191,571.512v4.782c0.002,0.634,0.516,1.146,1.146,1.146h4.783c0.044,0,0.084-0.021,0.124-0.025
		l-6.028-6.03C114.212,571.428,114.191,571.467,114.191,571.512z"/>
	<g>
		<path fill="#F19520" d="M129.685,525.258c-20.267,0-36.692,16.426-36.692,36.692c0,20.266,16.426,36.692,36.692,36.692
			c20.267,0,36.694-16.427,36.694-36.692C166.379,541.688,149.952,525.258,129.685,525.258z M122.643,578.239
			c-0.3,0.437-0.801,0.724-1.373,0.724l-6.924,0.004c-0.913-0.004-1.657-0.747-1.657-1.662v-6.923c0-0.497,0.222-0.936,0.566-1.243
			c0.044-0.049,0.074-0.103,0.125-0.155l19.813-19.812l9.26,9.258L122.643,578.239z M145.925,554.957l-1.773,1.77l-9.257-9.257
			l1.774-1.771c1.013-1.011,2.651-1.011,3.665,0l5.592,5.59C146.937,552.303,146.937,553.945,145.925,554.957z"/>
	</g>
</g>
<g>
	<path fill="#221F1F" d="M200.618,571.474v4.783c0.002,0.633,0.514,1.145,1.145,1.145h4.783c0.044,0,0.084-0.021,0.125-0.025
		l-6.029-6.029C200.634,571.392,200.618,571.432,200.618,571.474z"/>
	<g>
		<path fill="#221F1F" d="M216.103,525.258c-20.266,0-36.69,16.426-36.69,36.692c0,20.266,16.425,36.692,36.69,36.692
			c20.27,0,36.691-16.427,36.691-36.692C252.794,541.688,236.372,525.258,216.103,525.258z M209.061,578.239
			c-0.298,0.437-0.797,0.724-1.369,0.724l-6.925,0.004c-0.918-0.004-1.656-0.747-1.656-1.662v-6.923
			c0-0.497,0.221-0.936,0.566-1.243c0.041-0.049,0.074-0.103,0.125-0.155l19.814-19.812l9.258,9.258L209.061,578.239z
			 M232.342,554.957l-1.774,1.77l-9.258-9.257l1.775-1.771c1.012-1.011,2.652-1.011,3.668,0l5.589,5.59
			C233.354,552.303,233.354,553.945,232.342,554.957z"/>
	</g>
</g>
<g>
	<path fill="#41A648" d="M287.165,571.474v4.783c0.002,0.633,0.514,1.145,1.146,1.145h4.781c0.046,0,0.086-0.021,0.126-0.025
		l-6.03-6.029C287.181,571.392,287.165,571.432,287.165,571.474z"/>
	<g>
		<path fill="#41A648" d="M302.635,525.258c-20.267,0-36.69,16.426-36.69,36.692c0,20.266,16.426,36.692,36.69,36.692
			c20.27,0,36.691-16.427,36.691-36.692C339.326,541.688,322.904,525.258,302.635,525.258z M295.593,578.239
			c-0.298,0.437-0.8,0.724-1.369,0.724l-6.926,0.004c-0.916-0.004-1.656-0.747-1.656-1.662v-6.923c0-0.497,0.22-0.936,0.566-1.243
			c0.043-0.049,0.076-0.103,0.127-0.155l19.813-19.812l9.259,9.258L295.593,578.239z M318.875,554.957l-1.773,1.77l-9.259-9.257
			l1.772-1.771c1.013-1.011,2.653-1.011,3.669,0l5.591,5.59C319.887,552.303,319.887,553.945,318.875,554.957z"/>
	</g>
</g>
<g>
	<g>
		<circle fill="#FFFFFF" cx="43.08" cy="646.752" r="2.102"/>
		<g>
			<path fill="#FFFFFF" d="M31.562,654.416c-0.842,0-1.641,0.272-2.303,0.771c-0.149,0.11-0.29,0.226-0.42,0.357
				c-1.501,1.502-1.501,3.946,0,5.444c0.727,0.731,1.694,1.127,2.723,1.127s1.996-0.398,2.725-1.127
				c0.132-0.13,0.25-0.274,0.356-0.417c1.125-1.511,1.012-3.658-0.356-5.027C33.561,654.817,32.592,654.416,31.562,654.416z"/>
			<path fill="#FFFFFF" d="M56.921,655.282c-0.607-0.387-1.316-0.6-2.055-0.6c-1.027,0-1.997,0.402-2.723,1.128
				c-1.296,1.298-1.47,3.288-0.532,4.777c0.15,0.236,0.327,0.463,0.532,0.67c0.727,0.725,1.696,1.127,2.723,1.127
				c1.029,0,1.997-0.402,2.726-1.127c1.5-1.504,1.5-3.947,0-5.447C57.383,655.611,57.158,655.436,56.921,655.282z"/>
			<path fill="#FFFFFF" d="M43.2,611.657c-20.267,0-36.692,16.427-36.692,36.692c0,20.267,16.425,36.69,36.692,36.69
				c20.266,0,36.695-16.425,36.695-36.69C79.895,628.085,63.466,611.657,43.2,611.657z M26.471,630.155
				c1.775-1.774,4.652-1.774,6.429,0l8.179,8.18l-6.429,6.429l-8.177-8.18C24.696,634.812,24.696,631.934,26.471,630.155z
				 M61.592,665.277c-1.8,1.804-4.195,2.79-6.743,2.79c-2.546,0-4.94-0.987-6.742-2.79c-2.555-2.554-3.352-6.21-2.396-9.45
				l-2.647-2.646l-2.377,2.378c0.957,3.244,0.155,6.896-2.397,9.45c-1.8,1.8-4.196,2.791-6.742,2.791
				c-2.545,0-4.939-0.991-6.74-2.791c-3.719-3.716-3.719-9.765,0-13.48c1.8-1.802,4.195-2.791,6.74-2.791
				c0.931,0,1.843,0.134,2.714,0.39l2.375-2.375l1.198-1.196l15.591-15.592c1.775-1.773,4.654-1.773,6.43,0
				c1.775,1.775,1.775,4.652,0,6.429l-10.363,10.359l2.644,2.643c0.87-0.257,1.781-0.39,2.713-0.39c2.546,0,4.941,0.991,6.742,2.791
				C65.309,655.512,65.309,661.562,61.592,665.277z"/>
		</g>
	</g>
</g>
<g>
	<g>
		<circle fill="#F19520" cx="129.551" cy="646.752" r="2.102"/>
		<g>
			<path fill="#F19520" d="M118.033,654.416c-0.842,0-1.641,0.272-2.303,0.771c-0.147,0.11-0.289,0.226-0.421,0.357
				c-1.5,1.502-1.5,3.946,0,5.444c0.729,0.731,1.696,1.127,2.724,1.127c1.027,0,1.997-0.398,2.723-1.127
				c0.132-0.13,0.251-0.274,0.359-0.417c1.127-1.511,1.01-3.658-0.359-5.027C120.029,654.817,119.061,654.416,118.033,654.416z"/>
			<path fill="#F19520" d="M143.392,655.282c-0.611-0.387-1.316-0.6-2.057-0.6c-1.027,0-1.996,0.402-2.723,1.128
				c-1.294,1.298-1.47,3.288-0.531,4.777c0.15,0.236,0.326,0.463,0.531,0.67c0.729,0.725,1.696,1.127,2.723,1.127
				c1.028,0,1.998-0.402,2.724-1.127c1.502-1.504,1.502-3.947,0-5.447C143.854,655.611,143.628,655.436,143.392,655.282z"/>
			<path fill="#F19520" d="M129.685,611.657c-20.267,0-36.692,16.427-36.692,36.692c0,20.267,16.426,36.69,36.692,36.69
				c20.267,0,36.694-16.425,36.694-36.69C166.379,628.085,149.952,611.657,129.685,611.657z M112.954,630.155
				c1.773-1.774,4.654-1.774,6.43,0l8.178,8.18l-6.428,6.429l-8.178-8.18C111.178,634.812,111.178,631.934,112.954,630.155z
				 M148.075,665.277c-1.8,1.804-4.196,2.79-6.742,2.79c-2.545,0-4.94-0.987-6.742-2.79c-2.553-2.554-3.354-6.21-2.396-9.45
				l-2.646-2.646l-2.378,2.378c0.955,3.244,0.156,6.896-2.398,9.45c-1.8,1.8-4.196,2.791-6.743,2.791s-4.939-0.991-6.74-2.791
				c-3.716-3.716-3.716-9.765,0-13.48c1.8-1.802,4.195-2.791,6.74-2.791c0.934,0,1.843,0.134,2.714,0.39l2.375-2.375l1.199-1.196
				l15.593-15.592c1.775-1.773,4.652-1.773,6.428,0c1.774,1.775,1.774,4.652,0,6.429l-10.362,10.359l2.643,2.643
				c0.869-0.257,1.781-0.39,2.712-0.39c2.546,0,4.94,0.991,6.743,2.791C151.794,655.512,151.794,661.562,148.075,665.277z"/>
		</g>
	</g>
</g>
<g>
	<g>
		<circle fill="#221F1F" cx="215.97" cy="646.752" r="2.102"/>
		<path fill="#221F1F" d="M204.45,654.416c-0.842,0-1.64,0.272-2.301,0.771c-0.148,0.11-0.289,0.226-0.422,0.357
			c-1.502,1.502-1.502,3.946,0,5.444c0.727,0.731,1.695,1.127,2.723,1.127c1.029,0,1.998-0.398,2.724-1.127
			c0.136-0.13,0.251-0.274,0.361-0.417c1.126-1.511,1.009-3.658-0.361-5.027C206.448,654.817,205.479,654.416,204.45,654.416z"/>
		<path fill="#221F1F" d="M229.812,655.282c-0.607-0.387-1.316-0.6-2.059-0.6c-1.026,0-1.994,0.402-2.723,1.128
			c-1.297,1.298-1.473,3.288-0.531,4.777c0.15,0.236,0.326,0.463,0.531,0.67c0.727,0.725,1.695,1.127,2.723,1.127
			c1.031,0,1.998-0.402,2.725-1.127c1.503-1.504,1.503-3.947,0-5.447C230.277,655.611,230.048,655.436,229.812,655.282z"/>
		<path fill="#221F1F" d="M216.103,611.657c-20.266,0-36.69,16.427-36.69,36.692c0,20.267,16.425,36.69,36.69,36.69
			c20.27,0,36.691-16.425,36.691-36.69C252.794,628.085,236.372,611.657,216.103,611.657z M199.374,630.155
			c1.772-1.774,4.652-1.774,6.431,0l8.179,8.18l-6.43,6.429l-8.18-8.18C197.599,634.812,197.599,631.934,199.374,630.155z
			 M234.493,665.277c-1.8,1.804-4.193,2.79-6.744,2.79c-2.543,0-4.94-0.987-6.74-2.79c-2.555-2.554-3.351-6.21-2.397-9.45
			l-2.644-2.646l-2.379,2.378c0.957,3.244,0.152,6.896-2.397,9.45c-1.8,1.8-4.194,2.791-6.743,2.791
			c-2.547,0-4.939-0.991-6.74-2.791c-3.717-3.716-3.717-9.765,0-13.48c1.798-1.802,4.193-2.791,6.74-2.791
			c0.932,0,1.844,0.134,2.715,0.39l2.375-2.375l1.199-1.196l15.592-15.592c1.773-1.773,4.652-1.773,6.426,0
			c1.774,1.775,1.774,4.652,0,6.429l-10.357,10.359l2.641,2.643c0.871-0.257,1.779-0.39,2.713-0.39c2.549,0,4.943,0.991,6.743,2.791
			C238.214,655.512,238.214,661.562,234.493,665.277z"/>
	</g>
</g>
<g>
	<circle fill="#41A648" cx="302.5" cy="646.752" r="2.102"/>
	<path fill="#41A648" d="M290.981,654.416c-0.844,0-1.643,0.272-2.3,0.771c-0.149,0.11-0.289,0.226-0.425,0.357
		c-1.498,1.502-1.498,3.946,0,5.444c0.73,0.731,1.697,1.127,2.725,1.127c1.03,0,1.998-0.398,2.725-1.127
		c0.136-0.13,0.25-0.274,0.361-0.417c1.124-1.511,1.009-3.658-0.361-5.027C292.979,654.817,292.013,654.416,290.981,654.416z"/>
	<path fill="#41A648" d="M316.342,655.282c-0.608-0.387-1.314-0.6-2.057-0.6c-1.026,0-1.995,0.402-2.724,1.128
		c-1.296,1.298-1.472,3.288-0.531,4.777c0.15,0.236,0.326,0.463,0.531,0.67c0.728,0.725,1.696,1.127,2.724,1.127
		c1.029,0,1.998-0.402,2.723-1.127c1.506-1.504,1.506-3.947,0-5.447C316.81,655.611,316.58,655.436,316.342,655.282z"/>
	<path fill="#41A648" d="M302.635,611.657c-20.267,0-36.69,16.427-36.69,36.692c0,20.267,16.426,36.69,36.69,36.69
		c20.27,0,36.691-16.425,36.691-36.69C339.326,628.085,322.904,611.657,302.635,611.657z M285.903,630.155
		c1.775-1.774,4.652-1.774,6.43,0l8.178,8.18l-6.426,6.429l-8.182-8.18C284.129,634.812,284.129,631.934,285.903,630.155z
		 M321.025,665.277c-1.8,1.804-4.194,2.79-6.744,2.79c-2.547,0-4.94-0.987-6.74-2.79c-2.555-2.554-3.354-6.21-2.397-9.45
		l-2.647-2.646l-2.375,2.378c0.955,3.244,0.153,6.896-2.397,9.45c-1.803,1.8-4.195,2.791-6.742,2.791
		c-2.549,0-4.941-0.991-6.741-2.791c-3.718-3.716-3.718-9.765,0-13.48c1.798-1.802,4.192-2.791,6.741-2.791
		c0.931,0,1.843,0.134,2.714,0.39l2.372-2.375l1.201-1.196l15.59-15.592c1.775-1.773,4.654-1.773,6.428,0
		c1.775,1.775,1.775,4.652,0,6.429l-10.359,10.359l2.644,2.643c0.871-0.257,1.778-0.39,2.712-0.39c2.55,0,4.944,0.991,6.744,2.791
		C324.746,655.512,324.746,661.562,321.025,665.277z"/>
</g>
</svg>
