<?xml version="1.0" encoding="utf-8"?>
<!-- Generator: Adobe Illustrator 15.1.0, SVG Export Plug-In . SVG Version: 6.00 Build 0)  -->
<!DOCTYPE svg PUBLIC "-//W3C//DTD SVG 1.1//EN" "http://www.w3.org/Graphics/SVG/1.1/DTD/svg11.dtd">
<svg version="1.1" id="Layer_1" xmlns="http://www.w3.org/2000/svg" xmlns:xlink="http://www.w3.org/1999/xlink" x="0px" y="0px"
	 width="12em" height="6em" viewBox="0 0 120 60" enable-background="new 0 0 120 60" xml:space="preserve">
<path fill="#FFFFFF" d="M74.743,19.587l-5.582,9.679L71.952,35l8.601,9.049l7.146,4.352l6.254-4.352c0,0,5.81-3.689,6.479-4.584
	c0.67-0.893,8.041-9.185,8.041-9.185s1.34-6.672,1.562-7.344c0.226-0.669-2.68-6.7-2.68-6.7l-12.283-2.457l-7.595,3.581
	L74.743,19.587z"/>
<path fill="#41A648" d="M90.001,4.397c-14.141,0-25.605,11.462-25.605,25.604c0,14.139,11.465,25.604,25.605,25.604
	c14.139,0,25.604-11.465,25.604-25.604C115.604,15.859,104.14,4.397,90.001,4.397z M105.014,25.657L86.657,44.014l-11.977-11.98
	c-1.661-1.659-1.661-4.35,0-6.013c1.658-1.659,4.35-1.659,6.01,0.003l5.969,5.967l12.344-12.343c1.66-1.662,4.352-1.662,6.012,0
	C106.675,21.306,106.675,23.997,105.014,25.657z"/>
<path fill="#FFFFFF" d="M30.001,4.397c-14.141,0-25.605,11.462-25.605,25.604c0,14.139,11.465,25.604,25.605,25.604
	c14.139,0,25.603-11.465,25.603-25.604C55.604,15.859,44.14,4.397,30.001,4.397z M45.014,25.657L26.658,44.014l-11.977-11.98
	c-1.661-1.659-1.661-4.35,0-6.013c1.658-1.659,4.35-1.659,6.01,0.003l5.968,5.967l12.344-12.343c1.66-1.662,4.351-1.662,6.012,0
	C46.675,21.306,46.675,23.997,45.014,25.657z"/>
</svg>
